<?xml version="1.0" encoding="UTF-8"?>
<svg width="21px" height="21px" viewBox="0 0 21 21" version="1.1" xmlns="http://www.w3.org/2000/svg" xmlns:xlink="http://www.w3.org/1999/xlink">
    <!-- Generator: Sketch 52.2 (67145) - http://www.bohemiancoding.com/sketch -->
    <title>American_Express_logo_(2018)</title>
    <desc>Created with Sketch.</desc>
    <g id="Page-1" stroke="none" stroke-width="1" fill="none" fill-rule="evenodd">
        <g id="Desktop" transform="translate(-493.000000, -764.000000)">
            <g id="Logos" transform="translate(409.000000, 761.000000)">
                <g id="American_Express_logo_(2018)" transform="translate(84.000000, 3.000000)">
                    <polygon id="path3078" fill="#016FD0" points="0.0209580838 0.0210252252 20.9269988 0.0210252252 20.9269988 11.3406201 19.892206 12.9623393 20.9269988 14.40567 20.9269988 20.9898468 0.0209580838 20.9898468 0.0209580838 10.3189375 0.667703362 9.57294775 0.0209580838 8.85939129"></polygon>
                    <path d="M4.07928458,14.6327096 L4.07928458,11.3406201 L7.5545597,11.3406201 L7.9274191,11.828148 L8.31260793,11.3406201 L20.9269988,11.3406201 L20.9269988,14.40567 C20.9269988,14.40567 20.5971102,14.6294177 20.2155787,14.6327096 L13.2307302,14.6327096 L12.8103458,14.1137595 L12.8103458,14.6327096 L11.4327783,14.6327096 L11.4327783,13.7468459 C11.4327783,13.7468459 11.2446005,13.8705021 10.8377728,13.8705021 L10.3688825,13.8705021 L10.3688825,14.6327096 L8.28312892,14.6327096 L7.91080228,14.1347258 L7.53275889,14.6327096 L4.07928458,14.6327096 Z" id="path3082" fill="#FFFFFF"></path>
                    <path d="M0.0209580838,8.85939129 L0.804646332,7.02685015 L2.15995332,7.02685015 L2.60470545,8.05336547 L2.60470545,7.02685015 L4.28947698,7.02685015 L4.55423814,7.76878498 L4.81091515,7.02685015 L12.3737927,7.02685015 L12.3737927,7.39984505 C12.3737927,7.39984505 12.7713665,7.02685015 13.4247538,7.02685015 L15.8786309,7.03545195 L16.3157052,8.04853273 L16.3157052,7.02685015 L17.7256098,7.02685015 L18.1136571,7.60878348 L18.1136571,7.02685015 L19.5364966,7.02685015 L19.5364966,10.3189375 L18.1136571,10.3189375 L17.7417785,9.73511862 L17.7417785,10.3189375 L15.6703161,10.3189375 L15.4620013,9.79998739 L14.9051224,9.79998739 L14.7001983,10.3189375 L13.2954047,10.3189375 C12.7331855,10.3189375 12.3737927,9.95355856 12.3737927,9.95355856 L12.3737927,10.3189375 L10.2557021,10.3189375 L9.83531751,9.79998739 L9.83531751,10.3189375 L1.95917278,10.3189375 L1.75100159,9.79998739 L1.19589844,9.79998739 L0.989198503,10.3189375 L0.0209580838,10.3189375 L0.0209580838,8.85939129 Z" id="path3080" fill="#FFFFFF"></path>
                    <path d="M1.08202458,7.43269459 L0.0250002485,9.89770571 L0.713177626,9.89770571 L0.908211751,9.4040985 L2.04203707,9.4040985 L2.23606072,9.89770571 L2.9393962,9.89770571 L1.88338228,7.43269459 L1.08202458,7.43269459 Z M1.47310326,8.00637718 L1.81870793,8.86893063 L1.1264882,8.86893063 L1.47310326,8.00637718 Z" id="path3046" fill="#016FD0" fill-rule="nonzero"></path>
                    <polygon id="path3048" fill="#016FD0" points="3.01215491 9.89729159 3.01215491 7.43227838 3.99009326 7.43592132 4.55889545 9.02520511 5.11407719 7.43227838 6.08419503 7.43227838 6.08419503 9.89729159 5.46978701 9.89729159 5.46978701 8.08096607 4.81850156 9.89729159 4.2796644 9.89729159 3.62656293 8.08096607 3.62656293 9.89729159"></polygon>
                    <polygon id="path3050" fill="#016FD0" points="6.5045794 9.89729159 6.5045794 7.43227838 8.50948985 7.43227838 8.50948985 7.98366396 7.12545488 7.98366396 7.12545488 8.40530991 8.47715257 8.40530991 8.47715257 8.92426006 7.12545488 8.92426006 7.12545488 9.36212372 8.50948985 9.36212372 8.50948985 9.89729159"></polygon>
                    <path d="M8.86519967,7.43269459 L8.86519967,9.89770571 L9.47960769,9.89770571 L9.47960769,9.02197838 L9.73830569,9.02197838 L10.474989,9.89770571 L11.2258199,9.89770571 L10.4173883,8.98954505 C10.7491736,8.96146306 11.0914181,8.67584204 11.0914181,8.23240571 C11.0914181,7.71368048 10.6854962,7.43269459 10.2324596,7.43269459 L8.86519967,7.43269459 Z M9.47960769,7.98407808 L10.1819326,7.98407808 C10.3504106,7.98407808 10.4729681,8.11626246 10.4729681,8.24355315 C10.4729681,8.40731742 10.3141743,8.50302823 10.1910275,8.50302823 L9.47960769,8.50302823 L9.47960769,7.98407808 Z" id="path3052" fill="#016FD0" fill-rule="nonzero"></path>
                    <polygon id="path3054" fill="#016FD0" points="11.9695771 9.89729159 11.3422341 9.89729159 11.3422341 7.43227838 11.9695771 7.43227838"></polygon>
                    <path d="M13.4570911,9.89729159 L13.3216788,9.89729159 C12.6664931,9.89729159 12.2686967,9.37956066 12.2686967,8.67492132 C12.2686967,7.95287447 12.6620393,7.43227838 13.4894284,7.43227838 L14.168511,7.43227838 L14.168511,8.0160973 L13.4646008,8.0160973 C13.1287266,8.0160973 12.8911889,8.2790009 12.8911889,8.6810027 C12.8911889,9.15838168 13.1628029,9.35888018 13.5541029,9.35888018 L13.7157891,9.35888018 L13.4570911,9.89729159 Z" id="path3056" fill="#016FD0"></path>
                    <path d="M14.7940347,7.43269459 L13.7370106,9.89770571 L14.425188,9.89770571 L14.620222,9.4040985 L15.7540474,9.4040985 L15.9480709,9.89770571 L16.6514063,9.89770571 L15.5953926,7.43269459 L14.7940347,7.43269459 Z M15.1851136,8.00637718 L15.5307181,8.86893063 L14.8384986,8.86893063 L15.1851136,8.00637718 Z" id="path3058" fill="#016FD0" fill-rule="nonzero"></path>
                    <polygon id="path3060" fill="#016FD0" points="16.7231547 9.89729159 16.7231547 7.43227838 17.5043016 7.43227838 18.5017042 8.98102102 18.5017042 7.43227838 19.1161122 7.43227838 19.1161122 9.89729159 18.3602287 9.89729159 17.3375627 8.30800781 17.3375627 9.89729159"></polygon>
                    <polygon id="path3062" fill="#016FD0" points="4.49966916 14.2110637 4.49966916 11.7460505 6.5045794 11.7460505 6.5045794 12.297436 5.12054464 12.297436 5.12054464 12.719082 6.47224213 12.719082 6.47224213 13.2380321 5.12054464 13.2380321 5.12054464 13.6758958 6.5045794 13.6758958 6.5045794 14.2110637"></polygon>
                    <polygon id="path3064" fill="#016FD0" points="14.3237297 14.2110637 14.3237297 11.7460505 16.3286401 11.7460505 16.3286401 12.297436 14.9446051 12.297436 14.9446051 12.719082 16.2898354 12.719082 16.2898354 13.2380321 14.9446051 13.2380321 14.9446051 13.6758958 16.3286401 13.6758958 16.3286401 14.2110637"></polygon>
                    <polygon id="path3066" fill="#016FD0" points="6.5823909 14.2110637 7.55857213 12.9937595 6.55914859 11.7460505 7.3332218 11.7460505 7.92842949 12.517379 8.52565838 11.7460505 9.26941551 11.7460505 8.28312892 12.9785571 9.2611071 14.2110637 8.48715629 14.2110637 7.90922937 13.4518937 7.34534835 14.2110637"></polygon>
                    <path d="M9.33409006,11.7464667 L9.33409006,14.2114778 L9.96466662,14.2114778 L9.96466662,13.4330526 L10.6114119,13.4330526 C11.1586499,13.4330526 11.5734454,13.141861 11.5734454,12.5755694 C11.5734454,12.1064559 11.2481191,11.7464667 10.6912446,11.7464667 L9.33409006,11.7464667 Z M9.96466662,12.3039315 L10.6457702,12.3039315 C10.8225613,12.3039315 10.948932,12.4126123 10.948932,12.5877321 C10.948932,12.7522468 10.8231992,12.8715327 10.6437492,12.8715327 L9.96466662,12.8715327 L9.96466662,12.3039315 Z" id="path3068" fill="#016FD0" fill-rule="nonzero"></path>
                    <path d="M11.840228,11.7460505 L11.840228,14.2110637 L12.454636,14.2110637 L12.454636,13.3353342 L12.713334,13.3353342 L13.4500173,14.2110637 L14.2008482,14.2110637 L13.3924166,13.3029009 C13.7242017,13.2748147 14.0664463,12.9891979 14.0664463,12.5457595 C14.0664463,12.0270363 13.6605245,11.7460505 13.2074879,11.7460505 L11.840228,11.7460505 Z M12.454636,12.297436 L13.1569609,12.297436 C13.3254389,12.297436 13.4479961,12.4296183 13.4479961,12.556909 C13.4479961,12.7206754 13.2892024,12.8163841 13.1660556,12.8163841 L12.454636,12.8163841 L12.454636,12.297436 Z" id="path3072" fill="#016FD0" fill-rule="nonzero"></path>
                    <path d="M16.6132079,14.2110637 L16.6132079,13.6758958 L17.8428325,13.6758958 C18.0247728,13.6758958 18.1035517,13.577282 18.1035517,13.4691267 C18.1035517,13.3655015 18.0250212,13.2607369 17.8428325,13.2607369 L17.2871793,13.2607369 C16.8041853,13.2607369 16.5351944,12.9655829 16.5351944,12.5224492 C16.5351944,12.1272057 16.7815248,11.7460505 17.4992491,11.7460505 L18.6957278,11.7460505 L18.4370296,12.3006775 L17.4022372,12.3006775 C17.2044304,12.3006775 17.143539,12.4047862 17.143539,12.5042051 C17.143539,12.6063925 17.2187861,12.719082 17.3699,12.719082 L17.9519707,12.719082 C18.49039,12.719082 18.7240229,13.0254087 18.7240229,13.4265571 C18.7240229,13.8578306 18.4636791,14.2110637 17.92266,14.2110637 L16.6132079,14.2110637 Z" id="path3074" fill="#016FD0"></path>
                    <path d="M18.8682271,14.2110637 L18.8682271,13.6758958 L20.0978509,13.6758958 C20.2797922,13.6758958 20.3585716,13.577282 20.3585716,13.4691267 C20.3585716,13.3655015 20.2800395,13.2607369 20.0978509,13.2607369 L19.5421984,13.2607369 C19.0592045,13.2607369 18.7902134,12.9655829 18.7902134,12.5224492 C18.7902134,12.1272057 19.0365438,11.7460505 19.7542681,11.7460505 L20.9507464,11.7460505 L20.6920482,12.3006775 L19.6572562,12.3006775 C19.4594496,12.3006775 19.3985582,12.4047862 19.3985582,12.5042051 C19.3985582,12.6063925 19.4738051,12.719082 19.624919,12.719082 L20.2069901,12.719082 C20.7454096,12.719082 20.9790419,13.0254087 20.9790419,13.4265571 C20.9790419,13.8578306 20.7186985,14.2110637 20.1776781,14.2110637 L18.8682271,14.2110637 Z" id="path3076" fill="#016FD0"></path>
                </g>
            </g>
        </g>
    </g>
</svg>