<?xml version="1.0" encoding="UTF-8"?>
<svg width="129px" height="38px" viewBox="0 0 129 38" version="1.1" xmlns="http://www.w3.org/2000/svg" xmlns:xlink="http://www.w3.org/1999/xlink">
    <!-- Generator: Sketch 42 (36781) - http://www.bohemiancoding.com/sketch -->
    <title>Download_on_the_App_Store_Badge_US-UK_135x40</title>
    <desc>Created with Sketch.</desc>
    <defs></defs>
    <g id="Web" stroke="none" stroke-width="1" fill="none" fill-rule="evenodd">
        <g id="loyalty-receivedLoyalty" transform="translate(-702.000000, -567.000000)" fill-rule="nonzero">
            <g id="Card-01" transform="translate(420.000000, 50.000000)">
                <g id="Download-App" transform="translate(0.000000, 486.000000)">
                    <g id="Downlaod-App" transform="translate(282.000000, 31.000000)">
                        <g id="Download_on_the_App_Store_Badge_US-UK_135x40" transform="translate(0.125000, 0.000000)">
                            <g id="Group">
                                <path d="M123.68715,38 L4.49255,38 C2.0159,38 0,35.9784 0,33.50365 L0,4.4897 C0,2.014 2.0159,0 4.49255,0 L123.68715,0 C126.16285,0 128.25,2.014 128.25,4.4897 L128.25,33.50365 C128.25,35.9784 126.16285,38 123.68715,38 L123.68715,38 Z" id="Shape" fill="#A6A6A6"></path>
                                <path d="M127.3304,33.5046 C127.3304,35.5148 125.7021,37.1431 123.6881,37.1431 L4.49255,37.1431 C2.4795,37.1431 0.8455,35.5148 0.8455,33.5046 L0.8455,4.48875 C0.8455,2.4795 2.4795,0.8455 4.49255,0.8455 L123.68715,0.8455 C125.7021,0.8455 127.32945,2.4795 127.32945,4.48875 L127.3304,33.5046 L127.3304,33.5046 Z" id="Shape" fill="#000000"></path>
                                <g transform="translate(11.400000, 5.700000)" id="Shape" fill="#FFFFFF">
                                    <path d="M17.2216,13.0948 C17.19405,10.03295 19.72865,8.54335 19.84455,8.474 C18.4091,6.38115 16.1842,6.0952 15.40235,6.0724 C13.5337,5.87575 11.7211,7.19055 10.7692,7.19055 C9.7983,7.19055 8.33245,6.0914 6.7526,6.1237 C4.7196,6.15505 2.8177,7.3321 1.7746,9.1599 C-0.3781,12.88675 1.2274,18.3635 3.28985,21.37595 C4.32155,22.8513 5.5271,24.4986 7.10505,24.44065 C8.6488,24.377 9.22545,23.45645 11.0884,23.45645 C12.93425,23.45645 13.47575,24.44065 15.08505,24.4036 C16.74185,24.377 17.78495,22.9216 18.78055,21.43295 C19.9728,19.74195 20.4516,18.0766 20.4706,17.9911 C20.43165,17.9778 17.25295,16.76465 17.2216,13.0948 Z"></path>
                                    <path d="M14.1816,4.0907 C15.0119,3.05235 15.58,1.6397 15.4223,0.20615 C14.22055,0.25935 12.71765,1.0374 11.8522,2.05295 C11.0865,2.94785 10.4025,4.41465 10.5792,5.79405 C11.92915,5.89475 13.3152,5.1129 14.1816,4.0907 Z"></path>
                                </g>
                                <g transform="translate(39.900000, 17.100000)" id="Shape" fill="#FFFFFF">
                                    <path d="M11.06275,12.8288 L8.9053,12.8288 L7.7235,9.11525 L3.6157,9.11525 L2.48995,12.8288 L0.3895,12.8288 L4.4593,0.1862 L6.973,0.1862 L11.06275,12.8288 Z M7.36725,7.55725 L6.2985,4.256 C6.18545,3.91875 5.9736,3.12455 5.66105,1.87435 L5.62305,1.87435 C5.4986,2.41205 5.29815,3.20625 5.02265,4.256 L3.9729,7.55725 L7.36725,7.55725 L7.36725,7.55725 Z"></path>
                                    <path d="M21.5289,8.1586 C21.5289,9.709 21.10995,10.9345 20.27205,11.83415 C19.52155,12.635 18.5896,13.03495 17.47715,13.03495 C16.27635,13.03495 15.41375,12.60365 14.8884,11.74105 L14.8504,11.74105 L14.8504,16.5433 L12.825,16.5433 L12.825,6.71365 C12.825,5.73895 12.79935,4.7386 12.74995,3.7126 L14.5312,3.7126 L14.64425,5.15755 L14.68225,5.15755 C15.3577,4.06885 16.38275,3.52545 17.75835,3.52545 C18.83375,3.52545 19.7315,3.9501 20.4497,4.80035 C21.1698,5.65155 21.5289,6.77065 21.5289,8.1586 Z M19.4655,8.2327 C19.4655,7.3454 19.266,6.6139 18.8651,6.0382 C18.42715,5.4378 17.8391,5.1376 17.1019,5.1376 C16.6022,5.1376 16.1481,5.3048 15.74245,5.63445 C15.33585,5.96695 15.06985,6.4011 14.9454,6.9388 C14.8827,7.1896 14.85135,7.3948 14.85135,7.5563 L14.85135,9.0763 C14.85135,9.7394 15.05465,10.29895 15.46125,10.7559 C15.86785,11.21285 16.39605,11.44085 17.04585,11.44085 C17.8087,11.44085 18.40245,11.14635 18.8271,10.55925 C19.2527,9.9712 19.4655,9.196 19.4655,8.2327 Z"></path>
                                    <path d="M32.01405,8.1586 C32.01405,9.709 31.5951,10.9345 30.75625,11.83415 C30.0067,12.635 29.07475,13.03495 27.9623,13.03495 C26.7615,13.03495 25.8989,12.60365 25.3745,11.74105 L25.3365,11.74105 L25.3365,16.5433 L23.3111,16.5433 L23.3111,6.71365 C23.3111,5.73895 23.28545,4.7386 23.23605,3.7126 L25.0173,3.7126 L25.13035,5.15755 L25.16835,5.15755 C25.84285,4.06885 26.8679,3.52545 28.24445,3.52545 C29.3189,3.52545 30.21665,3.9501 30.93675,4.80035 C31.654,5.65155 32.01405,6.77065 32.01405,8.1586 Z M29.95065,8.2327 C29.95065,7.3454 29.7502,6.6139 29.3493,6.0382 C28.91135,5.4378 28.3252,5.1376 27.58705,5.1376 C27.0864,5.1376 26.63325,5.3048 26.22665,5.63445 C25.82005,5.96695 25.555,6.4011 25.43055,6.9388 C25.3688,7.1896 25.3365,7.3948 25.3365,7.5563 L25.3365,9.0763 C25.3365,9.7394 25.5398,10.29895 25.9445,10.7559 C26.3511,11.2119 26.8793,11.44085 27.531,11.44085 C28.29385,11.44085 28.8876,11.14635 29.31225,10.55925 C29.73785,9.9712 29.95065,9.196 29.95065,8.2327 Z"></path>
                                    <path d="M43.73705,9.2834 C43.73705,10.3588 43.3637,11.23375 42.61415,11.9092 C41.7905,12.64735 40.64385,13.01595 39.1704,13.01595 C37.81,13.01595 36.7194,12.75375 35.89385,12.2284 L36.36315,10.54025 C37.25235,11.07795 38.228,11.34775 39.29105,11.34775 C40.0539,11.34775 40.64765,11.17485 41.0742,10.83095 C41.49885,10.48705 41.7107,10.02535 41.7107,9.44965 C41.7107,8.93665 41.5359,8.5044 41.18535,8.15385 C40.8367,7.8033 40.25435,7.47745 39.44115,7.1763 C37.22765,6.35075 36.12185,5.1414 36.12185,3.5511 C36.12185,2.5118 36.50945,1.65965 37.2856,0.99655 C38.0589,0.3325 39.0906,0.00095 40.3807,0.00095 C41.53115,0.00095 42.48685,0.2014 43.2497,0.60135 L42.74335,2.25245 C42.03085,1.86485 41.22525,1.67105 40.3237,1.67105 C39.6112,1.67105 39.0545,1.8468 38.6555,2.1964 C38.31825,2.50895 38.14915,2.8899 38.14915,3.34115 C38.14915,3.84085 38.342,4.2541 38.7296,4.579 C39.06685,4.8792 39.6796,5.2041 40.5688,5.55465 C41.65655,5.9926 42.4555,6.50465 42.96945,7.09175 C43.4815,7.67695 43.73705,8.4094 43.73705,9.2834 Z"></path>
                                    <path d="M50.4336,5.2326 L48.2011,5.2326 L48.2011,9.65865 C48.2011,10.7844 48.5944,11.3468 49.3829,11.3468 C49.74485,11.3468 50.04505,11.31545 50.28255,11.25275 L50.3386,12.7908 C49.9396,12.93995 49.41425,13.015 48.7635,13.015 C47.9636,13.015 47.3385,12.77085 46.88725,12.2835 C46.4379,11.7952 46.2118,10.9763 46.2118,9.82585 L46.2118,5.2307 L44.8818,5.2307 L44.8818,3.7107 L46.2118,3.7107 L46.2118,2.04155 L48.2011,1.44115 L48.2011,3.7107 L50.4336,3.7107 L50.4336,5.2326 Z"></path>
                                    <path d="M60.50645,8.19565 C60.50645,9.5969 60.10555,10.74735 59.30565,11.647 C58.4668,12.57325 57.3534,13.03495 55.96545,13.03495 C54.62785,13.03495 53.5629,12.5913 52.7687,11.704 C51.9745,10.8167 51.5774,9.69665 51.5774,8.3467 C51.5774,6.93405 51.9859,5.77695 52.80575,4.8773 C53.6237,3.9767 54.7276,3.5264 56.11555,3.5264 C57.45315,3.5264 58.5295,3.97005 59.34175,4.8583 C60.11885,5.71995 60.50645,6.8324 60.50645,8.19565 Z M58.40505,8.2612 C58.40505,7.42045 58.2255,6.6994 57.86165,6.09805 C57.437,5.37035 56.82995,5.00745 56.04335,5.00745 C55.2292,5.00745 54.61075,5.3713 54.1861,6.09805 C53.82225,6.70035 53.6427,7.4328 53.6427,8.2992 C53.6427,9.13995 53.82225,9.861 54.1861,10.4614 C54.62405,11.1891 55.23585,11.552 56.0253,11.552 C56.7986,11.552 57.40565,11.1815 57.8436,10.4424 C58.21695,9.82965 58.40505,9.101 58.40505,8.2612 Z"></path>
                                    <path d="M67.08995,5.49385 C66.8895,5.4568 66.67575,5.4378 66.45155,5.4378 C65.73905,5.4378 65.18805,5.70665 64.80045,6.2453 C64.4632,6.7203 64.2941,7.3207 64.2941,8.04555 L64.2941,12.8288 L62.26965,12.8288 L62.28865,6.5835 C62.28865,5.5328 62.263,4.57615 62.21265,3.71355 L63.9768,3.71355 L64.0509,5.45775 L64.10695,5.45775 C64.3207,4.8583 64.65795,4.3757 65.11965,4.01375 C65.5709,3.6879 66.05825,3.52545 66.5836,3.52545 C66.77075,3.52545 66.93985,3.53875 67.08995,3.5625 L67.08995,5.49385 Z"></path>
                                    <path d="M76.1482,7.8394 C76.1482,8.2023 76.12445,8.5082 76.0741,8.75805 L69.9979,8.75805 C70.02165,9.65865 70.3152,10.3474 70.8795,10.8224 C71.39155,11.24705 72.0537,11.45985 72.8669,11.45985 C73.76655,11.45985 74.58735,11.3164 75.3255,11.02855 L75.6428,12.43455 C74.7802,12.81075 73.7618,12.9979 72.58665,12.9979 C71.17305,12.9979 70.06345,12.5818 69.25595,11.75055 C68.45035,10.9193 68.0466,9.80305 68.0466,8.40275 C68.0466,7.0281 68.42185,5.88335 69.1733,4.9704 C69.9599,3.9957 71.02295,3.50835 72.36055,3.50835 C73.6744,3.50835 74.66905,3.9957 75.3445,4.9704 C75.87935,5.74465 76.1482,6.70225 76.1482,7.8394 Z M74.21685,7.31405 C74.23015,6.71365 74.0981,6.19495 73.82355,5.757 C73.473,5.19365 72.93435,4.91245 72.2095,4.91245 C71.54735,4.91245 71.0087,5.187 70.59735,5.738 C70.2601,6.17595 70.05965,6.7013 69.9979,7.3131 L74.21685,7.3131 L74.21685,7.31405 Z"></path>
                                </g>
                                <g transform="translate(40.850000, 5.700000)" id="Shape" fill="#FFFFFF">
                                    <path d="M5.7475,3.80855 C5.7475,4.9267 5.41215,5.7684 4.7424,6.33365 C4.12205,6.8552 3.24045,7.11645 2.09855,7.11645 C1.53235,7.11645 1.04785,7.09175 0.6422,7.04235 L0.6422,0.9329 C1.17135,0.8474 1.74135,0.8037 2.35695,0.8037 C3.4447,0.8037 4.26455,1.04025 4.81745,1.51335 C5.43685,2.0482 5.7475,2.81295 5.7475,3.80855 Z M4.69775,3.8361 C4.69775,3.11125 4.50585,2.5555 4.12205,2.1679 C3.73825,1.78125 3.17775,1.58745 2.4396,1.58745 C2.1261,1.58745 1.85915,1.60835 1.6378,1.65205 L1.6378,6.2966 C1.76035,6.3156 1.98455,6.32415 2.3104,6.32415 C3.0723,6.32415 3.66035,6.1123 4.07455,5.6886 C4.48875,5.2649 4.69775,4.6474 4.69775,3.8361 Z"></path>
                                    <path d="M11.31355,4.78515 C11.31355,5.4739 11.1169,6.0382 10.7236,6.4809 C10.3113,6.93595 9.76505,7.163 9.08295,7.163 C8.42555,7.163 7.9021,6.94545 7.51165,6.50845 C7.12215,6.0724 6.9274,5.52235 6.9274,4.85925 C6.9274,4.16575 7.12785,3.5967 7.53065,3.15495 C7.93345,2.7132 8.47495,2.49185 9.15705,2.49185 C9.81445,2.49185 10.34265,2.7094 10.7426,3.14545 C11.1226,3.56915 11.31355,4.11635 11.31355,4.78515 Z M10.2809,4.81745 C10.2809,4.4042 10.1916,4.04985 10.01395,3.7544 C9.80495,3.3972 9.5076,3.2186 9.12095,3.2186 C8.721,3.2186 8.417,3.3972 8.208,3.7544 C8.0294,4.04985 7.94105,4.4099 7.94105,4.8355 C7.94105,5.24875 8.03035,5.6031 8.208,5.89855 C8.42365,6.25575 8.72385,6.43435 9.11145,6.43435 C9.49145,6.43435 9.78975,6.2529 10.00445,5.88905 C10.18875,5.5879 10.2809,5.2307 10.2809,4.81745 Z"></path>
                                    <path d="M18.77675,2.58305 L17.3755,7.06135 L16.4635,7.06135 L15.88305,5.1167 C15.7358,4.63125 15.6161,4.14865 15.523,3.66985 L15.50495,3.66985 C15.4185,4.16195 15.2988,4.6436 15.1449,5.1167 L14.52835,7.06135 L13.6059,7.06135 L12.28825,2.58305 L13.3114,2.58305 L13.81775,4.712 C13.9403,5.2155 14.041,5.69525 14.12175,6.14935 L14.1398,6.14935 C14.2139,5.77505 14.33645,5.29815 14.50935,4.7215 L15.1449,2.584 L15.9562,2.584 L16.56515,4.6759 C16.7124,5.18605 16.8321,5.6772 16.92425,6.1503 L16.9518,6.1503 C17.01925,5.68955 17.1209,5.1984 17.2558,4.6759 L17.7992,2.584 L18.77675,2.584 L18.77675,2.58305 Z"></path>
                                    <path d="M23.9381,7.06135 L22.9425,7.06135 L22.9425,4.49635 C22.9425,3.70595 22.6423,3.31075 22.04,3.31075 C21.74455,3.31075 21.5061,3.41905 21.32085,3.6366 C21.1375,3.85415 21.0444,4.11065 21.0444,4.4042 L21.0444,7.0604 L20.0488,7.0604 L20.0488,3.8627 C20.0488,3.4694 20.03645,3.04285 20.0127,2.58115 L20.88765,2.58115 L20.9342,3.2813 L20.96175,3.2813 C21.07765,3.06375 21.25055,2.8842 21.4776,2.74075 C21.7474,2.57355 22.0495,2.489 22.3801,2.489 C22.7981,2.489 23.1458,2.6239 23.42225,2.89465 C23.76615,3.2262 23.9381,3.72115 23.9381,4.37855 L23.9381,7.06135 L23.9381,7.06135 Z"></path>
                                    <polygon points="26.6836 7.06135 25.68895 7.06135 25.68895 0.5282 26.6836 0.5282"></polygon>
                                    <path d="M32.5451,4.78515 C32.5451,5.4739 32.34845,6.0382 31.95515,6.4809 C31.54285,6.93595 30.99565,7.163 30.3145,7.163 C29.65615,7.163 29.1327,6.94545 28.7432,6.50845 C28.3537,6.0724 28.15895,5.52235 28.15895,4.85925 C28.15895,4.16575 28.3594,3.5967 28.7622,3.15495 C29.165,2.7132 29.7065,2.49185 30.38765,2.49185 C31.046,2.49185 31.57325,2.7094 31.97415,3.14545 C32.35415,3.56915 32.5451,4.11635 32.5451,4.78515 Z M31.5115,4.81745 C31.5115,4.4042 31.4222,4.04985 31.24455,3.7544 C31.0365,3.3972 30.7382,3.2186 30.3525,3.2186 C29.9516,3.2186 29.6476,3.3972 29.43955,3.7544 C29.26095,4.04985 29.1726,4.4099 29.1726,4.8355 C29.1726,5.24875 29.2619,5.6031 29.43955,5.89855 C29.6552,6.25575 29.9554,6.43435 30.343,6.43435 C30.723,6.43435 31.02035,6.2529 31.23505,5.88905 C31.4203,5.5879 31.5115,5.2307 31.5115,4.81745 Z"></path>
                                    <path d="M37.3635,7.06135 L36.46955,7.06135 L36.39545,6.5455 L36.3679,6.5455 C36.062,6.95685 35.62595,7.163 35.05975,7.163 C34.637,7.163 34.295,7.02715 34.03755,6.75735 C33.80385,6.51225 33.687,6.2073 33.687,5.84535 C33.687,5.29815 33.915,4.8811 34.37385,4.5923 C34.83175,4.3035 35.47585,4.16195 36.3052,4.1686 L36.3052,4.085 C36.3052,3.49505 35.9955,3.20055 35.37515,3.20055 C34.9334,3.20055 34.5439,3.3117 34.2076,3.5321 L34.00525,2.8785 C34.42135,2.62105 34.9353,2.49185 35.5414,2.49185 C36.7118,2.49185 37.2989,3.10935 37.2989,4.34435 L37.2989,5.99355 C37.2989,6.441 37.32075,6.79725 37.3635,7.06135 Z M36.3299,5.52235 L36.3299,4.8317 C35.2317,4.8127 34.6826,5.11385 34.6826,5.7342 C34.6826,5.9679 34.7453,6.1427 34.87355,6.25955 C35.0018,6.3764 35.1652,6.43435 35.35995,6.43435 C35.57845,6.43435 35.7827,6.365 35.9689,6.22725 C36.15605,6.08855 36.271,5.9128 36.31375,5.69715 C36.3242,5.6487 36.3299,5.5898 36.3299,5.52235 Z"></path>
                                    <path d="M43.02075,7.06135 L42.13725,7.06135 L42.0907,6.3422 L42.06315,6.3422 C41.781,6.8894 41.3003,7.163 40.62485,7.163 C40.08525,7.163 39.6359,6.95115 39.27965,6.52745 C38.9234,6.10375 38.74575,5.5537 38.74575,4.87825 C38.74575,4.1534 38.9386,3.5663 39.3262,3.1179 C39.70145,2.6999 40.16125,2.4909 40.70845,2.4909 C41.3098,2.4909 41.73065,2.69325 41.97005,3.0989 L41.98905,3.0989 L41.98905,0.5282 L42.9856,0.5282 L42.9856,5.85485 C42.9856,6.2909 42.997,6.69275 43.02075,7.06135 Z M41.98905,5.17275 L41.98905,4.42605 C41.98905,4.29685 41.97955,4.19235 41.9615,4.11255 C41.90545,3.87315 41.7848,3.67175 41.60145,3.5093 C41.4162,3.34685 41.19295,3.26515 40.9355,3.26515 C40.56405,3.26515 40.27335,3.4124 40.0596,3.70785 C39.84775,4.0033 39.7404,4.38045 39.7404,4.8412 C39.7404,5.2839 39.84205,5.643 40.0463,5.91945 C40.26195,6.21395 40.55265,6.3612 40.9165,6.3612 C41.2433,6.3612 41.50455,6.23865 41.7031,5.9926 C41.895,5.76555 41.98905,5.49195 41.98905,5.17275 Z"></path>
                                    <path d="M51.5356,4.78515 C51.5356,5.4739 51.33895,6.0382 50.94565,6.4809 C50.53335,6.93595 49.98805,7.163 49.305,7.163 C48.64855,7.163 48.1251,6.94545 47.7337,6.50845 C47.3442,6.0724 47.14945,5.52235 47.14945,4.85925 C47.14945,4.16575 47.3499,3.5967 47.7527,3.15495 C48.1555,2.7132 48.697,2.49185 49.38005,2.49185 C50.0365,2.49185 50.56565,2.7094 50.96465,3.14545 C51.34465,3.56915 51.5356,4.11635 51.5356,4.78515 Z M50.5039,4.81745 C50.5039,4.4042 50.4146,4.04985 50.23695,3.7544 C50.027,3.3972 49.7306,3.2186 49.343,3.2186 C48.944,3.2186 48.64,3.3972 48.43005,3.7544 C48.25145,4.04985 48.1631,4.4099 48.1631,4.8355 C48.1631,5.24875 48.2524,5.6031 48.43005,5.89855 C48.6457,6.25575 48.9459,6.43435 49.3335,6.43435 C49.7135,6.43435 50.01275,6.2529 50.22745,5.88905 C50.4108,5.5879 50.5039,5.2307 50.5039,4.81745 Z"></path>
                                    <path d="M56.88885,7.06135 L55.8942,7.06135 L55.8942,4.49635 C55.8942,3.70595 55.594,3.31075 54.99075,3.31075 C54.6953,3.31075 54.45685,3.41905 54.27255,3.6366 C54.08825,3.85415 53.9961,4.11065 53.9961,4.4042 L53.9961,7.0604 L52.99955,7.0604 L52.99955,3.8627 C52.99955,3.4694 52.98815,3.04285 52.9644,2.58115 L53.8384,2.58115 L53.88495,3.2813 L53.9125,3.2813 C54.02935,3.06375 54.20225,2.8842 54.42835,2.74075 C54.6991,2.57355 55.00025,2.489 55.3318,2.489 C55.74885,2.489 56.09655,2.6239 56.373,2.89465 C56.71785,3.2262 56.88885,3.72115 56.88885,4.37855 L56.88885,7.06135 L56.88885,7.06135 Z"></path>
                                    <path d="M63.5892,3.3288 L62.4929,3.3288 L62.4929,5.5043 C62.4929,6.0572 62.68765,6.33365 63.07335,6.33365 C63.25195,6.33365 63.40015,6.31845 63.517,6.2871 L63.54265,7.04235 C63.346,7.11645 63.0876,7.1535 62.76935,7.1535 C62.37605,7.1535 62.07015,7.0338 61.8488,6.7944 C61.6265,6.555 61.5163,6.1522 61.5163,5.58695 L61.5163,3.3288 L60.86175,3.3288 L60.86175,2.58305 L61.5163,2.58305 L61.5163,1.76225 L62.49195,1.46775 L62.49195,2.5821 L63.58825,2.5821 L63.58825,3.3288 L63.5892,3.3288 Z"></path>
                                    <path d="M68.8598,7.06135 L67.86325,7.06135 L67.86325,4.51535 C67.86325,3.7126 67.56305,3.31075 66.9617,3.31075 C66.5,3.31075 66.1846,3.5435 66.0117,4.009 C65.98225,4.10685 65.96515,4.22655 65.96515,4.36715 L65.96515,7.0604 L64.9705,7.0604 L64.9705,0.5282 L65.96515,0.5282 L65.96515,3.22715 L65.98415,3.22715 C66.29765,2.736 66.747,2.4909 67.32935,2.4909 C67.74165,2.4909 68.0827,2.6258 68.35345,2.89655 C68.6907,3.2338 68.8598,3.7354 68.8598,4.3985 L68.8598,7.06135 L68.8598,7.06135 Z"></path>
                                    <path d="M74.29665,4.61035 C74.29665,4.78895 74.28335,4.93905 74.2596,5.0616 L71.27375,5.0616 C71.28705,5.5043 71.42955,5.84155 71.706,6.07525 C71.9587,6.28425 72.28455,6.38875 72.68355,6.38875 C73.1253,6.38875 73.5281,6.31845 73.891,6.1769 L74.0468,6.8685 C73.62215,7.0528 73.12245,7.14495 72.5439,7.14495 C71.8504,7.14495 71.30415,6.9407 70.90895,6.5322 C70.51185,6.1237 70.3152,5.57555 70.3152,4.88775 C70.3152,4.2123 70.49855,3.6499 70.8681,3.2015 C71.2538,2.7227 71.77535,2.4833 72.4337,2.4833 C73.0778,2.4833 73.56705,2.7227 73.89765,3.2015 C74.1646,3.5815 74.29665,4.05175 74.29665,4.61035 Z M73.34665,4.3529 C73.35425,4.05745 73.2887,3.80285 73.1538,3.58815 C72.9809,3.3117 72.71775,3.173 72.3615,3.173 C72.0366,3.173 71.77155,3.3079 71.5692,3.57865 C71.4039,3.7943 71.30605,4.05175 71.27375,4.3529 L73.34665,4.3529 Z"></path>
                                </g>
                            </g>
                        </g>
                    </g>
                </g>
            </g>
        </g>
    </g>
</svg>