<?xml version="1.0" encoding="UTF-8"?>
<svg width="67px" height="47px" viewBox="0 0 67 47" version="1.1" xmlns="http://www.w3.org/2000/svg" xmlns:xlink="http://www.w3.org/1999/xlink">
    <!-- Generator: sketchtool 53.2 (72643) - https://sketchapp.com -->
    <title>6CD4280A-9424-4B86-B72A-2ACC0F381A8E</title>
    <desc>Created with sketchtool.</desc>
    <defs>
        <path d="M14.4827586,1.57325756 C15.4284743,1.02217695 14.4827586,1.57325756 14.4827586,1.57325756 C16.1332648,0.831034677 20.6064093,0.232668281 23.908046,0.229344127 C23.908046,0.229344127 22.7641927,0.237616658 23.908046,0.229344127 C28.6761466,0.194860455 33.4793064,0.489636264 33.4793064,0.489636264 C35.6840039,0.599207453 39.0253201,1.56950604 39.992526,2.35468369 C39.992526,2.35468369 39.3067529,1.57325754 39.992526,2.35468369 C42.9733278,5.75125339 43.2672683,6.80653018 43.2672683,6.80653018 C45.5780508,10.563532 50.9325996,14.4543993 55.2264931,15.4969054 L49.7956203,14.1783543 C53.0190654,14.9609683 55.6206808,18.2809399 55.6064834,21.5954844 L55.5900872,25.423378 C55.5900872,28.0388509 53.5194522,30.1120636 50.964201,30.1120636 C50.964201,30.1120636 11.6122485,30.1120637 4.62588583,30.1120636 C2.09382201,30.1120636 0,28.0131408 0,25.4233785 L0,25.4233785 C1.89336212e-31,21.515496 1.23934086,14.9995505 3.5141224,11.2112115 C3.5141224,11.2112115 1.83301904,8.94442233 14.4827586,1.57325756 Z" id="path-1"></path>
        <rect id="path-3" x="0" y="0" width="16.091954" height="16.0540906" rx="8.0270453"></rect>
        <rect id="path-5" x="0" y="0" width="16.091954" height="16.0540906" rx="8.0270453"></rect>
    </defs>
    <g id="Flows-v2" stroke="none" stroke-width="1" fill="none" fill-rule="evenodd">
        <g id="Membership---landing-full" transform="translate(-313.000000, -240.000000)">
            <g id="Group-5" transform="translate(178.000000, 108.000000)">
                <g id="Bitmap">
                    <g id="Group-3" transform="translate(73.000000, 119.000000)">
                        <g id="Illustrations/Car_Clock" transform="translate(60.000000, 7.000000)">
                            <g id="Car_Clock">
                                <rect id="Mask" fill="#DEF3FF" x="17.0114943" y="6.88032454" width="45.9770115" height="45.8688303" rx="22.9344151"></rect>
                                <g id="Air-Lines-Behind" transform="translate(7.126437, 17.659500)" fill="#DEF3FF">
                                    <rect id="Rectangle-331-Copy-2" x="0" y="15.136714" width="19.0804598" height="1.83475321" rx="0.917376606"></rect>
                                    <rect id="Rectangle-331" x="3.2183908" y="0" width="22.0689655" height="1.83475321" rx="0.917376606"></rect>
                                </g>
                                <g id="Car-Chasis" transform="translate(12.183908, 15.136714)">
                                    <mask id="mask-2" fill="white">
                                        <use xlink:href="#path-1"></use>
                                    </mask>
                                    <use id="Mask" fill="#61B450" xlink:href="#path-1"></use>
                                    <g id="Rectangle-327-+-Rectangle-34" mask="url(#mask-2)">
                                        <g transform="translate(36.091954, 21.099662)">
                                            <mask id="mask-4" fill="white">
                                                <use xlink:href="#path-3"></use>
                                            </mask>
                                            <use id="Mask" stroke="none" fill-opacity="0.1" fill="#393939" fill-rule="evenodd" style="mix-blend-mode: hard-light;" xlink:href="#path-3"></use>
                                            <polygon id="Rectangle-34" stroke="none" fill-opacity="0.1" fill="#393939" fill-rule="evenodd" mask="url(#mask-4)" points="-1.7313499 8.87275186 2.64367816 3.75551048 2.86635125 8.87275186"></polygon>
                                        </g>
                                    </g>
                                    <g id="Rectangle-327-+-Rectangle-34" mask="url(#mask-2)">
                                        <g transform="translate(5.747126, 21.099662)">
                                            <mask id="mask-6" fill="white">
                                                <use xlink:href="#path-5"></use>
                                            </mask>
                                            <use id="Mask" stroke="none" fill-opacity="0.1" fill="#393939" fill-rule="evenodd" style="mix-blend-mode: hard-light;" xlink:href="#path-5"></use>
                                            <polygon id="Rectangle-34" stroke="none" fill-opacity="0.1" fill="#393939" fill-rule="evenodd" mask="url(#mask-6)" points="-1.7313499 8.87275186 2.64367816 3.75551048 2.86635125 8.87275186"></polygon>
                                        </g>
                                    </g>
                                    <path d="M40.229885,2.06409736 L40.229885,2.06409736 C38.8333029,2.06409736 38.8523107,3.442372 40.2105774,5.18680353 C40.2105774,5.18680353 40.0864597,4.77833944 42.0304871,7.78540801 C43.1233231,9.47583302 44.2931708,11.5652572 44.2931708,11.5652572 C44.8422443,12.5244121 46.1753859,13.2281324 47.2775474,13.1365018 L48.045977,13.0726166 L40.229885,2.06409736 Z" id="Path-30" fill="#95E285" mask="url(#mask-2)"></path>
                                    <path d="M23.9173588,4.81769198 C23.7852535,3.17026039 25.0286045,1.86017333 26.6742849,1.89115084 L33.8637876,2.02648265 C34.9674079,2.04725668 36.4464344,2.7515321 37.1432869,3.60387249 C37.1432869,3.60387249 38.2473792,4.77833944 40.1914067,7.78540801 C41.2842426,9.47583302 42.4540903,11.5652572 42.4540903,11.5652572 C43.0031638,12.5244121 42.551755,13.3019608 41.4487805,13.3019608 L27.6054747,13.3019608 C25.9443272,13.3019608 24.4904185,11.9640838 24.3585032,10.319022 L23.9173588,4.81769198 Z" id="Path-30" fill="#95E285" mask="url(#mask-2)"></path>
                                    <path d="M22.3081634,4.81769198 C22.1760581,3.17026039 20.7347423,1.89262642 19.069969,1.96483756 L21.7846943,1.84708375 C19.0215667,1.96693706 14.8103682,3.13498895 12.4762996,4.59265064 C12.4762996,4.59265064 13.593932,3.62019143 10.5747127,5.96294789 C6.43678174,9.17376626 4.49191062,11.7842723 4.49191062,11.7842723 C3.78856505,12.6224685 4.11924455,13.3019608 5.22285308,13.3019608 L19.9858508,13.3019608 C21.6441713,13.3019608 22.8812231,11.9640838 22.7493078,10.319022 L22.3081634,4.81769198 Z" id="Path-30" fill="#95E285" mask="url(#mask-2)"></path>
                                </g>
                                <g id="Car-Details" transform="translate(11.264368, 16.971467)">
                                    <rect id="Rectangle-331-Copy-2" fill="#DADAD9" x="0" y="23.3931034" width="5.51724138" height="2.75212982" rx="1.37606491"></rect>
                                    <rect id="Rectangle-331-Copy-2" fill="#DADAD9" x="55.6321839" y="22.9344151" width="1.83908046" height="2.75212982" rx="0.91954023"></rect>
                                    <path d="M56.5517241,15.8247465 L57.1264368,15.8247465 C57.4438418,15.8247465 57.7011494,16.0787272 57.7011494,16.4084024 L57.7011494,17.9932203 C57.7011494,18.3155646 57.4345591,18.5768763 57.1264368,18.5768763 L56.5517241,18.5768763 L56.5517241,15.8247465 Z" id="Rectangle-331-Copy-2" fill="#FFC54B"></path>
                                    <path d="M0.689655173,15.3660581 C1.03459501,14.1042174 0.812648818,14.9825426 0.812648818,14.9825426 C1.37953136,14.0543829 2.74133805,13.3019608 3.83708698,13.3019608 L44.007629,13.3019608 C45.1110975,13.3019608 46.5698873,13.9898881 47.0998579,14.9582207 C47.0998579,14.9582207 46.8964401,14.1636811 47.2412677,15.3660581 C47.5860952,16.5684352 47.3061668,15.6209351 47.3061668,15.6209351 C47.3496752,16.8734665 46.3662219,17.8888438 45.1011248,17.8888438 L2.69609344,17.8888438 C1.58796818,17.8888438 0.552755069,17.0101501 0.582183855,15.89484 C0.582183855,15.89484 0.344715336,16.6278989 0.689655173,15.3660581 Z" id="Rectangle-137" fill="#5DAC4C"></path>
                                    <g id="Rectangle-138-+-Rectangle-138-+-Rectangle-138" transform="translate(29.626437, 4.156863) rotate(-45.000000) translate(-29.626437, -4.156863) translate(28.017241, -0.086004)" fill="#FFFFFF" fill-opacity="0.400000006">
                                        <rect id="Rectangle-138" style="mix-blend-mode: soft-light;" x="2.84217094e-14" y="0" width="1.14942529" height="2.29344151" rx="0.574712644"></rect>
                                        <rect id="Rectangle-138" style="mix-blend-mode: soft-light;" x="-1.42108547e-14" y="3.21081812" width="1.14942529" height="5.27491548" rx="0.574712644"></rect>
                                        <rect id="Rectangle-138" style="mix-blend-mode: soft-light;" x="2.06896552" y="1.37606491" width="1.14942529" height="4.58688303" rx="0.574712644"></rect>
                                    </g>
                                    <path d="M56.5517241,16.5127789 L56.8965517,16.5127789 C57.0869947,16.5127789 57.2413793,16.6723567 57.2413793,16.8567951 L57.2413793,16.8567951 C57.2413793,17.04679 57.0814251,17.2008114 56.8965517,17.2008114 L56.5517241,17.2008114 L56.5517241,16.5127789 Z" id="Rectangle-145" fill-opacity="0.25" fill="#FFFFFF"></path>
                                    <path d="M55.6321839,23.3931034 C55.6321839,23.1397769 55.8289977,22.9344151 56.0962616,22.9344151 L57.0071867,22.9344151 C57.2634897,22.9344151 57.4712644,23.1471856 57.4712644,23.3931034 L57.4712644,23.8517918 L55.6321839,23.8517918 L55.6321839,23.3931034 Z" id="Rectangle-145" fill-opacity="0.249999985" fill="#FFFFFF"></path>
                                    <path d="M0,23.8517918 C0,23.5984652 0.209545267,23.3931034 0.451499018,23.3931034 L5.06574236,23.3931034 C5.31509838,23.3931034 5.51724138,23.6058739 5.51724138,23.8517918 L5.51724138,24.3104801 L0,24.3104801 L0,23.8517918 Z" id="Rectangle-145" fill-opacity="0.249999985" fill="#FFFFFF"></path>
                                </g>
                                <g id="Air-Lines" transform="translate(2.298851, 22.705071)" fill="#DEF3FF">
                                    <g id="Rectangle-331-+-Rectangle-331-Copy-4" transform="translate(1.609195, 5.045571)">
                                        <rect id="Rectangle-331" x="5.97701149" y="0" width="17.4712644" height="1.83475321" rx="0.917376606"></rect>
                                        <rect id="Rectangle-331-Copy-4" x="0" y="0" width="4.13793103" height="1.83475321" rx="0.917376606"></rect>
                                    </g>
                                    <g id="Rectangle-331-Copy-5-+-Rectangle-331-Copy">
                                        <rect id="Rectangle-331-Copy-5" x="23.2183908" y="0" width="5.97701149" height="1.83475321" rx="0.917376606"></rect>
                                        <rect id="Rectangle-331-Copy" x="0" y="0" width="21.3793103" height="1.83475321" rx="0.917376606"></rect>
                                    </g>
                                    <rect id="Rectangle-331" x="14.4827586" y="10.0911427" width="12.8735632" height="1.83475321" rx="0.917376606"></rect>
                                </g>
                                <rect id="Rectangle-331" fill="#B6E4FF" x="11.954023" y="49.0796484" width="56.3218391" height="3.66950642" rx="1.83475321"></rect>
                                <g id="Group-+-Group" transform="translate(18.850575, 37.383097)">
                                    <g id="Group" transform="translate(30.344828, 0.000000)">
                                        <rect id="Rectangle-327" fill="#393939" x="0.0856542882" y="0.102543298" width="13.9102564" height="13.8775264" rx="6.9387632"></rect>
                                        <rect id="Rectangle-327-Copy" fill="#FFFFFF" x="4.06001326" y="4.06755084" width="5.96153846" height="5.94751131" rx="2.97375566"></rect>
                                        <path d="M4.98491451,4.88874619 C4.96724366,4.9055435 4.94972871,4.92259886 4.93237445,4.93991229 C4.91501871,4.95722719 4.89792174,4.97470231 4.88108353,4.99233286 L4.98491451,4.88874619 L4.98491451,4.88874619 Z M9.09527452,4.88874205 C9.11294665,4.90554064 9.13046299,4.92259738 9.14781873,4.93991229 C10.3118815,6.10123611 10.3121375,7.9838587 9.14781873,9.14543787 C7.98428777,10.3062311 6.09841738,10.3070166 4.93397078,9.14702926 L9.14878782,4.94212944 L9.09527452,4.88874205 L9.09527452,4.88874205 Z" id="Rectangle-327-Copy" fill-opacity="0.1" fill="#393939"></path>
                                    </g>
                                    <g id="Tire">
                                        <rect id="Rectangle-327" fill="#393939" x="0.0856542882" y="0.102543298" width="13.9102564" height="13.8775264" rx="6.9387632"></rect>
                                        <rect id="Rectangle-327-Copy" fill="#FFFFFF" x="4.06001326" y="4.06755084" width="5.96153846" height="5.94751131" rx="2.97375566"></rect>
                                        <path d="M4.98491451,4.88874619 C4.96724366,4.9055435 4.94972871,4.92259886 4.93237445,4.93991229 C4.91501871,4.95722719 4.89792174,4.97470231 4.88108353,4.99233286 L4.98491451,4.88874619 L4.98491451,4.88874619 Z M9.09527452,4.88874205 C9.11294665,4.90554064 9.13046299,4.92259738 9.14781873,4.93991229 C10.3118815,6.10123611 10.3121375,7.9838587 9.14781873,9.14543787 C7.98428777,10.3062311 6.09841738,10.3070166 4.93397078,9.14702926 L9.14878782,4.94212944 L9.09527452,4.88874205 L9.09527452,4.88874205 Z" id="Rectangle-327-Copy" fill-opacity="0.1" fill="#393939"></path>
                                    </g>
                                </g>
                                <path d="M55.2931034,13.7606491 C55.2931034,16.7318469 57.7081146,19.1409736 60.6896552,19.1409736 C63.6713985,19.1409736 66.0862069,16.7316451 66.0862069,13.7606491 C66.0862069,10.7894512 63.6711957,8.38032454 60.6896552,8.38032454 C57.7079118,8.38032454 55.2931034,10.7896531 55.2931034,13.7606491 Z" id="Rectangle-65" stroke="#64BBEE" stroke-width="3" fill="#FFFFFF"></path>
                                <g id="Group-2" transform="translate(59.418103, 9.997972)" fill="#939291">
                                    <rect id="Path" x="0.352011494" y="0.551859364" width="1.37931034" height="4.12819473" rx="0.689655172"></rect>
                                    <path d="M1.73294456,2.60635127 C1.73294456,2.22897778 2.03833796,1.92305612 2.42097701,1.92305612 L2.42097701,1.92305612 C2.80096684,1.92305612 3.10900947,2.23407348 3.10900947,2.60635127 L3.10900947,5.377692 C3.10900947,5.75506549 2.80361606,6.06098715 2.42097701,6.06098715 L2.42097701,6.06098715 C2.04098718,6.06098715 1.73294456,5.74996979 1.73294456,5.377692 L1.73294456,2.60635127 Z" id="Rectangle-67" transform="translate(2.420977, 3.992022) rotate(-270.000000) translate(-2.420977, -3.992022) "></path>
                                </g>
                                <rect id="spacer" x="27.1264368" y="0" width="25.9770115" height="6.88032454"></rect>
                            </g>
                        </g>
                    </g>
                </g>
            </g>
        </g>
    </g>
</svg>