<?xml version="1.0" encoding="UTF-8"?>
<!DOCTYPE svg PUBLIC "-//W3C//DTD SVG 1.1//EN" "http://www.w3.org/Graphics/SVG/1.1/DTD/svg11.dtd">
<svg version="1.1" xmlns="http://www.w3.org/2000/svg" xmlns:xlink="http://www.w3.org/1999/xlink" x="0" y="0" width="18" height="16" viewBox="0, 0, 18, 16">
  <defs>
    <clipPath id="Clip_1">
      <path d="M13.5,1 C14.881,1 16,2.119 16,3.5 L16,13.5 C16,14.881 14.881,16 13.5,16 L3.5,16 C2.119,16 1,14.881 1,13.5 L1,3.5 C1,2.119 2.119,1 3.5,1 L13.5,1 z"/>
    </clipPath>
    <filter id="InnerShadow_2">
      <feGaussianBlur in="SourceAlpha" stdDeviation="1.5"/>
      <feOffset dx="0" dy="1" result="offsetblur"/>
      <feFlood flood-color="#000000"/>
      <feComposite in2="offsetblur" operator="in"/>
    </filter>
  </defs>
  <g id="Layer_1">
    <g id="Check-Background-7">
      <path d="M3.5,1.5 L13.5,1.5 C14.605,1.5 15.5,2.395 15.5,3.5 L15.5,13.5 C15.5,14.605 14.605,15.5 13.5,15.5 L3.5,15.5 C2.395,15.5 1.5,14.605 1.5,13.5 L1.5,3.5 C1.5,2.395 2.395,1.5 3.5,1.5 z" fill="#FFFFFF"/>
      <path d="M3.5,1.5 L13.5,1.5 C14.605,1.5 15.5,2.395 15.5,3.5 L15.5,13.5 C15.5,14.605 14.605,15.5 13.5,15.5 L3.5,15.5 C2.395,15.5 1.5,14.605 1.5,13.5 L1.5,3.5 C1.5,2.395 2.395,1.5 3.5,1.5 z" fill-opacity="0" stroke="#979797" stroke-width="1"/>
      <path d="M-3,-4 L20,-4 L20,21 L-3,21 z M13.5,1 L3.5,1 C2.119,1 1,2.119 1,3.5 L1,13.5 C1,14.881 2.119,16 3.5,16 L13.5,16 C14.881,16 16,14.881 16,13.5 L16,3.5 C16,2.119 14.881,1 13.5,1 z" clip-path="url(#Clip_1)" filter="url(#InnerShadow_2)" fill="rgba(0,0,0,0.5)"/>
    </g>
  </g>
</svg>
