<?xml version="1.0" encoding="UTF-8"?>
<svg width="30px" height="19px" viewBox="0 0 30 19" version="1.1" xmlns="http://www.w3.org/2000/svg" xmlns:xlink="http://www.w3.org/1999/xlink">
    <!-- Generator: Sketch 52.2 (67145) - http://www.bohemiancoding.com/sketch -->
    <title>Discover-Card-01 (1) [Converted] Copy</title>
    <desc>Created with Sketch.</desc>
    <defs>
        <linearGradient x1="75.5897436%" y1="90.0683761%" x2="40.974359%" y2="35.8632479%" id="linearGradient-1">
            <stop stop-color="#F89F20" offset="0%"></stop>
            <stop stop-color="#F79A20" offset="25%"></stop>
            <stop stop-color="#F68D20" offset="53%"></stop>
            <stop stop-color="#F58720" offset="62%"></stop>
            <stop stop-color="#F48120" offset="72%"></stop>
            <stop stop-color="#F37521" offset="100%"></stop>
        </linearGradient>
    </defs>
    <g id="Page-1" stroke="none" stroke-width="1" fill="none" fill-rule="evenodd">
        <g id="Desktop" transform="translate(-524.000000, -765.000000)">
            <g id="Logos" transform="translate(409.000000, 761.000000)">
                <g id="Discover-Card-01-(1)-[Converted]-Copy" transform="translate(115.000000, 4.000000)">
                    <path d="M29.3631429,0.0775510204 L29.4693878,0.076 L29.4693878,18.925551 L0,18.925551 L0,0.0806530612 L29.3631429,0.0775510204 Z M29.256898,0.291591837 L0.212489796,0.291591837 C0.212489796,0.501755102 0.212489796,18.504449 0.212489796,18.7130612 L29.256898,18.7130612 L29.256898,0.291591837 Z M28.557804,5.95646941 C28.6462406,6.00743755 28.6933163,6.08790027 28.6933163,6.19848861 C28.6965257,6.25784809 28.676455,6.31430505 28.6391761,6.3611211 C28.621493,6.43900726 28.5854769,6.51098331 28.5349385,6.57136481 L28.8408163,6.89 L28.4683163,6.89 L28.3208599,6.72084515 C28.258929,6.74314449 28.1944061,6.75260648 28.1308163,6.74994884 L28.1308163,6.89 L27.8408163,6.89 L27.8408163,6.64207598 C27.8251918,6.62967196 27.8101972,6.61624213 27.7959337,6.6018071 C27.6534177,6.45757647 27.6121191,6.24155424 27.691382,6.05492355 C27.7706449,5.86829285 27.9547727,5.74801235 28.1575214,5.75042048 C28.2893886,5.75104803 28.4155876,5.80411713 28.5082742,5.89791882 C28.5263823,5.91624476 28.5429205,5.93583118 28.557804,5.95646941 Z M28.3507293,5.89593914 C28.3336688,5.88596716 28.3157479,5.87714622 28.2970505,5.86960051 C28.1810186,5.8227736 28.0524288,5.83205865 27.946306,5.89 L28.2358163,5.89 C28.276638,5.89 28.3149763,5.89197596 28.3507293,5.89593914 Z M27.8408163,5.97249529 C27.7301019,6.09284427 27.7011108,6.26782268 27.767878,6.41779131 C27.7863486,6.45927877 27.8111453,6.49660098 27.8408163,6.52885053 L27.8408163,5.97249529 Z M28.1308163,6.66139573 C28.1396729,6.66166176 28.1485782,6.66164306 28.1575214,6.66133271 L28.1551461,6.66133271 C28.1896765,6.66083011 28.2236879,6.65592366 28.2564317,6.64693632 L28.1308163,6.50283644 L28.1308163,6.66139573 Z M28.4699661,6.50368256 C28.4807686,6.48967301 28.4906035,6.47501919 28.4994291,6.45982601 C28.4816003,6.4664818 28.4628513,6.47189651 28.4433163,6.47592133 L28.4699661,6.50368256 Z M2.57702041,5.84502041 C3.92563265,5.84502041 4.86632653,6.72212245 4.86787755,7.98155102 C4.86440468,8.61491314 4.58039938,9.21416432 4.09236735,9.61787755 C3.68289796,9.95522449 3.21604082,10.1103265 2.57081633,10.1103265 L1.35559184,10.1103265 L1.35559184,5.84502041 L2.57702041,5.84502041 Z M3.54873469,9.04865306 C3.84494812,8.77024906 4.01185747,8.38107491 4.00938776,7.97457143 C4.01161687,7.57171874 3.84446008,7.18647017 3.54873469,6.91289796 C3.27420408,6.66395918 2.94771429,6.56779592 2.41028571,6.56779592 L2.18693878,6.56779592 L2.18693878,9.38755102 L2.41028571,9.38755102 C2.94771429,9.38755102 3.28738776,9.28130612 3.54873469,9.04865306 Z M5.24865306,5.84502041 L6.08077551,5.84502041 L6.08077551,10.109551 L5.24865306,10.109551 L5.24865306,5.84502041 Z M8.11493878,7.486 C9.06106122,7.828 9.34102041,8.13432653 9.34179592,8.816 C9.34179592,9.64114286 8.7322449,10.2165714 7.86832653,10.2165714 C7.23783673,10.2165714 6.77795918,9.96685714 6.39485714,9.40461224 L6.93228571,8.88657143 C7.09579273,9.23884029 7.4513146,9.46187708 7.83963265,9.45579592 C8.21110204,9.45579592 8.48563265,9.19987755 8.48563265,8.854 C8.48668861,8.67319633 8.39198905,8.50533325 8.23669388,8.41273469 C8.05285886,8.31408657 7.86021289,8.23282217 7.66126531,8.17 C6.88032653,7.88926531 6.612,7.58836735 6.612,7.00053061 C6.612,6.30257143 7.18742857,5.77910204 7.942,5.77910204 C8.40377958,5.77609406 8.85028319,5.94436182 9.19522449,6.25138776 L8.76016327,6.82138776 C8.54302041,6.57865306 8.33828571,6.47628571 8.08934694,6.47628571 C7.73028571,6.47628571 7.46893878,6.6802449 7.46893878,6.94857143 C7.46893878,7.17579592 7.6155102,7.30065306 8.11493878,7.486 Z M9.60314286,7.98077551 C9.60640237,7.38323949 9.84797823,6.81170916 10.2742748,6.39298348 C10.7005713,5.97425779 11.2763382,5.74296095 11.8738367,5.75040816 C12.2316979,5.75012316 12.5838262,5.84028936 12.8975102,6.01253061 L12.8975102,6.98502041 C12.5524082,6.64689796 12.2507347,6.50497959 11.854449,6.50497959 C11.0719592,6.50497959 10.4585306,7.15097959 10.4585306,7.96991837 C10.4585306,8.83616327 11.0533469,9.44338776 11.890898,9.44338776 C12.2677959,9.44338776 12.5624898,9.31077551 12.8951837,8.97808163 L12.8951837,9.95755102 C12.5718085,10.1210339 12.2144732,10.2060505 11.8521224,10.2057143 C10.5880408,10.2057143 9.60314286,9.234 9.60314286,7.98077551 Z M19.492449,8.7097551 L20.6440816,5.84502041 L21.546,5.84502041 L19.7041633,10.218898 L19.2559184,10.218898 L17.4466531,5.84502041 L18.355551,5.84502041 L19.492449,8.7097551 Z M21.9221224,10.109551 L21.9221224,5.84502041 L24.2812245,5.84502041 L24.2812245,6.56779592 L22.7534694,6.56779592 L22.7534694,7.51469388 L24.2246122,7.51469388 L24.2246122,8.23669388 L22.7534694,8.23669388 L22.7534694,9.38755102 L24.2812245,9.38755102 L24.2812245,10.109551 L21.9221224,10.109551 Z M27.5748163,7.10444898 C27.5748163,7.75742857 27.2297143,8.18395918 26.6,8.31346939 L27.9455102,10.109551 L26.9226122,10.109551 L25.7709796,8.39644898 L25.6631837,8.39644898 L25.6631837,10.1103265 L24.8318367,10.1103265 L24.8318367,5.84502041 L26.0656735,5.84502041 C27.0249796,5.84502041 27.5748163,6.30567347 27.5748163,7.10444898 Z M25.9059184,7.80861224 C26.4371429,7.80861224 26.7186531,7.5775102 26.7186531,7.14942857 C26.7186531,6.7337551 26.4371429,6.51738776 25.919102,6.51738776 L25.6631837,6.51738776 L25.6631837,7.80861224 L25.9059184,7.80861224 Z M28.1933163,6.33513458 L28.1858163,6.33513458 C28.3408163,6.33513458 28.4133163,6.28958592 28.4133163,6.2026294 C28.4133163,6.11567288 28.3383163,6.07426501 28.1958163,6.07426501 L28.1458163,6.07426501 L28.1458163,6.33513458 L28.1933163,6.33513458 Z" id="Combined-Shape" fill="#231F20" fill-rule="nonzero"></path>
                    <path d="M29.2592245,10.5484898 C29.2592245,10.5484898 21.2644898,16.1903265 6.62130612,18.7153878 L29.2592245,18.7153878 L29.2592245,10.5484898 Z" id="_Path_3" fill="#F48120"></path>
                    <path d="M17.7056735,7.99240816 C17.7056735,9.24519286 16.6900908,10.2607755 15.4373061,10.2607755 C14.1845214,10.2607755 13.1689388,9.24519286 13.1689388,7.99240816 C13.1689388,6.73962347 14.1845214,5.72404082 15.4373061,5.72404082 C16.0389145,5.72404082 16.6158827,5.96302883 17.0412841,6.38843023 C17.4666855,6.81383163 17.7056735,7.39079974 17.7056735,7.99240816 Z" id="Combined-Shape" fill="url(#linearGradient-1)"></path>
                </g>
            </g>
        </g>
    </g>
</svg>