<svg width="235" height="132" viewBox="0 0 235 132" fill="none" xmlns="http://www.w3.org/2000/svg">
<path d="M175.252 16.5629C175.252 13.3946 178.533 10 181.815 10" stroke="#D8EAFC" stroke-width="2" stroke-miterlimit="10" stroke-linecap="round"/>
<path d="M89.252 16.5629C89.252 13.3946 92.5334 10 95.8149 10" stroke="#D8EAFC" stroke-width="2" stroke-miterlimit="10" stroke-linecap="round"/>
<path d="M15 120V31C15 21.6112 22.6112 14 32 14H203C212.389 14 220 21.6112 220 31V120" stroke="#A5CBF4" stroke-width="4" stroke-miterlimit="10" stroke-linecap="round"/>
<path d="M2.74536 129.657V129.657C2.74536 125.428 6.17341 122 10.4021 122H19.1527C23.3814 122 26.8095 125.428 26.8095 129.657V129.657" stroke="#A5CBF4" stroke-width="4" stroke-miterlimit="10" stroke-linecap="round"/>
<path d="M208.384 129.657V129.657C208.384 125.428 211.812 122 216.041 122H224.792C229.02 122 232.448 125.428 232.448 129.657V129.657" stroke="#A5CBF4" stroke-width="4" stroke-miterlimit="10" stroke-linecap="round"/>
<path d="M97.2766 28.7623L128.046 47.2821C131.038 49.0672 129.756 53.7529 126.337 53.7529H66.2932C62.8743 53.7529 61.8059 49.0672 64.5838 47.2821L95.3535 28.7623C95.9946 28.5392 96.8493 28.5392 97.2766 28.7623Z" stroke="#D8EAFC" stroke-width="2" stroke-miterlimit="10" stroke-linecap="round"/>
<path d="M183.277 28.7623L214.046 47.2821C217.038 49.0672 215.756 53.7529 212.337 53.7529H152.293C148.874 53.7529 147.806 49.0672 150.584 47.2821L181.354 28.7623C181.995 28.5392 182.849 28.5392 183.277 28.7623Z" stroke="#D8EAFC" stroke-width="2" stroke-miterlimit="10" stroke-linecap="round"/>
<path d="M94.7209 10.1608C95.5556 9.94641 96.599 9.94641 97.6423 10.1608C99.9377 10.5895 101.816 12.5186 102.233 14.8765C102.859 18.0918 101.398 20.8783 98.8944 22.1644C97.225 23.0219 95.973 24.7367 95.973 26.6658V28.595" stroke="#D8EAFC" stroke-width="2" stroke-miterlimit="10" stroke-linecap="round"/>
<path d="M180.721 10.1608C181.556 9.94641 182.599 9.94641 183.642 10.1608C185.938 10.5895 187.816 12.5186 188.233 14.8765C188.859 18.0918 187.398 20.8783 184.894 22.1644C183.225 23.0219 181.973 24.7367 181.973 26.6658V28.595" stroke="#D8EAFC" stroke-width="2" stroke-miterlimit="10" stroke-linecap="round"/>
<path d="M88.7633 94.0641H50.3938V126.902C50.3938 128.558 51.7369 129.902 53.3938 129.902H85.7633C87.4202 129.902 88.7633 128.558 88.7633 126.902V94.0641Z" fill="#EBF4FC"/>
<path d="M88.7633 94.064H50.3938L55.4578 89H83.5046L88.7633 94.064Z" fill="#A5CBF4"/>
<path d="M78.4405 101.51V106.574C78.4405 109.301 76.1033 111.638 73.3765 111.638H65.7806C63.0538 111.638 60.7166 109.301 60.7166 106.574V101.51" stroke="#A5CBF4" stroke-width="3" stroke-miterlimit="10" stroke-linecap="round"/>
<path d="M160 90H204V92C204 92.5523 203.552 93 203 93H161C160.448 93 160 92.5523 160 92V90Z" fill="#FF8200"/>
<path fill-rule="evenodd" clip-rule="evenodd" d="M182.25 37.4969C178.335 37.4345 174.469 35.8745 173 29.9993C172.393 27.5716 143.113 47.7331 137.303 56.9891C137.104 57.3062 137.13 57.6958 137.347 58.0012C138.314 59.3643 140.177 61.789 141.04 62.9062C141.313 63.2588 141.781 63.3885 142.192 63.2155C147.484 60.9867 158 55.4994 158 55.4994C157.071 59.6815 157.005 83.2961 158.606 89.4217C158.787 90.1161 159.443 90.4994 160.161 90.4994H182H182.5H204.34C205.058 90.4994 205.713 90.1161 205.895 89.4217C207.495 83.2961 207.43 59.6815 206.5 55.4994C206.5 55.4994 216.986 60.9705 222.285 63.2056C222.707 63.3834 223.187 63.2429 223.457 62.8733C224.306 61.7115 226.121 59.2364 227.022 58.0813C227.297 57.7292 227.36 57.24 227.118 56.8645C221.127 47.5536 192.105 27.5825 191.5 29.9993C190.032 35.8745 186.166 37.4345 182.25 37.4969Z" fill="#FFBE1D"/>
<path d="M137.574 58L141.271 62.7132L140.484 63.3304C140.05 63.6713 139.421 63.5954 139.08 63.1609L136.617 60.0213C136.276 59.5867 136.352 58.9581 136.787 58.6172L137.574 58Z" fill="#FF8200"/>
<path d="M226.698 58L223 62.7132L223.787 63.3304C224.221 63.6713 224.85 63.5954 225.191 63.1609L227.654 60.0213C227.995 59.5867 227.919 58.9581 227.484 58.6172L226.698 58Z" fill="#FF8200"/>
<path d="M165.09 59L171 50.9999L176.911 59L171 67.0001L165.09 59Z" fill="white"/>
<path d="M177.09 59L183 50.9999L188.911 59L183 67.0001L177.09 59Z" fill="white"/>
<path d="M189.09 59L195 50.9999L200.911 59L195 67.0001L189.09 59Z" fill="white"/>
<path d="M175.523 63.0001L174.045 61.0001L174.447 60.7029L173.189 59L174.447 57.2971L174.045 56.9999L175.523 54.9999L175.925 55.297L177 53.8413L178.076 55.297L178.478 54.9999L179.956 56.9999L179.553 57.2971L180.812 59L179.553 60.7029L179.956 61.0001L178.478 63.0001L178.076 62.703L177 64.1587L175.925 62.703L175.523 63.0001Z" stroke="#FF8200" stroke-linejoin="round" stroke-dasharray="4 2"/>
<path d="M187.523 63.0001L186.045 61.0001L186.447 60.7029L185.189 59L186.447 57.2971L186.045 56.9999L187.523 54.9999L187.925 55.297L189 53.8413L190.076 55.297L190.478 54.9999L191.956 56.9999L191.553 57.2971L192.812 59L191.553 60.7029L191.956 61.0001L190.478 63.0001L190.076 62.703L189 64.1587L187.925 62.703L187.523 63.0001Z" stroke="#FF8200" stroke-linejoin="round" stroke-dasharray="4 2"/>
</svg>
