<svg width="235" height="132" viewBox="0 0 235 132" fill="none" xmlns="http://www.w3.org/2000/svg">
<rect x="11" y="118" width="213" height="4" rx="1" fill="#ECF6FF"/>
<path d="M36 83V115.789C36 116.455 36.5159 117 37.1465 117H64.8535C65.4841 117 66 116.455 66 115.789V83L64.3567 84.0089L62.7134 83L61.0701 84.0089L59.4268 83L57.7834 84.0089L56.1401 83L54.4968 84.0089L52.8535 83L51.2102 84.0089L49.5669 83L47.9236 84.0089L46.2803 83L44.6369 84.0089L42.9936 83L41.3503 84.0089L39.707 83L38.0637 84.0089L36 83Z" fill="#FFBE1D"/>
<path d="M44 96H58V97C58 98.1046 57.1046 99 56 99H46C44.8954 99 44 98.1046 44 97V96Z" fill="#FF8200"/>
<path d="M46 99C44.8954 99 44 98.1046 44 97L44 90L47 90L47 99L46 99Z" fill="white"/>
<path d="M55 99L55 90L58 90L58 97C58 98.1046 57.1046 99 56 99L55 99Z" fill="white"/>
<path d="M89.7036 117.077H63.5342L60.5532 102.029H92.6846L89.7036 117.077Z" fill="#D9EBFD"/>
<path d="M94.3185 101.284C94.2611 101.714 93.9172 102.029 93.4872 102.029H59.9514C59.5214 102.029 59.1775 101.714 59.1201 101.284L59.0055 100.367C58.9768 100.137 59.0628 99.9079 59.2061 99.7073C59.3494 99.5353 59.5788 99.4207 59.8367 99.4207H93.6019C93.8312 99.4207 94.0605 99.5353 94.2325 99.7073C94.3758 99.8793 94.4618 100.109 94.4331 100.367L94.3185 101.284Z" fill="#A5CBF4"/>
<path d="M84.8309 101.542C85.2741 101.542 85.6335 101.182 85.6335 100.739C85.6335 100.296 85.2741 99.9365 84.8309 99.9365C84.3876 99.9365 84.0283 100.296 84.0283 100.739C84.0283 101.182 84.3876 101.542 84.8309 101.542Z" fill="white"/>
<path d="M68.6938 101.542C69.137 101.542 69.4964 101.182 69.4964 100.739C69.4964 100.296 69.137 99.9365 68.6938 99.9365C68.2506 99.9365 67.8912 100.296 67.8912 100.739C67.8912 101.182 68.2506 101.542 68.6938 101.542Z" fill="white"/>
<path d="M77.4704 90.4114C78.4796 89.9934 78.9588 88.8364 78.5408 87.8272C78.1228 86.8181 76.9658 86.3389 75.9566 86.7569C74.9475 87.1749 74.4683 88.3319 74.8863 89.341C75.3043 90.3502 76.4613 90.8294 77.4704 90.4114Z" fill="#A5CBF4"/>
<path d="M77.0757 89.4581C77.5583 89.2582 77.7875 88.7049 77.5876 88.2222C77.3877 87.7396 76.8343 87.5104 76.3517 87.7103C75.869 87.9102 75.6399 88.4636 75.8398 88.9462C76.0397 89.4289 76.593 89.658 77.0757 89.4581Z" fill="white"/>
<path d="M68.6937 101.14C68.6078 101.14 68.5504 101.112 68.4931 101.083C68.2925 100.968 68.2065 100.71 68.3211 100.51L76.3468 88.3854C76.4615 88.1847 76.7194 88.0987 76.9201 88.2134C77.1207 88.328 77.2067 88.586 77.092 88.7866L69.0664 100.94C68.9804 101.083 68.8371 101.14 68.6937 101.14Z" fill="#D9EBFD"/>
<path d="M84.8309 101.083C84.6876 101.083 84.5443 100.997 84.4583 100.883L76.3466 88.8154C76.232 88.6147 76.2893 88.3567 76.49 88.2421C76.6906 88.1274 76.9486 88.1848 77.0632 88.3854L85.1749 100.453C85.2895 100.653 85.2322 100.911 85.0316 101.026C84.9742 101.083 84.8883 101.083 84.8309 101.083Z" fill="#D9EBFD"/>
<rect x="100" y="12" width="88.2447" height="105" fill="#ECF6FF"/>
<path d="M179.617 91.4689H145.261C144.825 91.4689 144.452 91.094 144.452 90.6566V19.1421C144.452 18.7047 144.825 18.3298 145.261 18.3298H179.585C180.021 18.3298 180.394 18.7047 180.394 19.1421V90.6566C180.426 91.094 180.052 91.4689 179.617 91.4689Z" fill="#D9EBFD"/>
<path d="M149.244 60.5386H148.591C147.968 60.5386 147.439 60.0075 147.439 59.3827V48.0103C147.439 47.3855 147.968 46.8544 148.591 46.8544H149.244C149.867 46.8544 150.396 47.3855 150.396 48.0103V59.3514C150.396 60.0075 149.867 60.5386 149.244 60.5386Z" fill="#A5CDF5"/>
<path d="M179.492 103.755H106.891C106.362 103.755 105.958 103.317 105.958 102.817V97.8811C105.958 97.35 106.393 96.9438 106.891 96.9438H179.461C179.99 96.9438 180.394 97.3812 180.394 97.8811V102.817C180.426 103.317 179.99 103.755 179.492 103.755Z" fill="#D9EBFD"/>
<path d="M179.492 112.013H106.891C106.362 112.013 105.958 111.576 105.958 111.076V106.139C105.958 105.608 106.393 105.202 106.891 105.202H179.461C179.99 105.202 180.394 105.64 180.394 106.139V111.076C180.426 111.576 179.99 112.013 179.492 112.013Z" fill="#D9EBFD"/>
<path d="M138.24 43.4725H117.5V39.6232H142.089C142.089 41.7403 140.357 43.4725 138.24 43.4725Z" fill="white"/>
<path d="M138.24 61.4725H117.5V57.6232H142.089C142.089 59.7403 140.357 61.4725 138.24 61.4725Z" fill="white"/>
<path d="M138.24 83.4725H117.5V79.6232H142.089C142.089 81.7403 140.357 83.4725 138.24 83.4725Z" fill="white"/>
<path d="M142.089 39.6233H114L122.084 30H138.047L142.089 39.6233Z" fill="#A5CBF4"/>
<path d="M142.089 57.6233H114L122.084 48H138.047L142.089 57.6233Z" fill="#A5CBF4"/>
<path d="M142.089 79.6233H114L122.084 70H138.047L142.089 79.6233Z" fill="#A5CBF4"/>
<path d="M122.617 91H106.383C106.177 91 106 90.6258 106 90.1892V18.8108C106 18.3742 106.177 18 106.383 18H122.617C122.823 18 123 18.3742 123 18.8108V90.1892C123 90.6258 122.838 91 122.617 91Z" fill="#D9EBFD"/>
<path d="M116.805 60.5387H116.151C115.529 60.5387 115 60.0075 115 59.3827V48.0416C115 47.4167 115.529 46.8856 116.151 46.8856H116.805C117.427 46.8856 117.956 47.4167 117.956 48.0416V59.3827C117.956 60.0075 117.427 60.5387 116.805 60.5387Z" fill="#A5CDF5"/>
</svg>
