<svg width="235" height="132" viewBox="0 0 235 132" fill="none" xmlns="http://www.w3.org/2000/svg">
<path d="M20 92H29L28 132H21L20 92Z" fill="#D8EAFC"/>
<path d="M206 92H215L214 132H207L206 92Z" fill="#D8EAFC"/>
<path d="M20 92H29V97H20V92Z" fill="#A5CBF4"/>
<path d="M206 92H215V97H206V92Z" fill="#A5CBF4"/>
<path d="M235 84H0V92H235V84Z" fill="#D8EAFC"/>
<path d="M118.5 26.6H84.5002C82.9002 26.6 81.7002 25.4 81.7002 23.8V22H121.5V23.8C121.3 25.4 120.1 26.6 118.5 26.6Z" fill="#D8EAFC"/>
<path d="M114.3 30.6H88.6999C87.0999 30.6 85.8999 29.4 85.8999 27.8V26H117.1V27.8C117.1 29.4 115.9 30.6 114.3 30.6Z" fill="#D8EAFC"/>
<path d="M109.9 34.6H92.9001C91.3001 34.6 90.1001 33.4 90.1001 31.8V30H112.7V31.8C112.7 33.4 111.5 34.6 109.9 34.6Z" fill="#D8EAFC"/>
<path d="M105.7 38.4H97.3C95.7 38.4 94.5 37.2 94.5 35.6V33.8H108.5V35.6C108.5 37 107.3 38.4 105.7 38.4Z" fill="#D8EAFC"/>
<path d="M101.5 43C99.9 43 98.5 41.6 98.5 40V38.2H104.5V40C104.5 41.8 103.1 43 101.5 43Z" fill="#D8EAFC"/>
<path d="M111 42H94V49H111V42Z" fill="#A5CBF4"/>
<path d="M114.9 84H90.5001C85.9001 84 82.7001 79.4 84.3001 75.2L93.9001 49H111L121.1 75.2C122.7 79.4 119.5 84 114.9 84Z" fill="#EBF4FC"/>
<path d="M111 46H94L89 41H111V46Z" fill="#A5CBF4"/>
<path d="M119.8 56.9999C117.8 56.9999 116.2 55.3999 116.2 53.3999V49.3999C116.2 47.9999 115.2 46.9999 113.8 46.9999H111V43.3999H113.8C117 43.3999 119.8 45.9999 119.8 49.3999V56.9999Z" fill="#A5CBF4"/>
<path d="M112.5 41.7999H88.5C87.9 41.7999 87.5 41.3999 87.5 40.7999V40.5999C87.5 39.9999 87.9 39.5999 88.5 39.5999H112.5C113.1 39.5999 113.5 39.9999 113.5 40.5999V40.7999C113.5 41.3999 113.1 41.7999 112.5 41.7999Z" fill="#D8EAFC"/>
<path d="M122.3 22.4H80.7C80.1 22.4 79.5 21.8 79.5 21.2C79.5 20.6 80.1 20 80.7 20H122.5C123.1 20 123.7 20.6 123.7 21.2C123.5 22 122.9 22.4 122.3 22.4Z" fill="#D8EAFC"/>
<path d="M150.192 57.8413C149.52 55.9365 150.697 53.873 152.379 52.7619C153.219 52.127 154.228 51.8095 155.237 51.6508C155.574 51.6508 156.078 51.4921 156.583 51.4921H157.928C159.442 51.4921 160.955 51.3333 162.132 50.8571C163.478 50.381 164.655 49.4286 165.327 48.1587C165.496 48 165.664 48 165.832 48C166 48 166 48.1587 166 48.3175C166 50.0635 164.823 51.8095 163.309 52.7619C161.796 53.873 159.778 54.3492 158.096 54.5079L156.751 54.6667C156.415 54.6667 156.078 54.8254 155.742 54.8254C155.069 54.9841 154.565 55.1429 153.892 55.3016C152.715 55.7778 151.706 56.5714 150.865 57.8413C150.697 58 150.529 58 150.361 58C150.192 58 150.192 57.8413 150.192 57.8413Z" fill="#FFBE1D"/>
<path d="M155.154 47.1949C155.462 46.6477 155.923 46.1006 156.538 45.5534C157.154 45.1886 157.769 45.0063 158.231 44.8239C158.692 44.6415 159.154 44.4591 159.462 44.2767C159.923 43.9119 160.231 43.5472 160.692 43C160.692 43 160.846 43 161 43V43.1824C161 43.9119 160.692 44.6415 160.231 45.1886C159.769 45.9182 159.154 46.283 158.538 46.4654C157.923 46.6477 157.462 46.8301 157 47.0125C156.538 47.1949 156.077 47.5597 155.615 47.9245C155.308 48.1068 155 47.9245 155 47.7421C155 47.5597 155 47.3773 155.154 47.1949Z" fill="#FFBE1D"/>
<path d="M155.6 84C149.8 84 145 79.2 145 73.4V65.2C145 64.6 145.6 64 146.2 64H165.2C165.8 64 166.4 64.6 166.4 65.2V73.4C166.2 79.2 161.4 84 155.6 84Z" fill="#D8EAFC"/>
<path d="M166.8 77.0001H162.6V74.6001H166.8C168.4 74.6001 169.6 73.4001 169.6 71.8001C169.6 70.2001 168.4 69.0001 166.8 69.0001H161.6V66.6001H166.8C169.8 66.6001 172.2 69.0001 172.2 72.0001C172.2 75.0001 169.8 77.0001 166.8 77.0001Z" fill="#D8EAFC"/>
</svg>
