<svg width="235" height="132" viewBox="0 0 235 132" fill="none" xmlns="http://www.w3.org/2000/svg">
<path d="M153.212 43.5684V118.63C153.212 121.902 150.517 124.404 147.438 124.404H144.898V43.5684H153.212Z" fill="#A5CBF4"/>
<path d="M145.706 43.5684V124.404H87.9662C84.6943 124.404 82.1923 121.709 82.1923 118.63V43.5684H145.706Z" fill="#D8EAFC"/>
<path d="M153.212 12.774V41.6437H149.363V12.774C149.363 9.50205 146.668 7 143.589 7H147.438C150.71 7 153.212 9.69451 153.212 12.774Z" fill="#EBF4FC"/>
<path d="M149.363 12.774V41.6437H82V12.774C82 9.50205 84.6945 7 87.774 7H143.396C146.861 7 149.363 9.69451 149.363 12.774Z" fill="#D8EAFC"/>
<path d="M144.551 19.5103V31.0582" stroke="#A5CBF4" stroke-width="2" stroke-miterlimit="10" stroke-linecap="round" stroke-linejoin="round"/>
<path d="M147.438 68.5888H89.6986V64.7395H151.287C151.287 66.8566 149.555 68.5888 147.438 68.5888Z" fill="white"/>
<path d="M151.287 64.7396H89.6986L97.7821 55.1163H147.246L151.287 64.7396Z" fill="#A5CBF4"/>
<path d="M147.438 89.7601H89.6986V85.9108H151.287C151.287 88.0279 149.555 89.7601 147.438 89.7601Z" fill="white"/>
<path d="M151.287 85.9107H89.6986L97.7821 76.2875H147.246L151.287 85.9107Z" fill="#A5CBF4"/>
<path d="M147.438 110.931H89.6986V107.082H151.287C151.287 109.199 149.555 110.931 147.438 110.931Z" fill="white"/>
<path d="M151.287 107.082H89.6986L97.7821 97.4586H147.246L151.287 107.082Z" fill="#A5CBF4"/>
<path d="M107.02 124.404H87.774C84.502 124.404 82 121.709 82 118.63V43.5684H107.02V124.404Z" fill="#D8EAFC"/>
<path d="M107.02 124.404V43.5684C110.292 43.5684 112.794 46.0704 112.794 49.3423V118.63C112.794 121.902 110.292 124.404 107.02 124.404Z" fill="white"/>
<path d="M100.284 57.041V72.4382" stroke="#A5CBF4" stroke-width="2" stroke-miterlimit="10" stroke-linecap="round" stroke-linejoin="round"/>
<path d="M76.3136 75H16C14.8954 75 14 75.8954 14 77V93.2709H78.3136V77C78.3136 75.8954 77.4182 75 76.3136 75Z" fill="#EBF4FC"/>
<path d="M78.3136 95.098H14V122.331C14 123.436 14.8954 124.331 16 124.331H76.3136C77.4182 124.331 78.3136 123.436 78.3136 122.331V95.098Z" fill="#EBF4FC"/>
<path d="M46.1567 87.0588C47.7713 87.0588 49.0801 85.75 49.0801 84.1354C49.0801 82.5209 47.7713 81.2121 46.1567 81.2121C44.5422 81.2121 43.2334 82.5209 43.2334 84.1354C43.2334 85.75 44.5422 87.0588 46.1567 87.0588Z" fill="white"/>
<path d="M71.9189 103.32V114.282" stroke="#D8EAFC" stroke-width="2" stroke-miterlimit="10" stroke-linecap="round" stroke-linejoin="round"/>
<path d="M219.314 75H159C157.895 75 157 75.8954 157 77V93.2709H221.314V77C221.314 75.8954 220.418 75 219.314 75Z" fill="#EBF4FC"/>
<path d="M221.314 95.098H157V122.331C157 123.436 157.895 124.331 159 124.331H219.314C220.418 124.331 221.314 123.436 221.314 122.331V95.098Z" fill="#EBF4FC"/>
<path d="M189.157 87.0588C190.771 87.0588 192.08 85.75 192.08 84.1354C192.08 82.5209 190.771 81.2121 189.157 81.2121C187.542 81.2121 186.233 82.5209 186.233 84.1354C186.233 85.75 187.542 87.0588 189.157 87.0588Z" fill="white"/>
<path d="M214.919 103.32V114.282" stroke="#D8EAFC" stroke-width="2" stroke-miterlimit="10" stroke-linecap="round" stroke-linejoin="round"/>
<path d="M187 53.6712C192.017 55.2593 191.014 50.7278 194.109 47.9191C197.282 45.041 200.59 49.4949 199.91 53.3936" stroke="#A5CBF4" stroke-miterlimit="10" stroke-linecap="round" stroke-linejoin="round"/>
<path d="M192 46C192.624 45.2033 193.615 44.0696 195.172 44.0032C198.62 43.8527 200 48.9873 200 60" stroke="#A5CBF4" stroke-miterlimit="10" stroke-linecap="round" stroke-linejoin="round"/>
<path d="M207 46.4164C207 45.3401 205.458 44 203.554 44C201.649 44 200 45.3055 200 48.098C200 50.4409 200 59 200 59" stroke="#A5CBF4" stroke-miterlimit="10" stroke-linecap="round" stroke-linejoin="round"/>
<path d="M204 40C204 40 200 50.6469 200 61" stroke="#A5CBF4" stroke-miterlimit="10" stroke-linecap="round" stroke-linejoin="round"/>
<path d="M197 42C197 42 201 48.7163 201 57" stroke="#A5CBF4" stroke-miterlimit="10" stroke-linecap="round" stroke-linejoin="round"/>
<path d="M207 61.2967C207 65.7116 204.363 75 200.564 75H199.436C195.637 75 193 65.707 193 61.2967C193 56.8819 197.97 57.7676 197.97 55.7464C197.97 54.0477 196.3 53.6435 195.212 53.0303C194.878 52.8441 194.679 52.5079 194.679 52.1446V52.0356C194.679 51.4633 195.173 51 195.783 51H204.222C204.832 51 205.326 51.4633 205.326 52.0356V52.1446C205.326 52.5079 205.122 52.8441 204.793 53.0303C203.704 53.6435 202.035 54.0431 202.035 55.7464C202.03 57.7631 207 56.8819 207 61.2967Z" fill="#D8EAFC"/>
<path d="M198.129 36.4027C198.129 38.0777 197.667 39.43 197.093 39.43C196.519 39.43 196.057 38.0733 196.057 36.4027C196.057 34.7322 196.519 35.0195 197.093 35.0195C197.667 35.0195 198.129 34.7278 198.129 36.4027Z" fill="#FFBE1D"/>
<path d="M196.052 43.7123C196.052 42.0373 196.515 40.685 197.089 40.685C197.662 40.685 198.125 42.0418 198.125 43.7123C198.125 45.3828 197.662 45.0956 197.089 45.0956C196.515 45.0956 196.052 45.3872 196.052 43.7123Z" fill="#FFBE1D"/>
<path d="M200.77 41.0871C199.085 41.0871 197.724 40.6275 197.724 40.0574C197.724 39.4873 199.09 39.0277 200.77 39.0277C202.451 39.0277 202.162 39.4873 202.162 40.0574C202.162 40.6275 202.456 41.0871 200.77 41.0871Z" fill="#FFBE1D"/>
<path d="M193.411 39.0277C195.097 39.0277 196.457 39.4873 196.457 40.0574C196.457 40.6275 195.092 41.0871 193.411 41.0871C191.731 41.0871 192.02 40.6275 192.02 40.0574C192.02 39.4873 191.726 39.0277 193.411 39.0277Z" fill="#FFBE1D"/>
<path d="M195.221 36.7432C196.413 37.9276 197.048 39.2136 196.644 39.6158C196.239 40.0179 194.945 39.386 193.754 38.2016C192.562 37.0172 193.096 36.8979 193.5 36.4957C193.909 36.0891 194.034 35.5588 195.221 36.7432Z" fill="#FFBE1D"/>
<path d="M198.961 43.3722C197.769 42.1879 197.133 40.9018 197.538 40.4996C197.942 40.0975 199.236 40.7295 200.428 41.9138C201.62 43.0982 201.086 43.2176 200.682 43.6197C200.272 44.0263 200.148 44.5566 198.961 43.3722Z" fill="#FFBE1D"/>
<path d="M200.428 38.2013C199.236 39.3857 197.942 40.0177 197.538 39.6155C197.133 39.2134 197.769 37.9273 198.961 36.7429C200.152 35.5585 200.272 36.0889 200.677 36.491C201.082 36.8976 201.615 37.0169 200.428 38.2013Z" fill="#FFBE1D"/>
<path d="M193.758 41.9139C194.95 40.7295 196.244 40.0975 196.648 40.4996C197.053 40.9018 196.417 42.1879 195.225 43.3723C194.034 44.5566 193.914 44.0263 193.509 43.6242C193.1 43.2176 192.566 43.0982 193.758 41.9139Z" fill="#FFBE1D"/>
<path d="M205.128 34.4046C205.128 36.0796 204.666 37.4319 204.092 37.4319C203.519 37.4319 203.056 36.0752 203.056 34.4046C203.056 32.7341 203.519 33.0213 204.092 33.0213C204.662 33.0169 205.128 32.7297 205.128 34.4046Z" fill="#FFBE1D"/>
<path d="M203.052 41.7144C203.052 40.0394 203.514 38.6871 204.088 38.6871C204.662 38.6871 205.124 40.0438 205.124 41.7144C205.124 43.3849 204.662 43.0976 204.088 43.0976C203.519 43.102 203.052 43.3893 203.052 41.7144Z" fill="#FFBE1D"/>
<path d="M207.77 39.0892C206.085 39.0892 204.724 38.6296 204.724 38.0595C204.724 37.4894 206.089 37.0298 207.77 37.0298C209.451 37.0298 209.162 37.4894 209.162 38.0595C209.162 38.6296 209.455 39.0892 207.77 39.0892Z" fill="#FFBE1D"/>
<path d="M200.411 37.0298C202.096 37.0298 203.457 37.4894 203.457 38.0595C203.457 38.6296 202.091 39.0892 200.411 39.0892C198.73 39.0892 199.019 38.6296 199.019 38.0595C199.019 37.4894 198.73 37.0298 200.411 37.0298Z" fill="#FFBE1D"/>
<path d="M202.22 34.7448C203.412 35.9292 204.048 37.2153 203.643 37.6174C203.239 38.0196 201.945 37.3876 200.753 36.2032C199.561 35.0188 200.095 34.8995 200.5 34.4973C200.909 34.0908 201.033 33.5604 202.22 34.7448Z" fill="#FFBE1D"/>
<path d="M205.96 41.3739C204.768 40.1895 204.132 38.9035 204.537 38.5013C204.942 38.0991 206.236 38.7311 207.427 39.9155C208.619 41.0999 208.085 41.2192 207.681 41.6214C207.272 42.028 207.147 42.5583 205.96 41.3739Z" fill="#FFBE1D"/>
<path d="M207.427 36.2034C206.236 37.3878 204.942 38.0198 204.537 37.6176C204.132 37.2154 204.768 35.9294 205.96 34.745C207.152 33.5606 207.272 34.0909 207.676 34.4931C208.081 34.8953 208.615 35.019 207.427 36.2034Z" fill="#FFBE1D"/>
<path d="M200.757 39.9155C201.949 38.7311 203.243 38.0991 203.648 38.5013C204.052 38.9035 203.416 40.1895 202.225 41.3739C201.033 42.5583 200.913 42.028 200.508 41.6258C200.099 41.2192 199.566 41.0999 200.757 39.9155Z" fill="#FFBE1D"/>
<path d="M204 39C204.552 39 205 38.5523 205 38C205 37.4477 204.552 37 204 37C203.448 37 203 37.4477 203 38C203 38.5523 203.448 39 204 39Z" fill="white"/>
<path d="M197 41C197.552 41 198 40.5523 198 40C198 39.4477 197.552 39 197 39C196.448 39 196 39.4477 196 40C196 40.5523 196.448 41 197 41Z" fill="white"/>
<path d="M210.214 44.3604C208.936 45.6314 207.553 46.3051 207.126 45.8656C206.7 45.426 207.387 44.0403 208.666 42.7741C209.944 41.5031 210.067 42.0813 210.498 42.5161C210.925 42.9509 211.493 43.0895 210.214 44.3604Z" fill="#FFBE1D"/>
<path d="M205.708 49.4201C205.733 47.6173 206.25 46.1684 206.862 46.1844C207.474 46.2003 207.953 47.6708 207.925 49.4702C207.9 51.2729 207.408 50.9459 206.796 50.9368C206.187 50.9242 205.684 51.2228 205.708 49.4201Z" fill="#FFBE1D"/>
<path d="M208.717 49.3772C207.597 47.9646 206.516 46.3746 207 46.0001C207.484 45.6256 209.351 46.6033 210.466 48.0154C211.587 49.428 210.998 49.4858 210.518 49.8656C210.038 50.2406 209.837 50.7899 208.717 49.3772Z" fill="#FFBE1D"/>
<path d="M207.272 46.4343C207.847 46.3286 208.261 45.9646 208.197 45.6214C208.133 45.2782 207.615 45.0857 207.041 45.1914C206.466 45.2972 206.052 45.6611 206.116 46.0043C206.18 46.3475 206.697 46.54 207.272 46.4343Z" fill="white"/>
<path d="M183.937 55.1761C185.316 54.0677 186.661 53.6739 186.947 54.2928C187.232 54.9117 186.346 56.3126 184.967 57.4154C183.588 58.5237 183.596 57.8261 183.311 57.2072C183.03 56.5883 182.558 56.2789 183.937 55.1761Z" fill="#FFBE1D"/>
<path d="M186.002 57.3895C186.036 55.5032 186.512 53.9901 187.06 54C187.613 54.015 188.032 55.5529 187.998 57.4343C187.964 59.3207 187.523 58.9822 186.97 58.9673C186.422 58.9573 185.968 59.2709 186.002 57.3895Z" fill="#FFBE1D"/>
<path d="M184.935 51.4216C186.321 52.2345 187.225 53.284 186.951 53.7614C186.68 54.2431 185.337 53.9721 183.951 53.1592C182.565 52.3463 183.025 52.0969 183.296 51.6195C183.571 51.1378 183.549 50.6088 184.935 51.4216Z" fill="#FFBE1D"/>
<path d="M187.821 54.1883C187.853 53.6083 187.596 53.1223 187.245 53.1027C186.895 53.0831 186.584 53.5374 186.551 54.1173C186.518 54.6973 186.776 55.1834 187.126 55.203C187.477 55.2226 187.788 54.7683 187.821 54.1883Z" fill="white"/>
<path d="M189.134 46.3547C190.464 45.6526 191.753 45.4729 192.015 45.9572C192.278 46.4414 191.407 47.405 190.073 48.1091C188.743 48.8113 188.762 48.2971 188.506 47.8145C188.247 47.3283 187.804 47.0569 189.134 46.3547Z" fill="#FFBE1D"/>
<path d="M189.308 45.0053C190.811 45.065 192.016 45.5558 192 46.1064C191.984 46.6569 190.747 47.0538 189.241 46.994C187.738 46.9343 188.012 46.499 188.032 45.9527C188.052 45.4022 187.805 44.9455 189.308 45.0053Z" fill="#FFBE1D"/>
<path d="M189.793 48.4548C190.456 46.9982 191.416 45.9092 191.932 46.0217C192.451 46.1374 192.334 47.4104 191.668 48.8694C191.001 50.3283 190.699 49.9804 190.182 49.8679C189.666 49.7554 189.127 49.9138 189.793 48.4548Z" fill="#FFBE1D"/>
</svg>
