<?xml version="1.0" encoding="UTF-8" standalone="no"?>
<svg width="200px" height="340px" viewBox="0 0 200 340" version="1.1" xmlns="http://www.w3.org/2000/svg" xmlns:xlink="http://www.w3.org/1999/xlink">
    <!-- Generator: Sketch 42 (36781) - http://www.bohemiancoding.com/sketch -->
    <title>productTile-emtState</title>
    <desc>Created with Sketch.</desc>
    <defs>
        <rect id="path-1" x="0" y="0" width="200" height="340" rx="3"></rect>
        <mask id="mask-2" maskContentUnits="userSpaceOnUse" maskUnits="objectBoundingBox" x="0" y="0" width="200" height="340" fill="white">
            <use xlink:href="#path-1"></use>
        </mask>
        <mask id="mask-4" maskContentUnits="userSpaceOnUse" maskUnits="objectBoundingBox" x="0" y="0" width="200" height="340" fill="white">
            <use xlink:href="#path-1"></use>
        </mask>
        <path d="M3.99162174,1 C2.33939468,1 1,2.34329262 1,3.99162174 L1,199 L199,199 L199,3.99162174 C199,2.33939468 197.656707,1 196.008378,1 L3.99162174,1 Z" id="path-5"></path>
        <filter x="-50%" y="-50%" width="200%" height="200%" filterUnits="objectBoundingBox" id="filter-6">
            <feOffset dx="0" dy="1" in="SourceAlpha" result="shadowOffsetOuter1"></feOffset>
            <feColorMatrix values="0 0 0 0 0.933333333   0 0 0 0 0.933333333   0 0 0 0 0.933333333  0 0 0 1 0" type="matrix" in="shadowOffsetOuter1"></feColorMatrix>
        </filter>
    </defs>
    <g id="Web" stroke="none" stroke-width="1" fill="none" fill-rule="evenodd">
        <g id="emt-sat-pro-02" transform="translate(-237.000000, -358.000000)">
            <g id="productTile-emtState" transform="translate(237.000000, 358.000000)">
                <mask id="mask-3" fill="white">
                    <use xlink:href="#path-1"></use>
                </mask>
                <g id="Base" stroke="#EEEEEE" mask="url(#mask-2)" stroke-width="2">
                    <use mask="url(#mask-4)" xlink:href="#path-1"></use>
                </g>
                <g id="IMG-BG" mask="url(#mask-3)">
                    <use fill="black" fill-opacity="1" filter="url(#filter-6)" xlink:href="#path-5"></use>
                    <use fill="#F7F7F7" fill-rule="evenodd" xlink:href="#path-5"></use>
                </g>
                <path d="M0,308 L0,337.0039 C0,338.6586 1.34341607,340 3.00210681,340 L196.997893,340 C198.655911,340 200,338.66574 200,337.0039 L200,308 L0,308 Z" id="add" fill="#EEEEEE" mask="url(#mask-3)"></path>
                <rect id="Rectangle-25-Copy-3" fill="#EEEEEE" mask="url(#mask-3)" x="10" y="209" width="180" height="17"></rect>
                <rect id="Rectangle-25-Copy-4" fill="#EEEEEE" mask="url(#mask-3)" x="50" y="230" width="100" height="17"></rect>
                <rect id="Rectangle-25-Copy-5" fill="#EEEEEE" mask="url(#mask-3)" x="11" y="254" width="28" height="18"></rect>
                <rect id="Rectangle-25-Copy-7" fill="#EEEEEE" mask="url(#mask-3)" x="170" y="276" width="19" height="18"></rect>
                <rect id="Rectangle-25-Copy-6" fill="#EEEEEE" mask="url(#mask-3)" x="11" y="277" width="58" height="21"></rect>
                <g id="rate" mask="url(#mask-3)" fill="#EEEEEE">
                    <g transform="translate(118.000000, 254.000000)">
                        <path d="M6.79369615,3.24585882 C6.89138504,3.56363137 7.17076282,3.77884706 7.48602208,3.77884706 L10.3378739,3.77884706 C10.8339924,3.77884706 11.0401554,4.45106667 10.6388221,4.75961569 L8.33182949,6.53470588 C8.07671838,6.73081569 7.96990356,7.07867451 8.06717763,7.39644706 L8.94803689,10.2676 C9.10151838,10.7672078 8.56142949,11.1831451 8.16051097,10.8737176 L5.85351838,9.09862745 C5.59840726,8.90251765 5.25307393,8.90251765 4.99775541,9.09862745 L2.69097023,10.8737176 C2.28942949,11.1831451 1.74954801,10.7667686 1.90282208,10.2676 L2.78388875,7.39644706 C2.88137023,7.07867451 2.77434801,6.73081569 2.51902949,6.53470588 L0.212244301,4.75961569 C-0.189296439,4.45106667 0.0168665236,3.77884706 0.51319245,3.77884706 L3.36483689,3.77884706 C3.68009615,3.77884706 3.95968134,3.56363137 4.05716282,3.24585882 L4.93822949,0.374705882 C5.09171097,-0.124901961 5.75873319,-0.124901961 5.91221467,0.374705882 L6.79369615,3.24585882" id="Imported-Layers"></path>
                        <path d="M21.1936962,3.24585882 C21.291385,3.56363137 21.5707628,3.77884706 21.8860221,3.77884706 L24.7378739,3.77884706 C25.2339924,3.77884706 25.4401554,4.45106667 25.0388221,4.75961569 L22.7318295,6.53470588 C22.4767184,6.73081569 22.3699036,7.07867451 22.4671776,7.39644706 L23.3480369,10.2676 C23.5015184,10.7672078 22.9614295,11.1831451 22.560511,10.8737176 L20.2535184,9.09862745 C19.9984073,8.90251765 19.6530739,8.90251765 19.3977554,9.09862745 L17.0909702,10.8737176 C16.6894295,11.1831451 16.149548,10.7667686 16.3028221,10.2676 L17.1838887,7.39644706 C17.2813702,7.07867451 17.174348,6.73081569 16.9190295,6.53470588 L14.6122443,4.75961569 C14.2107036,4.45106667 14.4168665,3.77884706 14.9131924,3.77884706 L17.7648369,3.77884706 C18.0800962,3.77884706 18.3596813,3.56363137 18.4571628,3.24585882 L19.3382295,0.374705882 C19.491711,-0.124901961 20.1587332,-0.124901961 20.3122147,0.374705882 L21.1936962,3.24585882" id="Imported-Layers-2"></path>
                        <path d="M36.3936962,3.24585882 C36.491385,3.56363137 36.7707628,3.77884706 37.0860221,3.77884706 L39.9378739,3.77884706 C40.4339924,3.77884706 40.6401554,4.45106667 40.2388221,4.75961569 L37.9318295,6.53470588 C37.6767184,6.73081569 37.5699036,7.07867451 37.6671776,7.39644706 L38.5480369,10.2676 C38.7015184,10.7672078 38.1614295,11.1831451 37.760511,10.8737176 L35.4535184,9.09862745 C35.1984073,8.90251765 34.8530739,8.90251765 34.5977554,9.09862745 L32.2909702,10.8737176 C31.8894295,11.1831451 31.349548,10.7667686 31.5028221,10.2676 L32.3838887,7.39644706 C32.4813702,7.07867451 32.374348,6.73081569 32.1190295,6.53470588 L29.8122443,4.75961569 C29.4107036,4.45106667 29.6168665,3.77884706 30.1131924,3.77884706 L32.9648369,3.77884706 C33.2800962,3.77884706 33.5596813,3.56363137 33.6571628,3.24585882 L34.5382295,0.374705882 C34.691711,-0.124901961 35.3587332,-0.124901961 35.5122147,0.374705882 L36.3936962,3.24585882" id="Imported-Layers-3"></path>
                        <path d="M51.5936962,3.24585882 C51.691385,3.56363137 51.9707628,3.77884706 52.2860221,3.77884706 L55.1378739,3.77884706 C55.6339924,3.77884706 55.8401554,4.45106667 55.4388221,4.75961569 L53.1318295,6.53470588 C52.8767184,6.73081569 52.7699036,7.07867451 52.8671776,7.39644706 L53.7480369,10.2676 C53.9015184,10.7672078 53.3614295,11.1831451 52.960511,10.8737176 L50.6535184,9.09862745 C50.3984073,8.90251765 50.0530739,8.90251765 49.7977554,9.09862745 L47.4909702,10.8737176 C47.0894295,11.1831451 46.549548,10.7667686 46.7028221,10.2676 L47.5838887,7.39644706 C47.6813702,7.07867451 47.574348,6.73081569 47.3190295,6.53470588 L45.0122443,4.75961569 C44.6107036,4.45106667 44.8168665,3.77884706 45.3131924,3.77884706 L48.1648369,3.77884706 C48.4800962,3.77884706 48.7596813,3.56363137 48.8571628,3.24585882 L49.7382295,0.374705882 C49.891711,-0.124901961 50.5587332,-0.124901961 50.7122147,0.374705882 L51.5936962,3.24585882" id="Imported-Layers-4"></path>
                        <path d="M65.9936962,3.24585882 C66.091385,3.56363137 66.3707628,3.77884706 66.6860221,3.77884706 L69.5378739,3.77884706 C70.0339924,3.77884706 70.2401554,4.45106667 69.8388221,4.75961569 L67.5318295,6.53470588 C67.2767184,6.73081569 67.1699036,7.07867451 67.2671776,7.39644706 L68.1480369,10.2676 C68.3015184,10.7672078 67.7614295,11.1831451 67.360511,10.8737176 L65.0535184,9.09862745 C64.7984073,8.90251765 64.4530739,8.90251765 64.1977554,9.09862745 L61.8909702,10.8737176 C61.4894295,11.1831451 60.949548,10.7667686 61.1028221,10.2676 L61.9838887,7.39644706 C62.0813702,7.07867451 61.974348,6.73081569 61.7190295,6.53470588 L59.4122443,4.75961569 C59.0107036,4.45106667 59.2168665,3.77884706 59.7131924,3.77884706 L62.5648369,3.77884706 C62.8800962,3.77884706 63.1596813,3.56363137 63.2571628,3.24585882 L64.1382295,0.374705882 C64.291711,-0.124901961 64.9587332,-0.124901961 65.1122147,0.374705882 L65.9936962,3.24585882" id="Imported-Layers-5"></path>
                    </g>
                </g>
            </g>
        </g>
    </g>
</svg>