<svg width="56" height="56" viewBox="0 0 56 56" fill="none" xmlns="http://www.w3.org/2000/svg">
<circle cx="28" cy="28" r="28" fill="#0AAD0A"/>
<path fill-rule="evenodd" clip-rule="evenodd" d="M23.6431 25.0855C22.8363 25.2226 22.1705 25.8037 22.1705 26.6221V36.1217C22.1705 37.7379 23.4807 39.048 25.0969 39.048H34.0669C36.0995 39.048 37.8663 37.6525 38.3371 35.6752L40.3338 27.2887C40.7082 25.7165 39.7371 24.1385 38.1649 23.7641C37.9428 23.7113 37.7153 23.6846 37.487 23.6846H31.6813V17.1002C31.6813 15.484 30.3711 14.1738 28.7549 14.1738C27.9468 14.1738 27.2917 14.8289 27.2917 15.637V20.7582C27.2917 22.9299 25.7145 24.7333 23.6431 25.0855ZM17.781 25.1477C16.5688 25.1477 15.5862 26.1304 15.5862 27.3425V36.8533C15.5862 38.0654 16.5688 39.048 17.781 39.048C18.9931 39.048 19.9757 38.0654 19.9757 36.8533V27.3425C19.9757 26.1304 18.9931 25.1477 17.781 25.1477Z" fill="white"/>
</svg>
