<svg width="276" height="89" viewBox="0 0 276 89" fill="none" xmlns="http://www.w3.org/2000/svg">
<path fill-rule="evenodd" clip-rule="evenodd" d="M51.6473 86.035C24.8921 96.0903 12.5484 78.6223 12.0548 62.7692C11.1668 33.229 21.2802 26.0905 27.7455 23.6504C27.7455 23.6504 43.4332 69.7886 51.6473 86.035Z" fill="#FFA500"/>
<path fill-rule="evenodd" clip-rule="evenodd" d="M51.6484 86.035C40.024 90.3997 26.1302 82.3108 20.6281 67.9563C15.1259 53.6018 16.1102 28.0271 27.7465 23.6504L51.6484 86.035Z" fill="#FFBE1D"/>
<path fill-rule="evenodd" clip-rule="evenodd" d="M51.6507 86.0355L27.7489 23.6509C39.3732 19.2862 57.2552 37.776 62.7573 52.1305C68.2595 66.485 63.2901 81.6707 51.6507 86.0355Z" fill="#FFD043"/>
<path d="M53.0784 62.4047C55.2937 68.4646 52.654 74.9656 47.185 76.923C41.716 78.8804 35.4884 75.5555 33.2761 69.4925C31.0608 63.4325 34.2092 55.5015 39.6783 53.5441C45.1443 51.5866 50.8631 56.3447 53.0784 62.4047Z" fill="#C96A23"/>
<path d="M47.9664 76.2376C53.4346 74.2801 56.0109 67.6116 53.7207 61.3432C51.4304 55.0748 45.1408 51.5801 39.6725 53.5376C34.2043 55.4952 31.628 62.1637 33.9182 68.4321C36.2085 74.7005 42.4981 78.1952 47.9664 76.2376Z" fill="#DE8600"/>
<path d="M81.443 70.8067C99.785 87.9069 122.228 82.5593 136.94 75.7897C136.789 74.8648 136.339 74.0032 135.648 73.3494L135.645 73.3464C134.705 72.4606 133.377 72.1202 132.127 72.4396C116.65 76.4163 98.0879 69.1075 89.3095 60.8195C77.4177 49.5881 69.1949 32.8645 73.0844 21.7807L69.9016 20.7594C65.2904 33.3405 62.6995 53.3329 81.443 70.8067Z" fill="#FFBE1D"/>
<path d="M136.941 75.7877C122.226 82.5573 99.7828 87.9049 81.4439 70.8047C62.7033 53.3309 65.2912 33.3385 69.9024 20.7604L67.1695 19.8837C53.5625 34.2242 54.701 59.3654 73.2634 76.8934C89.3375 92.0745 118.677 92.8638 135.331 79.9061C136.328 79.1319 136.935 77.9599 136.995 76.7006C137.01 76.3933 136.989 76.086 136.941 75.7877Z" fill="#FFA500"/>
<path d="M77.0176 14.3346C77.3347 13.735 77.3891 13.0331 77.1716 12.3914C76.9542 11.7497 76.4801 11.2285 75.8611 10.9483L74.2696 10.2222C73.6717 9.95107 72.9923 9.92697 72.3793 10.1559C71.7663 10.3849 71.268 10.8489 70.9962 11.4454L67.1672 19.881L73.0829 21.779L77.0176 14.3346Z" fill="#DE8600"/>
<path d="M74.8061 46.3538C74.7744 46.0683 75.1797 45.9706 75.283 46.2375C75.8711 47.7572 76.528 49.2266 77.2406 50.6617C78.1943 52.591 79.2566 54.4489 80.438 56.2117C81.6169 57.9745 82.9016 59.6501 84.303 61.2121C84.6659 61.59 85.0235 61.9732 85.3785 62.3564C85.7388 62.737 86.1282 63.0885 86.4991 63.4532C86.8646 63.8259 87.2699 64.1589 87.6567 64.5104L88.2368 65.0258C88.2395 65.0284 88.2448 65.031 88.2474 65.0337L88.8567 65.5147L89.466 66.0063L89.7653 66.2468V66.2468C89.7716 66.253 89.7796 66.2573 89.7867 66.2624L90.0885 66.4767L91.3627 67.3885C92.2449 67.9514 93.1111 68.5408 94.0356 69.0377C94.931 69.59 95.8926 70.0208 96.8251 70.5097C97.2992 70.7397 97.792 70.9326 98.2741 71.152L98.9999 71.477C99.2436 71.5854 99.4953 71.6673 99.7417 71.7625C100.24 71.9448 100.735 72.1404 101.233 72.3333C101.734 72.5157 102.248 72.6611 102.756 72.8355C103.768 73.1949 104.812 73.4539 105.853 73.7499C106.115 73.8213 106.372 73.9111 106.637 73.964L107.429 74.1463C107.959 74.2732 108.489 74.3948 109.021 74.5296C109.286 74.6036 109.556 74.6406 109.824 74.6961L110.624 74.8558C110.629 74.8568 110.635 74.8573 110.64 74.8585V74.8585C110.645 74.8599 110.651 74.8605 110.656 74.8619C110.928 74.9289 110.894 75.3305 110.611 75.3489C106.73 75.5814 102.783 75.1559 98.9549 74.1305C98.682 74.0565 98.4039 73.9931 98.1363 73.9085L97.3284 73.6442C96.7933 73.4592 96.2502 73.2874 95.7204 73.0839C94.6687 72.6531 93.6118 72.225 92.6025 71.6911C91.572 71.2048 90.613 70.5864 89.6302 70.0049V70.0049C89.6188 69.9993 89.6091 69.9907 89.5986 69.9834L88.213 69.0192L87.8768 68.7836C87.8696 68.7786 87.8616 68.7743 87.8554 68.7681V68.7681L87.5216 68.5091L86.8487 67.9779L86.1865 67.444C86.1838 67.4414 86.1785 67.4387 86.1759 67.4361L85.5454 66.8652C85.1269 66.4767 84.6845 66.112 84.2951 65.6918C83.9003 65.2768 83.4924 64.8778 83.1136 64.4523C82.7401 64.0215 82.3612 63.5933 81.9957 63.1572C80.5625 61.3839 79.3148 59.4731 78.2738 57.4698C77.23 55.4664 76.3876 53.3706 75.773 51.2193C75.4605 50.1463 75.2115 49.0574 75.0207 47.9607C74.9439 47.4294 74.8644 46.8929 74.8061 46.3538Z" fill="#FFD043"/>
<path d="M155.005 60.1362C155.296 76.3645 168.734 89.285 185.023 88.9952C188.671 88.9318 192.152 88.2075 195.354 86.9429L174.43 31.9803C162.909 36.1483 154.772 47.2459 155.005 60.1362Z" fill="#FFA500"/>
<path d="M213.995 59.0891C213.704 42.8607 200.263 29.9403 183.977 30.23C180.626 30.2904 177.418 30.903 174.434 31.9835C174.434 31.9835 175.388 48.6193 181.199 62.3214C187.209 76.4914 195.358 86.9461 195.358 86.9461C206.458 82.5668 214.219 71.6836 213.995 59.0891Z" fill="#FFBE1D"/>
<path d="M196.398 39.905C198.815 40.8225 200.863 42.4311 202.605 44.2933C204.359 46.1585 205.786 48.3496 206.807 50.7399C207.812 53.1363 208.427 55.7289 208.494 58.3455C208.527 60.9653 208.034 63.5578 207.07 65.924C206.828 66.5186 206.146 66.8053 205.549 66.5638C205.068 66.3677 204.789 65.8908 204.825 65.3988L204.831 65.3294C205.01 62.9995 205.11 60.7721 204.91 58.5568C204.647 56.3536 204.156 54.1957 203.368 52.1071C202.599 50.0156 201.56 47.9965 200.333 46.0589C199.069 44.1545 197.709 42.2168 196.004 40.578L195.982 40.5569C195.825 40.406 195.822 40.1555 195.973 39.9985C196.085 39.8838 196.255 39.8506 196.398 39.905Z" fill="#FFD043"/>
<path d="M186.907 18.9912C184.366 21.5234 181.957 26.8322 183.275 31.7849L199.749 15.3725C194.778 14.0566 189.452 16.456 186.907 18.9912Z" fill="#DE8600"/>
<path d="M199.75 15.3744L183.276 31.7868C188.247 33.0997 193.573 30.7003 196.118 28.1681C198.659 25.6329 201.068 20.3241 199.75 15.3744Z" fill="#C96A23"/>
<path fill-rule="evenodd" clip-rule="evenodd" d="M142.18 86.3654C141.405 86.1803 140.595 86.1803 139.82 86.3654L129.363 88.8606C127.032 89.4169 124.628 88.2684 123.631 86.1226L118.916 75.9729C118.6 75.2941 118.132 74.6948 117.547 74.2201L108.822 67.147C107.061 65.7192 106.505 63.3003 107.47 61.2663L112.389 50.9042C112.702 50.2461 112.862 49.5281 112.859 48.8018L112.812 37.3481C112.803 35.0529 114.407 33.056 116.68 32.5344L127.315 30.0939C128.08 29.9184 128.792 29.5682 129.394 29.0717L137.784 22.151C139.644 20.6163 142.356 20.6163 144.216 22.151L152.606 29.0717C153.208 29.5682 153.92 29.9184 154.685 30.0939L165.32 32.5344C167.593 33.056 169.197 35.0529 169.188 37.3481L169.141 48.8018C169.138 49.5281 169.298 50.2461 169.611 50.9042L174.53 61.2663C175.495 63.3003 174.939 65.7192 173.178 67.147L164.453 74.2201C163.868 74.6948 163.4 75.2941 163.084 75.9729L158.369 86.1226C157.372 88.2684 154.968 89.4169 152.637 88.8606L142.18 86.3654Z" fill="#FFB119"/>
<path fill-rule="evenodd" clip-rule="evenodd" d="M142.18 86.3654C141.405 86.1803 140.595 86.1803 139.82 86.3654L129.363 88.8606C127.032 89.4169 124.628 88.2684 123.631 86.1226L118.916 75.9729C118.6 75.2941 118.132 74.6948 117.547 74.2201L108.822 67.147C107.061 65.7192 106.505 63.3003 107.47 61.2663L112.389 50.9042C112.702 50.2461 112.862 49.5281 112.859 48.8018L112.812 37.3481C112.803 35.0529 114.407 33.056 116.68 32.5344L127.315 30.0939C128.08 29.9184 128.792 29.5682 129.394 29.0717L137.784 22.151C139.644 20.6163 142.356 20.6163 144.216 22.151L152.606 29.0717C153.208 29.5682 153.92 29.9184 154.685 30.0939L165.32 32.5344C167.593 33.056 169.197 35.0529 169.188 37.3481L169.141 48.8018C169.138 49.5281 169.298 50.2461 169.611 50.9042L174.53 61.2663C175.495 63.3003 174.939 65.7192 173.178 67.147L164.453 74.2201C163.868 74.6948 163.4 75.2941 163.084 75.9729L158.369 86.1226C157.372 88.2684 154.968 89.4169 152.637 88.8606L142.18 86.3654Z" fill="#FFBE1D"/>
<path d="M128.554 29.6313C128.165 29.8379 127.748 29.9936 127.315 30.0931L116.68 32.5336C114.407 33.0551 112.803 35.0521 112.812 37.3472L112.859 48.8009C112.862 49.5273 112.702 50.2452 112.389 50.9034L107.47 61.2654C106.505 63.2995 107.061 65.7184 108.822 67.1462L117.547 74.2193C118.132 74.6939 118.6 75.2933 118.916 75.9721L123.631 86.1217C124.628 88.2675 127.032 89.4161 129.363 88.8598L139.82 86.3646C140.595 86.1795 141.405 86.1795 142.18 86.3646L152.637 88.8598C153.759 89.1277 154.899 89.0002 155.891 88.5562L128.554 29.6313Z" fill="#FFA500"/>
<path d="M152.541 49.1007H143.418C143.131 49.1007 142.958 48.8877 142.958 48.6747V34.2984C142.958 32.7542 140.721 32.275 139.975 33.6594L126.605 59.2706C126.089 60.2291 126.835 61.3472 128.04 61.3472H137.163C137.45 61.3472 137.622 61.5602 137.622 61.7732V76.0963C137.622 77.6404 139.86 78.1197 140.606 76.7353L153.975 51.124C154.434 50.2189 153.688 49.1007 152.541 49.1007Z" fill="#C96A23"/>
<path d="M159.762 34.1057C161.035 34.7515 162.061 35.7493 162.902 36.868C163.75 37.9867 164.398 39.2631 164.81 40.6259C165.214 41.9886 165.39 43.4335 165.263 44.8589C165.118 46.2821 164.685 47.6622 164.007 48.8846C163.835 49.1934 163.444 49.3057 163.13 49.1394C162.878 49.0034 162.753 48.7269 162.805 48.4634L162.812 48.4267C163.056 47.1741 163.251 45.969 163.278 44.7552C163.271 43.5436 163.135 42.3407 162.832 41.1593C162.54 39.978 162.094 38.8182 161.541 37.6887C160.965 36.5764 160.339 35.4426 159.5 34.4491L159.49 34.4362C159.413 34.3454 159.426 34.2094 159.518 34.1338C159.593 34.0755 159.687 34.0668 159.762 34.1057Z" fill="#FFD043"/>
<path d="M45.9489 56.9861C47.128 57.4337 48.1287 58.2229 48.9783 59.1361C49.8339 60.0494 50.5293 61.1228 51.0281 62.2931C51.5179 63.4664 51.8172 64.7364 51.8505 66.0185C51.8656 67.3007 51.6268 68.5737 51.1551 69.7289C51.0372 70.0192 50.7046 70.1613 50.4144 70.0434C50.1786 69.9466 50.0425 69.7138 50.0607 69.4719L50.0637 69.4386C50.1514 68.2986 50.1997 67.2069 50.103 66.1214C49.976 65.0418 49.7341 63.9835 49.3502 62.9614C48.9753 61.9363 48.4674 60.9475 47.8687 59.9979C47.252 59.0636 46.5899 58.1171 45.7554 57.3127L45.7433 57.3036C45.6677 57.2311 45.6647 57.1071 45.7373 57.0315C45.7977 56.9771 45.8794 56.9589 45.9489 56.9861Z" fill="#F7A537"/>
<path d="M230.072 11.9707C234.919 11.3353 239.368 14.711 240.01 19.5081C240.651 24.3083 239.931 46.8844 235.083 47.5198C230.236 48.1552 223.102 26.6089 222.457 21.8088C221.819 17.0147 225.228 12.6091 230.072 11.9707Z" fill="#C96A23"/>
<path d="M260.141 18.8548C256.069 16.1777 250.574 17.2769 247.871 21.3091C245.168 25.3413 235.811 45.942 239.882 48.6221C243.954 51.2992 259.916 35.0409 262.62 31.0057C265.323 26.9704 264.213 21.5319 260.141 18.8548Z" fill="#C96A23"/>
<path d="M255.302 19.4924C256.175 17.1646 256.798 15.2524 257.069 14.09C258.514 7.90166 254.618 1.72535 248.372 0.297967C242.123 -1.13243 235.886 2.72513 234.444 8.91047C234.177 10.0518 233.918 11.9911 233.712 14.4062L236.421 46.7573C236.47 47.3505 236.901 47.8414 237.488 47.9739C238.075 48.1034 238.677 47.8444 238.978 47.3294L255.302 19.4924Z" fill="#DE8600"/>
<path d="M238.211 45.5941C225.174 42.7182 213.047 47.2774 210.432 58.4767C207.592 70.6426 223.636 84.257 228.383 88.9999C218.311 63.873 230.539 50.9031 238.211 45.5941Z" fill="#FFA500"/>
<path d="M238.501 45.6574C238.404 45.6364 238.307 45.6153 238.209 45.5942C230.534 50.9032 218.306 63.8732 228.384 89C234.752 86.8017 255.202 81.5409 258.043 69.3749C260.676 58.0944 251.647 48.6688 238.501 45.6574Z" fill="#FFBE1D"/>
<path d="M244.517 53.9685C246.28 54.8689 247.701 56.2602 248.865 57.8201C250.039 59.38 250.936 61.1597 251.508 63.0599C252.067 64.96 252.311 66.9746 252.134 68.9621C251.934 70.9466 251.335 72.8709 250.395 74.5753C250.158 75.0059 249.616 75.1625 249.182 74.9306C248.832 74.7409 248.658 74.3555 248.731 73.9881L248.741 73.9369C249.078 72.1903 249.349 70.51 249.385 68.8176C249.376 67.1282 249.188 65.4509 248.768 63.8037C248.364 62.1564 247.746 60.5393 246.98 58.9644C246.183 57.4135 245.316 55.8326 244.155 54.4474L244.14 54.4293C244.033 54.3028 244.051 54.1131 244.179 54.0077C244.283 53.9264 244.413 53.9143 244.517 53.9685Z" fill="#FFD043"/>
<path d="M14.7011 69.7011C11.7172 69.7011 9.29892 67.2828 9.29892 64.2989C9.29892 63.5806 8.71829 63 8 63C7.2817 63 6.70108 63.5806 6.70108 64.2989C6.70108 67.2828 4.28283 69.7011 1.29891 69.7011C0.58062 69.7011 0 70.2817 0 71C0 71.7183 0.58062 72.2989 1.29891 72.2989C4.28283 72.2989 6.70108 74.7172 6.70108 77.7011C6.70108 78.4194 7.2817 79 8 79C8.71829 79 9.29892 78.4194 9.29892 77.7011C9.29892 74.7172 11.7172 72.2989 14.7011 72.2989C15.4194 72.2989 16 71.7183 16 71C15.997 70.2817 15.4164 69.7011 14.7011 69.7011Z" fill="#FFD869"/>
<path d="M100.701 34.7011C97.7172 34.7011 95.2989 32.2828 95.2989 29.2989C95.2989 28.5806 94.7183 28 94 28C93.2817 28 92.7011 28.5806 92.7011 29.2989C92.7011 32.2828 90.2828 34.7011 87.2989 34.7011C86.5806 34.7011 86 35.2817 86 36C86 36.7183 86.5806 37.2989 87.2989 37.2989C90.2828 37.2989 92.7011 39.7172 92.7011 42.7011C92.7011 43.4194 93.2817 44 94 44C94.7183 44 95.2989 43.4194 95.2989 42.7011C95.2989 39.7172 97.7172 37.2989 100.701 37.2989C101.419 37.2989 102 36.7183 102 36C102 35.2817 101.419 34.7011 100.701 34.7011Z" fill="#FFD869"/>
<path d="M274.701 23.7011C271.717 23.7011 269.299 21.2828 269.299 18.2989C269.299 17.5806 268.718 17 268 17C267.282 17 266.701 17.5806 266.701 18.2989C266.701 21.2828 264.283 23.7011 261.299 23.7011C260.581 23.7011 260 24.2817 260 25C260 25.7183 260.581 26.2989 261.299 26.2989C264.283 26.2989 266.701 28.7172 266.701 31.7011C266.701 32.4194 267.282 33 268 33C268.718 33 269.299 32.4194 269.299 31.7011C269.299 28.7172 271.717 26.2989 274.701 26.2989C275.419 26.2989 276 25.7183 276 25C276 24.2817 275.416 23.7011 274.701 23.7011Z" fill="#FFD869"/>
<path d="M59.0288 9.02582C56.7885 9.02582 54.9742 7.21152 54.9742 4.97418C54.9742 4.43496 54.5392 4 54 4C53.4608 4 53.0258 4.43496 53.0258 4.97418C53.0258 7.21152 51.2115 9.02582 48.9742 9.02582C48.435 9.02582 48 9.46077 48 10C48 10.5392 48.435 10.9742 48.9742 10.9742C51.2115 10.9742 53.0258 12.7885 53.0258 15.0258C53.0258 15.565 53.4608 16 54 16C54.5392 16 54.9742 15.565 54.9742 15.0258C54.9742 12.7885 56.7885 10.9742 59.0258 10.9742C59.565 10.9742 60 10.5392 60 10C60 9.46077 59.5651 9.02582 59.0288 9.02582Z" fill="#FFD869"/>
<path d="M216.029 9.02582C213.788 9.02582 211.974 7.21152 211.974 4.97418C211.974 4.43496 211.539 4 211 4C210.461 4 210.026 4.43496 210.026 4.97418C210.026 7.21152 208.212 9.02582 205.974 9.02582C205.435 9.02582 205 9.46077 205 10C205 10.5392 205.435 10.9742 205.974 10.9742C208.212 10.9742 210.026 12.7885 210.026 15.0258C210.026 15.565 210.461 16 211 16C211.539 16 211.974 15.565 211.974 15.0258C211.974 12.7885 213.788 10.9742 216.026 10.9742C216.565 10.9742 217 10.5392 217 10C217.003 9.46077 216.565 9.02582 216.029 9.02582Z" fill="#FFD869"/>
</svg>
