<svg width="40" height="40" viewBox="0 0 40 40" fill="none" xmlns="http://www.w3.org/2000/svg">
<path fill-rule="evenodd" clip-rule="evenodd" d="M20 40C31.0457 40 40 31.0457 40 20C40 8.9543 31.0457 0 20 0C8.9543 0 0 8.9543 0 20C0 31.0457 8.9543 40 20 40ZM10.4856 12.8302L10.7137 13.0583C10.4893 13.2138 10.3057 13.4231 10.1807 13.6684C10 14.023 10 14.4873 10 15.4158V16.6316H14.287L17.6028 19.9474H10V25.5842C10 26.5127 10 26.977 10.1807 27.3316C10.3396 27.6436 10.5933 27.8972 10.9052 28.0561C11.2599 28.2368 11.7241 28.2368 12.6526 28.2368H25.8922L28.1698 30.5144C28.8172 31.1619 29.867 31.1619 30.5144 30.5144C31.1619 29.867 31.1619 28.8172 30.5144 28.1698L12.8302 10.4856C12.1828 9.83814 11.133 9.83814 10.4856 10.4856C9.83814 11.133 9.83814 12.1828 10.4856 12.8302ZM22.292 16.6316L18.4236 12.7632H28.3474C29.2759 12.7632 29.7401 12.7632 30.0948 12.9439C30.4067 13.1028 30.6604 13.3564 30.8193 13.6684C31 14.023 31 14.4873 31 15.4158V16.6316H22.292ZM31 25.3396L25.6078 19.9474H31V25.3396Z" fill="#0AAD0A"/>
</svg>
