<svg width="182" height="159" viewBox="0 0 182 159" fill="none" xmlns="http://www.w3.org/2000/svg">
<path d="M179.714 11.7143C174.571 11.7143 170.286 7.42861 170.286 2.28576C170.286 1.14291 169.143 0 168 0C166.857 0 165.714 1.14291 165.714 2.28576C165.714 7.42861 161.429 11.7143 156.286 11.7143C155.143 11.7143 154 12.8572 154 14C154 15.1429 155.143 16.2857 156.286 16.2857C161.429 16.2857 165.714 20.5714 165.714 25.7142C165.714 26.8571 166.857 28 168 28C169.143 28 170.286 26.8571 170.286 25.7142C170.286 20.5714 174.571 16.2857 179.714 16.2857C180.857 16.2857 182 15.1429 182 14C182 12.8572 181.143 11.7143 179.714 11.7143Z" fill="#FFD869"/>
<path d="M34.8333 136.833C27.9242 136.833 22.1667 131.076 22.1667 124.167C22.1667 122.439 20.7273 121 19 121C17.2727 121 15.8333 122.439 15.8333 124.167C15.8333 131.076 10.0757 136.833 3.16664 136.833C1.43937 136.833 0 138.273 0 140C0 141.727 1.43937 143.167 3.16664 143.167C10.0757 143.167 15.8333 148.924 15.8333 155.833C15.8333 157.561 17.2727 159 19 159C20.7273 159 22.1667 157.561 22.1667 155.833C22.1667 148.924 27.9242 143.167 34.8333 143.167C36.5606 143.167 38 141.727 38 140C37.7121 138.273 36.5606 136.833 34.8333 136.833Z" fill="#FFD869"/>
<path fill-rule="evenodd" clip-rule="evenodd" d="M97.6 127.312C96.22 126.983 94.78 126.983 93.4 127.312L74.7936 131.752C70.6456 132.742 66.3667 130.698 64.593 126.88L56.2031 108.819C55.642 107.612 54.8091 106.545 53.7672 105.7L38.2418 93.1145C35.1078 90.5739 34.1185 86.2697 35.8367 82.6503L44.5901 64.2119C45.146 63.0408 45.4316 61.7632 45.4262 60.4708L45.342 40.0899C45.3251 36.006 48.1802 32.4525 52.2242 31.5245L71.1481 27.1819C72.5094 26.8695 73.7767 26.2464 74.8477 25.363L89.7767 13.048C93.0871 10.3173 97.9129 10.3173 101.223 13.0481L116.152 25.363C117.223 26.2464 118.491 26.8695 119.852 27.1819L138.776 31.5245C142.82 32.4525 145.675 36.006 145.658 40.0899L145.574 60.4708C145.568 61.7632 145.854 63.0408 146.41 64.2119L155.163 82.6503C156.881 86.2697 155.892 90.5739 152.758 93.1145L137.233 105.7C136.191 106.545 135.358 107.612 134.797 108.819L126.407 126.88C124.633 130.698 120.354 132.742 116.206 131.752L97.6 127.312Z" fill="#FFB119"/>
<path fill-rule="evenodd" clip-rule="evenodd" d="M97.6 127.312C96.22 126.983 94.78 126.983 93.4 127.312L74.7936 131.752C70.6456 132.742 66.3667 130.698 64.593 126.88L56.2031 108.819C55.642 107.612 54.8091 106.545 53.7672 105.7L38.2418 93.1145C35.1078 90.5739 34.1185 86.2697 35.8367 82.6503L44.5901 64.2119C45.146 63.0408 45.4316 61.7632 45.4262 60.4708L45.3419 40.0899C45.3251 36.006 48.1802 32.4525 52.2242 31.5245L71.1481 27.1819C72.5094 26.8695 73.7767 26.2464 74.8477 25.363L89.7767 13.048C93.0871 10.3173 97.9129 10.3173 101.223 13.0481L116.152 25.363C117.223 26.2464 118.491 26.8695 119.852 27.1819L138.776 31.5245C142.82 32.4525 145.675 36.006 145.658 40.0899L145.574 60.4708C145.568 61.7632 145.854 63.0408 146.41 64.2119L155.163 82.6503C156.881 86.2697 155.892 90.5739 152.758 93.1145L137.233 105.7C136.191 106.545 135.358 107.612 134.797 108.819L126.407 126.88C124.633 130.698 120.354 132.742 116.206 131.752L97.6 127.312Z" fill="#FFBE1D"/>
<path d="M73.3541 26.359C72.6614 26.7267 71.9199 27.0036 71.1482 27.1807L52.2242 31.5234C48.1803 32.4514 45.3251 36.0048 45.342 40.0887L45.4263 60.4696C45.4316 61.762 45.1461 63.0396 44.5901 64.2107L35.8368 82.6491C34.1186 86.2685 35.1078 90.5727 38.2419 93.1134L53.7673 105.699C54.8091 106.544 55.6421 107.61 56.2032 108.818L64.593 126.879C66.3668 130.697 70.6456 132.741 74.7937 131.751L93.4001 127.311C94.78 126.981 96.2201 126.981 97.6001 127.311L116.206 131.751C118.204 132.228 120.233 132.001 121.997 131.211L73.3541 26.359Z" fill="#FFA800"/>
<path d="M116.037 61.0027H99.8033C99.2928 61.0027 98.9865 60.6237 98.9865 60.2447V34.6632C98.9865 31.9156 95.0046 31.0629 93.6773 33.5263L69.8878 79.0992C68.9689 80.8046 70.2962 82.7943 72.4403 82.7943H88.6743C89.1848 82.7943 89.4911 83.1733 89.4911 83.5523V109.039C89.4911 111.787 93.473 112.639 94.8003 110.176L118.59 64.603C119.407 62.9923 118.079 61.0027 116.037 61.0027Z" fill="#212121"/>
</svg>
