<svg width="56" height="56" viewBox="0 0 56 56" fill="none" xmlns="http://www.w3.org/2000/svg">
<circle cx="28" cy="28" r="28" fill="#0AAD0A"/>
<path fill-rule="evenodd" clip-rule="evenodd" d="M25.9258 16.1636C25.9258 15.0761 26.8073 14.1946 27.8948 14.1946C28.9822 14.1946 29.8637 15.0761 29.8637 16.1636V16.9888C32.7539 17.4772 34.8709 19.0029 35.6501 21.2917C35.7548 21.5909 35.8146 21.905 35.8146 22.2938C35.8146 23.3707 35.0369 24.1036 33.8852 24.1036C32.8682 24.1036 32.24 23.6997 31.7315 22.7724C31.0136 21.1422 29.6226 20.4691 27.768 20.4691C25.5395 20.4691 24.0588 21.5161 24.0588 23.1015C24.0588 24.4326 25.0908 25.2552 27.6484 25.7637L29.9218 26.2274C34.4984 27.1397 36.4727 28.9794 36.4727 32.2548C36.4727 35.8982 34.0062 38.381 29.8637 38.9895V39.7908C29.8637 40.8783 28.9822 41.7598 27.8948 41.7598C26.8073 41.7598 25.9258 40.8783 25.9258 39.7908V39.0237C22.5305 38.6 20.342 37.0083 19.6018 34.9919C19.4522 34.603 19.3625 34.1842 19.3625 33.7804C19.3625 32.5839 20.1851 31.7912 21.3517 31.7912C22.279 31.7912 22.8922 32.1501 23.4306 33.1074C24.1336 34.7526 25.8237 35.5004 27.8877 35.5004C30.3106 35.5004 31.9558 34.3338 31.9558 32.7484C31.9558 31.3275 30.9388 30.5199 28.2317 29.9665L25.9433 29.5178C21.6359 28.6653 19.527 26.6013 19.527 23.3857C19.527 19.9634 22.1111 17.5411 25.9258 16.9562V16.1636Z" fill="white"/>
<path d="M18.6267 17.5558L39.6291 38.5582C40.3981 39.3272 41.6448 39.3272 42.4137 38.5582C43.1826 37.7893 43.1826 36.5426 42.4137 35.7737L21.4113 14.7713C20.6424 14.0023 19.3957 14.0023 18.6267 14.7713C17.8578 15.5402 17.8578 16.7869 18.6267 17.5558Z" fill="#0AAD0A"/>
<path d="M16.5061 19.6754L37.5085 40.6778C38.2775 41.4467 39.5242 41.4467 40.2931 40.6778C41.062 39.9089 41.062 38.6622 40.2931 37.8932L19.2907 16.8908C18.5218 16.1219 17.2751 16.1219 16.5061 16.8908C15.7372 17.6598 15.7372 18.9065 16.5061 19.6754Z" fill="white"/>
</svg>
