<svg width="56" height="56" viewBox="0 0 56 56" fill="none" xmlns="http://www.w3.org/2000/svg">
<circle cx="28" cy="28" r="28" fill="#0AAD0A"/>
<path fill-rule="evenodd" clip-rule="evenodd" d="M13 19.3571C13 18.0553 14.0957 17 15.4474 17H34.2105C35.1985 17 36.0896 17.5722 36.4696 18.4505L39.9211 26.4286H41.5526C42.9043 26.4286 44 27.4839 44 28.7857V33.5C44 34.5532 43.2828 35.4451 42.2931 35.7473C41.8491 33.1357 39.4951 31.1429 36.6579 31.1429C33.781 31.1429 31.401 33.1918 31.0052 35.8571H25.9948C25.599 33.1918 23.219 31.1429 20.3421 31.1429C17.5049 31.1429 15.1509 33.1357 14.7069 35.7473C13.7172 35.4451 13 34.5532 13 33.5V19.3571ZM36.6579 39C38.0095 39 39.1053 37.9447 39.1053 36.6429C39.1053 35.341 38.0095 34.2857 36.6579 34.2857C35.3062 34.2857 34.2105 35.341 34.2105 36.6429C34.2105 37.9447 35.3062 39 36.6579 39ZM22.7895 36.6429C22.7895 37.9447 21.6937 39 20.3421 39C18.9905 39 17.8947 37.9447 17.8947 36.6429C17.8947 35.341 18.9905 34.2857 20.3421 34.2857C21.6937 34.2857 22.7895 35.341 22.7895 36.6429Z" fill="white"/>
</svg>
