<?xml version="1.0" encoding="UTF-8"?>
<svg width="104px" height="44px" viewBox="0 0 104 44" version="1.1" xmlns="http://www.w3.org/2000/svg" xmlns:xlink="http://www.w3.org/1999/xlink">
    <!-- Generator: Sketch 52 (66869) - http://www.bohemiancoding.com/sketch -->
    <title>Group 2</title>
    <desc>Created with Sketch.</desc>
    <g id="Symbols" stroke="none" stroke-width="1" fill="none" fill-rule="evenodd">
        <g id="Component/-footer" transform="translate(-38.000000, -19.000000)">
            <g id="Group-2" transform="translate(38.000000, 19.000000)">
                <path d="M1,-3.19744231e-14 L82,-3.19744231e-14 C94.1502645,-3.42063905e-14 104,9.8497355 104,22 L104,43 C104,43.5522847 103.552285,44 103,44 L1,44 C0.44771525,44 6.76353751e-17,43.5522847 0,43 L0,1 C-6.76353751e-17,0.44771525 0.44771525,-3.187297e-14 1,-3.19744231e-14 Z" id="Rectangle-3" fill="#358266" fill-rule="nonzero"></path>
                <path d="M14.2090436,19.6264091 L15.6841627,19.3307087 L15.6841627,9.03047641 L14.2090436,8.73477596 L14.2090436,7 L25.2391278,7 L25.2391278,10.932816 L23.1073428,10.932816 L22.9836231,9.21775336 L18.4630968,9.21775336 L18.4630968,13.1702827 L23.3167145,13.1702827 L23.3167145,15.388036 L18.4630968,15.388036 L18.4630968,19.3307087 L19.9477328,19.6264091 L19.9477328,21.3513284 L14.2090436,21.3513284 L14.2090436,19.6264091 Z M26.2764697,19.6264091 L27.6088353,19.3307087 L27.6088353,12.7168753 L26.1337162,12.4211749 L26.1337162,10.6863989 L30.1974314,10.6863989 L30.3211511,12.2437546 C30.5622471,11.6917777 30.8731293,11.2613735 31.2538071,10.9525293 C31.6344849,10.6436851 32.0754301,10.4892653 32.5766558,10.4892653 C32.7225823,10.4892653 32.8764373,10.5007646 33.0382254,10.5237637 C33.2000134,10.5467627 33.3348348,10.5746897 33.4426935,10.6075455 L33.1476697,13.2294228 L32.005642,13.1998527 C31.5995857,13.1998527 31.2633253,13.2819909 30.9968508,13.4462698 C30.7303764,13.6105486 30.5273513,13.8438211 30.3877694,14.1460941 L30.3877694,19.3307087 L31.7201351,19.6264091 L31.7201351,21.3513284 L26.2764697,21.3513284 L26.2764697,19.6264091 Z M39.0195955,21.5583187 C37.534952,21.5583187 36.348524,21.0654895 35.4602758,20.0798165 C34.5720276,19.0941434 34.1279101,17.8423573 34.1279101,16.3244208 L34.1279101,15.9301535 C34.1279101,14.3465054 34.5482356,13.0421509 35.3888991,12.0170509 C36.2295625,10.9919509 37.3573036,10.4826941 38.7721561,10.4892653 C40.1616301,10.4892653 41.2402011,10.9229549 42.0079013,11.7903472 C42.7756015,12.6577396 43.1594459,13.8306729 43.1594459,15.3091826 L43.1594459,16.8763949 L37.0115301,16.8763949 L36.9924963,16.935535 C37.0432533,17.6386485 37.2700705,18.2169014 37.6729545,18.670311 C38.0758385,19.1237206 38.6230546,19.350422 39.3146193,19.350422 C39.9300484,19.350422 40.4407835,19.2863542 40.8468398,19.1582167 C41.2528961,19.0300792 41.6970136,18.8280193 42.1792055,18.5520308 L42.9310404,20.3262335 C42.5059501,20.6745047 41.9555617,20.9669166 41.2798586,21.2034782 C40.6041555,21.4400397 39.850742,21.5583187 39.0195955,21.5583187 Z M38.7721561,12.7070186 C38.2582411,12.7070186 37.8521909,12.9107214 37.5539932,13.3181329 C37.2557956,13.7255444 37.0718041,14.2610854 37.0020132,14.924772 L37.0305639,14.9740554 L40.4376132,14.9740554 L40.4376132,14.7177817 C40.4376132,14.1066644 40.2996196,13.6187635 40.0236282,13.2540645 C39.7476368,12.8893654 39.3304836,12.7070186 38.7721561,12.7070186 Z M52.8761983,14.3530845 L51.0108864,14.3530845 L50.7158625,13.0224324 C50.5255236,12.8647248 50.2860175,12.7333036 49.9973368,12.6281652 C49.7086561,12.5230267 49.3898432,12.4704583 49.0408886,12.4704583 C48.5523521,12.4704583 48.1653354,12.583809 47.8798271,12.8105138 C47.5943187,13.0372186 47.4515667,13.3214167 47.4515667,13.6631168 C47.4515667,13.9851033 47.5879742,14.2528738 47.8607933,14.4664363 C48.1336124,14.6799988 48.6792424,14.8689166 49.4976997,15.0331955 C50.7729703,15.2960416 51.718306,15.6820911 52.3337351,16.1913556 C52.9491642,16.70062 53.2568742,17.4020802 53.2568742,18.2957571 C53.2568742,19.2551456 52.8587546,20.0387439 52.0625035,20.6465757 C51.2662525,21.2544074 50.2178181,21.5583187 48.9171689,21.5583187 C48.1240902,21.5583187 47.3960548,21.4383969 46.7330409,21.1985498 C46.0700271,20.9587027 45.4815715,20.6153651 44.9676564,20.1685266 L44.9391057,17.773353 L46.8805528,17.773353 L47.2612287,19.1631451 C47.4261891,19.3077105 47.6514201,19.4144901 47.9369285,19.4834872 C48.2224368,19.5524843 48.52063,19.5869824 48.8315168,19.5869824 C49.3961889,19.5869824 49.8260312,19.4818455 50.1210565,19.2715686 C50.4160818,19.0612916 50.5635922,18.7754507 50.5635922,18.4140373 C50.5635922,18.0986219 50.4144956,17.8259231 50.116298,17.5959327 C49.8181004,17.3659423 49.2692981,17.1622396 48.4698747,16.9848184 C47.2580504,16.7285434 46.3428512,16.349065 45.7242498,15.8463717 C45.1056484,15.3436784 44.7963523,14.6586459 44.7963523,13.7912536 C44.7963523,12.8975767 45.1516462,12.1271204 45.8622448,11.4798618 C46.5728434,10.8326031 47.5847967,10.5089786 48.8981351,10.5089786 C49.6975585,10.5089786 50.4541443,10.6206866 51.1679152,10.8441058 C51.8816861,11.0675251 52.4415913,11.353366 52.8476476,11.7016371 L52.8761983,14.3530845 Z M54.3513174,19.6264091 L55.6932,19.3307087 L55.6932,9.39755282 L54.2085639,8.40576673 L54.2085639,7.89423894 L54.2085639,7.36707642 L58.4626171,7.36707642 L58.4626171,12.046621 C58.7861933,11.5537844 59.1827267,11.1710205 59.6522293,10.8983176 C60.121732,10.6256147 60.6419838,10.4892653 61.2130005,10.4892653 C62.2915877,10.4892653 63.1369969,10.8588871 63.7492537,11.598142 C64.3615105,12.3373968 64.6676343,13.4791176 64.6676343,15.0233388 L64.6676343,19.3307087 L66,19.6264091 L66,21.3513284 L60.6895712,21.3513284 L60.6895712,19.6264091 L61.8887003,19.3307087 L61.8887003,15.0036254 C61.8887003,14.1756601 61.7475344,13.5891934 61.4651983,13.2442078 C61.1828623,12.8992222 60.7625368,12.726732 60.2042094,12.726732 C59.817187,12.726732 59.4793405,12.7990136 59.1906598,12.943579 C58.9019791,13.0881444 58.6593007,13.2918471 58.4626171,13.5546933 L58.4626171,19.3307087 L59.6617462,19.6264091 L59.6617462,21.3513284 L54.3513174,21.3513284 L54.3513174,19.6264091 Z M22.3801205,32.7245794 C22.053919,33.0576689 21.5784071,33.3586346 20.9535704,33.6274854 C20.3287337,33.8963362 19.538511,34.0307596 18.5828784,34.0307596 C17.2275342,34.0307596 16.1248978,33.5608725 15.2749361,32.6210842 C14.4249745,31.6812959 14,30.4595895 14,28.9559282 L14,28.5990483 C14,27.0430444 14.4192316,25.7773232 15.2577072,24.8018467 C16.0961829,23.8263702 17.1907793,23.3386393 18.5415291,23.3386393 C19.3271694,23.3386393 20.0450316,23.4683044 20.6951374,23.7276384 C21.3452432,23.9869723 21.8862242,24.3379007 22.3180966,24.7804339 L22.3180966,26.8717498 L20.8295226,26.8717498 L20.5469692,25.4799184 C20.3631937,25.3181321 20.1208434,25.188467 19.819911,25.0909194 C19.5189786,24.9933717 19.1732562,24.9445987 18.7827333,24.9445987 C17.9052053,24.9445987 17.222949,25.2800624 16.735944,25.9509998 C16.2489389,26.6219373 16.00544,27.499853 16.00544,28.5847731 L16.00544,28.9559282 C16.00544,30.0122978 16.2443446,30.8557154 16.7221609,31.4862063 C17.1999771,32.1166972 17.8891249,32.4319379 18.7896248,32.4319379 C19.1939309,32.4319379 19.5212761,32.3962503 19.7716702,32.324874 C20.0220643,32.2534976 20.2184714,32.1702265 20.3608974,32.0750581 L20.3608974,30.3120716 L18.9274557,30.1978701 L18.9274557,28.7346627 L22.3801205,28.7346627 L22.3801205,32.7245794 Z M23.5861412,32.6317906 L24.5509577,32.4176627 L24.5509577,27.6283351 L23.482768,27.4142072 L23.482768,26.1579901 L26.4254583,26.1579901 L26.5150484,27.2857305 C26.6896352,26.886023 26.9147568,26.5743511 27.19042,26.3507053 C27.4660832,26.1270594 27.7853884,26.0152382 28.148345,26.0152382 C28.2540159,26.0152382 28.3654281,26.0235653 28.482585,26.0402198 C28.5997418,26.0568743 28.6973711,26.0770973 28.7754757,26.1008894 L28.5618377,27.9994902 L27.7348522,27.9780774 C27.4408114,27.9780774 27.1973125,28.0375568 27.0043482,28.1565173 C26.811384,28.2754779 26.6643658,28.4443993 26.5632893,28.6632867 L26.5632893,32.4176627 L27.5281058,32.6317906 L27.5281058,33.8808701 L23.5861412,33.8808701 L23.5861412,32.6317906 Z M29.2372093,29.9480542 C29.2372093,28.7965161 29.5484744,27.8531731 30.1710139,27.1179969 C30.7935533,26.3828208 31.6538394,26.0152382 32.751898,26.0152382 C33.854551,26.0152382 34.7171342,26.3816312 35.3396737,27.1144281 C35.9622132,27.8472251 36.2734783,28.7917577 36.2734783,29.9480542 L36.2734783,30.0979437 C36.2734783,31.2589986 35.9622132,32.2047208 35.3396737,32.9351385 C34.7171342,33.6655562 33.8591453,34.0307596 32.7656811,34.0307596 C31.6584338,34.0307596 30.7935533,33.6655562 30.1710139,32.9351385 C29.5484744,32.2047208 29.2372093,31.2589986 29.2372093,30.0979437 L29.2372093,29.9480542 Z M31.2495409,30.0979437 C31.2495409,30.8021901 31.3689932,31.3672442 31.6079013,31.793123 C31.8468094,32.2190017 32.2327322,32.4319379 32.7656811,32.4319379 C33.2848469,32.4319379 33.6650267,32.2178121 33.9062321,31.7895542 C34.1474374,31.3612962 34.2680382,30.7974317 34.2680382,30.0979437 L34.2680382,29.9480542 C34.2680382,29.2628414 34.1462888,28.7037352 33.9027863,28.2707189 C33.6592838,27.8377025 33.2756582,27.6211975 32.751898,27.6211975 C32.2281379,27.6211975 31.8468094,27.8377025 31.6079013,28.2707189 C31.3689932,28.7037352 31.2495409,29.2628414 31.2495409,29.9480542 L31.2495409,30.0979437 Z M40.6496103,32.4319379 C41.0079725,32.4319379 41.2951174,32.3236854 41.5110536,32.1071773 C41.7269898,31.8906691 41.8349563,31.6015993 41.8349563,31.2399592 L43.6543246,31.2399592 L43.6749992,31.2827848 C43.6933768,32.063166 43.4108262,32.7162496 42.827339,33.2420552 C42.2438518,33.7678608 41.5179495,34.0307596 40.6496103,34.0307596 C39.5377686,34.0307596 38.6809282,33.6667458 38.0790635,32.9387073 C37.4771987,32.2106688 37.1762709,31.2756529 37.1762709,30.1336317 L37.1762709,29.9195038 C37.1762709,28.782241 37.4852388,27.8472251 38.1031839,27.1144281 C38.721129,26.3816312 39.6020895,26.0152382 40.746092,26.0152382 C41.3479567,26.0152382 41.8877891,26.108026 42.3656054,26.2936045 C42.8434217,26.4791829 43.2408302,26.7408922 43.5578429,27.0787402 L43.5854091,29.1415057 L41.9521126,29.1415057 L41.6213184,27.9352518 C41.5202418,27.8448418 41.3961952,27.7698978 41.2491748,27.7104175 C41.1021545,27.6509372 40.9344618,27.6211975 40.746092,27.6211975 C40.1763879,27.6211975 39.7743851,27.8353233 39.5400713,28.2635813 C39.3057576,28.6918392 39.1886024,29.2438079 39.1886024,29.9195038 L39.1886024,30.1336317 C39.1886024,30.8236028 39.2965689,31.3791402 39.5125051,31.8002606 C39.7284413,32.2213809 40.1074726,32.4319379 40.6496103,32.4319379 Z M48.1545044,34.0307596 C47.0794178,34.0307596 46.2202803,33.6738834 45.577066,32.9601201 C44.9338518,32.2463568 44.6122495,31.3398911 44.6122495,30.2406956 L44.6122495,29.9551918 C44.6122495,28.8084121 44.9166231,27.8638795 45.5253794,27.1215657 C46.1341358,26.3792519 46.9507759,26.0104798 47.9753242,26.0152382 C48.981495,26.0152382 49.7625292,26.3292893 50.31845,26.957401 C50.8743709,27.5855127 51.1523272,28.4348782 51.1523272,29.5055231 L51.1523272,30.6404011 L46.7003881,30.6404011 L46.686605,30.6832266 C46.7233601,31.1923778 46.887607,31.6111126 47.1793506,31.9394437 C47.4710942,32.2677748 47.8673542,32.4319379 48.3681424,32.4319379 C48.8137979,32.4319379 49.1836406,32.385544 49.4776814,32.2927548 C49.7717221,32.1999655 50.0933244,32.0536463 50.4424979,31.8537926 L50.98693,33.13856 C50.6791061,33.3907564 50.280549,33.602503 49.7912467,33.7738062 C49.3019445,33.9451093 48.7563692,34.0307596 48.1545044,34.0307596 Z M47.9753242,27.6211975 C47.6031789,27.6211975 47.3091425,27.7687064 47.0932063,28.0637285 C46.8772701,28.3587507 46.7440348,28.7465563 46.6934966,29.2271569 L46.7141712,29.2628448 L49.1813449,29.2628448 L49.1813449,29.0772673 C49.1813449,28.6347341 49.0814184,28.2814266 48.8815626,28.0173342 C48.6817067,27.7532418 48.3796303,27.6211975 47.9753242,27.6211975 Z M52.2549746,32.6317906 L53.2197911,32.4176627 L53.2197911,27.6283351 L52.1516014,27.4142072 L52.1516014,26.1579901 L55.0942918,26.1579901 L55.1838819,27.2857305 C55.3584686,26.886023 55.5835902,26.5743511 55.8592534,26.3507053 C56.1349167,26.1270594 56.4542218,26.0152382 56.8171784,26.0152382 C56.9228493,26.0152382 57.0342615,26.0235653 57.1514184,26.0402198 C57.2685753,26.0568743 57.3662045,26.0770973 57.4443091,26.1008894 L57.2306712,27.9994902 L56.4036856,27.9780774 C56.1096448,27.9780774 55.8661459,28.0375568 55.6731817,28.1565173 C55.4802174,28.2754779 55.3331992,28.4443993 55.2321227,28.6632867 L55.2321227,32.4176627 L56.1969392,32.6317906 L56.1969392,33.8808701 L52.2549746,33.8808701 L52.2549746,32.6317906 Z M65.8864536,27.4142072 L65.1904074,27.5212712 L62.4475719,35.0371608 C62.2316357,35.5938962 61.9433422,36.0602145 61.5826828,36.4361298 C61.2220234,36.8120452 60.6787452,37 59.952832,37 C59.7828397,37 59.6231871,36.9857249 59.4738696,36.9571744 C59.324552,36.9286239 59.1488193,36.8881779 58.9466662,36.8358353 L59.1809788,35.3155271 C59.2453002,35.3250439 59.3119179,35.3345607 59.3808337,35.3440775 C59.4497495,35.3535943 59.5094756,35.3583527 59.5600139,35.3583527 C59.8954042,35.3583527 60.152686,35.273892 60.3318671,35.104968 C60.5110482,34.936044 60.6488777,34.725487 60.7453599,34.4732907 L60.9727809,33.8880077 L58.6089805,27.5284088 L57.9129343,27.4142072 L57.9129343,26.1579901 L61.5654539,26.1579901 L61.5654539,27.4142072 L60.7315768,27.5569592 L61.7515257,30.6404011 L61.8548989,31.1971336 L61.8962481,31.2042712 L63.0747026,27.5569592 L62.2339339,27.4142072 L62.2339339,26.1579901 L65.8864536,26.1579901 L65.8864536,27.4142072 Z" id="Fresh-Grocery" fill="#FFFFFF"></path>
                <g id="Group-18" transform="translate(5.724771, 4.939650)" fill="#FFFFFF" fill-rule="nonzero">
                    <rect id="Rectangle-11-Copy" x="0" y="0" width="2.86238532" height="2.86956522" rx="1.43119266"></rect>
                    <rect id="Rectangle-11-Copy-2" x="0" y="4.7826087" width="2.86238532" height="2.86956522" rx="1.43119266"></rect>
                    <rect id="Rectangle-11-Copy-3" x="0" y="9.56521739" width="2.86238532" height="2.86956522" rx="1.43119266"></rect>
                    <rect id="Rectangle-11-Copy-4" x="0" y="14.3478261" width="2.86238532" height="2.86956522" rx="1.43119266"></rect>
                    <rect id="Rectangle-11-Copy-5" x="0" y="19.1304348" width="2.86238532" height="2.86956522" rx="1.43119266"></rect>
                </g>
            </g>
        </g>
    </g>
</svg>