<?xml version="1.0" encoding="UTF-8" standalone="no"?>
<svg width="14px" height="14px" viewBox="0 0 14 14" version="1.1" xmlns="http://www.w3.org/2000/svg" xmlns:xlink="http://www.w3.org/1999/xlink">
    <!-- Generator: Sketch 46.2 (44496) - http://www.bohemiancoding.com/sketch -->
    <title>google_g_logo</title>
    <desc>Created with Sketch.</desc>
    <defs>
        <path d="M13.5227273,5.72727273 L7,5.72727273 L7,8.43181818 L10.7545455,8.43181818 C10.4045455,10.15 8.94090909,11.1363636 7,11.1363636 C4.70909091,11.1363636 2.86363636,9.29090909 2.86363636,7 C2.86363636,4.70909091 4.70909091,2.86363636 7,2.86363636 C7.98636364,2.86363636 8.87727273,3.21363636 9.57727273,3.78636364 L11.6136364,1.75 C10.3727273,0.668181818 8.78181818,0 7,0 C3.11818182,0 0,3.11818182 0,7 C0,10.8818182 3.11818182,14 7,14 C10.5,14 13.6818182,11.4545455 13.6818182,7 C13.6818182,6.58636364 13.6181818,6.14090909 13.5227273,5.72727273 Z" id="path-1"></path>
        <path d="M13.5227273,5.72727273 L7,5.72727273 L7,8.43181818 L10.7545455,8.43181818 C10.4045455,10.15 8.94090909,11.1363636 7,11.1363636 C4.70909091,11.1363636 2.86363636,9.29090909 2.86363636,7 C2.86363636,4.70909091 4.70909091,2.86363636 7,2.86363636 C7.98636364,2.86363636 8.87727273,3.21363636 9.57727273,3.78636364 L11.6136364,1.75 C10.3727273,0.668181818 8.78181818,0 7,0 C3.11818182,0 0,3.11818182 0,7 C0,10.8818182 3.11818182,14 7,14 C10.5,14 13.6818182,11.4545455 13.6818182,7 C13.6818182,6.58636364 13.6181818,6.14090909 13.5227273,5.72727273 Z" id="path-3"></path>
        <path d="M13.5227273,5.72727273 L7,5.72727273 L7,8.43181818 L10.7545455,8.43181818 C10.4045455,10.15 8.94090909,11.1363636 7,11.1363636 C4.70909091,11.1363636 2.86363636,9.29090909 2.86363636,7 C2.86363636,4.70909091 4.70909091,2.86363636 7,2.86363636 C7.98636364,2.86363636 8.87727273,3.21363636 9.57727273,3.78636364 L11.6136364,1.75 C10.3727273,0.668181818 8.78181818,0 7,0 C3.11818182,0 0,3.11818182 0,7 C0,10.8818182 3.11818182,14 7,14 C10.5,14 13.6818182,11.4545455 13.6818182,7 C13.6818182,6.58636364 13.6181818,6.14090909 13.5227273,5.72727273 Z" id="path-5"></path>
        <path d="M13.5227273,5.72727273 L7,5.72727273 L7,8.43181818 L10.7545455,8.43181818 C10.4045455,10.15 8.94090909,11.1363636 7,11.1363636 C4.70909091,11.1363636 2.86363636,9.29090909 2.86363636,7 C2.86363636,4.70909091 4.70909091,2.86363636 7,2.86363636 C7.98636364,2.86363636 8.87727273,3.21363636 9.57727273,3.78636364 L11.6136364,1.75 C10.3727273,0.668181818 8.78181818,0 7,0 C3.11818182,0 0,3.11818182 0,7 C0,10.8818182 3.11818182,14 7,14 C10.5,14 13.6818182,11.4545455 13.6818182,7 C13.6818182,6.58636364 13.6181818,6.14090909 13.5227273,5.72727273 Z" id="path-7"></path>
    </defs>
    <g id="Design" stroke="none" stroke-width="1" fill="none" fill-rule="evenodd">
        <g id="Sign-In-Copy" transform="translate(-775.000000, -458.000000)">
            <g id="Card" transform="translate(420.000000, 50.000000)">
                <g id="Social-Buttons" transform="translate(325.000000, 272.000000)">
                    <g id="Google" transform="translate(0.000000, 122.000000)">
                        <g id="Sign-In-Google" transform="translate(25.000000, 10.000000)">
                            <g id="google_g_logo" transform="translate(5.000000, 4.000000)">
                                <g id="Clipped">
                                    <mask id="mask-2" fill="white">
                                        <use xlink:href="#path-1"></use>
                                    </mask>
                                    <g id="a"></g>
                                    <polygon id="Shape" fill="#FBBC05" fill-rule="nonzero" mask="url(#mask-2)" points="-0.636363636 11.1363636 -0.636363636 2.86363636 4.77272727 7"></polygon>
                                </g>
                                <g id="Clipped">
                                    <mask id="mask-4" fill="white">
                                        <use xlink:href="#path-3"></use>
                                    </mask>
                                    <g id="a"></g>
                                    <polygon id="Shape" fill="#EA4335" fill-rule="nonzero" mask="url(#mask-4)" points="-0.636363636 2.86363636 4.77272727 7 7 5.05909091 14.6363636 3.81818182 14.6363636 -0.636363636 -0.636363636 -0.636363636"></polygon>
                                </g>
                                <g id="Clipped">
                                    <mask id="mask-6" fill="white">
                                        <use xlink:href="#path-5"></use>
                                    </mask>
                                    <g id="a"></g>
                                    <polygon id="Shape" fill="#34A853" fill-rule="nonzero" mask="url(#mask-6)" points="-0.636363636 11.1363636 8.90909091 3.81818182 11.4227273 4.13636364 14.6363636 -0.636363636 14.6363636 14.6363636 -0.636363636 14.6363636"></polygon>
                                </g>
                                <g id="Clipped">
                                    <mask id="mask-8" fill="white">
                                        <use xlink:href="#path-7"></use>
                                    </mask>
                                    <g id="a"></g>
                                    <polygon id="Shape" fill="#4285F4" fill-rule="nonzero" mask="url(#mask-8)" points="14.6363636 14.6363636 4.77272727 7 3.5 6.04545455 14.6363636 2.86363636"></polygon>
                                </g>
                            </g>
                        </g>
                    </g>
                </g>
            </g>
        </g>
    </g>
</svg>