<svg width="315" height="113" viewBox="0 0 315 113" fill="none" xmlns="http://www.w3.org/2000/svg">
<path d="M11.8027 15.204V39.4533C11.8027 41.2642 17.2445 42.7073 23.9616 42.7073C30.6788 42.7073 36.1205 41.2359 36.1205 39.4533V15.204H11.8027Z" fill="#EDF5FD"/>
<path d="M23.9616 42.7356C25.237 42.7356 26.4557 42.679 27.6178 42.5658V16.6753L20.5889 16.1377L11.8027 15.204V39.4533C11.8027 41.2642 17.2445 42.7356 23.9616 42.7356Z" fill="white"/>
<path d="M31.8125 41.9423C32.0676 41.8858 32.351 41.8292 32.6061 41.7726V16.4197H31.8125V41.9423Z" fill="#A7D1FF"/>
<path d="M23.9621 18.4586C30.6773 18.4586 36.121 17.0017 36.121 15.2046C36.121 13.4075 30.6773 11.9506 23.9621 11.9506C17.2469 11.9506 11.8032 13.4075 11.8032 15.2046C11.8032 17.0017 17.2469 18.4586 23.9621 18.4586Z" fill="#6CB6FF"/>
<path d="M23.962 16.4198C26.4508 16.4198 28.4684 15.8751 28.4684 15.2031C28.4684 14.5311 26.4508 13.9864 23.962 13.9864C21.4732 13.9864 19.4556 14.5311 19.4556 15.2031C19.4556 15.8751 21.4732 16.4198 23.962 16.4198Z" fill="black"/>
<path d="M27.618 15.9408C26.7961 16.2237 25.464 16.4218 23.9618 16.4218C22.4597 16.4218 21.1276 16.2237 20.3057 15.9125C21.0993 15.6295 22.4597 15.4315 23.9618 15.4315C25.464 15.4315 26.7961 15.6295 27.618 15.9408Z" fill="#1A87F1"/>
<path d="M36.1216 15.2046V39.4539C36.1216 41.2648 41.5633 42.7079 48.2805 42.7079C54.9976 42.7079 60.4393 41.2365 60.4393 39.4539V15.2046H36.1216Z" fill="#EDF5FD"/>
<path d="M48.2805 42.7362C49.5559 42.7362 50.7746 42.6796 51.9366 42.5664V16.676L44.9077 16.1383L36.1216 15.2046V39.4539C36.1216 41.2648 41.5633 42.7362 48.2805 42.7362Z" fill="white"/>
<path d="M56.1313 41.9421C56.3864 41.8855 56.6699 41.8289 56.9249 41.7723V16.4195H56.1313V41.9421Z" fill="#A7D1FF"/>
<path d="M48.28 18.4582C54.9951 18.4582 60.4388 17.0014 60.4388 15.2042C60.4388 13.4071 54.9951 11.9503 48.28 11.9503C41.5648 11.9503 36.1211 13.4071 36.1211 15.2042C36.1211 17.0014 41.5648 18.4582 48.28 18.4582Z" fill="#6CB6FF"/>
<path d="M48.2813 16.4187C50.7702 16.4187 52.7878 15.8739 52.7878 15.2019C52.7878 14.53 50.7702 13.9852 48.2813 13.9852C45.7925 13.9852 43.7749 14.53 43.7749 15.2019C43.7749 15.8739 45.7925 16.4187 48.2813 16.4187Z" fill="black"/>
<path d="M51.9368 15.9391C51.1149 16.2504 49.7828 16.4485 48.2807 16.4485C46.7785 16.4485 45.4464 16.2504 44.6245 15.9391C45.4464 15.6279 46.7785 15.4298 48.2807 15.4298C49.7828 15.4298 51.1149 15.6279 51.9368 15.9391Z" fill="#1A87F1"/>
<path d="M60.4102 15.2046V39.4539C60.4102 41.2648 65.8519 42.7079 72.569 42.7079C79.2862 42.7079 84.7279 41.2365 84.7279 39.4539V15.2046H60.4102Z" fill="#EDF5FD"/>
<path d="M72.569 42.7362C73.8444 42.7362 75.0632 42.6796 76.2252 42.5664V16.676L69.1963 16.1383L60.4102 15.2046V39.4539C60.4102 41.2648 65.8519 42.7362 72.569 42.7362Z" fill="white"/>
<path d="M80.4482 41.9421C80.7033 41.8855 80.9868 41.8289 81.2418 41.7723V16.4195H80.4482V41.9421Z" fill="#A7D1FF"/>
<path d="M72.569 18.4582C79.2842 18.4582 84.7279 17.0014 84.7279 15.2042C84.7279 13.4071 79.2842 11.9503 72.569 11.9503C65.8539 11.9503 60.4102 13.4071 60.4102 15.2042C60.4102 17.0014 65.8539 18.4582 72.569 18.4582Z" fill="#6CB6FF"/>
<path d="M72.5694 16.4187C75.0583 16.4187 77.0759 15.8739 77.0759 15.2019C77.0759 14.53 75.0583 13.9852 72.5694 13.9852C70.0806 13.9852 68.063 14.53 68.063 15.2019C68.063 15.8739 70.0806 16.4187 72.5694 16.4187Z" fill="black"/>
<path d="M76.2528 15.9391C75.4308 16.2504 74.0987 16.4485 72.5966 16.4485C71.0945 16.4485 69.7624 16.2504 68.9404 15.9391C69.7624 15.6279 71.0945 15.4298 72.5966 15.4298C74.0987 15.4298 75.4308 15.6279 76.2528 15.9391Z" fill="#1A87F1"/>
<path d="M84.7285 15.2046V39.4539C84.7285 41.2648 90.1703 42.7079 96.8874 42.7079C103.605 42.7079 109.046 41.2365 109.046 39.4539V15.2046H84.7285Z" fill="#EDF5FD"/>
<path d="M96.8874 42.7362C98.1628 42.7362 99.3815 42.6796 100.544 42.5664V16.676L93.5147 16.1383L84.7285 15.2046V39.4539C84.7285 41.2648 90.1703 42.7362 96.8874 42.7362Z" fill="white"/>
<path d="M104.738 41.9421C104.993 41.8855 105.277 41.8289 105.532 41.7723V16.4195H104.738V41.9421Z" fill="#A7D1FF"/>
<path d="M96.8869 18.4582C103.602 18.4582 109.046 17.0014 109.046 15.2042C109.046 13.4071 103.602 11.9503 96.8869 11.9503C90.1717 11.9503 84.728 13.4071 84.728 15.2042C84.728 17.0014 90.1717 18.4582 96.8869 18.4582Z" fill="#6CB6FF"/>
<path d="M96.8883 16.4187C99.3771 16.4187 101.395 15.8739 101.395 15.2019C101.395 14.53 99.3771 13.9852 96.8883 13.9852C94.3994 13.9852 92.3818 14.53 92.3818 15.2019C92.3818 15.8739 94.3994 16.4187 96.8883 16.4187Z" fill="black"/>
<path d="M100.544 15.9391C99.7218 16.2504 98.3898 16.4485 96.8876 16.4485C95.3855 16.4485 94.0534 16.2504 93.2314 15.9391C94.0534 15.6279 95.3855 15.4298 96.8876 15.4298C98.3898 15.4298 99.7218 15.6279 100.544 15.9391Z" fill="#1A87F1"/>
<path d="M109.045 34.1901H11.8027V83.5093H109.045V34.1901Z" fill="#1A87F1"/>
<path d="M109.046 83.5093V34.1901H93.2305V83.5093H106.523H109.046Z" fill="#13349B"/>
<path d="M93.2303 51.7911C66.0784 51.7911 38.9547 60.7891 11.8027 60.7891C11.8027 57.7897 11.8027 54.7904 11.8027 51.7911C38.9264 51.7911 66.0784 42.7931 93.2303 42.7931C93.2303 45.7924 93.2303 48.7918 93.2303 51.7911Z" fill="#6CB6FF"/>
<path d="M109.046 42.7931H93.2305V51.7911H109.046V42.7931Z" fill="#1A87F1"/>
<path d="M31.5335 48.9254L30.4415 47.3831C30.0764 46.8908 29.8802 46.2941 29.8822 45.6815V41.959H24.6887V45.6815C24.6907 46.2941 24.4945 46.8908 24.1294 47.3831L23.0375 48.9254C21.591 50.9921 20.8106 53.4503 20.8003 55.9716V61.7947C20.8003 62.4878 20.936 63.1741 21.1998 63.8153L21.9987 65.783C22.161 66.1331 22.245 66.5141 22.245 66.8997C22.245 67.2854 22.161 67.6664 21.9987 68.0165C21.2804 69.3484 20.9051 70.8378 20.9068 72.3505V79.3967C20.9138 79.9774 21.1498 80.532 21.5636 80.9401C21.9774 81.3482 22.5357 81.5771 23.1174 81.5771H31.6666C32.2483 81.5771 32.8066 81.3482 33.2204 80.9401C33.6342 80.532 33.8701 79.9774 33.8771 79.3967V72.3505C33.8788 70.8378 33.5036 69.3484 32.7853 68.0165C32.623 67.6664 32.5389 67.2854 32.5389 66.8997C32.5389 66.5141 32.623 66.1331 32.7853 65.783L33.5842 63.8153C33.848 63.1741 33.9837 62.4878 33.9837 61.7947V55.9716C33.9112 53.4274 33.0558 50.9671 31.5335 48.9254Z" fill="white"/>
<path d="M30.4416 47.4087C30.0765 46.9163 29.8803 46.3195 29.8822 45.7069V41.9845H28.4973V44.4307C28.4973 44.4307 28.0712 71.472 28.2576 81.6557H31.5868C32.1685 81.6557 32.7268 81.4268 33.1406 81.0187C33.5544 80.6105 33.7903 80.056 33.7973 79.4753V72.4293C33.799 70.9165 33.4238 69.4271 32.7054 68.0952C32.5432 67.7452 32.4591 67.364 32.4591 66.9783C32.4591 66.5927 32.5432 66.2116 32.7054 65.8616L33.5044 63.894C33.7682 63.2529 33.9039 62.5664 33.9039 61.8732V56.0502C33.8936 53.5289 33.1131 51.0709 31.6667 49.0041L30.4416 47.4087Z" fill="#A7D1FF"/>
<path d="M25.6478 39.9109H28.9237C29.1779 39.9109 29.4218 40.0117 29.6016 40.1913C29.7814 40.3708 29.8824 40.6142 29.8824 40.8681V44.4311H24.689V40.8681C24.689 40.6142 24.79 40.3708 24.9698 40.1913C25.1496 40.0117 25.3935 39.9109 25.6478 39.9109Z" fill="#13349B"/>
<path d="M33.7441 55.997H20.8003V61.7935H33.7441V55.997Z" fill="#CFC0EF"/>
<path d="M33.7699 55.997H28.3101V61.7935H33.7699V55.997Z" fill="#9874E2"/>
<path d="M41.7607 48.9254L40.6688 47.3831C40.3037 46.8908 40.1076 46.2941 40.1095 45.6815V41.959H34.9959V45.6815C34.9978 46.2941 34.8017 46.8908 34.4366 47.3831L33.3446 48.9254C31.8982 50.9921 31.1177 53.4503 31.1074 55.9716V61.7947C31.1074 62.4878 31.2431 63.1741 31.5069 63.8153L32.3325 65.783C32.4742 66.1426 32.5357 66.5286 32.5127 66.9144C32.4897 67.3001 32.3828 67.6762 32.1994 68.0165C31.481 69.3484 31.1057 70.8378 31.1074 72.3505V79.3967C31.1144 79.9774 31.3504 80.532 31.7642 80.9401C32.178 81.3482 32.7363 81.5771 33.318 81.5771H41.8672C42.4489 81.5771 43.0072 81.3482 43.421 80.9401C43.8348 80.532 44.0708 79.9774 44.0778 79.3967V72.3505C44.0795 70.8378 43.7042 69.3484 42.9858 68.0165C42.8236 67.6664 42.7396 67.2854 42.7396 66.8997C42.7396 66.5141 42.8236 66.1331 42.9858 65.783L43.7848 63.8153C44.0486 63.1741 44.1844 62.4878 44.1844 61.7947V55.9716C44.1196 53.4303 43.2735 50.9703 41.7607 48.9254Z" fill="white"/>
<path d="M40.6681 47.4087C40.3031 46.9163 40.1069 46.3195 40.1089 45.7069V41.9845H38.7239V44.4307C38.7239 44.4307 38.2978 71.472 38.4842 81.6557H41.8134C42.3951 81.6557 42.9534 81.4268 43.3672 81.0187C43.781 80.6105 44.017 80.056 44.024 79.4753V72.4293C44.0256 70.9165 43.6504 69.4271 42.932 68.0952C42.7697 67.7452 42.6856 67.364 42.6856 66.9783C42.6856 66.5927 42.7697 66.2116 42.932 65.8616L43.731 63.894C43.9948 63.2529 44.1305 62.5664 44.1304 61.8732V56.0502C44.1201 53.5289 43.3397 51.0709 41.8933 49.0041L40.6681 47.4087Z" fill="#A7D1FF"/>
<path d="M35.8738 39.9109H39.1497C39.404 39.9109 39.6479 40.0117 39.8277 40.1913C40.0075 40.3708 40.1085 40.6142 40.1085 40.8681V44.4311H34.915V40.8681C34.915 40.6142 35.0161 40.3708 35.1959 40.1913C35.3757 40.0117 35.6195 39.9109 35.8738 39.9109Z" fill="#13349B"/>
<path d="M43.9706 55.997H31.0269V61.7935H43.9706V55.997Z" fill="#CFC0EF"/>
<path d="M43.9974 55.997H38.5376V61.7935H43.9974V55.997Z" fill="#9874E2"/>
<path d="M51.9876 48.9254L50.8956 47.3831C50.5306 46.8908 50.3344 46.2941 50.3363 45.6815V41.959H45.1428V45.6815C45.1448 46.2941 44.9486 46.8908 44.5836 47.3831L43.4916 48.9254C42.0451 50.9921 41.2647 53.4503 41.2544 55.9716V61.7947C41.2544 62.4878 41.3901 63.1741 41.6539 63.8153L42.4795 65.783C42.6212 66.1426 42.6827 66.5286 42.6597 66.9144C42.6367 67.3001 42.5298 67.6762 42.3464 68.0165C41.628 69.3484 41.2527 70.8378 41.2544 72.3505V79.3967C41.2614 79.9774 41.4974 80.532 41.9112 80.9401C42.325 81.3482 42.8832 81.5771 43.4649 81.5771H52.0143C52.5959 81.5771 53.1542 81.3482 53.568 80.9401C53.9818 80.532 54.2178 79.9774 54.2248 79.3967V72.3505C54.2265 70.8378 53.8512 69.3484 53.1328 68.0165C52.9705 67.6664 52.8865 67.2854 52.8865 66.8997C52.8865 66.5141 52.9705 66.1331 53.1328 65.783L53.9318 63.8153C54.1956 63.1741 54.3314 62.4878 54.3313 61.7947V55.9716C54.2899 53.4389 53.4719 50.9797 51.9876 48.9254Z" fill="white"/>
<path d="M50.9753 47.4087C50.6102 46.9163 50.4141 46.3195 50.416 45.7069V41.9845H49.031V44.4307C49.031 44.4307 48.6049 71.472 48.7913 81.6557H52.1205C52.7022 81.6557 53.2605 81.4268 53.6743 81.0187C54.0881 80.6105 54.3241 80.056 54.3311 79.4753V72.4293C54.3328 70.9165 53.9575 69.4271 53.2391 68.0952C53.0769 67.7452 52.9928 67.364 52.9928 66.9783C52.9928 66.5927 53.0769 66.2116 53.2391 65.8616L54.0381 63.894C54.3019 63.2529 54.4376 62.5664 54.4376 61.8732V56.0502C54.4273 53.5289 53.6468 51.0709 52.2004 49.0041L50.9753 47.4087Z" fill="#A7D1FF"/>
<path d="M46.1019 39.9109H49.3777C49.632 39.9109 49.8759 40.0117 50.0557 40.1913C50.2355 40.3708 50.3365 40.6142 50.3365 40.8681V44.4311H45.1431V40.8681C45.1431 40.6142 45.2441 40.3708 45.4239 40.1913C45.6037 40.0117 45.8476 39.9109 46.1019 39.9109Z" fill="#13349B"/>
<path d="M54.1982 55.997H41.2544V61.7935H54.1982V55.997Z" fill="#CFC0EF"/>
<path d="M54.225 55.997H48.7651V61.7935H54.225V55.997Z" fill="#9874E2"/>
<path d="M62.215 48.9254L61.123 47.3831C60.7579 46.8908 60.5618 46.2941 60.5637 45.6815V41.959H55.2371V45.6815C55.236 46.2895 55.0503 46.8828 54.7044 47.3831L53.639 48.9254C52.1926 50.9921 51.4121 53.4503 51.4019 55.9716V61.7947C51.4018 62.4878 51.5375 63.1741 51.8013 63.8153L52.627 65.783C52.7892 66.1331 52.8732 66.5141 52.8732 66.8997C52.8732 67.2854 52.7892 67.6664 52.627 68.0165C51.9086 69.3484 51.5333 70.8378 51.535 72.3505V79.3967C51.542 79.9774 51.778 80.532 52.1918 80.9401C52.6056 81.3482 53.1639 81.5771 53.7456 81.5771H62.2949C62.8765 81.5771 63.4348 81.3482 63.8486 80.9401C64.2625 80.532 64.4984 79.9774 64.5054 79.3967V72.3505C64.5071 70.8378 64.1319 69.3484 63.4135 68.0165C63.2512 67.6664 63.1671 67.2854 63.1671 66.8997C63.1671 66.5141 63.2512 66.1331 63.4135 65.783L64.2124 63.8153C64.4763 63.1741 64.612 62.4878 64.6119 61.7947V55.9716C64.5549 53.4332 63.7182 50.9734 62.215 48.9254Z" fill="white"/>
<path d="M61.1227 47.4087C60.7577 46.9163 60.5615 46.3195 60.5635 45.7069V41.9845H59.1785V44.4307C59.1785 44.4307 58.7524 71.472 58.9388 81.6557H62.268C62.8496 81.6557 63.4079 81.4268 63.8218 81.0187C64.2356 80.6105 64.4716 80.056 64.4786 79.4753V72.4293C64.4802 70.9165 64.105 69.4271 63.3866 68.0952C63.2243 67.7452 63.1403 67.364 63.1403 66.9783C63.1403 66.5927 63.2243 66.2116 63.3866 65.8616L64.1856 63.894C64.4494 63.2529 64.5851 62.5664 64.585 61.8732V56.0502C64.5747 53.5289 63.7943 51.0709 62.3479 49.0041L61.1227 47.4087Z" fill="#A7D1FF"/>
<path d="M56.3289 39.9109H59.6048C59.8591 39.9109 60.103 40.0117 60.2828 40.1913C60.4626 40.3708 60.5636 40.6142 60.5636 40.8681V44.4311H55.3701V40.8681C55.3701 40.6142 55.4711 40.3708 55.6509 40.1913C55.8308 40.0117 56.0746 39.9109 56.3289 39.9109Z" fill="#13349B"/>
<path d="M64.4257 55.997H51.4819V61.7935H64.4257V55.997Z" fill="#CFC0EF"/>
<path d="M64.4515 55.997H58.9917V61.7935H64.4515V55.997Z" fill="#9874E2"/>
<path d="M72.4417 48.9254L71.3497 47.3831C70.9847 46.8908 70.7885 46.2941 70.7905 45.6815V41.959H65.5969V45.6815C65.5959 46.2895 65.4102 46.8828 65.0643 47.3831L63.9723 48.9254C62.5055 50.9836 61.7145 53.4456 61.7085 55.9716V61.7947C61.7203 62.4866 61.8556 63.1708 62.108 63.8153L62.9336 65.783C63.0753 66.1426 63.1368 66.5286 63.1138 66.9144C63.0908 67.3001 62.9839 67.6762 62.8005 68.0165C62.0821 69.3484 61.7068 70.8378 61.7085 72.3505V79.3967C61.7155 79.9774 61.9515 80.532 62.3653 80.9401C62.7791 81.3482 63.3373 81.5771 63.919 81.5771H72.4684C73.0501 81.5771 73.6083 81.3482 74.0221 80.9401C74.4359 80.532 74.6719 79.9774 74.6789 79.3967V72.3505C74.6806 70.8378 74.3053 69.3484 73.5869 68.0165C73.4247 67.6664 73.3406 67.2854 73.3406 66.8997C73.3406 66.5141 73.4247 66.1331 73.5869 65.783L74.386 63.8153C74.6498 63.1741 74.7855 62.4878 74.7854 61.7947V55.9716C74.744 53.4389 73.926 50.9797 72.4417 48.9254Z" fill="white"/>
<path d="M71.3498 47.4087C70.9847 46.9163 70.7886 46.3195 70.7905 45.7069V41.9845H69.4056V44.4307C69.4056 44.4307 68.9794 71.472 69.1658 81.6557H72.495C73.0767 81.6557 73.635 81.4268 74.0488 81.0187C74.4626 80.6105 74.6986 80.056 74.7056 79.4753V72.4293C74.7073 70.9165 74.332 69.4271 73.6136 68.0952C73.4514 67.7452 73.3674 67.364 73.3674 66.9783C73.3674 66.5927 73.4514 66.2116 73.6136 65.8616L74.4126 63.894C74.6764 63.2529 74.8122 62.5664 74.8122 61.8732V56.0502C74.8019 53.5289 74.0213 51.0709 72.5749 49.0041L71.3498 47.4087Z" fill="#A7D1FF"/>
<path d="M66.6354 39.9107H69.8314C70.0857 39.9107 70.3295 40.0116 70.5093 40.1911C70.6892 40.3706 70.7902 40.6141 70.7902 40.868V44.4309H65.5967V40.868C65.5962 40.7352 65.6234 40.6039 65.6765 40.4822C65.7296 40.3606 65.8075 40.2513 65.9051 40.1613C66.0028 40.0712 66.1182 40.0025 66.2439 39.9594C66.3696 39.9162 66.5029 39.8997 66.6354 39.9107Z" fill="#13349B"/>
<path d="M74.6523 55.997H61.7085V61.7935H74.6523V55.997Z" fill="#CFC0EF"/>
<path d="M74.6791 55.997H69.2192V61.7935H74.6791V55.997Z" fill="#9874E2"/>
<path d="M82.5889 48.9254L81.4969 47.3831C81.151 46.8828 80.9653 46.2895 80.9643 45.6815V41.959H75.7708V45.6815C75.7603 46.2921 75.5654 46.8851 75.2115 47.3831L74.1195 48.9254C72.6606 50.986 71.8788 53.4482 71.8823 55.9716V61.7947C71.8823 62.4878 72.018 63.1741 72.2818 63.8153L73.0808 65.783C73.243 66.1331 73.3271 66.5141 73.3271 66.8997C73.3271 67.2854 73.243 67.6664 73.0808 68.0165C72.3624 69.3484 71.9872 70.8378 71.9889 72.3505V79.3967C71.9889 79.975 72.2189 80.5296 72.6285 80.9385C73.038 81.3474 73.5935 81.5771 74.1728 81.5771H82.7487C83.3279 81.5771 83.8834 81.3474 84.293 80.9385C84.7025 80.5296 84.9326 79.975 84.9326 79.3967V72.3505C84.9343 70.8378 84.559 69.3484 83.8406 68.0165C83.6784 67.6664 83.5944 67.2854 83.5944 66.8997C83.5944 66.5141 83.6784 66.1331 83.8406 65.783L84.6397 63.8153C84.9035 63.1741 85.0392 62.4878 85.0392 61.7947V55.9716C84.9807 53.4248 84.1237 50.9604 82.5889 48.9254Z" fill="white"/>
<path d="M81.4972 47.4087C81.1513 46.9083 80.9656 46.3149 80.9646 45.7069V41.9845H79.553V44.4307C79.553 44.4307 79.1269 71.472 79.3133 81.6557H82.669C83.2483 81.6557 83.8038 81.426 84.2133 81.0171C84.6229 80.6082 84.853 80.0536 84.853 79.4753V72.4293C84.8547 70.9165 84.4794 69.4271 83.761 68.0952C83.5988 67.7452 83.5147 67.364 83.5147 66.9783C83.5147 66.5927 83.5988 66.2116 83.761 65.8616L84.56 63.894C84.8238 63.2529 84.9596 62.5664 84.9596 61.8732V56.0502C84.9631 53.5268 84.1813 51.0647 82.7224 49.0041L81.4972 47.4087Z" fill="#A7D1FF"/>
<path d="M76.7303 39.9109H79.9529C80.2072 39.9109 80.4511 40.0117 80.6309 40.1913C80.8107 40.3708 80.9117 40.6142 80.9117 40.8681V44.4311H75.7715V40.8681C75.7715 40.6142 75.8725 40.3708 76.0523 40.1913C76.2321 40.0117 76.476 39.9109 76.7303 39.9109Z" fill="#13349B"/>
<path d="M84.8261 55.997H71.8823V61.7935H84.8261V55.997Z" fill="#CFC0EF"/>
<path d="M84.8534 55.997H79.3936V61.7935H84.8534V55.997Z" fill="#9874E2"/>
<path d="M86.6117 69.3189H33.1055V82.5072H86.6117V69.3189Z" fill="#743DB9"/>
<path d="M72.2287 69.3189H18.5894V82.5072H72.2287V69.3189Z" fill="#9874E2"/>
<path d="M25.0351 79.2904C24.6057 78.8727 24.3301 78.3227 24.2527 77.7292C24.1754 77.1357 24.3009 76.5335 24.609 76.02L26.9527 72.0848L29.2698 76.02C29.5811 76.5306 29.711 77.1311 29.6385 77.7245C29.5661 78.3179 29.2954 78.8695 28.8703 79.2904C28.6219 79.5478 28.3239 79.7525 27.9944 79.8923C27.665 80.0321 27.3107 80.1041 26.9527 80.1041C26.5947 80.1041 26.2404 80.0321 25.9109 79.8923C25.5814 79.7525 25.2835 79.5478 25.0351 79.2904Z" fill="#FFFAEC"/>
<path d="M67.5679 75.0891H35.2085V77.0567H67.5679V75.0891Z" fill="#FFFAEC"/>
<path d="M99.6877 81.1514H0.0527344V104.763H99.6877V81.1514Z" fill="#FFBE1D"/>
<path d="M118.305 81.1514H72.3086V104.763H118.305V81.1514Z" fill="#F48220"/>
<path d="M273.683 31.3691L273.696 27.6976L291.616 27.7404C292.301 27.7436 292.855 28.2999 292.852 28.9795L292.845 31.4113C292.837 34.2261 293.944 36.9286 295.933 38.9194L297.571 40.565C301.046 44.0517 302.986 48.7789 302.971 53.7001L302.812 104.595L273.458 104.529L273.683 31.3691Z" fill="#A7D1FF"/>
<path d="M281.307 104.541L281.467 53.65C281.481 48.7292 283.455 44.0129 286.947 40.5392L288.595 38.901C290.594 36.9138 291.718 34.2216 291.726 31.407L291.734 28.6546C291.737 28.1474 291.327 27.7347 290.819 27.7321L273.506 27.6931C272.998 27.6905 272.585 28.101 272.582 28.6082L272.574 31.3606C272.565 34.1751 271.436 36.8713 269.443 38.8546L267.794 40.4927C264.302 43.9665 262.329 48.6781 262.314 53.6036L262.155 104.495L281.307 104.541Z" fill="white"/>
<path d="M302.833 104.6L292.125 93.6735L281.357 104.546L302.833 104.6Z" fill="#6CB6FF"/>
<path d="M293.185 54.0113L291.294 54.0069L291.153 100.696L293.044 100.7L293.185 54.0113Z" fill="#6CB6FF"/>
<path d="M262.154 104.503L281.352 104.549L281.383 93.6472L262.186 93.6008L262.154 104.503Z" fill="white"/>
<path d="M292.845 32.6958L272.546 32.6257L272.556 30.7199L292.851 30.7891L292.845 32.6958Z" fill="#A7D1FF"/>
<path d="M270.928 64.7861C274.089 65.3091 277.079 63.1721 277.606 60.013C278.132 56.854 275.995 53.8691 272.833 53.3461C269.671 52.8231 266.681 54.9601 266.155 58.1192C265.629 61.2782 267.766 64.2631 270.928 64.7861Z" fill="#A7D1FF"/>
<path d="M273.846 69.8713C274.905 70.0465 275.936 70.3656 276.91 70.8237C277.43 71.0679 277.978 71.2352 278.543 71.3286C279.219 71.4405 279.915 71.4405 280.59 71.3272L280.571 76.8005C279.598 76.8839 278.616 76.8462 277.65 76.6863C276.596 76.5119 275.565 76.1929 274.596 75.7355C274.075 75.4913 273.519 75.3178 272.955 75.2244C271.718 75.0198 270.457 75.1898 269.315 75.7101L269.294 75.721C267.726 76.4437 266.063 76.8107 264.342 76.8087C263.916 76.8053 263.483 76.7817 263.055 76.7347L263.073 71.2373C263.171 71.2581 263.269 71.2743 263.367 71.2905C264.603 71.4951 265.854 71.3283 266.996 70.808L267.021 70.7979C269.166 69.8111 271.527 69.4876 273.846 69.8713ZM281.419 70.2711C280.536 70.5898 279.592 70.6732 278.682 70.5227C278.196 70.4424 277.717 70.296 277.264 70.0821C276.21 69.5867 275.105 69.2506 273.985 69.0654C271.53 68.6593 268.986 68.9907 266.674 70.0601L266.653 70.071C265.656 70.5289 264.56 70.6638 263.505 70.4893C263.08 70.419 262.664 70.2975 262.256 70.1293L262.234 77.4567C262.267 77.4621 262.304 77.4683 262.337 77.4737C263.004 77.5841 263.676 77.6424 264.347 77.6432C266.154 77.6498 267.959 77.2586 269.642 76.4829L269.663 76.4719C270.665 76.0148 271.768 75.8714 272.827 76.0466C273.317 76.1277 273.796 76.274 274.254 76.4888C275.305 76.9787 276.408 77.3194 277.524 77.5039C278.807 77.7162 280.115 77.7265 281.398 77.5363L281.419 70.2711Z" fill="#FFF2D0"/>
<path d="M302.972 53.5861L281.497 53.5341L281.49 55.6413L302.966 55.6933L302.972 53.5861Z" fill="#6CB6FF"/>
<path d="M134.787 20.3523L123.851 9.41233L125.95 7.32024C130.84 2.44309 138.77 2.44567 143.648 7.33227L145.742 9.42634L134.787 20.3523Z" fill="#FFFAEC"/>
<path d="M134.412 17.9484L128.807 7.93347L132.614 17.9521L134.412 17.9484Z" fill="#FFBE1D"/>
<path d="M134.794 17.9485L140.423 7.94229L136.59 17.9501L134.794 17.9485Z" fill="#FFBE1D"/>
<path d="M151.044 104.517L118.359 104.498C116.283 104.499 114.602 102.816 114.603 100.742L114.676 39.0276C114.68 33.8638 117.163 29.012 121.346 25.9712L131.911 18.3041C133.637 17.0473 135.98 17.0516 137.701 18.309L148.244 25.9913C152.42 29.036 154.889 33.8899 154.879 39.0524L154.807 100.762C154.807 102.835 153.12 104.516 151.044 104.517Z" fill="#FFFAEC"/>
<path d="M154.813 98.4767L114.601 98.4559L114.658 52.9572C114.674 41.8652 123.685 32.8813 134.79 32.8896C145.896 32.898 154.884 41.8913 154.869 52.9833L154.813 98.4767Z" fill="#BC5B12"/>
<path d="M154.854 62.752L114.636 62.7518L114.635 63.7161L154.853 63.7162L154.854 62.752Z" fill="#662A0C"/>
<path d="M154.827 52.0314L114.7 52.0137C114.685 52.3177 114.653 52.623 114.654 52.931L114.653 52.9586L154.876 52.9723C154.871 52.6578 154.837 52.3472 154.827 52.0314Z" fill="#662A0C"/>
<path d="M154.858 57.3914L114.64 57.3749L114.638 58.3393L154.856 58.3558L154.858 57.3914Z" fill="#662A0C"/>
<path d="M154.124 47.6027C154.036 47.2842 153.947 46.971 153.846 46.6604L115.683 46.6467C115.577 46.956 115.492 47.2705 115.401 47.589L154.124 47.6027Z" fill="#662A0C"/>
<path d="M124.204 35.909C123.727 36.2038 123.267 36.5197 122.815 36.8487L146.735 36.8561C146.287 36.5205 145.823 36.2086 145.349 35.9112L124.204 35.909Z" fill="#662A0C"/>
<path d="M151.739 42.2304C151.534 41.9107 151.322 41.5948 151.102 41.2882L118.442 41.273C118.219 41.581 118.006 41.8916 117.802 42.2153L151.739 42.2304Z" fill="#662A0C"/>
<path d="M154.831 89.6096L114.613 89.6095L114.612 90.5737L154.83 90.5739L154.831 89.6096Z" fill="#662A0C"/>
<path d="M154.844 73.4963L114.626 73.4962L114.625 74.4604L154.843 74.4605L154.844 73.4963Z" fill="#662A0C"/>
<path d="M154.841 94.9996L114.619 94.9821L114.618 95.9465L154.84 95.9641L154.841 94.9996Z" fill="#662A0C"/>
<path d="M154.846 84.2553L114.624 84.2378L114.623 85.2022L154.844 85.2198L154.846 84.2553Z" fill="#662A0C"/>
<path d="M154.862 68.1446L114.641 68.1271L114.639 69.0915L154.861 69.1091L154.862 68.1446Z" fill="#662A0C"/>
<path d="M154.849 78.8894L114.627 78.8704L114.625 79.8153L154.848 79.829L154.848 79.7619L154.849 78.8894Z" fill="#662A0C"/>
<path d="M138.354 16.8425L131.226 16.8383L131.223 18.8139L138.352 18.8181L138.354 16.8425Z" fill="#BC5B12"/>
<path d="M131.806 62.8814C138.48 64.5493 145.248 60.4966 146.923 53.8295C148.597 47.1623 144.544 40.4054 137.87 38.7375C131.196 37.0696 124.428 41.1223 122.753 47.7894C121.079 54.4566 125.132 61.2135 131.806 62.8814Z" fill="#FFE1BA"/>
<path d="M151.505 47.4353L118.174 47.4154L118.166 53.6824L151.497 53.7023L151.505 47.4353Z" fill="#FFBE1D"/>
<path d="M161.208 50.6412H170.95C171.158 50.6412 171.356 50.7234 171.503 50.8695C171.649 51.0157 171.731 51.214 171.731 51.4207V55.8772H160.427V51.4207C160.427 51.3183 160.447 51.217 160.487 51.1224C160.526 51.0278 160.583 50.9419 160.656 50.8695C160.728 50.7972 160.814 50.7397 160.909 50.7006C161.004 50.6614 161.105 50.6412 161.208 50.6412Z" fill="white"/>
<path d="M167.624 44.3555H164.535V54.048H167.624V44.3555Z" fill="white"/>
<path d="M170.493 57.505H161.684V63.1138H170.493V57.505Z" fill="#EDF5FD"/>
<path d="M170.493 60.3175H161.684L155.319 65.7399C154.258 66.6363 153.405 67.7522 152.819 69.0103C152.233 70.2684 151.927 71.6387 151.924 73.0262V100.562C151.924 101.676 152.368 102.745 153.157 103.533C153.947 104.321 155.017 104.764 156.134 104.764H175.992C177.108 104.764 178.179 104.321 178.968 103.533C179.758 102.745 180.201 101.676 180.201 100.562V73.0262C180.195 71.6393 179.888 70.2701 179.302 69.0125C178.716 67.7548 177.865 66.6385 176.807 65.7399L170.493 60.3175Z" fill="white"/>
<path d="M171.833 52.0303H160.342C160.042 52.0303 159.799 52.2731 159.799 52.5726V58.1644C159.799 58.4639 160.042 58.7067 160.342 58.7067H171.833C172.133 58.7067 172.376 58.4639 172.376 58.1644V52.5726C172.376 52.2731 172.133 52.0303 171.833 52.0303Z" fill="#D95CAE"/>
<path d="M168.541 52.0321H171.817C171.961 52.0321 172.099 52.0892 172.201 52.1909C172.303 52.2926 172.36 52.4305 172.36 52.5743V58.1662C172.36 58.31 172.303 58.4479 172.201 58.5496C172.099 58.6513 171.961 58.7084 171.817 58.7084H168.541V52.0321Z" fill="#C23E9D"/>
<path d="M167.624 44.7285H166.504V50.6423H167.624V44.7285Z" fill="#EDF5FD"/>
<path d="M171.748 51.4207H160.427V52.03H171.748V51.4207Z" fill="#EDF5FD"/>
<path d="M168.575 104.764H176.026C177.142 104.764 178.213 104.321 179.003 103.533C179.792 102.745 180.235 101.676 180.235 100.562V73.0262C180.229 71.6393 179.922 70.2701 179.336 69.0125C178.75 67.7548 177.899 66.6385 176.841 65.7399L170.459 60.3175H168.541L168.575 104.764Z" fill="#EDF5FD"/>
<path d="M154.708 41.3221L169.491 41.3221C169.624 41.3221 169.756 41.3485 169.878 41.3998C170.001 41.4511 170.112 41.5263 170.205 41.6209C170.298 41.7156 170.372 41.8278 170.421 41.9511C170.47 42.0743 170.495 42.2061 170.492 42.3389V43.7283C170.492 43.9935 170.387 44.2478 170.199 44.4353C170.011 44.6227 169.757 44.7281 169.491 44.7281H162.091C161.827 44.2183 161.427 43.7907 160.937 43.4919C160.446 43.1931 159.882 43.0346 159.307 43.0336H154.708V41.3221Z" fill="white"/>
<path d="M163.178 74.9423H157.152V90.0064H163.178V74.9423Z" fill="#D95CAE"/>
<path d="M168.234 44.7285H163.567V46.0672H168.234V44.7285Z" fill="#EDF5FD"/>
<path d="M182.351 26.1924V46.5336H178.954L177.694 41.1547C177.425 40.0084 177.38 38.822 177.561 37.6596L179.143 27.5191C179.263 26.7535 179.922 26.1924 180.697 26.1924H182.351Z" fill="#0AAD0A"/>
<path d="M178.954 46.5334L183.15 58.4977H188.011L182.351 46.5334H178.954Z" fill="#025B40"/>
<path d="M183.15 58.497L180.797 74.5055C180.147 78.9385 179.817 83.4155 179.817 87.8966V104.763H188.007V58.497H183.15Z" fill="#0AAD0A"/>
<path d="M188.465 27.0208H182.354V45.3339H188.465C189.364 45.3339 190.091 44.6084 190.091 43.7106V28.644C190.091 27.7462 189.36 27.0208 188.465 27.0208Z" fill="white"/>
<path d="M242.357 48.4349L246.709 60.6417L239.854 68.9251C239.854 68.9251 235.813 55.8141 235.886 55.5957C235.959 55.3812 242.357 48.4349 242.357 48.4349Z" fill="#A7D1FF"/>
<path d="M230.993 82.1011L216.525 46.8716C216.525 46.8716 220.873 52.1397 226.088 52.1397C231.304 52.1397 235.241 47.5804 240.564 47.5804C245.887 47.5804 237.928 56.0286 242.165 56.0286C246.402 56.0286 259.243 48.1589 259.243 48.1589L243.159 82.7525L230.993 82.1011Z" fill="white"/>
<path d="M235.887 82.3613L231.911 60.1354L238.17 82.4839L235.887 82.3613Z" fill="#A7D1FF"/>
<path d="M237.886 81.7332L242.268 67.3616L240.169 81.8558L237.886 81.7332Z" fill="#A7D1FF"/>
<path d="M247.211 76.6936H226.288C224.676 76.6936 223.368 78.0001 223.368 79.6093V80.7357H250.128V79.6093C250.128 77.9963 248.823 76.6936 247.211 76.6936Z" fill="#13349B"/>
<path d="M267.179 86.8313L261.714 81.3755C260.006 79.6705 257.688 78.7126 255.274 78.7126H244.644H238.304H218.233C215.815 78.7126 213.501 79.6705 211.793 81.3755L206.328 86.8313C204.62 88.5363 202.302 89.4942 199.888 89.4942H198.967V93.9807H199.888C202.306 93.9807 204.62 94.9386 206.328 96.6435L211.793 102.099C213.501 103.804 215.819 104.762 218.233 104.762H238.304H244.644H255.274C257.692 104.762 260.006 103.804 261.714 102.099L267.179 96.6435C268.887 94.9386 271.205 93.9807 273.619 93.9807H274.54V89.4942H273.619C271.201 89.4942 268.887 88.5363 267.179 86.8313Z" fill="#1A87F1"/>
<path d="M198.956 91.7398H204.647C206.516 91.7398 208.278 90.8739 209.422 89.3988L213.447 84.1997C213.8 83.7437 214.533 83.9928 214.533 84.5713V97.9045C214.533 98.4601 213.846 98.7244 213.474 98.3068L209.41 93.7551C208.266 92.4716 206.628 91.7398 204.905 91.7398H198.956Z" fill="#13349B"/>
<path d="M274.82 91.7398H269.129C267.26 91.7398 265.498 90.8739 264.355 89.3988L260.329 84.1997C259.976 83.7437 259.243 83.9928 259.243 84.5713V97.9045C259.243 98.4601 259.93 98.7244 260.302 98.3068L264.366 93.7551C265.51 92.4716 267.148 91.7398 268.871 91.7398H274.82Z" fill="#13349B"/>
<path d="M192.618 71.4179V72.3934H193.595C200.056 72.3934 205.295 67.1638 205.295 60.7134V59.7378H204.318C197.851 59.7431 192.618 64.9728 192.618 71.4179Z" fill="#00835C"/>
<path d="M204.28 59.7845C204.611 59.7578 204.948 59.7418 205.29 59.7418C205.29 59.8911 205.284 60.035 205.279 60.179C198.513 62.967 195.694 68.5059 194.541 72.2482C194.274 72.2908 194.001 72.3175 193.724 72.3441C194.829 68.5805 197.568 62.8498 204.28 59.7845Z" fill="black"/>
<path d="M192.959 72.6441V71.0181C192.959 68.8858 192.11 66.8387 190.599 65.33L189.713 64.4451C189.264 63.9973 188.533 63.9973 188.084 64.4451L187.625 64.9036C187.096 65.4313 187.23 66.3216 187.892 66.6734C190.161 67.8782 191.721 70.0959 192.084 72.6387H192.959V72.6441Z" fill="black"/>
<path d="M183.941 67.8191C186.504 67.8191 188.987 68.7094 190.968 70.33C192.367 71.4761 194.38 71.4761 195.774 70.33C197.755 68.704 200.238 67.8191 202.801 67.8191C209.449 67.8191 214.874 73.134 215.007 79.7657C215.05 81.8555 214.553 83.9185 213.566 85.7577L205.305 101.159C203.97 103.648 201.37 105.205 198.534 105.205C196.74 105.205 194.999 104.576 193.616 103.43L193.371 103.227L193.125 103.43C191.747 104.576 190.007 105.205 188.207 105.205C185.377 105.205 182.777 103.648 181.436 101.159L173.176 85.7577C172.188 83.9185 171.691 81.8555 171.734 79.7657C171.867 73.1287 177.293 67.8191 183.941 67.8191Z" fill="#D21E06"/>
</svg>
