<?xml version="1.0" encoding="UTF-8"?>
<svg width="104px" height="44px" viewBox="0 0 104 44" version="1.1" xmlns="http://www.w3.org/2000/svg" xmlns:xlink="http://www.w3.org/1999/xlink">
    <!-- Generator: Sketch 52 (66869) - http://www.bohemiancoding.com/sketch -->
    <title>Combined Shape</title>
    <desc>Created with Sketch.</desc>
    <g id="Symbols" stroke="none" stroke-width="1" fill="none" fill-rule="evenodd">
        <g id="Component/Header" transform="translate(-32.000000, -15.000000)" fill="#358266" fill-rule="nonzero">
            <path d="M33,15 L114,15 C126.150264,15 136,24.8497355 136,37 L136,58 C136,58.5522847 135.552285,59 135,59 L33,59 C32.4477153,59 32,58.5522847 32,58 L32,16 C32,15.4477153 32.4477153,15 33,15 Z M46.2090436,34.42589 L46.2090436,36.1508092 L51.9477328,36.1508092 L51.9477328,34.42589 L50.4630968,34.1301895 L50.4630968,30.1875169 L55.3167145,30.1875169 L55.3167145,27.9697635 L50.4630968,27.9697635 L50.4630968,24.0172342 L54.9836231,24.0172342 L55.1073428,25.7322968 L57.2391278,25.7322968 L57.2391278,21.7994809 L46.2090436,21.7994809 L46.2090436,23.5342568 L47.6841627,23.8299573 L47.6841627,34.1301895 L46.2090436,34.42589 Z M58.2764697,34.42589 L58.2764697,36.1508092 L63.7201351,36.1508092 L63.7201351,34.42589 L62.3877694,34.1301895 L62.3877694,28.945575 C62.5273513,28.6433019 62.7303764,28.4100295 62.9968508,28.2457506 C63.2633253,28.0814718 63.5995857,27.9993336 64.005642,27.9993336 L65.1476697,28.0289036 L65.4426935,25.4070263 C65.3348348,25.3741705 65.2000134,25.3462436 65.0382254,25.3232445 C64.8764373,25.3002455 64.7225823,25.2887461 64.5766558,25.2887461 C64.0754301,25.2887461 63.6344849,25.4431659 63.2538071,25.7520102 C62.8731293,26.0608544 62.5622471,26.4912585 62.3211511,27.0432355 L62.1974314,25.4858798 L58.1337162,25.4858798 L58.1337162,27.2206557 L59.6088353,27.5163562 L59.6088353,34.1301895 L58.2764697,34.42589 Z M71.0195955,36.3577996 C71.850742,36.3577996 72.6041555,36.2395206 73.2798586,36.002959 C73.9555617,35.7663975 74.5059501,35.4739855 74.9310404,35.1257144 L74.1792055,33.3515117 C73.6970136,33.6275001 73.2528961,33.8295601 72.8468398,33.9576976 C72.4407835,34.0858351 71.9300484,34.1499029 71.3146193,34.1499029 C70.6230546,34.1499029 70.0758385,33.9232015 69.6729545,33.4697919 C69.2700705,33.0163822 69.0432533,32.4381294 68.9924963,31.7350159 L69.0115301,31.6758758 L75.1594459,31.6758758 L75.1594459,30.1086634 C75.1594459,28.6301538 74.7756015,27.4572204 74.0079013,26.5898281 C73.2402011,25.7224358 72.1616301,25.2887461 70.7721561,25.2887461 C69.3573036,25.282175 68.2295625,25.7914318 67.3888991,26.8165318 C66.5482356,27.8416318 66.1279101,29.1459863 66.1279101,30.7296344 L66.1279101,31.1239016 C66.1279101,32.6418382 66.5720276,33.8936242 67.4602758,34.8792973 C68.348524,35.8649704 69.534952,36.3577996 71.0195955,36.3577996 Z M70.7721561,27.5064995 C71.3304836,27.5064995 71.7476368,27.6888463 72.0236282,28.0535453 C72.2996196,28.4182444 72.4376132,28.9061452 72.4376132,29.5172625 L72.4376132,29.7735363 L69.0305639,29.7735363 L69.0020132,29.7242529 C69.0718041,29.0605663 69.2557956,28.5250253 69.5539932,28.1176138 C69.8521909,27.7102022 70.2582411,27.5064995 70.7721561,27.5064995 Z M84.8761983,29.1525653 L84.8476476,26.501118 C84.4415913,26.1528468 83.8816861,25.8670059 83.1679152,25.6435867 C82.4541443,25.4201674 81.6975585,25.3084595 80.8981351,25.3084595 C79.5847967,25.3084595 78.5728434,25.632084 77.8622448,26.2793426 C77.1516462,26.9266013 76.7963523,27.6970575 76.7963523,28.5907345 C76.7963523,29.4581268 77.1056484,30.1431593 77.7242498,30.6458526 C78.3428512,31.1485459 79.2580504,31.5280243 80.4698747,31.7842993 C81.2692981,31.9617205 81.8181004,32.1654232 82.116298,32.3954136 C82.4144956,32.6254039 82.5635922,32.8981027 82.5635922,33.2135181 C82.5635922,33.5749316 82.4160818,33.8607725 82.1210565,34.0710494 C81.8260312,34.2813264 81.3961889,34.3864632 80.8315168,34.3864632 C80.52063,34.3864632 80.2224368,34.3519652 79.9369285,34.2829681 C79.6514201,34.213971 79.4261891,34.1071913 79.2612287,33.9626259 L78.8805528,32.5728338 L76.9391057,32.5728338 L76.9676564,34.9680075 C77.4815715,35.4148459 78.0700271,35.7581836 78.7330409,35.9980307 C79.3960548,36.2378778 80.1240902,36.3577996 80.9171689,36.3577996 C82.2178181,36.3577996 83.2662525,36.0538882 84.0625035,35.4460565 C84.8587546,34.8382248 85.2568742,34.0546264 85.2568742,33.095238 C85.2568742,32.201561 84.9491642,31.5001009 84.3337351,30.9908364 C83.718306,30.481572 82.7729703,30.0955225 81.4976997,29.8326763 C80.6792424,29.6683975 80.1336124,29.4794797 79.8607933,29.2659172 C79.5879742,29.0523547 79.4515667,28.7845841 79.4515667,28.4625976 C79.4515667,28.1208976 79.5943187,27.8366995 79.8798271,27.6099947 C80.1653354,27.3832898 80.5523521,27.2699391 81.0408886,27.2699391 C81.3898432,27.2699391 81.7086561,27.3225076 81.9973368,27.427646 C82.2860175,27.5327845 82.5255236,27.6642056 82.7158625,27.8219133 L83.0108864,29.1525653 L84.8761983,29.1525653 Z M86.3513174,34.42589 L86.3513174,36.1508092 L91.6617462,36.1508092 L91.6617462,34.42589 L90.4626171,34.1301895 L90.4626171,28.3541741 C90.6593007,28.091328 90.9019791,27.8876252 91.1906598,27.7430599 C91.4793405,27.5984945 91.817187,27.5262129 92.2042094,27.5262129 C92.7625368,27.5262129 93.1828623,27.6987031 93.4651983,28.0436886 C93.7475344,28.3886742 93.8887003,28.9751409 93.8887003,29.8031063 L93.8887003,34.1301895 L92.6895712,34.42589 L92.6895712,36.1508092 L98,36.1508092 L98,34.42589 L96.6676343,34.1301895 L96.6676343,29.8228197 C96.6676343,28.2785985 96.3615105,27.1368776 95.7492537,26.3976228 C95.1369969,25.658368 94.2915877,25.2887461 93.2130005,25.2887461 C92.6419838,25.2887461 92.121732,25.4250955 91.6522293,25.6977984 C91.1827267,25.9705013 90.7861933,26.3532653 90.4626171,26.8461018 L90.4626171,22.1665573 L86.2085639,22.1665573 L86.2085639,22.6937198 L86.2085639,23.2052476 L87.6932,24.1970337 L87.6932,34.1301895 L86.3513174,34.42589 Z M54.3801205,47.5240602 L54.3801205,43.5341435 L50.9274557,43.5341435 L50.9274557,44.9973509 L52.3608974,45.1115525 L52.3608974,46.8745389 C52.2184714,46.9697074 52.0220643,47.0529785 51.7716702,47.1243548 C51.5212761,47.1957311 51.1939309,47.2314188 50.7896248,47.2314188 C49.8891249,47.2314188 49.1999771,46.9161781 48.7221609,46.2856872 C48.2443446,45.6551963 48.00544,44.8117787 48.00544,43.755409 L48.00544,43.384254 C48.00544,42.2993338 48.2489389,41.4214182 48.735944,40.7504807 C49.222949,40.0795432 49.9052053,39.7440795 50.7827333,39.7440795 C51.1732562,39.7440795 51.5189786,39.7928526 51.819911,39.8904002 C52.1208434,39.9879479 52.3631937,40.1176129 52.5469692,40.2793993 L52.8295226,41.6712307 L54.3180966,41.6712307 L54.3180966,39.5799148 C53.8862242,39.1373815 53.3452432,38.7864532 52.6951374,38.5271192 C52.0450316,38.2677852 51.3271694,38.1381202 50.5415291,38.1381202 C49.1907793,38.1381202 48.0961829,38.6258511 47.2577072,39.6013276 C46.4192316,40.576804 46,41.8425252 46,43.3985292 L46,43.755409 C46,45.2590703 46.4249745,46.4807768 47.2749361,47.4205651 C48.1248978,48.3603534 49.2275342,48.8302405 50.5828784,48.8302405 C51.538511,48.8302405 52.3287337,48.6958171 52.9535704,48.4269663 C53.5784071,48.1581154 54.053919,47.8571498 54.3801205,47.5240602 Z M55.5861412,47.4312715 L55.5861412,48.680351 L59.5281058,48.680351 L59.5281058,47.4312715 L58.5632893,47.2171436 L58.5632893,43.4627676 C58.6643658,43.2438801 58.811384,43.0749587 59.0043482,42.9559982 C59.1973125,42.8370376 59.4408114,42.7775582 59.7348522,42.7775582 L60.5618377,42.798971 L60.7754757,40.9003702 C60.6973711,40.8765781 60.5997418,40.8563551 60.482585,40.8397006 C60.3654281,40.8230462 60.2540159,40.8147191 60.148345,40.8147191 C59.7853884,40.8147191 59.4660832,40.9265403 59.19042,41.1501861 C58.9147568,41.3738319 58.6896352,41.6855039 58.5150484,42.0852113 L58.4254583,40.957471 L55.482768,40.957471 L55.482768,42.2136881 L56.5509577,42.427816 L56.5509577,47.2171436 L55.5861412,47.4312715 Z M61.2372093,44.747535 L61.2372093,44.8974245 C61.2372093,46.0584795 61.5484744,47.0042016 62.1710139,47.7346194 C62.7935533,48.4650371 63.6584338,48.8302405 64.7656811,48.8302405 C65.8591453,48.8302405 66.7171342,48.4650371 67.3396737,47.7346194 C67.9622132,47.0042016 68.2734783,46.0584795 68.2734783,44.8974245 L68.2734783,44.747535 C68.2734783,43.5912385 67.9622132,42.646706 67.3396737,41.913909 C66.7171342,41.181112 65.854551,40.8147191 64.751898,40.8147191 C63.6538394,40.8147191 62.7935533,41.1823016 62.1710139,41.9174778 C61.5484744,42.652654 61.2372093,43.5959969 61.2372093,44.747535 Z M63.2495409,44.8974245 L63.2495409,44.747535 C63.2495409,44.0623223 63.3689932,43.5032161 63.6079013,43.0701997 C63.8468094,42.6371833 64.2281379,42.4206784 64.751898,42.4206784 C65.2756582,42.4206784 65.6592838,42.6371833 65.9027863,43.0701997 C66.1462888,43.5032161 66.2680382,44.0623223 66.2680382,44.747535 L66.2680382,44.8974245 C66.2680382,45.5969126 66.1474374,46.1607771 65.9062321,46.589035 C65.6650267,47.017293 65.2848469,47.2314188 64.7656811,47.2314188 C64.2327322,47.2314188 63.8468094,47.0184826 63.6079013,46.5926038 C63.3689932,46.1667251 63.2495409,45.601671 63.2495409,44.8974245 Z M72.6496103,47.2314188 C72.1074726,47.2314188 71.7284413,47.0208618 71.5125051,46.5997414 C71.2965689,46.1786211 71.1886024,45.6230837 71.1886024,44.9331125 L71.1886024,44.7189846 C71.1886024,44.0432887 71.3057576,43.4913201 71.5400713,43.0630621 C71.7743851,42.6348042 72.1763879,42.4206784 72.746092,42.4206784 C72.9344618,42.4206784 73.1021545,42.4504181 73.2491748,42.5098983 C73.3961952,42.5693786 73.5202418,42.6443226 73.6213184,42.7347327 L73.9521126,43.9409865 L75.5854091,43.9409865 L75.5578429,41.878221 C75.2408302,41.5403731 74.8434217,41.2786638 74.3656054,41.0930853 C73.8877891,40.9075069 73.3479567,40.8147191 72.746092,40.8147191 C71.6020895,40.8147191 70.721129,41.181112 70.1031839,41.913909 C69.4852388,42.646706 69.1762709,43.5817218 69.1762709,44.7189846 L69.1762709,44.9331125 C69.1762709,46.0751338 69.4771987,47.0101496 70.0790635,47.7381882 C70.6809282,48.4662267 71.5377686,48.8302405 72.6496103,48.8302405 C73.5179495,48.8302405 74.2438518,48.5673416 74.827339,48.041536 C75.4108262,47.5157304 75.6933768,46.8626468 75.6749992,46.0822657 L75.6543246,46.0394401 L73.8349563,46.0394401 C73.8349563,46.4010801 73.7269898,46.6901499 73.5110536,46.9066581 C73.2951174,47.1231663 73.0079725,47.2314188 72.6496103,47.2314188 Z M80.1545044,48.8302405 C80.7563692,48.8302405 81.3019445,48.7445902 81.7912467,48.573287 C82.280549,48.4019838 82.6791061,48.1902372 82.98693,47.9380409 L82.4424979,46.6532734 C82.0933244,46.8531271 81.7717221,46.9994464 81.4776814,47.0922356 C81.1836406,47.1850249 80.8137979,47.2314188 80.3681424,47.2314188 C79.8673542,47.2314188 79.4710942,47.0672557 79.1793506,46.7389246 C78.887607,46.4105935 78.7233601,45.9918586 78.686605,45.4827075 L78.7003881,45.4398819 L83.1523272,45.4398819 L83.1523272,44.305004 C83.1523272,43.2343591 82.8743709,42.3849935 82.31845,41.7568819 C81.7625292,41.1287702 80.981495,40.8147191 79.9753242,40.8147191 C78.9507759,40.8099606 78.1341358,41.1787328 77.5253794,41.9210466 C76.9166231,42.6633604 76.6122495,43.607893 76.6122495,44.7546726 L76.6122495,45.0401765 C76.6122495,46.1393719 76.9338518,47.0458377 77.577066,47.7596009 C78.2202803,48.4733642 79.0794178,48.8302405 80.1545044,48.8302405 Z M79.9753242,42.4206784 C80.3796303,42.4206784 80.6817067,42.5527226 80.8815626,42.816815 C81.0814184,43.0809074 81.1813449,43.4342149 81.1813449,43.8767482 L81.1813449,44.0623257 L78.7141712,44.0623257 L78.6934966,44.0266377 C78.7440348,43.5460371 78.8772701,43.1582316 79.0932063,42.8632094 C79.3091425,42.5681872 79.6031789,42.4206784 79.9753242,42.4206784 Z M84.2549746,47.4312715 L84.2549746,48.680351 L88.1969392,48.680351 L88.1969392,47.4312715 L87.2321227,47.2171436 L87.2321227,43.4627676 C87.3331992,43.2438801 87.4802174,43.0749587 87.6731817,42.9559982 C87.8661459,42.8370376 88.1096448,42.7775582 88.4036856,42.7775582 L89.2306712,42.798971 L89.4443091,40.9003702 C89.3662045,40.8765781 89.2685753,40.8563551 89.1514184,40.8397006 C89.0342615,40.8230462 88.9228493,40.8147191 88.8171784,40.8147191 C88.4542218,40.8147191 88.1349167,40.9265403 87.8592534,41.1501861 C87.5835902,41.3738319 87.3584686,41.6855039 87.1838819,42.0852113 L87.0942918,40.957471 L84.1516014,40.957471 L84.1516014,42.2136881 L85.2197911,42.427816 L85.2197911,47.2171436 L84.2549746,47.4312715 Z M97.8864536,42.2136881 L97.8864536,40.957471 L94.2339339,40.957471 L94.2339339,42.2136881 L95.0747026,42.35644 L93.8962481,46.0037521 L93.8548989,45.9966145 L93.7515257,45.4398819 L92.7315768,42.35644 L93.5654539,42.2136881 L93.5654539,40.957471 L89.9129343,40.957471 L89.9129343,42.2136881 L90.6089805,42.3278896 L92.9727809,48.6874886 L92.7453599,49.2727715 C92.6488777,49.5249679 92.5110482,49.7355249 92.3318671,49.9044489 C92.152686,50.0733728 91.8954042,50.1578335 91.5600139,50.1578335 C91.5094756,50.1578335 91.4497495,50.1530752 91.3808337,50.1435584 C91.3119179,50.1340415 91.2453002,50.1245248 91.1809788,50.115008 L90.9466662,51.6353161 C91.1488193,51.6876588 91.324552,51.7281047 91.4738696,51.7566553 C91.6231871,51.7852058 91.7828397,51.7994809 91.952832,51.7994809 C92.6787452,51.7994809 93.2220234,51.611526 93.5826828,51.2356107 C93.9433422,50.8596954 94.2316357,50.393377 94.4475719,49.8366417 L97.1904074,42.320752 L97.8864536,42.2136881 Z M39.1559633,19.7391304 C38.3655374,19.7391304 37.7247706,20.3798972 37.7247706,21.1703231 L37.7247706,21.177503 C37.7247706,21.9679289 38.3655374,22.6086957 39.1559633,22.6086957 C39.9463892,22.6086957 40.587156,21.9679289 40.587156,21.177503 L40.587156,21.1703231 C40.587156,20.3798972 39.9463892,19.7391304 39.1559633,19.7391304 Z M39.1559633,24.5217391 C38.3655374,24.5217391 37.7247706,25.1625059 37.7247706,25.9529318 L37.7247706,25.9601117 C37.7247706,26.7505376 38.3655374,27.3913043 39.1559633,27.3913043 C39.9463892,27.3913043 40.587156,26.7505376 40.587156,25.9601117 L40.587156,25.9529318 C40.587156,25.1625059 39.9463892,24.5217391 39.1559633,24.5217391 Z M39.1559633,29.3043478 C38.3655374,29.3043478 37.7247706,29.9451146 37.7247706,30.7355405 L37.7247706,30.7427204 C37.7247706,31.5331463 38.3655374,32.173913 39.1559633,32.173913 C39.9463892,32.173913 40.587156,31.5331463 40.587156,30.7427204 L40.587156,30.7355405 C40.587156,29.9451146 39.9463892,29.3043478 39.1559633,29.3043478 Z M39.1559633,34.0869565 C38.3655374,34.0869565 37.7247706,34.7277233 37.7247706,35.5181492 L37.7247706,35.5253291 C37.7247706,36.315755 38.3655374,36.9565217 39.1559633,36.9565217 C39.9463892,36.9565217 40.587156,36.315755 40.587156,35.5253291 L40.587156,35.5181492 C40.587156,34.7277233 39.9463892,34.0869565 39.1559633,34.0869565 Z M39.1559633,38.8695652 C38.3655374,38.8695652 37.7247706,39.510332 37.7247706,40.3007579 L37.7247706,40.3079378 C37.7247706,41.0983637 38.3655374,41.7391304 39.1559633,41.7391304 C39.9463892,41.7391304 40.587156,41.0983637 40.587156,40.3079378 L40.587156,40.3007579 C40.587156,39.510332 39.9463892,38.8695652 39.1559633,38.8695652 Z" id="Combined-Shape"></path>
        </g>
    </g>
</svg>