<svg viewBox="0 0 86 18" version="1.1" xmlns="http://www.w3.org/2000/svg" xmlns:xlink="http://www.w3.org/1999/xlink">
    <defs>
        <path d="M10.3179667,7.20633932 C11.3370617,8.27557053 12.1702054,10.0262006 11.693319,11.0661948 C10.4177686,13.8478191 0.901166014,18.725715 0.0926364657,17.8816399 C-0.71579343,17.0375127 3.95974655,7.09761099 6.62385315,5.76581909 C7.62007795,5.26774972 9.29707795,6.1379925 10.3211556,7.20222949 C10.3211556,7.20222949 10.3200594,7.20358209 10.3179667,7.20633932" id="path-1"></path>
    </defs>
    <g id="Page-1" stroke="none" stroke-width="1" fill="none" fill-rule="evenodd">
        <g id="Delivery---Empty-v1" transform="translate(-862.000000, -380.000000)">
            <g id="Group-2" transform="translate(444.000000, 194.000000)">
                <g id="Group-4" transform="translate(32.000000, 86.000000)">
                    <g id="Group-3" transform="translate(385.999990, 100.021545)">
                        <mask id="mask-2" fill="white">
                            <use xlink:href="#path-1"></use>
                        </mask>
                        <use id="Fill-1" fill="#E7792B" xlink:href="#path-1"></use>
                        <path d="M11.7809632,0.118345099 C12.6400165,0.36103296 13.5077396,0.979223711 13.6104812,1.90206186 C13.7990235,3.59463412 10.9328219,6.26284799 10.2524951,6.07249539 C9.57211851,5.88219481 8.3730513,2.1127555 9.34232013,0.704593654 C9.84192731,-0.021180913 10.9211127,-0.1233023 11.7813618,0.115119665 C11.7813618,0.115119665 11.7812124,0.116212151 11.7809632,0.118345099 Z M15.3597292,6.03207342 C15.359779,6.0320214 15.3598288,6.0320214 15.3598288,6.0320214 C15.1941069,5.39224105 14.7717802,4.74585377 14.1413294,4.66932776 C12.9850629,4.52886533 11.1622715,6.66332198 11.2923676,7.16997516 C11.4223642,7.67662834 13.9973317,8.56960521 14.9592761,7.8477844 C15.4550965,7.47571504 15.5248532,6.67206186 15.3619713,6.03144914 L15.3597292,6.03207342 L15.3597292,6.03207342 Z" id="Fill-3" fill="#41A747"></path>
                        <path d="M37.388684,10.1380503 L36.5374534,10.0033104 C35.7263329,9.87835088 35.2567709,9.60418903 35.2567709,9.10471504 C35.2567709,8.53204452 35.8679389,8.17631042 36.7715368,8.17631042 C37.4105577,8.17631042 37.9307431,8.42638556 38.4286562,8.69118325 L38.5277106,8.7437266 C38.6427095,8.80464568 38.7660791,8.83544336 38.8942819,8.83544336 C39.1898508,8.83544336 39.4620015,8.66787689 39.604604,8.39808498 L39.6741116,8.26688267 C39.7843769,8.05816591 39.807845,7.81771504 39.7400316,7.58995782 C39.6725171,7.36287689 39.5233873,7.17933932 39.3202958,7.07305608 C38.5948265,6.69370348 37.8080212,6.35326417 36.7715368,6.35326417 C34.6053433,6.35326417 33.2098114,7.44533354 33.2098114,9.20329886 C33.2098114,10.6462642 34.2029968,11.5508422 36.0825403,11.8192815 L36.9412946,11.9359174 C37.8487292,12.0688885 38.2898902,12.3492411 38.2898902,12.7932064 C38.2898902,13.2033567 38.077531,13.748611 36.6718844,13.748611 C35.8970374,13.748611 35.1102321,13.5432757 34.4714603,13.120796 C34.3440548,13.0365185 34.196918,12.9919867 34.0462436,12.9919867 C33.7658717,12.9919867 33.4996504,13.1473798 33.3515669,13.397611 L33.3038335,13.4784549 C33.1850478,13.6791601 33.1492726,13.9254376 33.2057755,14.1541312 C33.2621788,14.3823567 33.4006956,14.5710965 33.5956654,14.6855994 C34.7093804,15.339478 35.9948462,15.5715012 36.6718844,15.5715012 C38.9301567,15.5715012 40.3282297,14.5379058 40.3282297,12.7195937 C40.3282297,11.2645069 39.3390304,10.4304202 37.388684,10.1380503" id="Fill-5" fill="#41A747"></path>
                        <path d="M63.7117593,13.388611 L63.6479818,13.3140098 C63.4845519,13.1240214 63.2508671,13.015033 63.0062205,13.015033 C62.8407975,13.015033 62.6793607,13.0641948 62.5393491,13.1572642 C62.0794534,13.4618075 61.5757106,13.6227671 61.0824314,13.6227671 C59.725166,13.6227671 58.7406005,12.5039578 58.7406005,10.9623567 C58.7406005,9.42080753 59.725166,8.30189423 61.0824314,8.30189423 C61.603115,8.30189423 62.0694881,8.4496399 62.5074603,8.75381909 C62.8462784,8.98917169 63.3335785,8.92887689 63.6121069,8.61814279 L63.6843549,8.53776706 C63.8756875,8.32494047 63.9663711,8.0363162 63.9339841,7.74623527 C63.9020953,7.46125261 63.7536133,7.20758787 63.5264059,7.050374 C62.8592332,6.58846071 62.0321185,6.3443162 61.1337523,6.3443162 C58.5298358,6.3443162 56.7106817,8.24336822 56.7106817,10.9623567 C56.7106817,13.6815012 58.5298358,15.5805532 61.1337523,15.5805532 C62.0356063,15.5805532 62.8672054,15.3314145 63.5393607,14.860137 C63.7635785,14.702663 63.9120606,14.4509752 63.9454441,14.1696341 C63.9793259,13.8859 63.8941231,13.6013335 63.7117593,13.388611" id="Fill-6" fill="#41A747"></path>
                        <path d="M21.5003584,3.2197555 C20.8225229,3.2197555 20.2916249,3.78118903 20.2916249,4.49791157 C20.2916249,5.21739134 20.8112622,5.7599925 21.5003584,5.7599925 C22.1868138,5.7599925 22.7244881,5.20563412 22.7244881,4.49791157 C22.7244881,3.78118903 22.1868138,3.2197555 21.5003584,3.2197555" id="Fill-7" fill="#41A747"></path>
                        <path d="M21.8662819,6.41907342 L21.1531197,6.41907342 C20.8037883,6.41907342 20.5205762,6.71477284 20.5205762,7.07950695 L20.5205762,14.6954318 C20.5205762,15.060322 20.8038879,15.3561254 21.1533688,15.3561254 L21.8660328,15.3561254 C22.2155136,15.3561254 22.4988253,15.060322 22.4988253,14.6954318 L22.4988253,7.07950695 C22.4988253,6.71477284 22.2156133,6.41907342 21.8662819,6.41907342" id="Fill-8" fill="#41A747"></path>
                        <path d="M45.2823479,8.34351273 C45.6318288,8.34351273 45.9151405,8.04770926 45.9151405,7.68281909 L45.9151405,7.07976706 C45.9151405,6.71487689 45.6318288,6.41907342 45.2823479,6.41907342 L43.5462043,6.41907342 L43.5462043,4.43657631 C43.5462043,4.07168614 43.2628925,3.77588267 42.9134117,3.77588267 L42.1611359,3.77588267 C41.811655,3.77588267 41.5283433,4.07168614 41.5283433,4.43657631 L41.5283433,11.6557208 C41.5283433,13.7338885 43.0387744,15.5715012 45.1303781,15.5715012 L45.1310756,15.5715012 C45.3398474,15.5715012 45.5365113,15.4860792 45.6849435,15.3311543 C45.8333757,15.1761775 45.9151405,14.9708422 45.9151405,14.7528653 L45.9151405,14.2438711 C45.9151405,13.8770561 45.6277431,13.5846341 45.2764186,13.5831775 C44.47621,13.579952 43.5462043,12.925137 43.5462043,11.7787555 L43.5462043,8.34351273 L45.2823479,8.34351273" id="Fill-9" fill="#41A747"></path>
                        <path d="M27.9973943,6.3443162 C25.4658752,6.3443162 24.0542494,8.45817169 24.0542494,10.2672237 L24.0542494,14.6954318 C24.0542494,15.060322 24.3375611,15.3561254 24.687042,15.3561254 L25.4082761,15.3561254 C25.757757,15.3561254 26.0410687,15.060322 26.0410687,14.6954318 L26.0410687,10.5996515 C26.0410687,9.22832198 26.8368925,8.31994625 27.9973943,8.31994625 C29.1579459,8.31994625 29.9537199,9.22832198 29.9537199,10.5996515 L29.9537199,14.6954318 C29.9537199,15.060322 30.2370316,15.3561254 30.5865125,15.3561254 L31.3077964,15.3561254 C31.6572773,15.3561254 31.940589,15.060322 31.940589,14.6954318 L31.940589,10.2672237 C31.940589,8.45817169 30.5289134,6.3443162 27.9973943,6.3443162" id="Fill-10" fill="#41A747"></path>
                        <path d="M80.4359192,6.70676128 C80.3522112,6.56733932 80.2216666,6.47114857 80.0672054,6.43603296 C79.7931614,6.37344914 79.1050617,6.3443162 78.7488045,6.3443162 C78.7169157,6.3443162 78.6855252,6.34551273 78.6541347,6.34551273 C76.6939725,6.34551273 74.8842854,8.01389423 74.8842854,10.3134202 C74.8842854,10.3153451 74.8837871,10.3175301 74.8837871,10.3191948 L74.8837871,14.6954318 C74.8837871,15.060322 75.1672981,15.3561254 75.5165797,15.3561254 L76.2380629,15.3561254 C76.5873445,15.3561254 76.8708555,15.060322 76.8708555,14.6954318 L76.8708555,10.3891659 C76.8708555,9.13722949 77.7268694,8.32119481 78.7757106,8.32119481 C78.9675414,8.3243162 79.1738219,8.34684221 79.3756179,8.38851273 C79.430925,8.39985377 79.4867303,8.40557631 79.5420374,8.40557631 C79.9426399,8.40557631 80.2894302,8.11705608 80.3831034,7.71070348 C80.4344244,7.48757631 80.4722923,7.32131042 80.5081672,7.16961099 C80.5435438,7.01791157 80.5191289,6.84581909 80.4359192,6.70676128" id="Fill-11" fill="#41A747"></path>
                        <path d="M85.3572518,8.34351273 C85.7065333,8.34351273 85.9900443,8.04770926 85.9900443,7.68281909 L85.9900443,7.07976706 C85.9900443,6.71487689 85.7065333,6.41907342 85.3572518,6.41907342 L83.6213074,6.41907342 L83.6213074,4.43657631 C83.6213074,4.07168614 83.3377964,3.77588267 82.9885148,3.77588267 L82.2361394,3.77588267 C81.8863595,3.77588267 81.6033468,4.07168614 81.6033468,4.43657631 L81.6033468,11.6557208 C81.6033468,13.7338885 83.1135785,15.5715012 85.2052819,15.5715012 L85.2057802,15.5715012 C85.4145519,15.5715012 85.6113653,15.4860792 85.7598474,15.3311543 C85.9083294,15.1761775 85.9900443,14.9708422 85.9900443,14.7528653 L85.9900443,14.2438711 C85.9900443,13.8770561 85.7025472,13.5846341 85.3512726,13.5831775 C84.551064,13.579952 83.6213074,12.925137 83.6213074,11.7787555 L83.6213074,8.34351273 L85.3572518,8.34351273" id="Fill-12" fill="#41A747"></path>
                        <path d="M69.9455136,13.4842295 C69.7148184,13.564085 69.4791405,13.6102815 69.2454557,13.620478 C69.2285148,13.6211023 69.2110756,13.6215705 69.1941347,13.6218306 C69.1796851,13.6221428 69.1652355,13.622663 69.1507859,13.622663 C69.1363363,13.622663 69.1218868,13.6221428 69.1079354,13.6218306 C69.0904963,13.6215705 69.0735554,13.6211023 69.0561162,13.620478 C68.8224314,13.6102815 68.5872518,13.564085 68.3560583,13.4842295 C67.423312,13.1403567 66.8039725,12.1845879 66.8039725,10.9623567 C66.8039725,9.51913123 67.6669621,8.44646649 68.8906932,8.31547227 C68.8971706,8.31479597 68.9036481,8.31427573 68.9101255,8.31370348 C68.9380281,8.31094625 68.9659308,8.30891735 68.9938335,8.30714857 C69.0092796,8.30621215 69.025224,8.30527573 69.0411683,8.30454741 C69.0680745,8.3034029 69.0954789,8.3027266 69.1228833,8.30246649 C69.131852,8.30236244 69.141319,8.30194625 69.1507859,8.30194625 C69.1602529,8.30194625 69.1697199,8.30236244 69.1791869,8.30246649 C69.2065913,8.3027266 69.2334974,8.3034029 69.2604036,8.30454741 C69.2763479,8.30527573 69.2922923,8.30621215 69.3077384,8.30714857 C69.3361394,8.30891735 69.364042,8.31094625 69.3914464,8.31370348 C69.3979238,8.31427573 69.4044012,8.31479597 69.4108786,8.31547227 C70.6346098,8.44646649 71.4975994,9.51913123 71.4975994,10.9623567 C71.4975994,12.1845879 70.8782599,13.1403567 69.9455136,13.4842295 Z M73.5275183,10.9623567 C73.5275183,9.23659365 72.7940768,7.84211388 71.5927674,7.05287111 C71.5917709,7.05209076 71.5907744,7.05115435 71.5897778,7.050374 C70.9226052,6.58846071 70.0954905,6.3443162 69.1971243,6.3443162 C69.1816782,6.3443162 69.1662321,6.34520059 69.1507859,6.34535666 C69.1353398,6.34520059 69.1198937,6.3443162 69.1044476,6.3443162 C68.2065797,6.3443162 67.379465,6.58846071 66.7117941,7.050374 C66.7107975,7.05115435 66.709801,7.05209076 66.7088045,7.05287111 C65.5074951,7.84211388 64.7740536,9.23659365 64.7740536,10.9623567 C64.7740536,12.7702122 65.5787465,14.2146861 66.8831961,14.9804145 C67.4910756,15.355189 68.2130571,15.5786804 68.9913421,15.5792536 C70.4128833,15.5802931 71.2708902,14.7395474 71.5409482,14.3725243 L71.5409482,14.6889289 C71.5409482,15.0538191 71.8239609,15.3496226 72.1737408,15.3496226 L72.8947257,15.3496226 C73.2445055,15.3496226 73.5275183,15.0538191 73.5275183,14.6889289 L73.5275183,10.9623567 L73.5275183,10.9623567 Z" id="Fill-13" fill="#41A747"></path>
                        <path d="M51.9428138,13.4842295 C51.7116202,13.564085 51.4764406,13.6102815 51.2427558,13.620478 C51.2253167,13.6211023 51.2083757,13.6215705 51.1909366,13.6218306 C51.1769852,13.6221428 51.1625357,13.622663 51.1480861,13.622663 C51.1336365,13.622663 51.1191869,13.6221428 51.1052355,13.6218306 C51.0877964,13.6215705 51.0708555,13.6211023 51.0534163,13.620478 C50.8197315,13.6102815 50.5845519,13.564085 50.3533584,13.4842295 C49.4205623,13.1403567 48.801173,12.1845879 48.801173,10.9623567 C48.801173,9.51913123 49.6644615,8.44646649 50.8879934,8.31547227 C50.8944708,8.31479597 50.9009482,8.31427573 50.9074256,8.31370348 C50.9353282,8.31094625 50.9632309,8.30891735 50.9911336,8.30714857 C51.0065797,8.30621215 51.0225241,8.30527573 51.0384684,8.30454741 C51.0653746,8.3034029 51.092779,8.3027266 51.1196851,8.30246649 C51.1291521,8.30236244 51.1386191,8.30194625 51.1480861,8.30194625 C51.157553,8.30194625 51.16702,8.30236244 51.176487,8.30246649 C51.2033931,8.3027266 51.2307975,8.3034029 51.2577037,8.30454741 C51.2736481,8.30527573 51.2895924,8.30621215 51.3050386,8.30714857 C51.3334395,8.30891735 51.3613421,8.31094625 51.3887465,8.31370348 C51.395224,8.31427573 51.4017014,8.31479597 51.4081788,8.31547227 C52.6319099,8.44646649 53.4948995,9.51913123 53.4948995,10.9623567 C53.4948995,12.1845879 52.87556,13.1403567 51.9428138,13.4842295 Z M55.5248184,10.9623567 C55.5248184,9.23659365 54.7913769,7.84211388 53.5900675,7.05287111 C53.589071,7.05209076 53.5880745,7.05115435 53.5870779,7.050374 C52.9199053,6.58846071 52.0922923,6.3443162 51.1944244,6.3443162 C51.1789783,6.3443162 51.1635322,6.34520059 51.1480861,6.34535666 C51.1326399,6.34520059 51.1171938,6.3443162 51.1017477,6.3443162 C50.2038798,6.3443162 49.376516,6.58846071 48.7092935,7.050374 C48.7081475,7.05115435 48.7072008,7.05209076 48.7060548,7.05287111 C47.504845,7.84211388 46.7713537,9.23659365 46.7713537,10.9623567 C46.7713537,12.7702122 47.5760467,14.2146861 48.8803966,14.9804145 C49.4885751,15.355189 50.2103572,15.5786804 50.9886423,15.5792536 C52.4101834,15.5802931 53.2681903,14.7395474 53.5382483,14.3725243 L53.5382483,14.6889289 C53.5382483,15.0538191 53.821261,15.3496226 54.1710409,15.3496226 L54.8920258,15.3496226 C55.2418056,15.3496226 55.5248184,15.0538191 55.5248184,14.6889289 L55.5248184,10.9623567 L55.5248184,10.9623567 Z" id="Fill-14" fill="#41A747"></path>
                    </g>
                </g>
            </g>
        </g>
    </g>
</svg>