<svg height="21" viewBox="0 0 16 21" width="16" xmlns="http://www.w3.org/2000/svg"><path d="m16 11.5v-7.5c0-1.1045695-.8954305-2-2-2h-4c-1.1045695 0-2 .8954305-2 2v7.5c0 .2761424-.22385763.5-.5.5s-.5-.2238576-.5-.5v-4.5h-1c-.55228475 0-1 .44771525-1 1v12c0 .5522847.44771525 1 1 1h12c.5522847 0 1-.4477153 1-1v-12c0-.55228475-.4477153-1-1-1h-1v4.5c0 .2761424-.2238576.5-.5.5s-.5-.2238576-.5-.5zm-9-5.5v-2c0-1.65685425 1.34314575-3 3-3h4c1.6568542 0 3 1.34314575 3 3v2h1c1.1045695 0 2 .8954305 2 2v12c0 1.1045695-.8954305 2-2 2h-12c-1.1045695 0-2-.8954305-2-2v-12c0-1.1045695.8954305-2 2-2zm2.5 0h5c.2761424 0 .5.22385763.5.5s-.2238576.5-.5.5h-5c-.27614237 0-.5-.22385763-.5-.5s.22385763-.5.5-.5z" fill-rule="evenodd" transform="translate(-4 -1)"/></svg>