<?xml version="1.0" encoding="UTF-8"?>
<svg width="18px" height="18px" viewBox="0 0 18 18" version="1.1" xmlns="http://www.w3.org/2000/svg" xmlns:xlink="http://www.w3.org/1999/xlink">
    <!-- Generator: Sketch 63.1 (92452) - https://sketch.com -->
    <title>Icons/Location/Green</title>
    <desc>Created with Sketch.</desc>
    <defs>
        <path d="M16.819016,1.60014801 L18.4010099,3.18139726 C19.1998964,3.98233216 19.1998964,5.27817209 18.4004788,6.07963869 L16.8289485,7.65365907 C16.8229969,7.66016349 16.8168637,7.66656103 16.8105491,7.67284518 L16.791,7.688 L6.96672167,17.5129438 C6.96486457,17.5148538 6.9629911,17.5167538 6.96110127,17.5186436 L6.955,17.523 L6.77327597,17.7053511 C6.6996971,17.7789205 6.607043,17.8304909 6.50574397,17.8542569 L1.68703523,18.9847829 C1.28316918,19.0795346 0.920455962,18.7168089 1.0152216,18.3129461 L2.14574761,13.4949826 C2.16951416,13.3936967 2.22107818,13.3010543 2.29463634,13.227482 L2.47610867,13.0449712 C2.47796577,13.0430612 2.47983924,13.0411613 2.48172907,13.0392714 L2.487,13.034 L13.9198944,1.59998837 C14.7209299,0.799977272 16.0188453,0.799977272 16.819016,1.60014801 Z M3.075,14.423 L2.30948747,17.6905384 L5.576,16.924 L3.075,14.423 Z M12.733,4.368 L3.667,13.434 L6.565,16.332 L15.625,7.273 L12.733,4.368 Z M14.7101237,2.39064738 L13.523,3.577 L16.415,6.483 L17.6095542,5.28967549 C17.973239,4.9250582 17.973239,4.33544605 17.6101531,3.97142826 L16.028665,2.39068539 C15.6648671,2.02688755 15.0743495,2.02688755 14.7101237,2.39064738 Z" id="path-1"></path>
    </defs>
    <g id="Unattended-Delivery" stroke="none" stroke-width="1" fill="none" fill-rule="evenodd">
        <g id="Checkout--Delivery" transform="translate(-230.000000, -283.000000)">
            <g id="Web/Checkout/Card/Minimized/Up-Next-Copy-6" transform="translate(205.000000, 264.000000)">
                <g id="Title" transform="translate(24.000000, 18.000000)">
                    <g id="icon/edit">
                        <mask id="mask-2" fill="white">
                            <use xlink:href="#path-1"></use>
                        </mask>
                        <use id="Mask" fill="#6F6F6F" fill-rule="evenodd" xlink:href="#path-1"></use>
                    </g>
                </g>
            </g>
        </g>
    </g>
</svg>