<svg height="24" viewBox="0 0 20 24" width="20" xmlns="http://www.w3.org/2000/svg"><path d="m21 10c0-4.96966076-4.0299464-9-9-9-4.97056275 0-9 4.02943725-9 9 0 3.8375339 2.96264205 8.1700416 8.9999999 12.9329444 6.037358-4.7629028 9.0000001-9.0954105 9.0000001-12.9329444zm-8.3806307 13.7180442c-.3632042.2865336-.8755345.2865336-1.2387387 0-6.25375371-4.9336186-9.3806306-9.5063-9.3806306-13.7180442 0-5.5228475 4.4771525-10 10-10s10 4.47856369 10 10c0 4.2117442-3.1268769 8.7844256-9.3806307 13.7180442zm-.6193693-10.7180442c1.6568542 0 3-1.3431458 3-3 0-1.65685425-1.3431458-3-3-3s-3 1.34314575-3 3c0 1.6568542 1.3431458 3 3 3zm0 1c-2.209139 0-4-1.790861-4-4s1.790861-4 4-4 4 1.790861 4 4-1.790861 4-4 4z" fill-rule="evenodd" transform="translate(-2)"/></svg>