<svg height="20" viewBox="0 0 20 20" width="20" xmlns="http://www.w3.org/2000/svg"><path d="m3.00010023 5.74386309c.01957604 3.18982636 1.38598716 5.51040471 5.54709295 9.51403221.01844943.0179888.01844943.0179888.08897913.0867225.07416643.0722172.07416643.0722172.10196133.0992794 4.27384426 4.1956727 6.48293926 5.537495 9.51188866 5.5561028 1.6847332 0 2.6194638-.7163924 2.7372742-2.3776016-.106308-.0865791-.2427147-.1909416-.4036492-.3083547-.4817588-.3514768-1.1421493-.790483-1.8320041-1.217171-1.123537-.6949284-2.2116131-1.2715776-2.7034149-1.4804358-.9226709.9534296-1.5587781 1.3623131-2.1319302 1.3623131-.1311225 0-.1904356-.009738-.3819113-.0644479-.0252159-.0108068-.0469374-.020116-.0660303-.0284225-.4464512-.1861425-1.4124011-.9712989-3.3091491-2.8700249l-.17588249-.1758837c-1.8990807-1.8971251-2.68423226-2.8630806-2.8715032-3.3090583-.00649062-.0172829-.01480101-.0360915-.02419927-.0573622-.24960077-.6823064.14459262-1.40757762 1.28415411-2.51252549-.04245539-.10667385-.09705161-.23189766-.16285724-.37226218-.2570135-.54821416-.66202829-1.28103913-1.13833957-2.06618374-.44722773-.7372037-.92608737-1.46841872-1.31587697-2.01095439-.14524135-.20215679-.27341834-.37145431-.37716746-.49888294-1.6709152.11879158-2.38783152 1.06560103-2.37743508 2.73112133zm2.74999651-3.74386309c.41124755 0 4.16622519 5.895 3.67122814 6.34625-1.64124023 1.505-1.38749174 1.7975-1.38749174 1.7975s.24249856.5775 2.65623416 2.98875l.176249.17625c2.4112356 2.41375 2.9887322 2.65625 2.9887322 2.65625s.0162499.01375.0612496.01375c.1449992 0 .5874965-.1475 1.7362397-1.40125.0274998-.03125.0762495-.045.1424991-.045 1.013744 0 6.2049631 3.33125 6.2049631 3.7175 0 2.775-1.7249897 3.75-3.7124779 3.75-3.703728-.0225-6.2874626-1.9525-10.24993898-5.8425 0 0-.18624889-.18125-.19749883-.1925-4.12122546-3.965-5.81746537-6.54875-5.83996523-10.215-.01249993-2.0025.9574943-3.75 3.74997768-3.75z" fill-rule="evenodd" transform="translate(-2 -2)"/></svg>