<?xml version="1.0" encoding="UTF-8"?>
<svg width="320px" height="32px" viewBox="0 0 320 32" version="1.1" xmlns="http://www.w3.org/2000/svg" xmlns:xlink="http://www.w3.org/1999/xlink">
    <!-- Generator: Sketch 55 (78076) - https://sketchapp.com -->
    <title>Group 25</title>
    <desc>Created with Sketch.</desc>
    <g id="Page-1" stroke="none" stroke-width="1" fill="none" fill-rule="evenodd">
        <g id="Group-25">
            <path d="M185.120846,12.4054744 C186.933474,14.2265653 188.415524,17.2091769 187.566598,18.9810777 C185.298036,23.7191934 168.371359,32.0291438 166.93321,30.590995 C165.49559,29.1528463 173.811359,12.2198215 178.550003,9.9512595 C180.321904,9.10286281 183.304516,10.5854413 185.126136,12.3980694 C185.126136,12.3980694 185.124549,12.400714 185.120846,12.4054744" id="Fill-1" fill="#FF8200"></path>
            <path d="M187.722631,0.330578512 C189.250698,0.744198347 190.794102,1.79676033 190.976582,3.3692562 C191.311921,6.25242975 186.214136,10.7980165 185.003954,10.4737851 C183.793772,10.1490248 181.661144,3.72839669 183.385441,1.32971901 C184.273507,0.0930909091 186.192979,-0.0809256198 187.723689,0.324760331 C187.723689,0.324760331 187.72316,0.326876033 187.722631,0.330578512 L187.722631,0.330578512 Z M194.088251,10.4050248 L194.088251,10.4050248 C193.79364,9.31490909 193.042565,8.21368595 191.920714,8.08304132 C189.86478,7.84396694 186.622466,11.4803306 186.853607,12.3435372 C187.084747,13.2067438 191.664714,14.7279339 193.375788,13.4981818 C194.257507,12.864 194.381805,11.4951405 194.091954,10.4039669 L194.088251,10.4050248 Z" id="Fill-3" fill="#43B02A"></path>
            <path d="M233.269633,17.3998017 L231.755848,17.169719 C230.312939,16.9570909 229.477765,16.4900496 229.477765,15.6390083 C229.477765,14.6636694 230.565236,14.0580496 232.172112,14.0580496 C233.308774,14.0580496 234.233864,14.4833058 235.119815,14.9350083 L235.295947,15.0243967 C235.500641,15.1280661 235.719617,15.1809587 235.947583,15.1809587 C236.473864,15.1809587 236.957831,14.8953388 237.211187,14.4357025 L237.334955,14.2119669 C237.531187,13.8565289 237.572972,13.4466116 237.451848,13.0589091 C237.332311,12.6722645 237.06679,12.3596694 236.705534,12.1782479 C235.415484,11.5319008 234.015418,10.9521983 232.172112,10.9521983 C228.319418,10.9521983 225.83717,12.8124298 225.83717,15.8072066 C225.83717,18.2656529 227.603782,19.8064132 230.946592,20.263405 L232.474129,20.462281 C234.08841,20.6891901 234.872807,21.166281 234.872807,21.9226446 C234.872807,22.6213554 234.494625,23.5501488 231.994922,23.5501488 C230.616542,23.5501488 229.217534,23.2005289 228.080873,22.4806612 C227.854493,22.3373223 227.593203,22.261157 227.325038,22.261157 C226.825732,22.261157 226.352873,22.5256198 226.089468,22.9524628 L226.004311,23.0899835 C225.79274,23.4316694 225.729269,23.8516364 225.830294,24.2414545 C225.930261,24.6302149 226.17674,24.9512727 226.523187,25.1464463 C228.504013,26.2603636 230.790559,26.6554711 231.994922,26.6554711 C236.011583,26.6554711 238.498592,24.8946777 238.498592,21.7972893 C238.498592,19.3187438 236.738856,17.8975207 233.269633,17.3998017" id="Fill-4" fill="#43B02A"></path>
            <path d="M280.089336,22.9369653 L279.975617,22.8100231 C279.685236,22.4857917 279.269501,22.3006678 278.834195,22.3006678 C278.540112,22.3006678 278.252906,22.384238 278.003782,22.5429157 C277.186592,23.0612628 276.290063,23.3357752 275.412575,23.3357752 C272.999088,23.3357752 271.247286,21.4295273 271.247286,18.8039405 C271.247286,16.1778248 272.999088,14.2715769 275.412575,14.2715769 C276.338724,14.2715769 277.168079,14.5233455 277.946658,15.0411636 C278.550162,15.4420893 279.416542,15.3400066 279.912145,14.8105521 L280.040674,14.6735603 C280.380774,14.3107174 280.541567,13.8193455 280.484443,13.3248 C280.427848,12.8392463 280.163914,12.407643 279.759286,12.1394777 C278.572906,11.3529653 277.101435,10.9372298 275.504079,10.9372298 C270.872278,10.9372298 267.63684,14.1721388 267.63684,18.8039405 C267.63684,23.4357421 270.872278,26.6711802 275.504079,26.6711802 C277.107782,26.6711802 278.587187,26.2464529 279.782559,25.4435438 C280.181898,25.1753785 280.445302,24.7469488 280.505071,24.2677421 C280.565369,23.7843041 280.413567,23.2998083 280.089336,22.9369653" id="Fill-5" fill="#43B02A"></path>
            <path d="M205.010354,5.61417521 C203.804932,5.61417521 202.860271,6.57047273 202.860271,7.79123306 C202.860271,9.01728264 203.784833,9.9413157 205.010354,9.9413157 C206.231114,9.9413157 207.187412,8.99718347 207.187412,7.79123306 C207.187412,6.57047273 206.231114,5.61417521 205.010354,5.61417521" id="Fill-6" fill="#43B02A"></path>
            <path d="M205.661144,11.0640661 L204.39278,11.0640661 C203.771293,11.0640661 203.267755,11.5676033 203.267755,12.1890909 L203.267755,25.1631074 C203.267755,25.784595 203.771293,26.2886612 204.393309,26.2886612 L205.660615,26.2886612 C206.282102,26.2886612 206.786169,25.784595 206.786169,25.1631074 L206.786169,12.1890909 C206.786169,11.5676033 206.282631,11.0640661 205.661144,11.0640661" id="Fill-7" fill="#43B02A"></path>
            <path d="M247.309911,14.3424529 C247.931398,14.3424529 248.435464,13.8389157 248.435464,13.2168992 L248.435464,12.1897256 C248.435464,11.568238 247.931398,11.0641719 247.309911,11.0641719 L244.222043,11.0641719 L244.222043,7.68698182 C244.222043,7.06496529 243.717977,6.5614281 243.096489,6.5614281 L241.758307,6.5614281 C241.13682,6.5614281 240.632754,7.06496529 240.632754,7.68698182 L240.632754,19.9850314 C240.632754,23.5251306 243.319167,26.6553124 247.03963,26.6553124 L247.040688,26.6553124 C247.411993,26.6553124 247.761613,26.5103868 248.026076,26.2464529 C248.29001,25.9819901 248.435464,25.6323702 248.435464,25.2610645 L248.435464,24.3941554 C248.435464,23.7689653 247.923993,23.2707174 247.298803,23.2686017 C245.875993,23.2627835 244.222043,22.1472793 244.222043,20.194486 L244.222043,14.3424529 L247.309911,14.3424529 Z" id="Fill-8" fill="#43B02A"></path>
            <path d="M216.566109,10.9369653 C212.063365,10.9369653 209.552555,14.5378909 209.552555,17.6199405 L209.552555,25.1629488 C209.552555,25.7844364 210.056093,26.2885025 210.678109,26.2885025 L211.960754,26.2885025 C212.58277,26.2885025 213.086307,25.7844364 213.086307,25.1629488 L213.086307,18.1858909 C213.086307,15.8496264 214.502241,14.3019901 216.566109,14.3019901 C218.629977,14.3019901 220.045382,15.8496264 220.045382,18.1858909 L220.045382,25.1629488 C220.045382,25.7844364 220.549448,26.2885025 221.170936,26.2885025 L222.454109,26.2885025 C223.075597,26.2885025 223.579663,25.7844364 223.579663,25.1629488 L223.579663,17.6199405 C223.579663,14.5378909 221.068853,10.9369653 216.566109,10.9369653" id="Fill-9" fill="#43B02A"></path>
            <path d="M309.835742,11.5542215 C309.687114,11.3167339 309.454387,11.1527669 309.180403,11.0929983 C308.692734,10.9866843 307.468271,10.9369653 306.835147,10.9369653 C306.778023,10.9369653 306.721957,10.939081 306.666949,10.939081 C303.180271,10.939081 299.961759,13.7809983 299.961759,17.6982215 C299.96123,17.701395 299.960701,17.7050975 299.960701,17.7082711 L299.960701,17.7817917 L299.960701,25.1629488 C299.960701,25.7844364 300.464238,26.2885025 301.086255,26.2885025 L302.368899,26.2885025 C302.990916,26.2885025 303.494453,25.7844364 303.494453,25.1629488 L303.494453,17.8272793 C303.494453,15.6946512 305.01723,14.3041058 306.88275,14.3041058 C307.224436,14.309924 307.590982,14.3480066 307.950122,14.4194116 C308.047974,14.4384529 308.14794,14.4485025 308.246321,14.4485025 C308.957726,14.4485025 309.574982,13.9566017 309.741064,13.264238 C309.833098,12.8844694 309.900271,12.6009653 309.963742,12.3428496 C310.027213,12.084205 309.983841,11.7911802 309.835742,11.5542215" id="Fill-10" fill="#43B02A"></path>
            <path d="M318.588826,14.3424529 C319.210843,14.3424529 319.71438,13.8389157 319.71438,13.2168992 L319.71438,12.1897256 C319.71438,11.568238 319.210843,11.0641719 318.588826,11.0641719 L315.500959,11.0641719 L315.500959,7.68698182 C315.500959,7.06496529 314.996893,6.5614281 314.375405,6.5614281 L313.037752,6.5614281 C312.415736,6.5614281 311.912198,7.06496529 311.912198,7.68698182 L311.912198,19.9850314 C311.912198,23.5251306 314.598612,26.6553124 318.318545,26.6553124 L318.319603,26.6553124 C318.690909,26.6553124 319.041058,26.5103868 319.304992,26.2464529 C319.569455,25.9819901 319.71438,25.6323702 319.71438,25.2610645 L319.71438,24.3941554 C319.71438,23.7689653 319.203438,23.2707174 318.578248,23.2686017 C317.154909,23.2627835 315.500959,22.1472793 315.500959,20.194486 L315.500959,14.3424529 L318.588826,14.3424529 Z" id="Fill-11" fill="#43B02A"></path>
            <path d="M291.17715,23.0997157 C290.766175,23.2361785 290.347795,23.3144595 289.93206,23.331914 C289.901382,23.3329719 289.870704,23.3335008 289.840026,23.3340298 C289.814638,23.3345587 289.788721,23.3356165 289.763332,23.3356165 C289.737944,23.3356165 289.712026,23.3345587 289.687167,23.3340298 C289.656489,23.3335008 289.625283,23.3329719 289.595663,23.331914 C289.179398,23.3144595 288.761018,23.2361785 288.349514,23.0997157 C286.690803,22.514195 285.58958,20.8856331 285.58958,18.8037818 C285.58958,16.3448066 287.124522,14.5178975 289.301051,14.2952198 C289.312688,14.2936331 289.323795,14.2931041 289.335431,14.2920463 C289.384621,14.287286 289.43434,14.2835835 289.48406,14.2804099 C289.512093,14.2788231 289.540126,14.2772364 289.568688,14.2761785 C289.616291,14.2740628 289.664952,14.2735339 289.713084,14.273005 C289.73001,14.272476 289.746936,14.2719471 289.763332,14.2719471 C289.780258,14.2719471 289.797183,14.272476 289.81358,14.273005 C289.862241,14.2735339 289.910374,14.2740628 289.958506,14.2761785 C289.986539,14.2772364 290.015101,14.2788231 290.042605,14.2804099 C290.092853,14.2835835 290.142572,14.287286 290.191762,14.2920463 C290.202869,14.2931041 290.214506,14.2936331 290.226142,14.2952198 C292.402142,14.5178975 293.938142,16.3448066 293.938142,18.8037818 C293.938142,20.8856331 292.83639,22.514195 291.17715,23.0997157 L291.17715,23.0997157 Z M297.54806,18.8037818 C297.54806,15.8640132 296.243729,13.4880793 294.106869,12.1440793 C294.104754,12.1424926 294.103167,12.1409058 294.101051,12.139319 C292.914671,11.3528066 291.4432,10.9370711 289.845845,10.9370711 C289.81834,10.9370711 289.791365,10.9386579 289.763332,10.9386579 C289.735299,10.9386579 289.708853,10.9370711 289.68082,10.9370711 C288.083464,10.9370711 286.612522,11.3528066 285.425613,12.139319 C285.423498,12.1409058 285.421911,12.1424926 285.419795,12.1440793 C283.283464,13.4880793 281.978605,15.8640132 281.978605,18.8037818 C281.978605,21.8837157 283.409878,24.3442777 285.729745,25.6486083 C286.811927,26.2870215 288.096159,26.6678479 289.479828,26.6689058 C292.007564,26.6704926 293.534043,25.238162 294.014307,24.6129719 L294.014307,25.152476 C294.014307,25.7739636 294.517845,26.2780298 295.139861,26.2780298 L296.422506,26.2780298 C297.044522,26.2780298 297.54806,25.7739636 297.54806,25.152476 L297.54806,18.8037818 Z" id="Fill-12" fill="#43B02A"></path>
            <path d="M259.156522,23.0997157 C258.746076,23.2361785 258.327167,23.3144595 257.911431,23.331914 C257.880754,23.3329719 257.850076,23.3335008 257.819927,23.3340298 C257.79401,23.3345587 257.768621,23.3356165 257.742704,23.3356165 C257.717316,23.3356165 257.691927,23.3345587 257.666539,23.3340298 C257.635861,23.3335008 257.605183,23.3329719 257.575035,23.331914 C257.15877,23.3144595 256.74039,23.2361785 256.328886,23.0997157 C254.670704,22.514195 253.568952,20.8856331 253.568952,18.8037818 C253.568952,16.3448066 255.103894,14.5178975 257.280423,14.2952198 C257.29206,14.2936331 257.303696,14.2931041 257.315332,14.2920463 C257.363993,14.287286 257.413712,14.2835835 257.463431,14.2804099 C257.491993,14.2788231 257.519498,14.2772364 257.54806,14.2761785 C257.596192,14.2740628 257.644324,14.2735339 257.692456,14.273005 C257.709911,14.272476 257.726307,14.2719471 257.742704,14.2719471 C257.75963,14.2719471 257.776555,14.272476 257.793481,14.273005 C257.842142,14.2735339 257.889745,14.2740628 257.937878,14.2761785 C257.96644,14.2772364 257.994473,14.2788231 258.021977,14.2804099 C258.072225,14.2835835 258.121944,14.287286 258.171134,14.2920463 C258.182241,14.2931041 258.194407,14.2936331 258.205514,14.2952198 C260.381514,14.5178975 261.917514,16.3448066 261.917514,18.8037818 C261.917514,20.8856331 260.815762,22.514195 259.156522,23.0997157 L259.156522,23.0997157 Z M265.52796,18.8037818 C265.52796,15.8640132 264.223101,13.4880793 262.08677,12.1440793 L262.080423,12.139319 C260.894043,11.3528066 259.423101,10.9370711 257.825217,10.9370711 C257.798241,10.9370711 257.770737,10.9386579 257.742704,10.9386579 C257.7152,10.9386579 257.688225,10.9370711 257.660192,10.9370711 C256.062836,10.9370711 254.591894,11.3528066 253.404985,12.139319 C253.403398,12.1409058 253.401283,12.1424926 253.399167,12.1440793 C251.262836,13.4880793 249.957977,15.8640132 249.957977,18.8037818 C249.957977,21.8837157 251.38925,24.3442777 253.709646,25.6486083 C254.791299,26.2870215 256.075531,26.6678479 257.459729,26.6689058 C259.987464,26.6704926 261.513944,25.238162 261.993679,24.6129719 L261.993679,25.152476 C261.993679,25.7739636 262.497745,26.2780298 263.119233,26.2780298 L264.402407,26.2780298 C265.023894,26.2780298 265.52796,25.7739636 265.52796,25.152476 L265.52796,18.8037818 Z" id="Fill-13" fill="#43B02A"></path>
            <path d="M4.10589091,9.95400992 L4.10589091,22.4006876 L7.78615537,22.4006876 C9.6696595,22.4006876 10.9824529,21.473481 11.7255934,19.6185388 C12.1312793,18.6014149 12.3349157,17.3896463 12.3349157,15.9832331 C12.3349157,14.042076 12.0297256,12.5526215 11.4209322,11.5127537 C10.8121388,10.4734149 9.60037025,9.95400992 7.78615537,9.95400992 L4.10589091,9.95400992 Z M11.4119405,7.05602645 C12.7501223,7.49609256 13.833362,8.30217521 14.6621884,9.47533223 C15.3270479,10.4242248 15.7798083,11.4503405 16.0215273,12.5547372 C16.2632463,13.6591339 16.3843702,14.7111669 16.3843702,15.7118942 C16.3843702,18.2475636 15.8750149,20.3950017 14.8563041,22.1547372 C13.4752793,24.5269686 11.3431802,25.7128198 8.45947769,25.7128198 L0.237857851,25.7128198 L0.237857851,6.64187769 L8.45947769,6.64187769 C9.6426843,6.65933223 10.626486,6.79685289 11.4119405,7.05602645 L11.4119405,7.05602645 Z" id="Fill-14" fill="#455440"></path>
            <path d="M22.7489851,15.0810975 C22.2279934,15.618486 21.9005884,16.3462876 21.7672992,17.2639736 L28.1191669,17.2639736 C28.0519934,16.2849322 27.7251174,15.5423207 27.137481,15.0356099 C26.5493157,14.5288992 25.8204562,14.2755438 24.9503736,14.2755438 C24.0035967,14.2755438 23.2699769,14.5437091 22.7489851,15.0810975 M28.2656793,11.8959074 C29.2489521,12.3365025 30.0613818,13.0320397 30.7024397,13.9819901 C31.2800264,14.8203372 31.6545058,15.7919736 31.8258777,16.897957 C31.9253157,17.545362 31.966043,18.4783868 31.9475306,19.6965025 L21.676324,19.6965025 C21.7334479,21.1108496 22.2253488,22.103114 23.1509686,22.6727669 C23.7142744,23.0260893 24.3918281,23.2027504 25.1841587,23.2027504 C26.0240926,23.2027504 26.7064066,22.9869488 27.2316298,22.5558744 C27.5183074,22.3226182 27.7711339,21.9994446 27.990638,21.5858248 L31.7550017,21.5858248 C31.6560926,22.4220562 31.2006876,23.2715107 30.3877289,24.1341884 C29.1251835,25.5056926 27.3564562,26.1917091 25.082605,26.1917091 C23.2054479,26.1917091 21.5493818,25.6130645 20.1154645,24.4568331 C18.6804893,23.2995438 17.9627372,21.4170975 17.9627372,18.8105521 C17.9627372,16.3674446 18.6106711,14.4939901 19.905481,13.1907174 C21.2008198,11.8869157 22.8817455,11.2352793 24.9487868,11.2352793 C26.1758942,11.2352793 27.2813488,11.4553124 28.2656793,11.8959074" id="Fill-15" fill="#455440"></path>
            <polygon id="Fill-16" fill="#455440" points="33.8898512 25.7126612 37.5775207 25.7126612 37.5775207 6.64171901 33.8898512 6.64171901"></polygon>
            <path d="M41.2255207,11.6099174 L44.9644959,11.6099174 L44.9644959,25.7126612 L41.2255207,25.7126612 L41.2255207,11.6099174 Z M44.9650248,9.92846281 L41.2260496,9.92846281 L41.2260496,6.52535537 L44.9650248,6.52535537 L44.9650248,9.92846281 Z" id="Fill-17" fill="#455440"></path>
            <polygon id="Fill-18" fill="#455440" points="57.2236694 11.6100231 61.1826777 11.6100231 56.0901818 25.7127669 52.2025785 25.7127669 47.1449917 11.6100231 51.2848926 11.6100231 54.2220165 22.0124033"></polygon>
            <path d="M66.9457455,15.0810975 C66.4247537,15.618486 66.0973488,16.3462876 65.9640595,17.2639736 L72.3159273,17.2639736 C72.2487537,16.2849322 71.9218777,15.5423207 71.3342413,15.0356099 C70.746076,14.5288992 70.0172165,14.2755438 69.1471339,14.2755438 C68.200357,14.2755438 67.4667372,14.5437091 66.9457455,15.0810975 M72.4624397,11.8959074 C73.4457124,12.3365025 74.2581421,13.0320397 74.8992,13.9819901 C75.4767868,14.8203372 75.8512661,15.7919736 76.022638,16.897957 C76.122076,17.545362 76.1628033,18.4783868 76.1442909,19.6965025 L65.8730843,19.6965025 C65.9302083,21.1108496 66.4221091,22.103114 67.3477289,22.6727669 C67.9110347,23.0260893 68.5885884,23.2027504 69.380919,23.2027504 C70.2208529,23.2027504 70.9031669,22.9869488 71.4283901,22.5558744 C71.7150678,22.3226182 71.9678942,21.9994446 72.1873983,21.5858248 L75.951762,21.5858248 C75.8528529,22.4220562 75.3974479,23.2715107 74.5844893,24.1341884 C73.3219438,25.5056926 71.5532165,26.1917091 69.2793653,26.1917091 C67.4022083,26.1917091 65.7461421,25.6130645 64.3122248,24.4568331 C62.8772496,23.2995438 62.1594975,21.4170975 62.1594975,18.8105521 C62.1594975,16.3674446 62.8074314,14.4939901 64.1022413,13.1907174 C65.3975802,11.8869157 67.0785058,11.2352793 69.1455471,11.2352793 C70.3726545,11.2352793 71.4781091,11.4553124 72.4624397,11.8959074" id="Fill-19" fill="#455440"></path>
            <path d="M85.8429884,11.2804496 C85.8905917,11.284681 85.9963769,11.291557 86.1603438,11.2994909 L86.1603438,15.0776066 C85.9270876,15.0516893 85.7202777,15.0347636 85.5393851,15.0257719 C85.3579636,15.0173091 85.2114512,15.0130777 85.099319,15.0130777 C83.6156826,15.0130777 82.6191868,15.4959868 82.1103603,16.461805 C81.8257983,17.0050116 81.6835174,17.8417719 81.6835174,18.972086 L81.6835174,25.712714 L77.9699306,25.712714 L77.9699306,11.6099702 L81.4894017,11.6099702 L81.4894017,14.0684165 C82.0590545,13.1285157 82.5546579,12.4853421 82.9772694,12.1404826 C83.6675174,11.5628959 84.5640463,11.2735736 85.668443,11.2735736 C85.7377322,11.2735736 85.7953851,11.2756893 85.8429884,11.2804496" id="Fill-20" fill="#455440"></path>
            <path d="M91.9943405,15.0810975 C91.4733488,15.618486 91.1459438,16.3462876 91.0126545,17.2639736 L97.3645223,17.2639736 C97.2973488,16.2849322 96.9704727,15.5423207 96.3828364,15.0356099 C95.7946711,14.5288992 95.0658116,14.2755438 94.1957289,14.2755438 C93.2489521,14.2755438 92.5153322,14.5437091 91.9943405,15.0810975 M97.5110347,11.8959074 C98.4943074,12.3365025 99.3067372,13.0320397 99.947795,13.9819901 C100.525382,14.8203372 100.899861,15.7919736 101.071233,16.897957 C101.170671,17.545362 101.211398,18.4783868 101.192886,19.6965025 L90.9216793,19.6965025 C90.9788033,21.1108496 91.4707041,22.103114 92.396324,22.6727669 C92.9596298,23.0260893 93.6371835,23.2027504 94.429514,23.2027504 C95.2694479,23.2027504 95.951762,22.9869488 96.4769851,22.5558744 C96.7636628,22.3226182 97.0164893,21.9994446 97.2359934,21.5858248 L101.000357,21.5858248 C100.901448,22.4220562 100.446043,23.2715107 99.6330843,24.1341884 C98.3705388,25.5056926 96.6018116,26.1917091 94.3279603,26.1917091 C92.4508033,26.1917091 90.7947372,25.6130645 89.3608198,24.4568331 C87.9258446,23.2995438 87.2080926,21.4170975 87.2080926,18.8105521 C87.2080926,16.3674446 87.8560264,14.4939901 89.1508364,13.1907174 C90.4461752,11.8869157 92.1271008,11.2352793 94.1941421,11.2352793 C95.4212496,11.2352793 96.5267041,11.4553124 97.5110347,11.8959074" id="Fill-21" fill="#455440"></path>
            <path d="M111.441613,21.8832397 C111.98482,21.1067769 112.256688,20.1023471 112.256688,18.8683636 C112.256688,17.1435372 111.820853,15.9100826 110.949712,15.1685289 C110.414969,14.7194711 109.79401,14.4952066 109.086836,14.4952066 C108.008357,14.4952066 107.217084,14.9030083 106.713018,15.7180826 C106.207894,16.533157 105.955597,17.5444628 105.955597,18.752 C105.955597,20.0547438 106.212126,21.0961983 106.725712,21.8763636 C107.23877,22.6575868 108.01682,23.047405 109.060919,23.047405 C110.104489,23.047405 110.898407,22.6597025 111.441613,21.8832397 M110.535564,11.8368264 C111.199894,12.2118347 111.738869,12.7312397 112.153018,13.3955702 L112.153018,6.66763636 L115.891993,6.66763636 L115.891993,25.7126612 L112.308522,25.7126612 L112.308522,23.7593388 C111.782241,24.5960992 111.182969,25.2038347 110.509646,25.5836033 C109.837382,25.962843 109.000621,26.1527273 107.999894,26.1527273 C106.352291,26.1527273 104.965977,25.486281 103.840423,24.1539174 C102.714869,22.8210248 102.152093,21.1110083 102.152093,19.0238678 C102.152093,16.6172562 102.705878,14.7242314 103.814506,13.3437355 C104.922605,11.9637686 106.404126,11.2735207 108.258539,11.2735207 C109.112754,11.2735207 109.871233,11.4612893 110.535564,11.8368264" id="Fill-22" fill="#455440"></path>
            <path d="M135.564588,21.8961983 C136.095101,21.1287273 136.360621,20.1195372 136.360621,18.8680992 C136.360621,17.8679008 136.229977,17.0396033 135.969217,16.3842645 C135.473613,15.1418182 134.560688,14.5213884 133.229911,14.5213884 C131.881679,14.5213884 130.955531,15.129124 130.450936,16.3456529 C130.190175,16.9925289 130.059531,17.8292893 130.059531,18.855405 C130.059531,20.0629421 130.329283,21.0636694 130.868258,21.8575868 C131.407762,22.6509752 132.229183,23.0476694 133.334109,23.0476694 C134.290936,23.0476694 135.034076,22.6636694 135.564588,21.8961983 M138.646638,13.3053884 C139.701316,14.6419835 140.228655,16.3673388 140.228655,18.4803967 C140.228655,20.6717355 139.708721,22.4870083 138.668324,23.9272727 C137.627927,25.3675372 136.175498,26.0879339 134.312093,26.0879339 C133.14158,26.0879339 132.200621,25.8552066 131.489745,25.3892231 C131.065018,25.1136529 130.605382,24.6307438 130.111365,23.9399669 L130.111365,25.7129256 L126.475531,25.7129256 L126.475531,6.66790083 L130.1632,6.66790083 L130.1632,13.4471405 C130.631828,12.7918017 131.14806,12.2919669 131.712952,11.9465785 C132.380985,11.5155041 133.232026,11.2997025 134.265018,11.2997025 C136.131068,11.2997025 137.59196,11.9677355 138.646638,13.3053884" id="Fill-23" fill="#455440"></path>
            <path d="M143.347094,28.4168463 L143.812549,28.4427636 C144.174863,28.4596893 144.519722,28.446995 144.847656,28.4041521 C145.17559,28.3607802 145.451689,28.2618711 145.675425,28.1063669 C145.891226,27.9598545 146.091689,27.6536066 146.277342,27.1881521 C146.462995,26.7221686 146.542334,26.4376066 146.516945,26.3339372 L141.334532,11.6102347 L145.43635,11.6102347 L148.515226,22.0126149 L151.426433,11.6102347 L155.34683,11.6102347 L150.51245,25.4797223 C149.577838,28.1539702 148.838929,29.8121521 148.294664,30.4547967 C147.7504,31.0969124 146.662929,31.4184992 145.030664,31.4184992 C144.702731,31.4184992 144.438797,31.4163835 144.24045,31.4121521 C144.041574,31.4073917 143.743788,31.3925818 143.347094,31.3666645 L143.347094,28.4168463 Z" id="Fill-24" fill="#455440"></path>
        </g>
    </g>
</svg>
