<?xml version="1.0" encoding="UTF-8"?>
<svg width="10px" height="13px" viewBox="0 0 10 13" version="1.1" xmlns="http://www.w3.org/2000/svg" xmlns:xlink="http://www.w3.org/1999/xlink">
    <!-- Generator: Sketch 55.1 (78136) - https://sketchapp.com -->
    <title>Shape Copy 2</title>
    <desc>Created with Sketch.</desc>
    <g id="Checkout---Alcohol,-Shared-wallet--New" stroke="none" stroke-width="1" fill="none" fill-rule="evenodd">
        <g id="Payment-patterns" transform="translate(-662.000000, -389.000000)" fill="#CCCCCC">
            <g id="Group-6" transform="translate(68.000000, 172.000000)">
                <path d="M602.947368,222 L602.552632,222 L602.552632,220.552632 C602.552632,218.590567 600.962064,217 599,217 C597.037936,217 595.447368,218.590567 595.447368,220.552632 L595.447368,222 L595.052632,222 C594.471279,222 594,222.471279 594,223.052632 L594,228.578947 C594,229.1603 594.471279,229.631579 595.052632,229.631579 L602.947368,229.631579 C603.528721,229.631579 604,229.1603 604,228.578947 L604,223.052632 C604,222.471279 603.528721,222 602.947368,222 Z M597.947358,225.157895 C597.945057,224.646467 598.310683,224.207382 598.814075,224.117054 C599.317468,224.026725 599.812945,224.311295 599.988593,224.791619 C600.164241,225.271943 599.969226,225.809015 599.526316,226.064737 L599.526316,227.263158 C599.526316,227.553834 599.290676,227.789474 599,227.789474 C598.709324,227.789474 598.473684,227.553834 598.473684,227.263158 L598.473684,226.064737 C598.148995,225.87803 597.948418,225.532436 597.947358,225.157895 Z M596.763158,220.552632 C596.763158,219.317258 597.764626,218.31579 599,218.31579 C600.235374,218.31579 601.236842,219.317258 601.236842,220.552632 L601.236842,221.736842 C601.236842,221.88218 601.119022,222 600.973684,222 L597.026316,222 C596.880978,222 596.763158,221.88218 596.763158,221.736842 L596.763158,220.552632 Z" id="Shape-Copy-2"></path>
            </g>
        </g>
    </g>
</svg>