<?xml version="1.0" encoding="UTF-8" standalone="no"?>
<svg width="320px" height="199px" viewBox="0 0 320 199" version="1.1" xmlns="http://www.w3.org/2000/svg" xmlns:xlink="http://www.w3.org/1999/xlink">
    <!-- Generator: Sketch 3.8.3 (29802) - http://www.bohemiancoding.com/sketch -->
    <title>funnel-mask</title>
    <desc>Created with Sketch.</desc>
    <defs></defs>
    <g id="eCircular--Offline-Mode" stroke="none" stroke-width="1" fill="none" fill-rule="evenodd" opacity="0.5">
        <g id="ecom-OLM-LC-onbarding" transform="translate(0.000000, -318.000000)" fill="#D8D8D8">
            <g id="bg-layout" transform="translate(-91.000000, 279.000000)">
                <g id="funnel-mask">
                    <g id="sat-food" transform="translate(225.327803, 225.911781) rotate(-300.000000) translate(-225.327803, -225.911781) translate(59.327803, 61.911781)">
                        <path d="M84.7179981,119.896089 C84.9268496,120.26682 85.3095907,120.534775 85.8689816,120.529269 C91.4205679,120.475127 96.9629537,120.026396 102.51362,119.925454 C107.729388,119.830936 113.055562,121.875464 118.218886,120.919271 C118.211526,124.051217 118.157243,127.063868 117.711938,130.178379 C106.948265,130.367415 96.1625095,132.23759 85.4751999,130.219673 C83.5789753,127.742013 84.4346225,123.187706 84.7179981,119.896089 M109.849185,164.890399 C109.714857,164.884893 109.57501,164.893152 109.423201,164.931693 C104.436526,166.211817 98.4129537,166.269629 93.3039118,165.136329 C92.419743,160.226891 91.1546732,155.383525 89.9466466,150.545664 C88.5297684,144.877328 89.3973763,138.991508 88.0853839,133.313078 C97.2306885,134.41426 106.391634,133.155242 115.590301,132.833146 C113.588271,143.441202 114.205625,154.88891 109.849185,164.890399 M84.0978839,132.700086 C84.2772938,132.788181 84.4640641,132.823052 84.6462341,132.811122 C84.8081631,132.833146 84.969172,132.857005 85.1311009,132.885452 C85.1393813,132.923076 85.1403014,132.94877 85.151342,132.987311 C86.8506758,138.978661 85.7742164,145.253565 87.2840197,151.282538 C88.5086072,156.167199 89.7856377,161.056449 90.6716466,166.01544 C90.6753268,166.031958 90.6808471,166.043887 90.6845273,166.060405 C90.5658407,166.691749 90.8298953,167.379988 91.6349397,167.58646 C97.4413801,169.076727 104.351881,169.076727 110.157402,167.58646 C110.531862,167.491024 110.783036,167.286388 110.941285,167.036787 C111.429832,167.136811 111.93862,166.957868 112.208195,166.342124 C116.82869,155.787291 116.145092,143.888099 118.404737,132.761569 C118.952167,132.745969 119.326628,132.470673 119.530879,132.098107 C119.91914,131.993494 120.236558,131.842999 120.321202,131.295161 C120.932116,127.318975 120.982719,123.128977 120.984559,119.458369 C120.984559,119.29778 120.956957,119.155544 120.918315,119.022484 C120.851152,118.233304 120.204356,117.50377 119.236463,117.825866 C113.656355,119.683194 107.112034,117.088992 101.303753,117.194522 C96.1560692,117.288122 91.0185057,117.72676 85.8689816,117.776313 C85.3555933,117.781819 84.9967735,118.017655 84.7787214,118.34434 C84.6011516,116.773319 82.0599714,116.836637 82.0351301,118.540717 C81.9744067,122.752739 80.6329727,128.230204 83.3195209,131.904482 C83.4078458,132.257778 83.6608598,132.556933 84.0978839,132.700086" id="Fill-1"></path>
                        <path d="M95.1979283,146.235085 C94.811507,147.002242 94.9375539,148.349355 95.4941846,149.006394 C95.9661707,149.565244 97.1879981,150.093812 97.8899968,149.659762 C98.1586516,149.493667 98.3426618,149.326655 98.4972303,149.107336 C98.7741656,149.102748 99.0593813,148.988959 99.3234359,148.716416 C100.033715,147.979542 100.741234,145.775342 101.706367,145.488117 C102.973277,145.110044 104.47388,145.574376 105.791393,145.330281 C108.845961,144.764089 107.669216,140.735597 105.997484,139.379308 C103.792122,137.588969 100.576545,137.656875 98.3215006,139.166413 C96.098658,140.653926 95.3294956,143.561048 95.22829,146.182779 C95.2190895,146.201132 95.2071288,146.216732 95.1979283,146.235085" id="Fill-3"></path>
                        <path d="M106.78928,147.576601 C106.570308,147.493094 106.323734,147.455471 106.049559,147.496765 C105.370562,147.596789 104.744927,147.785825 104.157935,148.044603 C104.126653,148.043686 104.096291,148.047356 104.06685,148.047356 C103.571862,147.952838 103.108157,148.007897 102.673893,148.175827 C102.663772,148.17858 102.652732,148.17858 102.642611,148.180416 C101.749242,148.387805 101.106126,148.961338 100.747306,149.694541 C100.208157,150.33231 99.7352506,151.051749 99.3203077,151.684011 C98.7379156,152.088695 98.1030806,152.411709 97.3090768,152.543851 C95.6925476,152.81364 96.2040958,155.086664 97.6596161,155.20963 C99.0258915,156.11994 100.653461,156.230058 102.166945,155.771233 C103.086996,155.688644 103.997846,155.304148 104.773449,154.864592 C106.818721,153.703763 108.05619,151.366503 108.667103,149.189833 C109.014883,147.94825 107.715771,147.230646 106.78928,147.576601" id="Fill-5"></path>
                        <path d="M142.982145,86.2355148 C143.996041,86.6686465 144.925292,85.8987365 145.07802,85.0921204 C146.125958,84.7158831 147.06257,84.104727 148.075546,83.3238052 C151.899277,80.3772248 155.493915,79.448561 159.558699,82.7741317 C164.801148,87.0641545 161.20743,102.290753 154.238966,102.77252 C148.210793,103.189134 142.017011,103.806714 136.56111,100.688533 C132.75026,98.5118623 130.106954,93.3803527 132.179829,89.2490837 C134.079734,85.4600989 139.468471,84.7351538 142.982145,86.2355148 M136.485666,69.132318 C138.418693,70.458325 139.140013,73.595777 140.336079,75.8476948 C137.962348,76.1385905 136.868407,71.9761213 136.485666,69.132318 M128.746199,93.8997437 C131.182494,104.639024 141.919486,106.223809 151.259841,105.619994 C154.652989,105.400675 158.30927,105.761313 160.549594,102.655978 C163.669486,98.3310849 164.858192,92.1305108 164.379765,86.8824594 C163.974943,82.4474476 160.915774,79.6697152 156.896992,78.2638724 C154.898642,77.5646216 152.557113,77.5031389 150.584524,78.2317546 C148.127989,79.14023 146.549181,81.773891 144.074245,82.5373775 C143.924277,78.3510493 144.970374,74.2106038 148.51533,71.5530838 C149.919327,70.500537 148.546612,68.1082184 147.122373,69.1754476 C145.093661,70.6969145 143.658382,72.5689245 142.71901,74.6620885 C141.599308,73.0635389 141.133763,71.0052456 140.228433,69.2974953 C139.108731,67.1887312 137.263109,66.0774547 134.938141,65.7764649 C134.19658,65.6801114 133.548864,66.474798 133.558065,67.1529428 C133.616948,71.5677662 135.83519,80.2377417 141.594708,78.3574729 C141.325133,79.8725162 141.245089,81.4536305 141.340774,83.0641097 C134.867297,82.253823 127.022944,86.3025033 128.746199,93.8997437" id="Fill-11"></path>
                        <path d="M178.642208,72.7113441 C178.644048,74.9889562 178.653249,77.2665683 178.68177,79.5441804 C177.03764,79.321191 174.362132,79.0238717 173.807341,77.3115332 C173.036339,74.9311441 176.583135,73.0472047 178.642208,72.7113441 M182.821999,67.4284219 C184.528693,66.3226513 187.079994,66.0822265 189.032341,65.8335428 C193.295857,65.2902929 197.626536,65.1095154 201.917652,65.1196096 C206.011878,65.1287861 210.242272,65.6940597 214.307976,65.1287861 C216.113115,64.8773495 217.884213,64.4772532 219.704074,64.3184995 C220.862418,64.2175577 221.239638,69.0021949 221.472411,69.8124816 C221.475171,69.8207405 221.478852,69.8253287 221.480692,69.8326699 C221.796269,77.5482874 223.584848,85.1143276 223.722855,92.8464628 C223.785419,96.3739169 223.331834,99.1277903 219.530184,99.9720301 C215.186624,100.9374 210.40328,100.919965 205.975076,101.392555 C201.797126,101.838534 197.613655,101.966088 193.415463,102.011053 C189.807944,102.049594 184.151472,103.101223 182.65823,98.83873 C181.234911,94.7716966 181.690336,89.2914792 181.540368,85.0243977 C181.383959,80.5994801 181.40144,76.1681389 181.40052,71.7404683 C181.40052,71.5661144 181.369239,71.4119489 181.321396,71.2715482 C181.193509,69.7353988 181.20639,68.4754627 182.821999,67.4284219 M231.684055,72.861839 C231.279232,75.6771951 227.42882,77.0692731 224.918921,77.2298622 C224.578503,74.60446 224.301567,71.9707989 224.213242,69.310526 C227.098522,68.9113474 232.283928,68.6947815 231.684055,72.861839 M178.274188,82.24483 C178.435197,82.268689 178.585165,82.2604301 178.728693,82.2374888 C178.770095,84.2902762 178.823458,86.3421459 178.913623,88.3940156 C179.098553,92.6399911 178.841859,97.7035945 180.85585,101.578839 C182.11356,104.000522 185.118445,104.534596 187.55382,104.746573 C193.053883,105.22467 198.910006,104.763091 204.401789,104.317112 C209.67092,103.889486 215.037576,103.414143 220.263464,102.627715 C222.486307,102.291854 224.678788,101.064954 225.564797,98.9240716 C227.165685,95.0589216 226.487608,90.3431083 226.080025,86.3201223 C225.862893,84.1893345 225.572157,82.0732291 225.282341,79.9580414 C229.488813,79.6029101 234.32644,76.9701667 234.472728,72.3387774 C234.661339,66.4171694 228.049854,66.0748853 223.692494,66.629147 C223.352995,64.0679805 223.017176,61.54352 219.704074,61.5655436 C217.669841,61.5802261 215.570286,62.1427467 213.573775,62.4740191 C209.30382,63.1815287 204.451472,62.3721597 200.123553,62.3620655 C194.711815,62.3492184 188.691003,62.603408 183.470635,64.1707575 C180.112449,65.179257 178.840019,67.148538 178.623807,69.9482941 C174.920603,70.3263667 171.294683,73.004075 171.006707,76.869225 C170.723331,80.6985865 175.40731,81.8217925 178.274188,82.24483" id="Fill-13"></path>
                        <path d="M92.5410977,187.2288 C95.900203,186.13037 102.320317,183.898641 105.546015,186.540561 C104.659086,187.224211 103.703154,187.618802 102.527329,188.041839 C102.445444,188.070287 102.3746,188.108828 102.303756,188.147369 C98.4285025,188.577748 94.667335,189.779872 91.0266942,191.165527 C89.4920495,191.749153 88.2002982,192.415368 86.836783,193.33302 C86.3942386,193.631257 79.9704442,197.703797 80.3025825,195.470232 C81.0864657,190.207498 88.4818338,188.556642 92.5410977,187.2288 M101.774727,199.132581 C101.634879,200.5788 101.581516,202.019514 101.561275,203.461145 C99.4083566,205.13586 97.2029949,207.279494 96.6160025,210.034286 C95.9471256,213.177243 98.5619099,214.9841 101.199695,215.809987 C101.060768,216.817569 100.881358,217.823315 100.643065,218.827226 C100.321047,220.17801 100.895159,221.507688 99.4819607,220.128457 C98.0153997,218.695085 96.8818972,216.923099 95.6683503,215.286008 C93.6672398,212.58444 91.8722208,210.082921 90.1912881,207.410719 C94.0067386,207.897992 98.6631155,204.806423 98.2389721,200.77426 C97.9417957,197.941468 94.9580711,195.563832 92.1390355,196.010729 C89.6318972,196.407154 87.4136548,198.340647 86.4071193,200.683412 C85.8753299,199.729054 85.2616561,198.76552 84.5403363,198.021304 C86.4393211,197.065111 88.1386548,195.711574 89.9677157,194.592039 C93.0885279,192.682405 97.7623858,191.435316 101.746206,190.953549 C102.349759,193.656034 102.040622,196.38146 101.774727,199.132581 M101.483991,213.007478 C99.977868,212.466063 98.7753617,211.575023 99.5822462,209.755319 C100.026631,208.752326 100.748871,207.845686 101.563115,207.047329 C101.569556,207.668579 101.578756,208.290747 101.586117,208.915668 C101.600838,210.288475 101.571396,211.652106 101.483991,213.007478 M88.2858629,204.204443 C88.2205393,204.086983 88.1542957,203.968606 88.0889721,203.849312 C88.3318655,203.691475 88.5186358,203.430862 88.5830393,203.04086 C88.8829759,201.257862 90.081802,199.64096 91.7820558,198.93345 C93.2835787,198.307612 95.3288515,199.341805 95.5091815,201.055061 C95.7456345,203.306062 91.4655584,205.891087 89.609816,204.454044 C89.1847525,204.125525 88.7054061,204.08056 88.2858629,204.204443 M81.2391942,199.09771 C81.3882424,199.237193 81.5796129,199.349146 81.8261865,199.413382 C83.4528363,199.83642 85.096967,204.130113 85.8127665,205.458873 C86.8321827,207.352907 87.7494734,209.303835 88.8213325,211.169421 C90.6917957,214.427085 93.7638452,217.690256 96.2075,220.565259 C97.0668274,221.576512 98.5600698,223.746758 100.148997,223.689864 C104.461275,223.536616 104.17422,214.801487 104.311307,211.913637 C104.491637,208.11364 104.136497,204.314561 104.406072,200.5164 C104.642525,197.190829 105.151313,193.963447 104.520159,190.711289 C105.074029,190.600253 105.415368,190.203827 105.544175,189.742248 C106.623395,189.202669 107.613369,188.533701 108.469937,187.589437 C108.852678,187.168235 109.065209,186.426772 108.686148,185.921146 C105.577297,181.777947 100.238242,182.490963 95.700552,183.480192 C89.6834201,184.790599 82.7664784,186.713997 78.9731091,191.882213 C76.939797,194.652604 77.0594036,199.532677 81.2391942,199.09771" id="Fill-15"></path>
                        <path d="M110.409312,255.096502 C96.8799651,258.067859 79.9197494,252.274722 72.7856758,240.247058 C69.2793623,234.335544 68.2378648,227.100776 69.5084549,220.407423 C69.9509994,218.074752 74.439007,205.750686 77.6536643,210.064568 C69.907757,218.703343 72.3081694,232.188239 78.2204156,241.295934 C84.7481758,251.352482 98.0051872,254.174261 109.198525,252.210486 C113.182345,251.512153 116.948112,249.856709 120.281456,247.533214 C120.992655,248.32423 121.907186,248.902351 122.913721,249.2428 C118.930822,252.09578 114.609343,254.174261 110.409312,255.096502 M92.7572176,248.645408 C90.1267925,247.737851 87.652776,246.451303 85.4676555,244.838071 C85.6811072,244.624258 85.8356758,244.337033 85.8733978,243.969054 C86.2239372,240.445271 88.7669575,239.105499 91.857408,240.812332 C94.6046796,242.32921 95.6526174,245.318003 93.1776808,247.583685 C92.8225412,247.909452 92.7121352,248.288442 92.7572176,248.645408 M79.3125159,212.375216 C80.1460819,214.083884 81.3973509,215.611774 82.7912278,217.050652 C81.6825666,218.859344 80.4303775,220.803849 80.3337722,222.929131 C80.2233661,225.386602 81.2979854,227.610991 83.2788547,229.085657 C86.7299651,231.656001 90.751507,230.648419 93.3110882,227.62292 C95.6737786,229.888603 98.3483661,231.850543 101.367053,232.251557 C104.739959,232.697535 106.912199,227.967957 108.229711,224.312032 C110.281424,226.74381 114.410612,226.832822 116.895669,224.163372 C120.461786,220.332176 116.37124,214.178402 111.800428,214.237131 C113.237548,210.121463 114.456615,205.981935 114.774952,201.570782 C116.299477,202.194785 117.746716,202.972036 119.112072,203.860323 C118.770733,204.073219 118.52876,204.441197 118.5352,204.968847 C118.569242,208.027381 119.053188,211.329092 121.009216,213.799411 C123.094051,216.432155 126.240625,217.210324 129.477364,216.903828 C130.269527,219.149322 130.743353,221.5187 130.836279,223.956901 C130.875841,224.987424 130.827998,226.002347 130.712992,227.000752 C126.51572,227.042964 123.932218,230.875079 122.624826,234.455757 C122.307408,235.325691 121.98631,236.574615 121.897985,237.814363 C121.828982,237.839139 121.759058,237.857492 121.690974,237.885022 C120.868449,238.215377 120.643036,239.055946 120.833487,239.723996 C119.340244,241.098639 118.560041,242.910084 118.932662,244.837153 C116.056583,246.81561 112.896209,248.33983 109.708233,249.264823 C105.140181,250.592666 100.05506,250.566054 95.2772367,249.377695 C99.0292037,245.758475 97.2525857,240.645319 92.9982709,238.29613 C91.1057265,237.250924 88.685993,236.858169 86.6692418,237.779492 C84.5402443,238.751285 83.6128331,240.831602 83.2448128,242.995425 C82.7544258,242.532011 82.2833598,242.052079 81.8389753,241.547371 C75.255092,234.056578 72.7286326,220.470741 79.3125159,212.375216 M84.8217798,219.027275 C86.2147367,220.324834 87.6214943,221.580182 88.8111199,222.859389 C89.6161643,223.723817 90.4718115,224.685516 91.3771415,225.656392 C89.6143242,228.009252 86.8385311,228.585537 84.4970019,226.524491 C81.9503014,224.283585 83.3791402,221.441617 84.8217798,219.027275 M110.716609,217.261712 C110.793893,217.236018 110.871177,217.210324 110.950301,217.169029 C113.807059,215.713633 116.860707,220.430364 114.566101,222.597858 C113.131742,223.952313 110.064293,223.764194 109.794718,221.486582 C109.756996,221.172745 109.634629,220.918555 109.464419,220.715754 C109.877522,219.558595 110.297985,218.408777 110.716609,217.261712 M128.32822,214.207767 C126.203823,214.22612 124.246875,213.659011 122.922002,211.768648 C121.658772,209.963626 121.363436,207.612602 121.307313,205.447861 C124.258836,207.831003 126.664768,210.830807 128.32822,214.207767 M122.957884,241.514335 C122.970765,241.525347 122.981805,241.539112 122.995606,241.550124 C122.726031,241.808902 122.439895,242.052997 122.1602,242.302598 C122.381932,242.014456 122.651507,241.750172 122.957884,241.514335 M124.70598,237.471161 C124.832947,236.366308 125.223969,235.233008 125.663753,234.230014 C126.52032,232.271745 127.996082,230.166651 130.184883,229.804179 C129.433201,232.684688 128.066926,235.372491 126.281107,237.798763 C125.768639,237.63175 125.24053,237.521632 124.70598,237.471161 M126.249826,246.599962 C126.135739,246.652268 126.017973,246.699069 125.897446,246.739445 C124.6977,247.145965 123.382027,246.697233 122.496938,245.837394 C124.134629,244.465504 125.640752,242.928437 126.979426,241.261981 C127.251761,241.491394 127.502935,241.753842 127.720987,242.053915 C128.441386,243.043143 128.417465,244.147079 127.929838,245.056472 C127.380568,245.584122 126.822097,246.101677 126.249826,246.599962 M115.002205,197.189911 C116.630695,195.916211 118.326348,195.840045 120.094686,196.961416 C121.427839,197.608361 122.549381,198.909591 123.563277,199.962138 C125.576348,202.047961 127.615181,203.926394 129.816862,205.818593 C135.143956,210.399511 139.875777,215.858622 139.38815,223.30078 C138.959407,229.832626 135.596621,236.489273 130.782916,242.052079 C130.716672,241.853866 130.639388,241.657489 130.548303,241.464782 C130.098398,240.514095 129.41848,239.697384 128.602395,239.05044 C131.154616,235.260537 132.886152,230.970515 133.473144,226.573126 C135.062072,214.689534 126.319749,203.36938 115.681202,198.968321 C115.46039,198.680178 115.115371,198.479212 114.640625,198.477377 C114.761152,198.048834 114.881678,197.619373 115.002205,197.189911 M130.49862,246.076901 C133.742719,242.641212 136.517592,238.772391 138.65027,234.828323 C143.350809,226.132654 143.351729,217.073594 137.180029,209.261623 C134.31315,205.633227 130.380853,203.150061 127.207598,199.853855 C124.265276,196.797156 121.843702,193.867094 117.400777,193.430291 C113.681932,193.063231 110.290625,198.126834 112.073683,200.276893 C111.881393,206.211348 109.778157,211.014338 107.933455,216.554203 C107.024445,219.283299 104.977332,229.237988 101.367053,229.498601 C97.8055362,229.753708 92.9191466,223.21452 90.7625476,220.913049 C87.6500159,217.588396 82.3946859,214.13986 81.2225412,209.649789 C81.0578522,209.012939 80.5867862,208.713784 80.0825984,208.676161 C80.0743179,208.673408 80.0687976,208.667902 80.0614372,208.665149 C76.1401808,202.512293 70.6198763,209.618589 68.6905298,213.889341 C65.2532202,221.500347 65.6019194,230.199687 68.5948445,237.879516 C75.3516973,255.22222 100.151666,263.348945 116.826666,256.027001 C120.593353,254.371557 124.129109,251.984744 127.322605,249.151952 C128.744083,248.560067 129.870225,247.426767 130.49862,246.076901" id="Fill-17"></path>
                        <path d="M186.169787,230.425613 C180.574039,230.315495 175.013252,229.601561 169.416583,229.526314 C169.400022,229.507043 169.391742,229.486855 169.375181,229.468502 C165.414362,224.860054 163.02131,219.518402 162.419597,213.46557 C162.275149,212.023021 162.384635,210.426307 162.65697,209.01404 C163.329527,205.531551 166.561666,210.875956 166.690473,211.120051 C167.347389,212.360717 167.819375,213.892278 167.939902,215.300874 C168.017186,216.20109 168.780828,216.639728 169.487427,216.618622 C170.044058,216.761775 170.666012,216.603022 170.970549,215.994618 C171.124197,215.68904 171.277846,215.383462 171.430574,215.076967 C171.730511,214.48141 171.578702,213.912466 171.231843,213.518794 C171.842757,204.056884 176.367567,186.114036 188.328227,193.124897 C194.659096,196.835881 193.564235,206.184002 192.361729,212.166175 C191.095739,218.465855 188.689806,224.53337 186.169787,230.425613 M187.018074,237.555768 C185.388664,238.074242 183.31579,237.963206 181.621056,238.0045 C177.904051,238.092595 164.780447,239.679215 170.050498,232.512353 C170.103861,232.440776 170.141583,232.370117 170.177465,232.299458 C175.366551,232.421506 180.525276,233.035415 185.713442,233.166639 C186.162427,234.169633 186.662015,235.13592 187.197484,236.102208 C187.628988,236.881294 188.077973,237.217155 187.018074,237.555768 M188.876577,190.252646 C176.519375,183.00962 170.487522,199.021728 168.861793,210.020704 C166.712554,205.905953 163.114235,202.185792 160.382605,207.194336 C158.929845,209.855527 159.644724,213.951008 160.079908,216.75994 C160.932795,222.251169 163.851196,227.257878 167.423753,231.414842 C167.431114,231.424018 167.439394,231.428606 167.446754,231.436865 C165.756621,233.861302 165.098785,236.416962 167.208461,238.839563 C169.929051,241.963251 175.52296,240.787738 179.018233,240.765715 C181.416805,240.751032 188.592281,241.684284 190.063442,238.793681 C191.220866,236.522492 189.278639,234.325634 188.300625,232.287529 C188.353068,232.213199 188.411031,232.149881 188.451513,232.053527 C193.244058,220.870103 203.116202,198.598691 188.876577,190.252646" id="Fill-19"></path>
                        <path d="M114.835308,302.77944 C113.291463,302.334378 111.304153,302.548191 110.400663,304.072411 C107.726076,308.578082 104.460815,303.304337 101.27744,304.243094 C97.6367989,305.31583 95.8758217,308.453282 92.3253458,304.692744 C91.2498065,303.553938 89.1787722,302.413297 87.5401618,303.023535 C84.6732836,304.091682 83.6382265,307.803584 80.2505996,305.113029 C78.8953648,304.035705 77.1739499,303.082265 75.3678902,303.633774 C74.3760755,303.934763 73.4854664,304.207306 72.5755362,304.692744 C70.5072621,305.798515 71.7520907,301.975577 72.4504093,300.098061 C75.5822621,300.561475 78.789559,300.154037 81.9692544,300.418321 C86.0634803,300.75877 90.0224588,301.152443 94.1396859,301.173549 C100.779692,301.209337 107.579787,301.101972 113.770809,298.510523 C114.207833,298.893184 114.864749,298.901443 115.367097,298.639912 C116.761894,299.844789 118.057326,300.909265 118.32138,302.999676 C118.635117,305.473666 115.069001,302.845511 114.835308,302.77944 M92.184578,312.696504 C89.0830869,312.588221 85.9825159,312.684575 82.8847049,312.521233 C80.4879727,312.395514 69.8797874,311.819229 73.3143369,307.679701 C74.8250603,306.953838 76.4379093,305.869174 77.9983154,306.832708 C80.5146542,308.387211 82.4283598,309.989431 85.4314055,308.274339 C87.5282011,307.077721 88.1667164,304.300907 91.0657963,307.372288 C92.3023445,308.682695 93.5149714,309.225945 95.2630679,309.643476 C96.4453331,309.926113 97.530073,309.432416 98.491526,308.816672 C100.951742,307.241063 102.278455,306.918968 105.034007,308.060527 C106.401202,308.626718 108.080295,309.049755 109.509134,308.416575 C110.805485,307.843043 112.633626,305.485595 114.238195,305.811362 C114.804026,314.795174 97.7499651,312.889211 92.184578,312.696504 M108.080295,318.180392 C103.562846,319.402704 98.6313737,319.198986 94.0025984,318.964984 C89.7786453,318.751172 85.7258217,318.785125 81.4991085,318.888819 C79.0692544,318.946631 75.3246478,318.87689 73.7762024,316.528619 C73.2011707,315.656849 72.971158,314.367548 72.7429854,313.151659 C77.4729664,315.2384 86.1536453,315.298047 89.1254093,315.352189 C94.6696352,315.454966 107.825441,317.040668 113.872015,312.706598 C112.88756,315.585272 111.43756,317.272834 108.080295,318.180392 M92.5507582,280.946665 C102.283975,280.805346 109.686704,287.289475 112.770714,295.965874 C106.513449,298.688547 99.379375,298.44904 92.6841656,298.413252 C89.6001555,298.396734 86.6081504,298.223298 83.5462214,297.844308 C79.8825793,297.390987 76.0008852,298.014991 72.3878458,297.299222 C72.9315958,287.158251 83.1423192,281.082477 92.5507582,280.946665 M116.592605,296.051216 C116.274267,295.758485 115.917287,295.653872 115.579629,295.679567 C112.180961,285.311017 103.755136,278.574535 92.5507582,278.193709 C81.5211897,277.818389 70.089559,286.103869 69.6148128,297.48367 C69.6056123,297.701154 69.6396542,297.892025 69.7058978,298.055367 C69.6065324,298.432522 69.6497747,298.843631 69.8577062,299.173068 C68.8097684,301.873717 67.6771859,305.340606 70.0904791,307.618218 C69.4538039,308.89559 69.455644,309.955478 69.9018687,310.84193 C69.6249334,311.136496 69.4952062,311.558616 69.6635755,312.072501 C70.6618306,315.111764 70.6995527,318.962232 74.130422,320.380921 C79.8071352,322.72644 86.3284549,321.154502 92.2959042,321.606904 C98.364559,322.066648 104.985244,322.269449 110.813766,320.217579 C114.50685,318.917267 115.998252,315.583437 116.947744,312.072501 C117.174997,311.231014 116.650568,310.629952 116.001932,310.434492 C116.560403,309.494817 116.914622,308.400975 116.997427,307.114427 C118.558753,307.400735 120.025314,306.64459 120.820238,304.79185 C122.437687,301.023054 118.970016,298.238898 116.592605,296.051216" id="Fill-31"></path>
                        <path d="M227.156499,24.5979864 C225.612654,24.1529252 223.625345,24.3667381 222.721855,25.8909579 C220.047267,30.3966289 216.782007,25.1228833 213.598631,26.0616412 C209.95799,27.1343763 208.197013,30.2718283 204.646537,26.5112907 C203.570998,25.3724846 201.499964,24.2318432 199.861353,24.8420818 C196.994475,25.9102286 195.959418,29.6221307 192.571791,26.9315752 C191.216556,25.8542519 189.495142,24.9008115 187.689082,25.4523203 C186.697267,25.7533102 185.806658,26.0258528 184.896728,26.5112907 C182.828454,27.6170612 184.073282,23.7941233 184.771601,21.9166074 C187.903454,22.3800216 191.110751,21.9725842 194.290446,22.2368679 C198.384672,22.5773168 202.34365,22.9709895 206.460878,22.9920955 C213.100884,23.0278839 219.900979,22.9205186 226.092001,20.3290696 C226.529025,20.7117304 227.185941,20.7199893 227.688289,20.4584585 C229.083086,21.6633355 230.378517,22.7278117 230.642572,24.8182228 C230.956309,27.2922125 227.390192,24.6640573 227.156499,24.5979864 M204.50577,34.5150508 C201.404279,34.4067679 198.303707,34.5031214 195.205897,34.3397793 C192.809164,34.214061 182.200979,33.6377756 185.635529,29.4982477 C187.146252,28.772385 188.759101,27.6877204 190.319507,28.651255 C192.835846,30.2057573 194.749551,31.8079776 197.752597,30.0928862 C199.849393,28.896268 200.487908,26.1194533 203.386988,29.1908343 C204.623536,30.5012413 205.836163,31.0444912 207.58426,31.4620228 C208.766525,31.7446596 209.851265,31.2509629 210.812718,30.6352185 C213.272933,29.0596101 214.599647,28.7375142 217.355199,29.8790733 C218.722394,30.4452645 220.401487,30.868302 221.830326,30.2351222 C223.126677,29.6615897 224.954818,27.3041419 226.559386,27.6299084 C227.125218,36.6137208 210.071157,34.7077577 204.50577,34.5150508 M220.401487,39.9989388 C215.884037,41.2212512 210.952565,41.0175325 206.32379,40.7835312 C202.099837,40.5697183 198.047013,40.6036714 193.8203,40.7073661 C191.390446,40.7651782 187.645839,40.6954366 186.097394,38.3471653 C185.522362,37.475396 185.29235,36.186095 185.064177,34.9702062 C189.794158,37.0569467 198.474837,37.1165941 201.446601,37.1707355 C206.990827,37.2735126 220.146633,38.8592151 226.193206,34.525145 C225.208752,37.4038191 223.758752,39.091381 220.401487,39.9989388 M204.87195,2.76521152 C214.605167,2.62389312 222.007895,9.1080217 225.091905,17.7844207 C218.83464,20.507094 211.700567,20.2675869 205.005357,20.2317985 C201.921347,20.2152807 198.929342,20.0418445 195.867413,19.6628543 C192.203771,19.2095342 188.322077,19.8335375 184.709037,19.117769 C185.252787,8.97679747 195.463511,2.901024 204.87195,2.76521152 M228.913796,17.8697624 C228.595459,17.5770314 228.238479,17.4724191 227.90082,17.4981133 C224.502153,7.12956412 216.076328,0.393081265 204.87195,0.0122557113 C193.842381,-0.36306393 182.410751,7.9224154 181.936004,19.302217 C181.926804,19.5197006 181.960846,19.7105722 182.027089,19.8739142 C181.927724,20.2510691 181.970966,20.6621772 182.178898,20.9916143 C181.13096,23.6922639 179.998378,27.1591529 182.411671,29.436765 C181.774996,30.7141365 181.776836,31.7740245 182.22306,32.6604763 C181.946125,32.9550425 181.816398,33.3771624 181.984767,33.8910475 C182.983022,36.9303107 183.020744,40.7807783 186.451614,42.1994681 C192.128327,44.5449865 198.649647,42.9730487 204.617096,43.4254511 C210.685751,43.8851947 217.306436,44.0879958 223.134957,42.0361261 C226.828041,40.7358133 228.319444,37.4019838 229.268936,33.8910475 C229.496188,33.0495607 228.97176,32.4484987 228.323124,32.2530388 C228.881595,31.3133632 229.235814,30.2195221 229.318619,28.9329741 C230.879945,29.2192815 232.346506,28.4631363 233.14143,26.6103971 C234.758879,22.8416006 231.291207,20.0574446 228.913796,17.8697624" id="Fill-31-Copy"></path>
                        <path d="M189.946794,11.0118232 C189.026743,11.0118232 189.026743,13.764779 189.946794,13.764779 C191.786896,13.764779 191.786896,11.0118232 189.946794,11.0118232" id="Fill-33-Copy"></path>
                        <path d="M197.997238,8.25886742 C199.83734,8.25886742 199.83734,5.50591161 197.997238,5.50591161 C196.157137,5.50591161 196.157137,8.25886742 197.997238,8.25886742" id="Fill-35-Copy"></path>
                        <path d="M196.38715,14.682431 C198.227251,14.682431 198.227251,11.9294752 196.38715,11.9294752 C195.467099,11.9294752 195.467099,14.682431 196.38715,14.682431" id="Fill-37-Copy"></path>
                        <path d="M202.827505,18.3530387 C204.667606,18.3530387 204.667606,15.6000829 202.827505,15.6000829 C201.907454,15.6000829 201.907454,18.3530387 202.827505,18.3530387" id="Fill-39-Copy"></path>
                        <path d="M203.747556,11.0118232 C205.587657,11.0118232 205.587657,8.25886742 203.747556,8.25886742 C202.827505,8.25886742 202.827505,11.0118232 203.747556,11.0118232" id="Fill-41-Copy"></path>
                        <path d="M208.347809,7.34121548 C210.187911,7.34121548 210.187911,4.58825968 208.347809,4.58825968 C207.427759,4.58825968 207.427759,7.34121548 208.347809,7.34121548" id="Fill-43-Copy"></path>
                        <path d="M209.957898,13.764779 C211.798,13.764779 211.798,11.0118232 209.957898,11.0118232 C208.117797,11.0118232 208.117797,13.764779 209.957898,13.764779" id="Fill-45-Copy"></path>
                        <path d="M214.558152,18.3530387 C216.398254,18.3530387 216.398254,15.6000829 214.558152,15.6000829 C212.718051,15.6000829 212.718051,18.3530387 214.558152,18.3530387" id="Fill-47-Copy"></path>
                        <path d="M217.548317,12.8471271 C219.388419,12.8471271 219.388419,10.0941713 217.548317,10.0941713 C216.628266,10.0941713 216.628266,12.8471271 217.548317,12.8471271" id="Fill-49-Copy"></path>
                        <path d="M46.3076269,198.210983 C45.0701586,198.608326 43.7728871,198.815715 42.4728553,198.835904 C40.6943972,198.862516 40.6916371,201.615471 42.4728553,201.58886 C43.8529315,201.566836 45.2026459,201.35027 46.5155584,200.985962 C46.5523604,201.827449 46.5772018,202.667101 46.581802,203.506752 C45.7178744,203.773789 44.8337056,203.967413 43.9430964,204.119744 C43.0681282,204.269321 41.6852919,204.530852 40.8692069,204.07019 C39.3180013,203.19475 37.9287246,205.573304 39.47625,206.447827 C41.4433185,207.558185 44.3083566,207.041547 46.5376396,206.401944 C46.4585152,208.958522 46.2818655,211.515101 46.0950952,214.068008 C46.0076904,215.25912 45.9230457,216.508045 45.8246003,217.787252 C44.5319289,218.085488 43.2171764,217.999229 41.9189848,217.696404 C40.1883693,217.293555 39.4532487,219.947404 41.1866244,220.351171 C42.6237437,220.685196 44.1142259,220.841197 45.5725063,220.651243 C45.1382424,225.011925 44.3920812,229.500161 42.6623858,233.139568 C41.7864975,234.982213 39.9620368,230.604096 38.9573414,227.611633 C39.7826269,227.730928 41.4055964,227.74194 41.4055964,227.74194 C43.245698,227.742857 43.245698,224.989902 41.4055964,224.988984 C40.4855457,224.988984 39.3741244,225.113785 38.4954759,224.718277 C38.3611485,224.656794 38.2599429,224.617335 38.1219353,224.590723 C37.2966497,221.102728 36.8614657,217.521132 36.4060406,213.969819 C37.3150508,214.276315 38.297665,214.419469 39.2434772,214.435987 C41.0246954,214.466269 41.0265355,211.713313 39.2480774,211.683031 C38.1835787,211.664678 36.8964277,211.458206 36.0858629,210.709402 C36.0417005,210.669025 35.996618,210.639661 35.9506155,210.606625 C35.614797,208.451061 35.1998541,206.331285 34.6027411,204.197744 C34.473014,203.736165 34.3488071,203.272751 34.2282805,202.809337 C34.5162563,202.883666 34.8051523,202.94882 35.1124492,202.965337 C35.8641307,203.004796 36.4925254,202.308299 36.4925254,201.58886 C36.4925254,200.807938 35.8641307,200.251841 35.1124492,200.212382 C35.5402728,200.235323 35.0784074,200.195864 34.9652411,200.165581 C34.7867513,200.117863 34.6091815,200.062804 34.4297716,200.011416 C34.1666371,199.936168 33.8979822,199.875603 33.6256472,199.831556 C33.4701586,198.633103 33.439797,197.423637 33.6486485,196.195819 C34.2466815,192.693142 38.7190482,192.916131 41.2859898,192.39674 C44.8971891,193.543805 45.9193655,195.165296 46.3076269,198.210983 M48.1817703,161.435164 C44.5374492,168.958074 46.4391942,179.762508 41.2013452,186.407226 C42.0165102,181.919908 41.7791371,177.281177 41.9291053,172.705765 C42.1370368,166.381308 41.0228553,158.737267 44.5843718,153.188226 C45.547665,151.688783 43.1573731,150.309552 42.2014404,151.799818 C39.1569924,156.543161 39.3465228,162.110556 39.3630838,167.543973 C39.3824048,173.549087 39.7596256,180.443406 38.3988706,186.494403 C37.7612754,182.573276 37.3858947,178.57782 36.6618147,174.686058 C35.6893211,169.470124 33.4986802,164.19179 34.6027411,158.825362 C34.9597208,157.091917 32.298934,156.354125 31.9419543,158.093075 C30.9271383,163.018113 32.2428109,167.872492 33.3836739,172.664471 C34.4426523,177.111412 34.8640355,181.639106 35.5540736,186.124589 C32.9503299,182.66963 30.6980457,178.706291 30.5121954,174.518127 C30.4330711,172.749812 27.6729188,172.742471 27.7520431,174.518127 C28.0252982,180.682913 31.8977919,186.195248 35.7997272,190.803696 C33.6799302,191.464406 31.990717,192.601376 30.9878617,195.463533 C29.4568972,199.830638 32.3108947,205.09429 33.023014,209.342101 C34.5788198,218.621397 34.4509327,229.248724 40.5766307,236.973518 C40.8554061,237.325897 41.505882,237.475474 41.9189848,237.327732 C45.0121954,236.219208 45.9258058,232.795449 46.636085,229.901175 C47.7613071,225.327597 48.3436992,220.408065 48.7255203,215.720699 C49.1450635,210.572672 49.7145749,205.160361 49.3125127,199.926074 C50.2233629,199.345201 49.8783439,198.1495 49.0714594,197.687004 C49.0208566,197.323613 48.9849746,196.95747 48.9242513,196.596833 C48.2296129,192.531635 45.6967132,190.881697 41.9189848,189.70802 C41.8996637,189.702514 41.8821827,189.704349 41.8628617,189.698843 C49.0392576,182.674218 46.3379886,171.547688 50.5647018,162.823571 C51.3357043,161.23328 48.956453,159.836614 48.1817703,161.435164" id="Fill-63"></path>
                        <path d="M29.5364816,77.7610909 C30.6736643,79.1293099 32.6149714,77.170123 31.4879093,75.8147511 C30.8880362,75.0925591 30.2495209,74.4575439 29.5852443,73.8968586 C29.598125,73.7968345 29.6018052,73.6903869 29.5926047,73.5756804 C29.218144,69.1314921 34.8010121,65.5590731 38.424172,64.1156066 C43.5111326,62.0903488 49.6681123,68.4138883 51.402408,72.4350391 C52.1025666,74.0620359 54.4799778,72.6580285 53.7844194,71.0466317 C53.6215704,70.6667238 53.4292798,70.2840629 53.2195082,69.9014021 C58.3579918,65.3269072 65.8968877,68.0101214 69.1915895,73.6178924 C73.2931758,80.6021413 67.5115768,90.647677 60.0959676,91.9681782 C60.0186834,89.2032929 59.9644004,86.4374899 59.9542798,83.6698517 C59.9469194,81.8951129 57.1867671,81.8941952 57.1941275,83.6698517 C57.2355298,95.0101943 58.0010121,106.332184 58.0985374,117.670691 C47.8372113,118.086388 37.8758217,121.046733 27.5997747,121.283487 C27.2197938,117.886339 26.2675412,114.618581 25.4026935,111.29301 C24.2480298,106.852493 24.3326745,102.322045 22.6425412,97.9870572 C22.1273128,96.6683914 20.2964118,96.8757807 19.9421923,97.8732684 C10.7370844,97.3722304 5.56455901,87.9874041 10.1077697,79.7872664 C14.2295971,72.3487798 24.1900666,71.3329391 29.5364816,77.7610909 M53.7558978,127.516179 C53.4918433,127.004129 52.9480933,126.648998 52.2267735,126.849046 C47.9752189,128.025476 43.6132582,127.836439 39.2531377,128.175971 C35.6916212,128.454019 32.462243,129.882803 28.9025666,130.006686 C28.6127506,127.999781 28.6992354,126.002053 28.3321352,124.010748 C38.5299778,123.649194 48.4278839,120.729225 58.6312468,120.405294 C58.7407329,122.439728 58.9799461,124.465904 59.0231885,126.504009 C57.4545019,127.392296 55.5251555,127.854792 53.7558978,127.516179 M7.7248382,78.3979413 C1.21363896,88.3819944 9.50053617,100.578506 20.62671,100.640907 C21.5918433,103.89123 21.931342,107.245248 22.4640514,110.616701 C23.1366085,114.865429 24.8019004,118.777379 24.9923509,123.128885 C25.0135121,123.613405 25.2380044,123.961195 25.5489816,124.180514 C26.1258534,126.677445 25.8709994,129.239529 26.4211897,131.753895 C26.5564372,132.370558 27.1609105,132.733948 27.7525032,132.76423 C31.3655425,132.949596 34.7228077,131.879614 38.2199207,131.109704 C42.7116085,130.120475 47.3284232,130.716031 51.8403522,129.75525 C51.9525984,129.836921 52.0768052,129.910333 52.2267735,129.962639 C55.0872113,130.955538 58.6726491,130.150758 61.1098636,128.447596 C61.5579283,128.134676 61.733658,127.690533 61.7216973,127.255566 C61.7649397,127.117918 61.7962214,126.970176 61.7943813,126.799493 C61.7630996,124.191526 61.3647176,121.608336 61.334356,118.999451 C61.3288357,118.540625 61.1393052,118.201094 60.8623699,117.980858 C60.8034867,110.188157 60.4262659,102.403716 60.1769321,94.6174393 C60.3600222,94.6614866 60.5633534,94.6706631 60.7804854,94.6330394 C69.763861,93.0822076 76.0082456,81.5922877 72.0189055,73.1664077 C68.3957456,65.5159435 58.3239499,61.9894071 51.6692227,67.5769897 C48.3598001,63.3603791 42.7520907,59.9164314 37.6899714,61.4617572 C33.3188103,62.7960231 27.5270907,67.1612934 26.8839753,72.1166138 C20.2881313,68.8268317 12.0969194,71.6935763 7.7248382,78.3979413" id="Fill-65"></path>
                        <path d="M29.6416434,86.7893177 C31.9638515,94.9371492 33.3549683,103.297876 35.161948,111.56592" id="Fill-67"></path>
                        <path d="M47.0732011,109.823391 C47.087922,111.59813 49.8480742,111.599047 49.8333534,109.823391 C49.7689499,101.977467 48.9593052,94.1315426 47.0235184,86.5159492 C46.5864943,84.7962695 43.9247874,85.5267204 44.3627316,87.2482354 C46.2396352,94.6344159 47.0106377,102.214221 47.0732011,109.823391" id="Fill-69"></path>
                        <path d="M32.2005733,109.630024 C32.2152942,111.404763 34.9754464,111.405681 34.9607256,109.630024 C34.8963221,101.7841 34.0866774,93.9381762 32.1508906,86.3225828 C31.7138665,84.602903 29.0521596,85.333354 29.4901038,87.054869 C31.3670074,94.4410494 32.1380099,102.020854 32.2005733,109.630024" id="Fill-69-Copy"></path>
                        <path d="M96.0209137,52.3666336 C96.0963579,52.3280922 96.1570812,52.2831273 96.2196447,52.2381623 C98.9227538,52.9832957 101.188839,56.6823506 102.946136,58.4947132 C105.889378,61.5284705 108.471961,64.3254736 109.634905,68.5209783 C111.17691,74.0810313 109.812475,78.3701365 105.951942,82.6454769 C103.656415,85.1882904 101.74547,86.2004605 101.21092,89.6719377 C100.649689,93.3168512 94.8552094,85.9114001 94.2930584,85.2075611 C91.6745939,81.9287907 89.5529569,78.6335026 88.378052,74.5426103 C86.9906155,69.7010786 88.6016244,65.2715728 91.3240546,61.3128223 C92.0481345,60.2593579 92.9663452,59.2958234 93.3739277,58.0597462 C93.9738008,56.2473836 94.0713261,53.3760507 96.0209137,52.3666336 M90.6514975,37.3492597 C89.8344924,36.0929942 89.2189784,34.7458811 88.8923604,33.2831439 C88.776434,32.7600823 88.8932805,30.4072228 89.8850952,31.2019093 C91.7012754,32.65547 92.5146003,35.6571095 93.1926777,37.7603677 C93.5965799,39.0175509 94.069486,40.4454173 94.3031789,41.8613542 C92.8531789,40.5720533 91.6469924,38.882656 90.6514975,37.3492597 M94.0336041,50.3523876 C91.0848414,52.4207751 90.9909962,57.0695998 88.940203,59.9225796 C85.549816,64.6383929 84.5414404,69.6001369 85.7172652,75.2739789 C86.7320812,80.1659813 89.9697398,84.1843791 93.0077475,87.9880464 C94.3620622,89.6838672 97.875736,94.7676589 100.752735,93.7995361 C102.067487,93.3563102 103.309556,92.7368952 103.672056,91.2365343 C104.426497,88.1100941 105.5646,86.871264 107.904289,84.5918166 C111.429924,81.1552101 114.193756,75.5501921 113.073135,70.5379772 C111.823706,64.9458063 109.19236,60.3859939 104.899404,56.5483735 C102.635159,54.5249509 100.819898,51.4003461 98.0772272,50.0302918 C98.0634264,49.9844092 98.0551459,49.9412795 98.0349048,49.8944793 C96.4110152,46.0357529 98.9402348,40.5298413 101.361808,37.4685544 C102.450228,36.0911589 100.511681,34.1283014 99.4103807,35.5222147 C98.4700888,36.7096563 97.5288769,38.1705581 96.7348731,39.7608489 C96.261967,37.8402034 95.5268464,35.9388286 94.8818909,34.3182553 C93.996802,32.0929494 92.2726269,27.9598451 89.2373794,28.2663408 C85.3805266,28.6554252 85.9077157,33.7116874 86.9317322,36.18843 C88.3642513,39.6488954 91.2835723,43.6287519 94.6279569,45.4842441 C94.7015609,45.5246208 94.775165,45.5521503 94.847849,45.5787622 C94.6739594,46.8864162 94.6932805,48.1784702 94.9840165,49.394359 C94.4614277,49.5109008 94.1375698,49.8944793 94.0336041,50.3523876" id="Fill-71"></path>
                        <path d="M119.127345,18.566301 C119.471444,13.5806981 122.427567,9.52834711 127.321317,8.95664995 C127.623093,10.1651976 127.913829,11.3755805 128.194445,12.5877987 C128.172364,12.5942222 128.153043,12.5942222 128.130961,12.6015634 C119.712497,15.244401 121.39435,21.4257045 123.115765,28.368659 C121.997903,29.4551589 121.257262,29.404688 120.894762,28.2154111 C120.301329,27.2601355 119.974711,26.1800591 119.653614,25.1137476 C119.016938,22.993054 118.976456,20.7549009 119.127345,18.566301 M135.466526,7.74902 C138.838512,6.80567381 142.767129,7.06812227 146.24032,7.04793393 C152.93277,7.00847489 159.587497,5.95501047 166.284546,5.72192688 C164.573252,8.3372349 162.652186,10.8268246 161.353074,13.6825574 C161.236228,13.8743467 161.160784,14.1065126 161.159864,14.3873141 C161.132262,23.5876924 160.756881,32.7807295 160.708119,41.9801902 C153.517922,43.2208556 146.404089,44.0091186 139.116367,43.7769526 C134.81605,32.4852456 133.019191,20.5667822 130.144952,8.87864954 C131.952852,8.75476653 133.666907,8.25281092 135.466526,7.74902 M125.333087,31.4198517 C126.639559,29.7616546 125.723188,27.266559 125.189559,25.505585 C123.783721,20.8650191 123.351298,17.0200575 128.806279,15.2765188 C131.077884,25.4670436 132.966748,35.7273099 136.827281,45.4947971 C137.063734,46.0949414 137.489718,46.475767 138.158595,46.5051318 C146.05447,46.8547572 153.760815,45.9646349 161.526044,44.6211924 C161.904185,44.5551215 162.159039,44.3780147 162.320048,44.1467664 C162.920841,44.0531659 163.45815,43.6172812 163.45999,42.8345241 C163.486672,33.457039 163.880454,24.0859774 163.916336,14.7084923 C165.492383,11.4150395 167.863353,8.58591857 169.710815,5.4466313 C170.14876,4.70516853 169.813861,4.0013295 169.25079,3.64160994 C169.057579,3.22499596 168.663798,2.911159 168.060244,2.91666491 C161.28499,2.98915941 154.5677,3.80770494 147.819128,4.29314282 C144.583309,4.52622641 141.311609,4.35003724 138.065669,4.58220317 C134.81237,4.81528677 131.770682,6.36795384 128.498062,6.12844669 C128.375695,6.11927017 128.262529,6.12477608 128.155803,6.14221147 C117.204438,6.42576591 114.407484,18.9030793 117.59546,27.662067 C118.776805,30.9096372 122.231596,35.3574961 125.333087,31.4198517" id="Fill-73"></path>
                        <path d="M142.319984,40.1513098 C147.396824,41.7388477 152.691716,40.1045096 157.411577,38.0590634 C158.048252,37.7828502 158.251583,37.253365 158.251583,36.7523271 L158.251583,24.4814854 C158.251583,23.6528457 157.493461,23.2160434 156.851266,23.1609843 C156.278994,22.6067225 155.12249,22.47091 154.526298,23.3289146 C151.403645,27.8107266 149.009673,23.8327055 144.954089,23.6069631 C141.483658,23.4142562 138.393207,25.3991373 137.307548,28.703602 C137.108817,29.3083346 137.313988,29.7855136 137.694889,30.0764092 C137.575282,33.4524507 139.078645,36.3430543 140.052979,39.5300595 C140.391558,40.6367477 141.637306,40.7064893 142.319984,40.1513098" id="Fill-75"></path>
                        <path d="M136.684673,16.1736154 C139.217573,15.217422 141.903201,14.8742202 144.59895,14.8466907 C146.377408,14.8283376 146.379248,12.0753818 144.59895,12.0937349 C141.679629,12.1230997 138.694064,12.4837369 135.951393,13.5188483 C134.303582,14.1410163 135.017541,16.8031246 136.684673,16.1736154" id="Fill-77"></path>
                        <path d="M140.770987,18.0399359 L137.090784,18.0399359 C136.170733,18.0399359 136.170733,20.7928917 137.090784,20.7928917 L140.770987,20.7928917 C142.611088,20.7928917 142.611088,18.0399359 140.770987,18.0399359" id="Fill-79"></path>
                        <path d="M64.4356631,263.584782 C63.6536199,264.565752 62.5182773,265.278767 61.4905806,265.967924 C58.1839181,268.187724 54.4439118,269.831239 50.7710692,271.334353 C48.2538103,272.364876 43.7970844,273.463305 41.8382963,275.791388 C41.2908661,274.524111 40.7011136,273.303634 40.0773192,272.13638 C44.4190387,271.553671 48.5399461,268.730056 52.1934676,266.573574 C54.5257963,265.197096 56.7716402,263.725183 59.2014943,262.51847 C59.8602506,262.190869 66.8774778,260.518907 64.4356631,263.584782 M42.5412151,292.107239 C41.3515895,293.370846 39.784743,294.304098 38.4598699,295.441987 C32.5936263,298.503273 26.5967354,302.268399 19.9318877,302.988756 C19.8619638,302.996097 19.7975603,303.015368 19.7331567,303.03005 C19.5427062,302.988756 19.3329346,302.985085 19.1047621,303.038309 C8.9501618,305.37098 6.67027602,291.757614 3.83651967,284.171385 C9.10657043,284.035573 13.9607582,281.864409 18.7330615,279.751056 C24.7170717,277.101795 30.9816973,274.45804 37.392611,272.961349 C39.584172,276.983418 40.7057138,281.494595 42.1483534,285.818571 C42.8273509,287.853923 44.2571098,290.287536 42.5412151,292.107239 M59.2042544,259.535184 C52.4050793,262.007338 45.8423572,269.605496 38.3329029,269.49446 C37.7413103,269.486202 37.3502887,269.787191 37.1524778,270.189123 C31.7076174,271.410518 26.3547621,273.505517 21.2365197,275.675764 C15.3785565,278.15893 9.45342957,281.557913 2.9109486,281.423936 C2.43804251,281.414759 2.09578363,281.603795 1.8740514,281.882762 C1.07912754,282.063539 0.353207487,282.968344 0.799432107,283.953902 C4.67652602,292.522018 6.6537151,308.503844 19.5951491,305.739877 C19.7000349,305.751806 19.810441,305.755477 19.9318877,305.741712 C27.5342671,304.920413 34.1889943,300.681779 40.8694829,297.294726 C41.2825857,297.086419 41.4905171,296.769829 41.5475603,296.431215 C44.3831567,294.152686 46.7734486,292.622042 45.8451174,288.362302 C45.1615197,285.221179 44.1844258,281.855232 42.9717989,278.615003 C43.2422938,278.521403 43.4897874,278.325943 43.6645971,277.989164 C44.6830933,276.024472 49.6789689,274.739759 51.5052697,273.98912 C53.4934994,273.171492 55.4578077,272.352946 57.3825539,271.396753 C60.9808725,269.607332 66.1681187,267.402214 67.6696415,263.356287 C69.4388991,258.588167 61.5568242,258.679932 59.2042544,259.535184" id="Fill-85"></path>
                        <path d="M146.014216,160.347599 C144.939597,159.072981 147.613264,157.040382 148.154254,156.041976 C149.612534,153.360597 148.653841,151.273857 146.64169,149.222905 C145.00308,147.553696 142.888803,146.298348 141.033061,144.888835 C139.698067,143.874829 138.702572,142.35428 137.539628,141.144815 C136.154032,139.704101 134.569704,138.77452 132.873131,138.674496 C132.944895,138.635037 133.012979,138.593743 133.090263,138.560707 C133.548448,138.363412 133.892547,138.000939 134.004793,137.557714 C135.058251,136.237212 135.990263,134.813017 137.131126,133.584281 C137.294895,135.380125 137.627953,136.767615 139.286805,138.702025 C141.250193,140.995238 144.370085,143.047107 146.770498,144.874152 C147.638105,145.533944 149.751462,147.375672 151.128778,147.611508 C153.448226,148.008851 155.365612,145.694533 156.937058,144.280432 C160.607141,140.97872 164.149336,147.071011 167.493721,149.801026 C163.060916,154.388368 159.641088,159.801596 155.452097,164.600916 C155.371132,164.631199 155.289248,164.666069 155.208283,164.714705 C154.413359,165.187296 153.752763,165.832405 153.128048,166.505044 C150.677953,164.550445 148.036487,162.744506 146.014216,160.347599 M154.392198,169.12494 C154.501684,169.056116 154.60749,168.975363 154.705935,168.865245 C155.32789,168.17517 155.902921,167.504367 156.699685,167.031776 C156.808251,166.96754 156.897496,166.895046 156.975701,166.817963 C157.162471,166.745469 157.342801,166.625256 157.50565,166.438973 C161.847369,161.465299 165.351843,155.825411 170.024781,151.135292 C170.184869,150.974702 170.289755,150.804019 170.350479,150.631501 C171.117801,150.077239 171.340453,148.78335 170.226272,148.300665 C165.928715,146.439667 162.127985,137.370513 156.308664,141.231074 C155.119038,142.019337 154.106982,143.160896 152.990041,144.040924 C151.186741,145.464203 148.670402,142.868165 147.236963,141.777077 C145.144768,140.184033 143.114216,138.378094 141.127826,136.651991 C139.119355,134.905699 139.887598,132.85383 139.664026,130.695512 C139.55914,129.689766 138.441278,129.018045 137.539628,129.611765 C135.047211,131.25528 133.595371,133.72927 131.732268,136.001376 C131.654064,136.095894 131.59426,136.193165 131.545498,136.291354 C130.022814,137.175053 129.075161,138.581813 128.678619,140.366646 C128.432966,141.476087 129.449622,142.098255 130.31631,141.950513 C130.597845,141.993643 130.901462,141.949596 131.208759,141.777077 C134.471259,139.939938 137.197369,145.282508 139.190199,146.938869 C141.847306,149.145822 148.196576,151.771224 144.956157,155.732728 C139.896798,161.916784 147.854317,165.615839 152.348765,169.427765 C153.083886,170.050851 153.958854,169.729673 154.392198,169.12494" id="Fill-115"></path>
                        <path d="M153.609649,161.864372 C153.244389,158.046022 156.281476,156.26486 159.083951,154.424968 C161.124624,153.084278 161.711616,150.936055 162.402574,148.738279 C162.495499,148.441877 162.484459,148.184017 162.407174,147.965616 C162.399814,147.718767 162.33173,147.473754 162.187282,147.286553 C161.160506,145.949534 159.698545,145.452167 158.199782,146.388172 C157.0672,147.095682 156.412124,148.324418 155.557396,149.303552 C155.275861,149.625648 155.184776,149.977109 155.219738,150.306546 C154.313488,151.384787 153.398957,152.424487 152.36758,153.469692 C149.964408,155.900552 146.873957,160.096974 150.648926,162.784777 C150.927701,162.98299 151.221197,163.062825 151.504573,163.060072 C152.36022,163.559275 153.731096,163.129814 153.609649,161.864372" id="Fill-118"></path>
                        <path d="M44.3472747,24.6318885 C42.2339181,25.7505063 39.7194194,22.2542524 38.3430235,19.7362155 C40.6238293,20.283136 42.4225286,22.9562561 44.3472747,24.6318885 M50.5447367,33.386288 C51.6487976,33.4294177 52.2394702,32.3777885 52.0922621,31.5702548 C52.9359486,30.8462275 53.5910247,29.940505 54.2562214,28.8494168 C56.7707202,24.7337479 59.7930869,22.5846071 64.7825222,24.2372982 C71.2173572,26.3726743 73.3233534,41.8736508 66.990644,44.810137 C61.5099016,47.3501975 55.9500349,50.1389417 49.735092,49.1744896 C45.3970527,48.5018507 41.0866148,44.6550538 41.5401999,40.0576176 C41.9542227,35.8410069 46.7246859,33.2403814 50.5447367,33.386288 M46.4229093,26.5259221 C46.7145654,28.0363772 47.2077126,29.5422441 47.8747494,31.0123225 C41.5383598,32.5659072 35.6675159,39.1473069 40.001875,45.6240942 C46.1294131,54.7831782 56.7247176,52.4312363 65.231507,48.5330509 C68.3210374,47.1171139 71.8641529,46.1489911 72.8421669,42.4499362 C74.2020019,37.2973206 73.0878204,31.0829817 70.7573319,26.3524859 C68.7893433,22.3561117 64.9361707,20.8548332 60.6781758,20.9759632 C58.561139,21.0365283 56.3530171,21.8156148 54.7714499,23.1994339 C52.8034613,24.9237019 52.2753522,27.9482826 50.2374397,29.544997 C48.5969892,25.6881059 48.086361,21.448554 50.4435311,17.7017811 C51.3773826,16.2170203 49.2364245,14.4743993 48.2896923,15.9793484 C46.9418179,18.123901 46.273861,20.3849954 46.145974,22.674537 C44.5266846,21.5806959 43.35454,19.8252277 41.8962595,18.5533621 C40.0938801,16.985095 37.971323,16.6061047 35.6932773,17.1548606 C34.9664372,17.3292144 34.6471796,18.3028431 34.8974334,18.9323524 C36.5378839,23.0333389 41.7205298,30.3378483 46.4229093,26.5259221" id="Fill-130"></path>
                        <path d="M273.287317,13.4847939 C273.276276,13.4985587 273.266156,13.5077352 273.256955,13.5215 C267.90502,21.4977306 265.247914,30.9110041 259.527958,38.66241 C258.916124,39.4892144 259.418472,40.3609838 260.149912,40.676656 C260.154512,40.7353858 260.154512,40.7931978 260.164633,40.8546805 C260.613618,43.3002229 261.349658,45.6613413 262.122501,48.0224598 C262.117901,48.1445075 262.125261,48.2711435 262.159303,48.4115442 C263.288205,53.1025809 264.933256,57.6275226 266.431099,62.2020175 C259.132336,56.9163423 249.849944,55.6554886 241.856543,51.6260789 C244.170471,50.8047804 246.540521,50.2587775 248.892171,49.4585851 C252.430686,50.0293646 255.228561,54.0853861 259.219741,53.9027734 C260.65778,53.8376201 261.082844,51.9747867 260.204195,51.3572069 C260.181194,51.2581005 260.147152,51.1571588 260.097469,51.0534641 C259.02653,48.8015463 258.916124,46.2073442 258.208605,43.8342963 C257.960191,43.0010684 257.148707,42.4146888 256.272818,42.8230439 C253.163967,44.2655928 250.002672,45.5126817 246.69693,46.4340043 C246.265426,46.5542167 245.97377,46.8185004 245.807241,47.138761 C245.629671,47.3011854 245.509144,47.5003158 245.43646,47.7168817 C243.222818,48.4308149 241.065299,49.1062067 238.90042,49.9486112 C238.595883,49.7559043 238.287666,49.5705386 237.98957,49.3668199 C242.003751,44.1380391 250.13332,41.4777662 256.033605,39.308437 C256.045566,39.305684 256.051086,39.2992605 256.061207,39.2955899 C256.618757,39.3589079 257.185509,39.1111418 257.39804,38.4073028 C260.346803,28.6820276 269.768123,21.7133788 270.224468,11.1135813 C270.248389,10.5528959 269.987095,10.1463761 269.617235,9.90962194 C268.698104,7.74855163 266.542425,6.76574641 264.769487,5.36173895 C267.930782,5.25804428 272.371867,7.11996005 274.597469,7.88528177 C276.468853,8.52947343 278.748738,9.28561862 280.185858,10.7088968 C281.449087,11.9596564 277.594995,12.0706922 277.404544,12.084457 C276.23884,12.1633751 275.180782,12.3175406 274.074881,12.6846014 C273.609335,12.8387669 273.367361,13.1406744 273.287317,13.4847939 M283.187983,12.3432349 C284.198199,9.94357506 281.302799,7.90914072 279.597945,7.03461842 C276.323485,5.35256243 272.752768,4.28992148 269.16365,3.51175264 C266.962888,3.03365598 263.659906,2.15821604 261.529988,3.35666947 C260.712983,3.81641309 260.502292,4.71662963 261.041441,5.48378665 C262.629449,7.74212807 266.27929,8.7304392 267.216822,11.3127117 C267.265585,11.443936 267.329988,11.5540542 267.398992,11.6513253 C266.559906,21.16187 258.051276,27.9277177 255.03167,36.7674588 C254.981987,36.7812236 254.932304,36.7876471 254.881702,36.8069178 C248.220534,39.2542955 239.27212,42.3284295 235.176974,48.5363449 C234.72983,49.2126543 234.963523,49.9082345 235.439189,50.3248485 C235.445629,50.6552032 235.584557,50.9818873 235.888174,51.2507593 C234.053592,52.1573994 230.471835,54.0752919 229.999849,51.3599599 C229.716473,49.7338806 229.494741,48.2023196 228.93259,46.6423113 C228.329037,44.9675965 225.827419,46.1357674 226.423611,47.7930468 C227.652799,51.2030414 226.75575,55.9454666 231.699183,55.5582175 C234.018631,55.3746871 236.483447,54.0789626 238.632685,53.015404 C247.819392,58.1845373 259.400071,58.80487 267.157019,66.3433807 C267.646486,66.8187244 268.26384,66.8444186 268.767108,66.6306057 C269.628275,66.7297121 270.534525,66.158015 270.220788,65.1146447 C268.496613,59.3673907 266.282971,53.7761374 264.876213,47.9352828 C264.843091,47.7957997 264.790648,47.6755873 264.729005,47.5636338 C264.749246,47.3736799 264.729005,47.1708788 264.660001,46.9598188 C263.949722,44.7914073 263.296486,42.6239134 262.882463,40.3793368 C262.806099,39.9599699 262.590807,39.6718272 262.313872,39.4965556 C267.674087,31.8855505 270.333034,22.8319965 275.51384,15.1053672 C278.181067,14.3822575 281.889792,15.427463 283.187983,12.3432349" id="Fill-138"></path>
                        <path d="M187.721424,122.42822 C191.001405,119.986348 195.605339,119.979007 199.438271,120.600258 C208.6719,122.098783 209.417141,132.125048 204.169172,138.05675 C197.736177,136.790391 191.199216,136.173729 184.762541,134.931228 C184.885828,134.501767 184.794743,134.020917 184.340238,133.639174 C180.986653,130.818312 185.390936,124.1635 187.721424,122.42822 M199.661843,148.497794 C198.721551,147.278235 197.97815,145.922863 197.259591,144.54822 C198.237605,143.107507 199.165936,141.634675 200.010542,140.111373 C200.920473,140.262786 201.828563,140.419704 202.734813,140.590387 C201.846964,143.242401 200.797186,145.887992 199.661843,148.497794 M197.933068,151.511363 C197.091221,152.586851 196.16841,153.586174 195.206037,154.549709 C194.224343,153.305373 193.43402,151.943577 192.751342,150.515711 C193.720155,149.338363 194.671488,148.148169 195.575898,146.924021 C196.368982,148.4253 197.230149,149.882531 198.351691,151.167244 C198.203563,151.245244 198.060035,151.348939 197.933068,151.511363 M192.310638,163.757428 C191.734686,163.317873 191.230498,162.826929 190.787954,162.293773 C192.115587,161.02099 193.514984,159.806936 194.8923,158.572695 C194.054134,160.315316 193.229768,162.06436 192.310638,163.757428 M188.582592,169.261504 C188.854007,168.954091 186.209781,171.773118 186.080974,171.010549 C185.922725,170.084638 186.347789,169.059621 186.347789,168.126369 L186.347789,168.067639 C186.347789,167.962109 186.487636,167.786838 186.656926,167.520719 C187.392046,166.355301 188.089445,165.289907 189.006735,164.276819 C189.540365,164.902658 190.063874,165.482614 190.780593,165.990075 C190.853277,166.041464 190.887319,166.079087 190.961843,166.115794 C190.260765,167.21147 189.4594,168.271358 188.582592,169.261504 M185.546424,160.027173 C185.519743,159.554582 185.476501,159.088415 185.440619,158.619495 C185.478341,158.598389 185.512383,158.560765 185.549185,158.536906 C186.116856,159.706912 186.656006,160.890683 187.289001,162.009301 C186.73697,162.587422 186.20058,163.179307 185.690872,163.795969 C185.661431,162.538786 185.615428,161.282521 185.546424,160.027173 M188.174089,140.170103 C187.752706,139.446075 187.28072,138.751413 186.762732,138.08428 C187.701183,138.243034 188.642395,138.396282 189.584527,138.541271 C189.10058,139.072591 188.632275,139.617676 188.174089,140.170103 M193.226088,156.44466 C191.917776,157.648619 190.579102,158.823214 189.286431,160.037267 C188.655276,158.882861 188.119806,157.657796 187.536494,156.46026 C188.682877,155.217759 189.82098,153.964247 190.931482,152.682287 C191.575517,154.004623 192.317078,155.273736 193.226088,156.44466 M193.998011,139.195556 C195.027547,139.345134 196.058004,139.494711 197.088461,139.650712 C196.666158,140.377492 196.225454,141.093261 195.771869,141.80077 C195.24836,140.887707 194.668728,140.011349 193.998011,139.195556 M194.130498,144.217865 C193.295092,145.393378 192.412763,146.537689 191.511113,147.668237 C190.862478,146.064181 190.246044,144.43902 189.539445,142.866164 C190.18348,142.067807 190.835796,141.277709 191.523074,140.516057 C192.576532,141.622746 193.393537,142.891858 194.130498,144.217865 M185.304451,152.810758 C185.165523,152.644663 185.006355,152.52078 184.838905,152.436356 C184.706418,151.205785 184.577611,149.977967 184.470885,148.751066 C184.673296,148.68316 184.869267,148.563865 185.046837,148.367487 C185.994489,147.317694 186.877738,146.214676 187.753626,145.10707 C188.442744,146.673502 189.050898,148.290405 189.700454,149.884366 C188.537509,151.259009 187.335923,152.598781 186.123296,153.922035 C185.869362,153.539374 185.600707,153.165889 185.304451,152.810758 M184.429483,139.539676 C185.185765,140.42521 185.8344,141.376815 186.401152,142.377056 C185.689952,143.279107 184.980593,144.182995 184.249153,145.067611 C184.19119,143.238731 184.228912,141.399756 184.429483,139.539676 M182.685987,135.816762 C182.375009,135.977351 182.125676,136.263658 182.042871,136.718814 C180.419902,145.675097 182.600422,154.424908 182.939921,163.390367 C183.005244,165.103623 181.558004,175.660291 186.092015,174.183789 C191.281101,172.493474 194.109337,166.50029 196.326659,162.000125 C199.772249,154.997523 203.302484,147.801296 205.701976,140.368316 C205.823423,140.298574 205.94211,140.213232 206.051596,140.09302 C214.371615,131.050478 209.641634,118.884248 197.507084,117.5665 C192.288556,116.999391 186.929261,118.6842 183.445949,122.65121 C180.863366,125.592284 179.049946,132.789428 182.490016,135.681867 C182.553499,135.736009 182.618823,135.776385 182.685987,135.816762" id="Fill-145"></path>
                    </g>
                </g>
            </g>
        </g>
    </g>
</svg>