<?xml version="1.0" encoding="UTF-8"?>
<svg width="28px" height="21px" viewBox="0 0 28 21" version="1.1" xmlns="http://www.w3.org/2000/svg" xmlns:xlink="http://www.w3.org/1999/xlink">
    <!-- Generator: Sketch 52.2 (67145) - http://www.bohemiancoding.com/sketch -->
    <title>Mastercard logo</title>
    <desc>Created with Sketch.</desc>
    <g id="Page-1" stroke="none" stroke-width="1" fill="none" fill-rule="evenodd">
        <g id="Desktop" transform="translate(-411.000000, -764.000000)">
            <g id="Logos" transform="translate(409.000000, 761.000000)">
                <g id="Mastercard-logo">
                    <rect id="Rectangle" x="0" y="0" width="33" height="27"></rect>
                    <path d="M8.49122134,23.2463542 L8.49122134,21.9863893 C8.50689003,21.7720262 8.4245092,21.561636 8.26509574,21.4088931 C8.10568228,21.2561503 7.88465214,21.1758256 7.65839423,21.1884114 C7.36022311,21.169879 7.07504525,21.3066725 6.91416576,21.5454015 C6.76748982,21.3137904 6.49892134,21.1768104 6.2142366,21.1884114 C5.96636363,21.1765314 5.73039097,21.2899887 5.5940462,21.4866031 L5.5940462,21.23881 L5.13333333,21.23881 L5.13333333,23.2463542 L5.59847613,23.2463542 L5.59847613,22.1417849 C5.57844362,22.0027877 5.62489572,21.8625677 5.72515605,21.7593897 C5.82541638,21.6562116 5.96901978,21.6008453 6.1167781,21.6083998 C6.42244337,21.6083998 6.57749097,21.7973945 6.57749097,22.137585 L6.57749097,23.254754 L7.04263377,23.254754 L7.04263377,22.1417849 C7.02342327,22.0029458 7.07015942,21.8631801 7.17023386,21.7601934 C7.2703083,21.6572066 7.41341085,21.6016091 7.56093574,21.6083998 C7.87546087,21.6083998 8.02607854,21.7973945 8.02607854,22.137585 L8.02607854,23.254754 L8.49122134,23.2463542 Z M15.3731198,21.23881 L14.6156015,21.23881 L14.6156015,20.6298269 L14.1504587,20.6298269 L14.1504587,21.23881 L13.7296152,21.23881 L13.7296152,21.6377989 L14.1593186,21.6377989 L14.1593186,22.5617733 C14.1593186,23.0279603 14.3498056,23.3051526 14.8946872,23.3051526 C15.0982555,23.3058009 15.2978791,23.2519354 15.4705783,23.1497569 L15.3376803,22.7759673 C15.2141302,22.8458344 15.0739069,22.8848498 14.9301266,22.8893642 C14.7086301,22.8893642 14.6244614,22.7549679 14.6244614,22.5533735 L14.6244614,21.6377989 L15.3775497,21.6377989 L15.3731198,21.23881 Z M19.3024689,21.1884114 C19.0736447,21.1820313 18.859472,21.2948371 18.7442976,21.4824033 L18.7442976,21.23881 L18.2880146,21.23881 L18.2880146,23.2463542 L18.7487275,23.2463542 L18.7487275,22.1207855 C18.7487275,21.7889947 18.8993452,21.6041999 19.1917206,21.6041999 C19.290261,21.602922 19.3881028,21.6200471 19.4796662,21.6545985 L19.621424,21.2346101 C19.5162069,21.1989246 19.4053552,21.1804619 19.2936091,21.1800117 L19.3024689,21.1884114 Z M13.3619309,21.3984056 C13.1011464,21.2514049 12.801312,21.1785167 12.4980943,21.1884114 C11.9620726,21.1884114 11.612108,21.4320047 11.612108,21.8309936 C11.612108,22.1585845 11.869044,22.3601789 12.3430467,22.4231771 L12.5645433,22.4525763 C12.8170493,22.4861754 12.9366575,22.5491736 12.9366575,22.6625705 C12.9366575,22.8179661 12.7683201,22.9061637 12.453795,22.9061637 C12.2008021,22.9131066 11.952704,22.8391398 11.7494359,22.6961695 L11.5279393,23.0363601 C11.7963076,23.2140132 12.1177452,23.3052895 12.4449351,23.2967528 C13.0562656,23.2967528 13.4106602,23.0237604 13.4106602,22.641571 C13.4106602,22.2593817 13.1315745,22.103986 12.6708616,22.0409877 L12.449365,22.0115886 C12.2500181,21.9863893 12.0905406,21.9485903 12.0905406,21.814194 C12.0905406,21.6797978 12.2411583,21.5790006 12.4936644,21.5790006 C12.7270499,21.5815709 12.9558382,21.6408589 13.1581541,21.7511958 L13.3619309,21.3984056 Z M25.7015048,21.1884114 C25.4726806,21.1820313 25.2585079,21.2948371 25.1433335,21.4824033 L25.1433335,21.23881 L24.6870505,21.23881 L24.6870505,23.2463542 L25.1477634,23.2463542 L25.1477634,22.1207855 C25.1477634,21.7889947 25.2983811,21.6041999 25.5907565,21.6041999 C25.6892969,21.602922 25.7871387,21.6200471 25.8787021,21.6545985 L26.0204599,21.2346101 C25.9152428,21.1989246 25.8043911,21.1804619 25.692645,21.1800117 L25.7015048,21.1884114 Z M19.7653968,22.2383822 C19.754317,22.5236457 19.8705422,22.8001298 20.0855443,22.9999699 C20.3005463,23.19981 20.594419,23.3045036 20.8950293,23.2883531 C21.1716516,23.3016961 21.4435066,23.2162831 21.6569775,23.0489597 L21.4354809,22.6961695 C21.2762184,22.8113117 21.0820128,22.8746491 20.8817395,22.8767645 C20.5286076,22.849676 20.256585,22.57007 20.256585,22.2341824 C20.256585,21.8982947 20.5286076,21.6186888 20.8817395,21.5916002 C21.0820128,21.5937156 21.2762184,21.6570531 21.4354809,21.7721952 L21.6569775,21.419405 C21.4435066,21.2520817 21.1716516,21.1666687 20.8950293,21.1800117 C20.594419,21.1638611 20.3005463,21.2685547 20.0855443,21.4683948 C19.8705422,21.6682349 19.754317,21.9447191 19.7653968,22.2299825 L19.7653968,22.2383822 Z M24.0801499,22.2383822 L24.0801499,21.23881 L23.6194371,21.23881 L23.6194371,21.4824033 C23.4607134,21.2887781 23.2134286,21.1793713 22.9549474,21.1884114 C22.3433015,21.1884114 21.8474645,21.6584994 21.8474645,22.2383822 C21.8474645,22.8182651 22.3433015,23.2883531 22.9549474,23.2883531 C23.2134286,23.2973932 23.4607134,23.1879864 23.6194371,22.9943612 L23.6194371,23.2379545 L24.0801499,23.2379545 L24.0801499,22.2383822 Z M22.3657665,22.2383822 C22.3862538,21.9088318 22.6808325,21.6552512 23.0287922,21.6676333 C23.376752,21.6800155 23.6504515,21.9538182 23.6448241,22.2838974 C23.6391967,22.6139766 23.3563066,22.8792502 23.0081065,22.8809644 C22.8308072,22.8830913 22.6606281,22.8149166 22.5386583,22.6929009 C22.4166886,22.5708851 22.3540138,22.4061181 22.3657665,22.2383822 Z M16.8062026,21.1884114 C16.1945567,21.1965298 15.7056614,21.673199 15.7142245,22.2530818 C15.7227875,22.8329647 16.2255662,23.2964714 16.8372121,23.2883531 C17.1558879,23.3038609 17.4692759,23.2065693 17.7165535,23.0153607 L17.4950569,22.6919696 C17.3201548,22.8249545 17.1034735,22.8988498 16.8792964,22.9019638 C16.5626375,22.9277826 16.2818272,22.70996 16.2458163,22.4105775 L17.8184419,22.4105775 C17.8184419,22.355979 17.8184419,22.3013805 17.8184419,22.2425821 C17.8184419,21.6125996 17.4064583,21.1926113 16.8128475,21.1926113 L16.8062026,21.1884114 Z M16.8062026,21.5790006 C16.945436,21.5761863 17.0801429,21.6259405 17.1806733,21.7173119 C17.2812037,21.8086834 17.3393178,21.9341828 17.3422243,22.066187 L16.2347414,22.066187 C16.2514264,21.7858077 16.5013077,21.5694222 16.7973427,21.5790006 L16.8062026,21.5790006 Z M28.3483888,22.2425821 L28.3483888,20.4324324 L27.9053957,20.4324324 L27.9053957,21.4824033 C27.746672,21.2887781 27.4993872,21.1793713 27.240906,21.1884114 C26.6292601,21.1884114 26.1334231,21.6584994 26.1334231,22.2383822 C26.1334231,22.8182651 26.6292601,23.2883531 27.240906,23.2883531 C27.4993872,23.2973932 27.746672,23.1879864 27.9053957,22.9943612 L27.9053957,23.2379545 L28.3483888,23.2379545 L28.3483888,22.2425821 Z M29.1169819,22.9544623 C29.1457794,22.9541279 29.1743692,22.9591209 29.2011506,22.9691619 C29.2265879,22.9790031 29.249872,22.993245 29.2698146,23.0111608 C29.2892773,23.0292668 29.3050464,23.0506242 29.3163289,23.074159 C29.3390015,23.1237276 29.3390015,23.1799862 29.3163289,23.2295547 C29.3050464,23.2530895 29.2892773,23.274447 29.2698146,23.292553 C29.249872,23.3104687 29.2265879,23.3247106 29.2011506,23.3345518 C29.1746336,23.3456448 29.1459657,23.3513667 29.1169819,23.3513513 C29.0312738,23.3507388 28.953631,23.3033008 28.917635,23.2295547 C28.8952249,23.1799348 28.8952249,23.1237789 28.917635,23.074159 C28.9289175,23.0506242 28.9446866,23.0292668 28.9641493,23.0111608 C28.9840918,22.993245 29.007376,22.9790031 29.0328132,22.9691619 C29.0616632,22.9582818 29.0926035,22.9532736 29.1236268,22.9544623 L29.1169819,22.9544623 Z M29.1169819,23.3093525 C29.1390894,23.3094798 29.1609768,23.3051866 29.1812159,23.2967528 C29.2002727,23.2886864 29.2175556,23.2772879 29.2321602,23.2631538 C29.2895935,23.2037449 29.2895935,23.1125685 29.2321602,23.0531596 C29.2175904,23.0389865 29.2002992,23.0275824 29.1812159,23.0195605 C29.1609568,23.0111863 29.1390828,23.0068956 29.1169819,23.0069609 C29.0949001,23.0070715 29.0730632,23.0113549 29.0527479,23.0195605 C29.0328475,23.0272967 29.014775,23.0387194 28.9995888,23.0531596 C28.9421554,23.1125685 28.9421554,23.2037449 28.9995888,23.2631538 C29.0148123,23.2775509 29.0328751,23.2889674 29.0527479,23.2967528 C29.0750947,23.3058892 29.0993069,23.3101933 29.1236268,23.3093525 L29.1169819,23.3093525 Z M29.1302717,23.0594594 C29.1509487,23.0585088 29.1713241,23.0644525 29.1878608,23.076259 C29.2016163,23.0870518 29.2090385,23.1034708 29.2077955,23.1203577 C29.2084385,23.1344599 29.2028142,23.1481715 29.1922908,23.1581567 C29.1794524,23.169212 29.1630746,23.1758666 29.1457765,23.1770562 L29.2100105,23.2463542 L29.1590663,23.2463542 L29.0992622,23.1770562 L29.0793275,23.1770562 L29.0793275,23.2463542 L29.0372432,23.2463542 L29.0372432,23.0615594 L29.1302717,23.0594594 Z M29.0815425,23.0951584 L29.0815425,23.145557 L29.1302717,23.145557 C29.138943,23.1480081 29.1481801,23.1480081 29.1568513,23.145557 C29.1600105,23.1396132 29.1600105,23.1326014 29.1568513,23.1266576 C29.1600105,23.1207137 29.1600105,23.1137019 29.1568513,23.1077581 C29.1481801,23.1053071 29.138943,23.1053071 29.1302717,23.1077581 L29.0815425,23.0951584 Z M26.6450802,22.2425821 C26.6655675,21.9130317 26.9601462,21.6594511 27.308106,21.6718332 C27.6560657,21.6842153 27.9297653,21.9580181 27.9241378,22.2880973 C27.9185104,22.6181765 27.6356203,22.8834501 27.2874203,22.8851643 C27.1101209,22.8872912 26.9399418,22.8191165 26.8179721,22.6971007 C26.6960023,22.575085 26.6333275,22.410318 26.6450802,22.2425821 Z M11.0893761,22.2425821 L11.0893761,21.23881 L10.6286632,21.23881 L10.6286632,21.4824033 C10.4699395,21.2887781 10.2226548,21.1793713 9.96417353,21.1884114 C9.35252764,21.1884114 8.85669068,21.6584994 8.85669068,22.2383822 C8.85669068,22.8182651 9.35252764,23.2883531 9.96417353,23.2883531 C10.2226548,23.2973932 10.4699395,23.1879864 10.6286632,22.9943612 L10.6286632,23.2379545 L11.0893761,23.2379545 L11.0893761,22.2425821 Z M9.37499265,22.2425821 C9.39547998,21.9130317 9.69005865,21.6594511 10.0380184,21.6718332 C10.3859781,21.6842153 10.6596777,21.9580181 10.6540503,22.2880973 C10.6484229,22.6181765 10.3655328,22.8834501 10.0173327,22.8851643 C9.83926929,22.8884785 9.66790545,22.8208235 9.54495332,22.6986675 C9.42200119,22.5765115 9.35873797,22.4110586 9.37056272,22.2425821 L9.37499265,22.2425821 Z" id="Shape" fill="#231F20" fill-rule="nonzero"></path>
                    <g id="_Group_" transform="translate(2.933333, 3.648649)">
                        <rect id="Rectangle" fill="#FF5F00" x="9.62358974" y="1.72636061" width="7.10769231" height="12.449589"></rect>
                        <path d="M10.0748718,7.95225472 C10.0722143,5.52248293 11.2163545,3.22654472 13.1774359,1.72636061 C9.84692705,-0.82468317 5.06418278,-0.453101583 2.19038722,2.57996781 C-0.683408345,5.61303721 -0.683408345,10.289273 2.19038722,13.3223424 C5.06418278,16.3554118 9.84692705,16.7269934 13.1774359,14.1759496 C11.2169784,12.6762418 10.0729081,10.3812548 10.0748718,7.95225472 Z" id="_Path_" fill="#EB001B"></path>
                        <path d="M26.3210256,7.95225472 C26.3209531,10.9834757 24.5451001,13.748571 21.7476781,15.073194 C18.9502561,16.397817 15.6223895,16.0494126 13.1774359,14.1759496 C15.137038,12.6749686 16.2811944,10.3802867 16.2811944,7.95115513 C16.2811944,5.52202357 15.137038,3.22734169 13.1774359,1.72636061 C15.6223895,-0.147102379 18.9502561,-0.495506712 21.7476781,0.829116266 C24.5451001,2.15373924 26.3209531,4.91883453 26.3210256,7.95005553 L26.3210256,7.95225472 Z" id="Path" fill="#F79E1B"></path>
                        <path d="M25.6211562,13.5414602 L25.6211562,12.7187652 L25.7770377,12.7187652 L25.7770377,12.5485524 L25.382359,12.5485524 L25.382359,12.7187652 L25.551507,12.7187652 L25.551507,13.5414602 L25.6211562,13.5414602 Z M26.3872972,13.5414602 L26.3872972,12.5485524 L26.2678986,12.5485524 L26.1286003,13.2577722 L25.9893019,12.5485524 L25.8831698,12.5485524 L25.8831698,13.5414602 L25.9694021,13.5414602 L25.9694021,12.7967793 L26.0987506,13.4421694 L26.1882996,13.4421694 L26.3176481,12.7967793 L26.3176481,13.5485524 L26.3872972,13.5414602 Z" id="Shape" fill="#F79E1B" fill-rule="nonzero"></path>
                    </g>
                </g>
            </g>
        </g>
    </g>
</svg>