<?xml version="1.0" encoding="UTF-8" standalone="no"?>
<svg width="34px" height="41px" viewBox="0 0 34 41" version="1.1" xmlns="http://www.w3.org/2000/svg" xmlns:xlink="http://www.w3.org/1999/xlink" xmlns:sketch="http://www.bohemiancoding.com/sketch/ns">
    <!-- Generator: Sketch 3.2.2 (9983) - http://www.bohemiancoding.com/sketch -->
    <title>pin</title>
    <desc>Created with Sketch.</desc>
    <defs></defs>
    <g id="Catalogue---no-products" stroke="none" stroke-width="1" fill="none" fill-rule="evenodd" sketch:type="MSPage">
        <g id="Catalogue---Prod-View" sketch:type="MSArtboardGroup" transform="translate(-674.000000, -500.000000)">
            <g id="content" sketch:type="MSLayerGroup" transform="translate(351.000000, 230.000000)">
                <g id="No-Products-Found-+-Imported-Layers" transform="translate(323.000000, 270.000000)" sketch:type="MSShapeGroup">
                    <g id="pin">
                        <path d="M2.433,18.08 L23.575,6.721 C23.582,6.719 23.588,6.715 23.592,6.712 C24.079,6.45 24.261,5.844 24,5.358 C23.963,5.29 23.922,5.228 23.873,5.173 C22.514,2.89 19.575,2.059 17.212,3.329 L3.117,10.901 C0.688,12.206 -0.226,15.243 1.079,17.672 C1.34,18.158 1.946,18.341 2.433,18.08" id="Fill-1" fill="#C7C7C7"></path>
                        <path d="M6.575,6.773 L11.861,3.933 C12.348,3.671 12.53,3.065 12.268,2.579 L11.795,1.698 C11.012,0.241 9.19,-0.308 7.733,0.475 L5.971,1.422 C4.514,2.204 3.965,4.027 4.748,5.484 L5.221,6.365 C5.482,6.851 6.088,7.034 6.575,6.773" id="Fill-2" fill="#C7C7C7"></path>
                        <path d="M32.928,16.17 L8.928,16.17 C8.647,16.17 8.379,16.288 8.19,16.496 C8,16.703 7.906,16.98 7.932,17.26 L9.767,37.442 C9.908,38.997 11.192,40.17 12.754,40.17 L29.102,40.17 C30.663,40.17 31.947,38.997 32.089,37.441 L33.924,17.26 C33.949,16.98 33.856,16.703 33.666,16.496 C33.477,16.288 33.209,16.17 32.928,16.17" id="Fill-3" fill="#EEAF4B"></path>
                    </g>
                </g>
            </g>
        </g>
    </g>
</svg>