<?xml version="1.0" encoding="iso-8859-1"?>
<!-- Generator: Adobe Illustrator 18.0.0, SVG Export Plug-In . SVG Version: 6.00 Build 0)  -->
<svg version="1.1" id="note" xmlns="http://www.w3.org/2000/svg" xmlns:xlink="http://www.w3.org/1999/xlink" x="0px" y="0px"
	 viewBox="0 0 110 110" enable-background="new 0 0 110 110" xml:space="preserve">
<path fill="#4A90E2" d="M69.01,47.556c-0.46-0.42-1.084-0.733-1.667-0.955C66.782,46.387,66,46.148,65,45.889v-4.948
	c1,0.336,1.64,0.988,1.892,1.945c0.23,0.84,0.786,1.267,1.563,1.267c0.412,0,0.778-0.145,1.068-0.434
	c0.289-0.289,0.447-0.646,0.447-1.042c0-0.357-0.095-0.735-0.289-1.163c-0.194-0.428-0.456-0.846-0.813-1.25
	c-0.452-0.531-1.076-0.936-1.682-1.198C66.58,38.811,66,38.652,65,38.58V37c0-0.493-0.515-0.885-1.009-0.885
	C63.498,36.115,63,36.507,63,37v1.58c-1,0.146-2.523,0.633-3.384,1.493c-0.868,0.871-1.197,1.988-1.197,3.351
	c0,1.046,0.286,1.904,0.73,2.57c0.444,0.666,0.839,1.167,1.552,1.528C61.374,47.861,62,48.178,63,48.458v5.556
	c0-0.284-1.274-0.86-1.613-1.58c-0.159-0.345-0.237-0.843-0.451-1.493c-0.256-0.67-0.74-0.949-1.371-0.955
	c-0.868,0.06-1.507,0.684-1.519,1.493c0,0.515,0.121,1.045,0.343,1.58c0.222,0.535,0.567,1.05,1.031,1.545
	c0.464,0.495,0.836,0.9,1.529,1.233C61.62,56.152,63,56.359,63,56.444v1.58c0,0.493,0.498,0.885,0.991,0.885
	c0.493,0,1.009-0.392,1.009-0.885v-1.58c1-0.106,2.085-0.395,2.934-0.868c0.824-0.499,1.503-1.138,1.927-1.927
	c0.424-0.788,0.651-1.631,0.651-2.535c0-0.721-0.121-1.391-0.386-1.996C69.86,48.512,69.502,47.991,69.01,47.556z M63,45.333
	c0-0.196-0.821-0.445-1.214-0.799c-0.348-0.321-0.626-0.78-0.626-1.406C61.221,41.881,62,41.17,63,40.889V45.333z M66.858,53.181
	C66.307,53.695,66,53.987,65,54.101v-5.104c1,0.222,1.395,0.486,1.875,0.903c0.424,0.376,0.625,0.908,0.625,1.597
	C67.5,52.139,67.293,52.698,66.858,53.181z"/>
<path fill="#4A90E2" d="M107.75,50.797c-2.296-2.617-2.757-5.523-1.381-8.721c1.375-3.198,0.566-5.686-2.426-7.465
	c-2.993-1.779-4.329-4.402-4.01-7.867c0.32-3.466-1.219-5.583-4.615-6.35c-3.396-0.767-5.478-2.849-6.245-6.243
	c-0.767-3.396-2.885-4.934-6.352-4.614c-3.467,0.32-6.09-1.016-7.87-4.008c-1.779-2.992-4.268-3.8-7.467-2.426
	s-6.106,0.915-8.723-1.381c-2.617-2.296-5.234-2.296-7.851,0c-2.617,2.295-5.525,2.756-8.723,1.381
	C38.889,1.728,36.4,2.537,34.62,5.529c-1.779,2.992-4.402,4.328-7.869,4.008s-5.584,1.218-6.352,4.614
	c-0.768,3.395-2.849,5.476-6.245,6.243c-3.396,0.767-4.935,2.884-4.615,6.35c0.32,3.466-1.017,6.088-4.01,7.867
	c-2.993,1.779-3.802,4.267-2.426,7.465c1.375,3.198,0.914,6.104-1.382,8.721c-2.296,2.616-2.296,5.232,0,7.849
	s2.757,5.523,1.382,8.721c-1.376,3.198-0.567,5.686,2.426,7.465c2.992,1.779,4.329,4.402,4.01,7.867
	c-0.32,3.466,1.218,5.583,4.615,6.35c3.396,0.767,5.478,2.848,6.245,6.243c0.767,3.395,2.885,4.933,6.352,4.613
	c3.467-0.32,6.09,1.017,7.869,4.009c1.78,2.992,4.269,3.8,7.467,2.426c3.199-1.375,6.106-0.915,8.723,1.381
	c2.617,2.296,5.234,2.296,7.851,0c2.617-2.295,5.525-2.755,8.723-1.381s5.688,0.566,7.467-2.426s4.402-4.328,7.87-4.009
	c3.467,0.32,5.584-1.218,6.352-4.613c0.767-3.395,2.849-5.476,6.245-6.243c3.396-0.767,4.934-2.884,4.615-6.35
	c-0.32-3.466,1.017-6.088,4.01-7.867c2.992-1.779,3.801-4.267,2.426-7.465c-1.375-3.198-0.915-6.104,1.381-8.721
	C110.047,56.029,110.047,53.413,107.75,50.797z M55,98c-23.435,0-42.5-19.065-42.5-42.5S31.565,13,55,13s42.5,19.065,42.5,42.5
	S78.435,98,55,98z"/>
<path fill="#4A90E2" d="M55,15c-22.332,0-40.5,18.168-40.5,40.5S32.668,96,55,96s40.5-18.168,40.5-40.5S77.332,15,55,15z
	 M75.139,67.538c-0.001,0.624-0.221,1.195-0.799,1.771c-1.284,1.223-2.852,2.161-4.201,3.038c-1.04,0.673-2.614,2.115-4.531,2.205
	c-0.646,0.031-3.083,0.437-5.469,0.816c-2.386,0.379-4.714,0.748-6.076,0.642c-0.898-0.069-1.882-0.509-3.264-1.111
	c-1.382-0.603-3.029-1.372-4.653-2.153s-3.229-1.574-4.531-2.17c-0.651-0.298-1.215-0.55-1.667-0.729
	c-0.656-0.257-1.305-0.374-2.101-0.451c-1.72-0.02-6.349-0.026-6.91-0.035c-0.532-0.052-0.92-0.464-0.938-1.076v-9.01
	c0-0.381,0.262-0.751,0.625-0.868c0.34-0.109,5.253,0.284,7.118-0.174c1.314-0.323,4.523-1.195,7.76-1.233
	c0.599-0.007,1.2,0.015,1.788,0.069c2.333,0.216,4.103,0.899,5.469,1.545c1.366,0.646,2.362,1.211,2.934,1.319
	c1.586,0.302,3.196,0.231,5.347,0.573c1.04,0.165,2.208,0.366,3.247,0.66s1.979,0.587,2.587,1.424
	c0.669,0.922,0.481,1.421,0.017,2.361c-0.232,0.47-0.586,0.917-1.076,1.233c-0.491,0.316-1.142,0.485-1.806,0.365
	c-1.735-0.316-5.937-0.326-7.292-0.486c-1.12-0.132-2.328,0.043-3.073,0.139c0.253,0.034,0.402,0.109,0.625,0.191
	c0.298,0.109,0.629,0.237,0.972,0.382c0.687,0.291,1.445,0.626,1.771,0.729c2.187,0.692,4.482,0.509,6.927,0.226
	c2.042-0.235,3.517-0.682,4.896-1.997c0.895-0.85,2.507-1.929,4.288-1.84c0.962,0.078,2.147,0.665,2.014,1.823
	c-0.04,0.39-0.594,0.892-0.781,1.094C74.5,67.067,75.055,66.916,75.139,67.538z M79.774,48.094l-1.476,0.972l1.267,1.25
	c0.113,0.11,0.17,0.28,0.139,0.434c-0.031,0.155-0.149,0.289-0.295,0.347l-1.649,0.66l1.007,1.493
	c0.088,0.13,0.095,0.289,0.035,0.434c-0.06,0.145-0.193,0.266-0.347,0.295l-1.753,0.33l0.694,1.649
	c0.061,0.144,0.052,0.321-0.035,0.451c-0.087,0.131-0.243,0.209-0.399,0.208l-1.788-0.017l0.365,1.754
	c0.033,0.154-0.028,0.323-0.139,0.434s-0.395,0.154-0.549,0.121L73,58.545v1.788c0,0.157,0.037,0.312-0.094,0.399
	s-0.249,0.114-0.394,0.052l-1.603-0.712l-0.333,1.753c-0.03,0.153-0.126,0.305-0.271,0.365c-0.145,0.06-0.318,0.036-0.448-0.052
	l-1.474-1.007l-0.346,0.851c-0.345-0.535-0.84-0.975-1.406-1.267c-1.752-0.997-3.822-1.193-5.781-1.528
	c-1.836-0.252-3.735-0.223-5.503-0.781c-0.694-0.305-1.39-0.628-2.083-0.955l0.174-0.851l-1.771,0.017
	c-0.157,0.002-0.329-0.078-0.417-0.208s-0.096-0.307-0.035-0.451l0.694-1.649l-1.753-0.33c-0.154-0.03-0.287-0.133-0.347-0.278
	c-0.06-0.145-0.036-0.322,0.052-0.451l0.99-1.493l-1.649-0.66c-0.145-0.059-0.247-0.193-0.278-0.347s0.01-0.324,0.122-0.434
	l1.285-1.25l-1.493-0.972c-0.131-0.086-0.226-0.243-0.226-0.399s0.095-0.313,0.226-0.399l1.493-0.99l-1.285-1.25
	c-0.112-0.11-0.152-0.28-0.122-0.434s0.132-0.288,0.278-0.347l1.649-0.66l-0.99-1.476c-0.088-0.13-0.112-0.307-0.052-0.451
	c0.06-0.145,0.193-0.266,0.347-0.295l1.753-0.33l-0.694-1.649c-0.061-0.145-0.053-0.321,0.035-0.451
	c0.087-0.131,0.259-0.21,0.417-0.208l1.771,0.017l-0.347-1.754c-0.033-0.154,0.01-0.323,0.122-0.434s0.28-0.154,0.434-0.121
	l1.753,0.365l-0.017-1.788c-0.002-0.157,0.078-0.312,0.208-0.399s0.307-0.096,0.451-0.035l1.649,0.694l0.33-1.753
	c0.029-0.154,0.133-0.304,0.278-0.365c0.145-0.06,0.322-0.036,0.451,0.052l1.476,1.007l0.677-1.649
	c0.059-0.144,0.194-0.265,0.347-0.295s0.324,0.029,0.434,0.139l1.25,1.267l0.972-1.493c0.085-0.13,0.244-0.206,0.399-0.208
	c0.158-0.002,0.312,0.076,0.399,0.208l0.972,1.493l1.267-1.267c0.11-0.112,0.263-0.17,0.417-0.139
	c0.154,0.031,0.289,0.149,0.347,0.295l0.677,1.649l1.476-1.007c0.13-0.088,0.307-0.112,0.451-0.052
	c0.145,0.06,0.248,0.211,0.278,0.365l0.347,1.753l1.632-0.694c0.145-0.062,0.206-0.053,0.337,0.035S73,34.881,73,35.038v1.788
	l1.851-0.365c0.154-0.032,0.38,0.011,0.491,0.121s0.199,0.28,0.168,0.434l-0.35,1.754l1.795-0.017
	c0.157-0.001,0.316,0.095,0.403,0.226c0.087,0.13,0.098,0.29,0.037,0.434l-0.693,1.649l1.754,0.33
	c0.155,0.029,0.287,0.15,0.347,0.295c0.06,0.146,0.054,0.322-0.035,0.451l-1.007,1.476l1.649,0.66
	c0.146,0.058,0.264,0.193,0.295,0.347c0.031,0.155-0.026,0.324-0.139,0.434l-1.267,1.25l1.476,0.99
	C79.906,47.381,80,47.537,80,47.694S79.906,48.008,79.774,48.094z"/>
</svg>
