<svg width="20" height="20" xmlns="http://www.w3.org/2000/svg" xmlns:xlink="http://www.w3.org/1999/xlink"><defs><path d="M12.516.123a.627.627 0 01.575-.09.667.667 0 01.414.427l1.001 3.04 3.07.06a.643.643 0 01.514.28.71.71 0 01.096.6l-.893 3.077 2.448 1.939c.163.128.259.33.259.544a.694.694 0 01-.259.545l-2.448 1.938.893 3.076a.71.71 0 01-.096.6.643.643 0 01-.515.281l-3.07.06-1 3.04a.667.667 0 01-.414.427.623.623 0 01-.575-.09L10 18.032l-2.516 1.845a.627.627 0 01-.575.09.667.667 0 01-.414-.427l-1-3.04-3.07-.06a.643.643 0 01-.515-.28.71.71 0 01-.096-.6l.893-3.077-2.448-1.938A.694.694 0 010 10c0-.214.096-.416.259-.544l2.448-1.939-.894-3.076a.71.71 0 01.097-.6.643.643 0 01.515-.282l3.069-.058 1-3.041A.667.667 0 016.91.033a.627.627 0 01.575.09L10 1.968zM14.03 6.18a.308.308 0 00-.44 0l-4.538 4.836-2.626-2.652a.312.312 0 00-.445 0l-.89.9a.32.32 0 000 .449l3.746 3.783a.311.311 0 00.23.093.31.31 0 00.223-.091l5.618-5.988a.316.316 0 000-.443z" id="a"/></defs><use fill="#358266" xlink:href="#a" fill-rule="evenodd"/></svg>