<?xml version="1.0" encoding="UTF-8" standalone="no"?>
<svg width="110px" height="110px" viewBox="0 0 110 110" version="1.1" xmlns="http://www.w3.org/2000/svg" xmlns:xlink="http://www.w3.org/1999/xlink" xmlns:sketch="http://www.bohemiancoding.com/sketch/ns">
    <!-- Generator: Sketch 3.3 (11970) - http://www.bohemiancoding.com/sketch -->
    <title>Imported Layers + Oval 55 + Shape Copy</title>
    <desc>Created with Sketch.</desc>
    <defs></defs>
    <g id="complex-promo" stroke="none" stroke-width="1" fill="none" fill-rule="evenodd" sketch:type="MSPage">
        <g id="Product-Details-bar" sketch:type="MSArtboardGroup" transform="translate(-999.000000, -703.000000)">
            <g id="content" sketch:type="MSLayerGroup" transform="translate(0.000000, 314.000000)">
                <g id="Group-Copy-2" transform="translate(999.000000, 389.000000)" sketch:type="MSShapeGroup">
                    <g id="Imported-Layers-+-Oval-55-+-Shape-Copy">
                        <path d="M42.0873134,106.338806 C38.8891045,107.713532 36.4001493,106.905224 34.6204478,103.913333 C32.8412935,100.921443 30.2182587,99.5850249 26.7513433,99.9046269 C23.2844279,100.224229 21.1670647,98.6864179 20.399801,95.291194 C19.63199,91.8965174 17.5507463,89.8152736 14.1544279,89.04801 C10.7581095,88.2807463 9.21975124,86.1644776 9.5399005,82.6981095 C9.85950249,79.2322886 8.52253731,76.609801 5.5300995,74.8306468 C2.53711443,73.0520398 1.72825871,70.5636318 3.1040796,67.3659701 C4.47935323,64.1683085 4.01855721,61.261791 1.72223881,58.6453234 C-0.574079602,56.0288557 -0.574079602,53.4129353 1.72223881,50.7964677 C4.01855721,48.18 4.47935323,45.2734826 3.1040796,42.0758209 C1.72825871,38.8776119 2.53711443,36.3897512 5.5300995,34.6111443 C8.52253731,32.83199 9.85950249,30.2095025 9.5399005,26.7436816 C9.21975124,23.2773134 10.7581095,21.1610448 14.1544279,20.3937811 C17.5507463,19.6265174 19.63199,17.5452736 20.399801,14.150597 C21.1670647,10.7548259 23.2844279,9.21701493 26.7513433,9.53661692 C30.2182587,9.85621891 32.8412935,8.52034826 34.6204478,5.52845771 C36.4001493,2.53656716 38.8891045,1.72825871 42.0873134,3.10298507 C45.2860697,4.47771144 48.1936816,4.01746269 50.8106965,1.72223881 C53.4277114,-0.574079602 56.0447264,-0.574079602 58.6617413,1.72223881 C61.2787562,4.01746269 64.1863682,4.47771144 67.3851244,3.10298507 C70.5838806,1.72825871 73.0728358,2.53656716 74.85199,5.52845771 C76.6311443,8.52034826 79.2541791,9.85621891 82.7216418,9.53661692 C86.1885572,9.21701493 88.3059204,10.7548259 89.0731841,14.150597 C89.8404478,17.5452736 91.9222388,19.6265174 95.3185572,20.3937811 C98.7143284,21.1610448 100.252687,23.2773134 99.9330846,26.7436816 C99.6134826,30.2095025 100.9499,32.83199 103.942886,34.6111443 C106.935323,36.3897512 107.744179,38.8776119 106.368905,42.0758209 C104.993632,45.2734826 105.453881,48.18 107.750199,50.7964677 C110.047065,53.4129353 110.047065,56.0288557 107.750199,58.6453234 C105.453881,61.261791 104.993632,64.1683085 106.368905,67.3659701 C107.744179,70.5636318 106.935323,73.0520398 103.942886,74.8306468 C100.9499,76.609801 99.6134826,79.2322886 99.9330846,82.6981095 C100.252687,86.1644776 98.7143284,88.2807463 95.3185572,89.04801 C91.9222388,89.8152736 89.8404478,91.8965174 89.0731841,95.291194 C88.3059204,98.6864179 86.1885572,100.224229 82.7216418,99.9046269 C79.2541791,99.5850249 76.6311443,100.921443 74.85199,103.913333 C73.0728358,106.905224 70.5838806,107.713532 67.3851244,106.338806 C64.1863682,104.96408 61.2787562,105.424328 58.6617413,107.719552 C56.0447264,110.015871 53.4277114,110.015871 50.8106965,107.719552 C48.1936816,105.424328 45.2860697,104.96408 42.0873134,106.338806 Z" id="Imported-Layers" fill="#E95F5F"></path>
                        <circle id="Oval-55" stroke="#FFFFFF" stroke-width="2" cx="55" cy="55" r="41.5"></circle>
                        <path d="M76.7364241,51.8590622 L76.7364241,51.8462289 C76.7364241,51.7934696 76.7322991,51.7407103 76.7281741,51.6879511 C76.7254241,51.6580066 76.7226741,51.6280622 76.7185491,51.5995437 C76.7157991,51.5710252 76.7102991,51.5425066 76.7075491,51.5139881 C76.5562991,50.5571918 75.7959241,49.8128585 74.8499241,49.7301548 L34.7989241,49.7301548 C33.6604241,49.7301548 32.7364241,50.6869511 32.7364241,51.8690437 C32.7364241,53.0511363 33.6604241,54.0079326 34.7989241,54.0079326 L36.6262991,54.0079326 L41.0482991,72.3510437 L41.0537991,72.3496177 C41.2779241,73.2778955 42.0836741,73.9708955 43.0489241,73.9708955 L43.0489241,73.9708955 L43.0599241,73.9708955 L43.0599241,73.9708955 L66.4239241,73.9708955 C67.3891741,73.9708955 68.1949241,73.2778955 68.4176741,72.3481918 L68.4245491,72.3496177 L72.8465491,54.0079326 L74.6739241,54.0079326 C75.8137991,54.0079326 76.7364241,53.0497103 76.7364241,51.8690437 L76.7364241,51.8661918 L76.7364241,51.8590622 L76.7364241,51.8590622 Z M48.5489241,67.5542289 C48.5489241,68.7363214 47.6249241,69.6931177 46.4864241,69.6931177 C45.3479241,69.6931177 44.4239241,68.7363214 44.4239241,67.5542289 L44.4239241,56.1468214 C44.4239241,54.9661548 45.3479241,54.0079326 46.4864241,54.0079326 C47.6249241,54.0079326 48.5489241,54.9661548 48.5489241,56.1468214 L48.5489241,67.5542289 L48.5489241,67.5542289 Z M56.7989241,67.5542289 C56.7989241,68.7363214 55.8762991,69.6931177 54.7364241,69.6931177 C53.5965491,69.6931177 52.6739241,68.7363214 52.6739241,67.5542289 L52.6739241,56.1468214 C52.6739241,54.9661548 53.5979241,54.0079326 54.7364241,54.0079326 C55.8762991,54.0079326 56.7989241,54.9661548 56.7989241,56.1468214 L56.7989241,67.5542289 L56.7989241,67.5542289 Z M65.0489241,67.5542289 C65.0489241,68.7363214 64.1262991,69.6931177 62.9864241,69.6931177 C61.8465491,69.6931177 60.9239241,68.7363214 60.9239241,67.5542289 L60.9239241,56.1468214 C60.9239241,54.9661548 61.8465491,54.0079326 62.9864241,54.0079326 C64.1262991,54.0079326 65.0489241,54.9661548 65.0489241,56.1468214 L65.0489241,67.5542289 L65.0489241,67.5542289 Z M57.0615491,38.656414 L61.6237991,47.5912659 L66.2919241,47.5912659 L60.7080491,36.65584 L60.6997991,36.6601177 C60.3629241,35.9585622 59.6699241,35.4708955 58.8614241,35.4708955 C57.7215491,35.4708955 56.7989241,36.4276918 56.7989241,37.6097844 C56.7989241,37.9905066 56.9020491,38.3427103 57.0711741,38.6521363 L57.0615491,38.656414 L57.0615491,38.656414 Z M52.4140491,38.656414 L52.4030491,38.6507103 C52.5707991,38.3412844 52.6739241,37.9890807 52.6739241,37.6097844 C52.6739241,36.4276918 51.7499241,35.4708955 50.6114241,35.4708955 C49.8042991,35.4708955 49.1126741,35.9571363 48.7730491,36.6572659 L48.7689241,36.65584 L43.1864241,47.5912659 L47.8545491,47.5912659 L52.4140491,38.656414 L52.4140491,38.656414 Z" id="Shape-Copy" fill="#FFFFFF"></path>
                    </g>
                </g>
            </g>
        </g>
    </g>
</svg>