<?xml version="1.0" encoding="utf-8"?>
<!-- Generator: Adobe Illustrator 19.2.1, SVG Export Plug-In . SVG Version: 6.00 Build 0)  -->
<svg version="1.1" id="icn_x5F_no-connection" xmlns="http://www.w3.org/2000/svg" xmlns:xlink="http://www.w3.org/1999/xlink"
	 x="0px" y="0px" viewBox="0 0 30 30" style="enable-background:new 0 0 30 30;" xml:space="preserve">
<style type="text/css">
	.st0{filter:url(#Adobe_OpacityMaskFilter);}
	.st1{fill:#FFFFFF;}
	.st2{mask:url(#mask-2);}
	.st3{fill:none;}
	.st4{fill:none;stroke:#494949;stroke-linecap:square;}
	.st5{fill:none;stroke:#4A494A;stroke-miterlimit:10;}
</style>
<title>icn_no-connection</title>
<desc>Created with Sketch.</desc>
<g id="eCircular--Offline-Mode">
	<g id="icn_no-connection">
		<defs>
			<filter id="Adobe_OpacityMaskFilter" filterUnits="userSpaceOnUse" x="3" y="3" width="24" height="24">
				<feColorMatrix  type="matrix" values="1 0 0 0 0  0 1 0 0 0  0 0 1 0 0  0 0 0 1 0"/>
			</filter>
		</defs>
		<mask maskUnits="userSpaceOnUse" x="3" y="3" width="24" height="24" id="mask-2">
			<g class="st0">
				<circle id="path-1" class="st1" cx="12" cy="12" r="12"/>
			</g>
		</mask>
		<g transform="translate(3.000000, 3.000000)" class="st2">
			<path id="icn_wifi" class="st1" d="M15,9.3c-0.2-0.1-0.4-0.2-0.6-0.2c-0.1,0-0.3-0.1-0.4-0.1c-0.1,0-0.3-0.1-0.4-0.1
				c-0.2,0-0.4-0.1-0.5-0.1c-0.1,0-0.2,0-0.3,0c-0.2,0-0.3,0-0.5,0c-0.1,0-0.2,0-0.3,0h0h0h0c-0.1,0-0.2,0-0.3,0c-0.2,0-0.3,0-0.5,0
				c-0.1,0-0.1,0-0.2,0c-0.2,0-0.4,0.1-0.6,0.1c-0.1,0-0.1,0-0.2,0.1C10,9,9.8,9.1,9.6,9.1c-0.1,0-0.2,0.1-0.3,0.1
				C9.1,9.3,9,9.3,8.8,9.4C8.6,9.5,8.4,9.6,8.2,9.7c0,0-0.1,0-0.1,0c-0.7,0.4-1.4,0.9-2,1.5l1.1,1.1c0.2-0.2,0.3-0.3,0.5-0.5
				c0.1-0.1,0.3-0.2,0.4-0.3c0,0,0.1,0,0.1-0.1c1-0.7,2.2-1.1,3.5-1.1c0.1,0,0.2,0,0.2,0h0c0.1,0,0.1,0,0.2,0c0.6,0,1.2,0.1,1.8,0.3
				c0.1,0,0.3,0.1,0.4,0.2c0.1,0,0.1,0,0.2,0.1c0.8,0.3,1.6,0.8,2.2,1.5l1.1-1.1c-0.8-0.8-1.7-1.4-2.7-1.8C15.1,9.4,15.1,9.4,15,9.3
				z M4,8.3l1.1,1.1c3.8-3.8,10-3.8,13.9,0L20,8.3C15.6,3.9,8.4,3.9,4,8.3z M8.3,14.1l1.1,1.1c1.5-1.5,3.9-1.5,5.3,0l1.1-1.1
				C13.7,12,10.3,12,8.3,14.1z M12,16.7c-1,0-1.9,0.8-1.9,1.9c0,1,0.8,1.9,1.9,1.9c1,0,1.9-0.8,1.9-1.9C13.9,17.5,13,16.7,12,16.7z"
				/>
			<g id="Combined-Shape">
				<circle id="path-1_1_" class="st3" cx="12" cy="12" r="12"/>
			</g>
			<path id="Line" class="st4" d="M2.5,5.5l19,13"/>
		</g>
	</g>
	<circle class="st5" cx="15" cy="14.4" r="11.7"/>
	<line class="st5" x1="5.2" y1="8.3" x2="24.5" y2="21.5"/>
</g>
</svg>
