<?xml version="1.0" encoding="UTF-8" standalone="no"?>
<svg width="41px" height="31px" viewBox="0 0 41 31" version="1.1" xmlns="http://www.w3.org/2000/svg" xmlns:xlink="http://www.w3.org/1999/xlink" xmlns:sketch="http://www.bohemiancoding.com/sketch/ns">
    <!-- Generator: Sketch 3.2.2 (9983) - http://www.bohemiancoding.com/sketch -->
    <title>coins</title>
    <desc>Created with Sketch.</desc>
    <defs></defs>
    <g id="payment" stroke="none" stroke-width="1" fill="none" fill-rule="evenodd" sketch:type="MSPage">
        <g id="Payment" sketch:type="MSArtboardGroup" transform="translate(-218.000000, -972.000000)" fill="#546979">
            <g id="content" sketch:type="MSLayerGroup" transform="translate(-37.000000, 228.000000)">
                <g id="cart" transform="translate(156.000000, 208.000000)" sketch:type="MSShapeGroup">
                    <g id="Group-2" transform="translate(36.000000, 448.000000)">
                        <g id="Pay-easy,-fast-and-s-+-Radio-Background-+-Radio-Circle-+-Radio-Label-2">
                            <g id="coins" transform="translate(63.000000, 88.000000)">
                                <path d="M31.9059091,15.2584471 C31.9059091,21.8325962 28.3091818,27.5557227 23,30.5168943 C30.2220909,29.288714 35.7240909,22.9253865 35.7240909,15.2584471 C35.7240909,7.59344194 30.2220909,1.22818024 23,0 C28.3091818,2.96117158 31.9059091,8.68429809 31.9059091,15.2584471" id="Fill-1"></path>
                                <path d="M28,30.5168943 C35.2220909,29.288714 40.7240909,22.9253865 40.7240909,15.2584471 C40.7240909,7.59344194 35.2220909,1.22818024 28,0 C33.3091818,2.96117158 36.9059091,8.68429809 36.9059091,15.2584471 C36.9059091,21.8325962 33.3091818,27.5557227 28,30.5168943" id="Fill-2"></path>
                                <path d="M15.2496429,0 C6.82749301,0 0,6.82767778 0,15.25 C0,23.6723222 6.82749301,30.5 15.249881,30.5 C23.672388,30.500119 30.5,23.6724412 30.5,15.25 C30.5,6.82767778 23.672388,0 15.2496429,0 L15.2496429,0 Z M15.9043128,22.2821713 L15.9043128,24.6707456 L14.4559449,24.6707456 L14.4559449,22.3750146 C13.1261318,22.3500183 11.7677512,21.9347228 10.965364,21.3614745 L11.5157628,19.8247976 C12.318031,20.3536478 13.5145296,20.8110799 14.8022058,20.8110799 C16.4315006,20.8110799 17.3895803,19.8705052 17.3870807,18.5581998 C17.3870807,17.2952919 16.6376622,16.5139792 14.9383771,15.8249147 C12.5968014,14.9046941 11.1484335,13.8261636 11.1484335,11.8265792 C11.1484335,9.92031432 12.5018147,8.47445734 14.5935446,8.12748499 L14.5935446,5.82913541 L16.0420316,5.82913541 L16.0420316,8.0623756 C17.3975554,8.10522639 18.3403991,8.47445734 19.0289928,8.86428047 L18.4562161,10.3809603 C17.9709272,10.1064772 17.0303451,9.5758416 15.5592423,9.5758416 C13.7885387,9.5758416 13.2709924,10.634018 13.2709924,11.5745928 C13.2709924,12.7464428 13.9722034,13.3421877 15.974184,14.1919426 C18.3403991,15.1601324 19.5347551,16.3322204 19.5347551,18.376441 C19.5353502,20.2128353 18.2726705,21.9147258 15.9043128,22.2821713 L15.9043128,22.2821713 Z" id="Fill-9"></path>
                            </g>
                        </g>
                    </g>
                </g>
            </g>
        </g>
    </g>
</svg>