<?xml version="1.0" encoding="UTF-8"?>
<!DOCTYPE svg PUBLIC "-//W3C//DTD SVG 1.1//EN" "http://www.w3.org/Graphics/SVG/1.1/DTD/svg11.dtd">
<svg version="1.1" xmlns="http://www.w3.org/2000/svg" xmlns:xlink="http://www.w3.org/1999/xlink" x="0" y="0" width="206.922" height="55.3" viewBox="0, 0, 206.922, 55.3">
  <g id="Layer_1">
    <path d="M141.511,15.1 C140.611,20.9 136.211,20.9 131.911,20.9 L129.511,20.9 L131.211,10.1 C131.311,9.4 131.911,9 132.511,9 L133.611,9 C136.511,9 139.311,9 140.711,10.7 C141.611,11.6 141.811,13.1 141.511,15.1 M139.711,-0 L123.611,-0 C122.511,-0 121.611,0.8 121.411,1.9 L114.911,43.2 C114.811,44 115.411,44.8 116.211,44.8 L124.511,44.8 C125.311,44.8 125.911,44.2 126.011,43.5 L127.811,31.8 C128.011,30.7 128.911,29.9 130.011,29.9 L135.111,29.9 C145.711,29.9 151.811,24.8 153.411,14.6 C154.111,10.2 153.411,6.7 151.311,4.2 C149.111,1.4 145.011,-0 139.711,-0" fill="#009CDE"/>
    <path d="M26.611,15.1 C25.711,20.9 21.311,20.9 17.011,20.9 L14.611,20.9 L16.311,10.1 C16.411,9.4 17.011,9 17.611,9 L18.711,9 C21.611,9 24.411,9 25.811,10.7 C26.711,11.6 26.911,13.1 26.611,15.1 M24.811,-0 L8.711,-0 C7.611,-0 6.711,0.8 6.511,1.9 L0.011,43.2 C-0.089,44 0.511,44.8 1.311,44.8 L9.011,44.8 C10.111,44.8 11.011,44 11.211,42.9 L13.011,31.8 C13.211,30.7 14.111,29.9 15.211,29.9 L20.311,29.9 C30.911,29.9 37.011,24.8 38.611,14.6 C39.311,10.2 38.611,6.7 36.511,4.2 C34.211,1.4 30.211,-0 24.811,-0" fill="#003087"/>
    <path d="M62.211,29.9 C61.511,34.3 58.011,37.3 53.511,37.3 C51.311,37.3 49.511,36.6 48.311,35.2 C47.211,33.9 46.711,31.9 47.111,29.8 C47.811,25.4 51.311,22.4 55.711,22.4 C57.911,22.4 59.711,23.1 60.811,24.5 C62.011,25.8 62.511,27.8 62.211,29.9 M72.911,14.9 L65.211,14.9 C64.511,14.9 64.011,15.4 63.911,16 L63.611,18.2 L63.111,17.4 C61.411,15 57.711,14.2 54.011,14.2 C45.511,14.2 38.211,20.7 36.811,29.7 C36.111,34.2 37.111,38.5 39.711,41.5 C42.111,44.3 45.411,45.4 49.411,45.4 C56.311,45.4 60.111,41 60.111,41 L59.811,43.1 C59.711,43.9 60.311,44.7 61.111,44.7 L68.011,44.7 C69.111,44.7 70.011,43.9 70.211,42.8 L74.411,16.4 C74.411,15.6 73.711,14.9 72.911,14.9" fill="#003087"/>
    <path d="M177.111,29.9 C176.411,34.3 172.911,37.3 168.411,37.3 C166.211,37.3 164.411,36.6 163.211,35.2 C162.111,33.9 161.611,31.9 162.011,29.8 C162.711,25.4 166.211,22.4 170.611,22.4 C172.811,22.4 174.611,23.1 175.711,24.5 C176.911,25.8 177.411,27.8 177.111,29.9 M187.811,14.9 L180.111,14.9 C179.411,14.9 178.911,15.4 178.811,16 L178.511,18.2 L178.011,17.4 C176.311,15 172.611,14.2 168.911,14.2 C160.411,14.2 153.111,20.7 151.711,29.7 C151.011,34.2 152.011,38.5 154.611,41.5 C157.011,44.3 160.311,45.4 164.311,45.4 C171.211,45.4 175.011,41 175.011,41 L174.711,43.1 C174.611,43.9 175.211,44.7 176.011,44.7 L182.911,44.7 C184.011,44.7 184.911,43.9 185.111,42.8 L189.311,16.4 C189.311,15.6 188.611,14.9 187.811,14.9" fill="#009CDE"/>
    <path d="M114.011,14.9 L106.211,14.9 C105.511,14.9 104.811,15.3 104.311,15.9 L93.611,31.7 L89.111,16.6 C88.811,15.7 87.911,15 87.011,15 L79.411,15 C78.511,15 77.811,15.9 78.111,16.8 L86.611,41.9 L78.611,53.2 C78.011,54.1 78.611,55.3 79.711,55.3 L87.411,55.3 C88.111,55.3 88.811,54.9 89.211,54.3 L115.011,17.1 C115.711,16.1 115.111,14.9 114.011,14.9" fill="#003087"/>
    <path d="M196.911,1.1 L190.311,43.2 C190.211,44 190.811,44.8 191.611,44.8 L198.211,44.8 C199.311,44.8 200.211,44 200.411,42.9 L206.911,1.6 C207.011,0.8 206.411,-0 205.611,-0 L198.211,-0 C197.611,-0 197.011,0.5 196.911,1.1" fill="#009CDE"/>
  </g>
</svg>
