<?xml version="1.0" encoding="UTF-8"?>
<!DOCTYPE svg PUBLIC "-//W3C//DTD SVG 1.1//EN" "http://www.w3.org/Graphics/SVG/1.1/DTD/svg11.dtd">
<svg version="1.1" xmlns="http://www.w3.org/2000/svg" xmlns:xlink="http://www.w3.org/1999/xlink" x="0" y="0" width="41" height="31" viewBox="0, 0, 41, 31">
  <g id="payment">
    <path d="M28,0 C35.222,1.228 40.724,7.593 40.724,15.258 C40.724,22.925 35.222,29.289 28,30.517 C33.309,27.556 36.906,21.833 36.906,15.258 C36.906,8.684 33.309,2.961 28,0 z" fill="#546979"/>
    <path d="M23,-0 C30.222,1.228 35.724,7.593 35.724,15.258 C35.724,22.925 30.222,29.289 23,30.517 C28.309,27.556 31.906,21.833 31.906,15.258 C31.906,8.684 28.309,2.961 23,-0 z" fill="#546979"/>
    <path d="M15.25,0 C23.672,0 30.5,6.828 30.5,15.25 C30.5,23.672 23.672,30.5 15.25,30.5 C6.827,30.5 0,23.672 0,15.25 C0,6.828 6.827,0 15.25,-0 z M15.25,5.903 L5.882,15.271 L8.224,15.271 L8.224,22.297 L22.276,22.297 L22.276,15.271 L24.618,15.271 L15.25,5.903 z" fill="#546979"/>
  </g>
</svg>
