<?xml version="1.0" encoding="UTF-8" standalone="no"?>
<svg width="47px" height="32px" viewBox="0 0 47 32" version="1.1" xmlns="http://www.w3.org/2000/svg" xmlns:xlink="http://www.w3.org/1999/xlink" xmlns:sketch="http://www.bohemiancoding.com/sketch/ns">
    <!-- Generator: Sketch 3.2.2 (9983) - http://www.bohemiancoding.com/sketch -->
    <title>Imported Layers</title>
    <desc>Created with Sketch.</desc>
    <defs></defs>
    <g id="payment" stroke="none" stroke-width="1" fill="none" fill-rule="evenodd" sketch:type="MSPage">
        <g id="Payment" sketch:type="MSArtboardGroup" transform="translate(-637.000000, -971.000000)" fill="#546979">
            <g id="content" sketch:type="MSLayerGroup" transform="translate(-37.000000, 228.000000)">
                <g id="cart" transform="translate(156.000000, 208.000000)" sketch:type="MSShapeGroup">
                    <g id="Group-2" transform="translate(36.000000, 448.000000)">
                        <g id="Pay-easy,-fast-and-s-+-Radio-Background-+-Radio-Circle-+-Radio-Label-2">
                            <path d="M526.437218,93.0540541 L482,93.0540541 L482,89.5945946 C482,88.1615135 483.148509,87 484.563636,87 L525.582673,87 C526.9978,87 528.146309,88.1615135 528.146309,89.5945946 L528.146309,93.0540541 L526.437218,93.0540541 L526.437218,93.0540541 Z M525.582673,118.13427 L484.563636,118.13427 C483.148509,118.13427 482,116.974486 482,115.539676 L482,98.2432432 L528.146309,98.2432432 L528.146309,115.539676 C528.146309,116.974486 526.996945,118.13427 525.582673,118.13427 L525.582673,118.13427 Z M487.127273,107.756757 L497.381818,107.756757 L497.381818,106.027027 L487.127273,106.027027 L487.127273,107.756757 Z M487.128127,112.945946 L504.218182,112.945946 L504.218182,111.216216 L487.128127,111.216216 L487.128127,112.945946 Z M523.017327,111.164324 C523.017327,110.237189 522.263618,109.485622 521.334727,109.485622 L517.866127,109.485622 C516.934673,109.485622 516.180964,110.237189 516.180964,111.164324 L516.180964,111.268108 C516.180964,112.195243 516.934673,112.945081 517.866127,112.945081 L521.334727,112.945081 C522.263618,112.945081 523.017327,112.194378 523.017327,111.268108 L523.017327,111.164324 L523.017327,111.164324 Z" id="Imported-Layers"></path>
                        </g>
                    </g>
                </g>
            </g>
        </g>
    </g>
</svg>