<?xml version="1.0" encoding="UTF-8"?>
<!DOCTYPE svg PUBLIC "-//W3C//DTD SVG 1.1//EN" "http://www.w3.org/Graphics/SVG/1.1/DTD/svg11.dtd">
<svg version="1.1" xmlns="http://www.w3.org/2000/svg" xmlns:xlink="http://www.w3.org/1999/xlink" x="0" y="0" width="85.714" height="18" viewBox="0, 0, 85.714, 18">
  <g id="payment">
    <g>
      <path d="M1.714,-0 C1.714,-0 24,-0 24,-0 C24.947,-0 25.714,0.768 25.714,1.714 C25.714,1.714 25.714,16.286 25.714,16.286 C25.714,17.232 24.947,18 24,18 C24,18 1.714,18 1.714,18 C0.768,18 0,17.232 0,16.286 C0,16.286 0,1.714 0,1.714 C0,0.768 0.768,-0 1.714,-0 z" fill="#FFFFFF" id="path-1"/>
      <path d="M5.571,7.714 C5.571,7.714 20.143,7.714 20.143,7.714 C20.38,7.714 20.571,7.906 20.571,8.143 C20.571,8.143 20.571,9.857 20.571,9.857 C20.571,10.094 20.38,10.286 20.143,10.286 C20.143,10.286 5.571,10.286 5.571,10.286 C5.335,10.286 5.143,10.094 5.143,9.857 C5.143,9.857 5.143,8.143 5.143,8.143 C5.143,7.906 5.335,7.714 5.571,7.714 z" fill="#0E528B" id="path-2"/>
      <path d="M1.5,-0 C1.5,-0 24.214,-0 24.214,-0 C25.043,-0 25.714,0.672 25.714,1.5 C25.714,1.5 25.714,5.143 25.714,5.143 C25.714,5.143 0,5.143 0,5.143 C0,5.143 0,1.5 0,1.5 C0,0.672 0.672,-0 1.5,-0 z" fill="#0E528B" id="path-3"/>
      <path d="M1.5,18 C1.5,18 24.214,18 24.214,18 C25.043,18 25.714,17.328 25.714,16.5 C25.714,16.5 25.714,12.857 25.714,12.857 C25.714,12.857 0,12.857 0,12.857 C0,12.857 0,16.5 0,16.5 C0,17.328 0.672,18 1.5,18 z" fill="#EB9607" id="path-4"/>
    </g>
    <g>
      <path d="M31.964,-0 C31.964,-0 54.25,-0 54.25,-0 C55.197,-0 55.964,0.768 55.964,1.714 C55.964,1.714 55.964,16.286 55.964,16.286 C55.964,17.232 55.197,18 54.25,18 C54.25,18 31.964,18 31.964,18 C31.018,18 30.25,17.232 30.25,16.286 C30.25,16.286 30.25,1.714 30.25,1.714 C30.25,0.768 31.018,-0 31.964,-0 z" fill="#68A0D9" id="path-1"/>
      <path d="M30.25,11.143 L47.393,11.143 L47.393,13.714 L30.25,13.714 z" fill="#FFFFFF" id="rect-1"/>
      <path d="M38.821,4.286 L55.964,4.286 L55.964,6.857 L38.821,6.857 z" fill="#FFFFFF" id="rect-2"/>
    </g>
    <g>
      <path d="M61.714,0 C61.714,0 84,0 84,0 C84.947,0 85.714,0.768 85.714,1.714 C85.714,1.714 85.714,16.286 85.714,16.286 C85.714,17.232 84.947,18 84,18 C84,18 61.714,18 61.714,18 C60.768,18 60,17.232 60,16.286 C60,16.286 60,1.714 60,1.714 C60,0.768 60.768,0 61.714,0 z" fill="#0C1357" id="path-1"/>
      <path d="M74.143,9 C74.143,11.84 71.84,14.143 69,14.143 C66.16,14.143 63.857,11.84 63.857,9 C63.857,6.16 66.16,3.857 69,3.857 C71.84,3.857 74.143,6.16 74.143,9 z" fill="#F00406" id="circle-1"/>
      <path d="M81.857,9 C81.857,11.84 79.555,14.143 76.714,14.143 C73.874,14.143 71.571,11.84 71.571,9 C71.571,6.16 73.874,3.857 76.714,3.857 C79.555,3.857 81.857,6.16 81.857,9 z" fill="#FB9902" id="circle-2"/>
      <path d="M66.429,7.714 L74.143,7.714 L74.143,10.286 L66.429,10.286 z" fill="#FFFFFF" id="rect-1"/>
      <path d="M75.429,7.714 L79.286,7.714 L79.286,10.286 L75.429,10.286 z" fill="#FFFFFF" id="rect-2"/>
    </g>
  </g>
</svg>
