<?xml version="1.0" encoding="UTF-8"?>
<svg width="47px" height="58px" viewBox="0 0 47 58" version="1.1" xmlns="http://www.w3.org/2000/svg" xmlns:xlink="http://www.w3.org/1999/xlink">
    <!-- Generator: sketchtool 53.2 (72643) - https://sketchapp.com -->
    <title>C29841FC-ADAF-4EB4-B9E3-FD98D1224713</title>
    <desc>Created with sketchtool.</desc>
    <defs>
        <rect id="path-1" x="0" y="0" width="5.10366826" height="2.54385965"></rect>
    </defs>
    <g id="Flows-v2" stroke="none" stroke-width="1" fill="none" fill-rule="evenodd">
        <g id="Membership---landing-full" transform="translate(-865.000000, -227.000000)">
            <g id="Group-5" transform="translate(178.000000, 108.000000)">
                <g id="Bitmap">
                    <g id="Group-3" transform="translate(73.000000, 119.000000)">
                        <g id="Illustrations/Piggybank" transform="translate(614.000000, 0.000000)">
                            <g id="Piggybank" transform="translate(-0.000000, 0.000000)">
                                <path d="M40.3189793,27.4736842 C42.5739218,27.4736842 44.4019139,25.6514046 44.4019139,23.4035088 C44.4019139,21.7707418 43.4374846,20.3625254 42.0455283,19.7140839" id="Oval-4" stroke="#F196AF" stroke-width="4" stroke-linecap="round" stroke-linejoin="round"></path>
                                <g id="Group" transform="translate(0.000000, 18.824561)" fill="#F5C2D0">
                                    <path d="M37.7671451,29.7586125 L37.7671451,35.0911255 C37.7671451,37.3468293 35.9345647,39.1754386 33.6842105,39.1754386 C31.429268,39.1754386 29.6012759,37.351292 29.6012759,35.0911255 L29.6012759,32.5328636 C29.2795373,32.5518012 28.9552817,32.5614035 28.6287759,32.5614035 L20.3664395,32.5614035 C20.0399392,32.5614035 19.7156834,32.5517984 19.3939394,32.5328552 L19.3939394,35.0911255 C19.3939394,37.3468293 17.5613589,39.1754386 15.3110048,39.1754386 C13.0560623,39.1754386 11.2280702,37.351292 11.2280702,35.0911255 L11.2280702,29.7583389 C8.2610056,27.7435253 5.99431767,24.7748575 4.86886599,21.2926513 C4.61445319,21.3423697 4.35167289,21.3684211 4.08293461,21.3684211 C1.82799209,21.3684211 0,19.5492566 0,17.2883113 L0,15.2730922 C0,13.0197098 1.83258044,11.1929825 4.08293461,11.1929825 C4.35182784,11.1929825 4.61464999,11.2188503 4.8690254,11.2682505 C6.98258139,4.72931237 13.1203837,0 20.3664395,0 L28.6287759,0 C37.6219073,0 44.9122807,7.28714146 44.9122807,16.2807018 C44.9122807,21.8861868 42.0799475,26.8300158 37.7671451,29.7586125 Z" id="Combined-Shape"></path>
                                </g>
                                <g id="Eye" transform="translate(9.696970, 27.473684)">
                                    <mask id="mask-2" fill="white">
                                        <use xlink:href="#path-1"></use>
                                    </mask>
                                    <g id="Rectangle-6"></g>
                                    <rect id="Rectangle-5" fill="#4B1B28" mask="url(#mask-2)" x="0" y="0" width="5.10366826" height="5.0877193" rx="2.54385965"></rect>
                                </g>
                                <path d="M7.14513557,14.754386 L12.519687,14.754386 C15.4706283,14.754386 17.8628389,17.1521314 17.8628389,20.0964912 L17.8628389,20.0964912 C17.8628389,23.0468545 15.470917,25.4385965 12.519687,25.4385965 L12.4882875,25.4385965 C9.53734617,25.4385965 7.14513557,23.0408511 7.14513557,20.0964912 L7.14513557,14.754386 Z" id="Rectangle-7" fill="#F196AF"></path>
                                <path d="M20.414673,18.8245614 L28.5805423,18.8245614 L28.5805423,20.0964912 C28.5805423,20.7989587 28.019269,21.3684211 27.3046252,21.3684211 L21.6905901,21.3684211 C20.9859206,21.3684211 20.414673,20.8038561 20.414673,20.0964912 L20.414673,18.8245614 Z" id="Rectangle-8" fill="#4B1B28"></path>
                                <rect id="Rectangle-9" fill="#E8E8E8" x="20.414673" y="8.14035088" width="1.53110048" height="5.0877193" rx="0.765550239"></rect>
                                <rect id="Rectangle-9" fill="#E8E8E8" x="23.476874" y="0" width="1.53110048" height="7.63157895" rx="0.765550239"></rect>
                                <rect id="Rectangle-9" fill="#E8E8E8" x="26.539075" y="5.59649123" width="1.53110048" height="7.12280702" rx="0.765550239"></rect>
                                <rect id="Rectangle-9" fill="#E8E8E8" x="20.414673" y="3.05263158" width="1.53110048" height="4.07017544" rx="0.765550239"></rect>
                                <rect id="Rectangle-9" fill="#E8E8E8" x="26.539075" y="3.05263158" width="1.53110048" height="1.52631579" rx="0.763157895"></rect>
                                <ellipse id="Oval-2" fill="#F7A700" cx="24.4976077" cy="12.7192982" rx="4.08293461" ry="4.07017544"></ellipse>
                                <rect id="Rectangle-1" x="4.08293461" y="18.8245614" width="40.8293461" height="32.5614035" rx="16.2807018"></rect>
                                <ellipse id="Oval-5" fill="#FFA2BB" cx="11.738437" cy="36.122807" rx="3.06220096" ry="3.05263158"></ellipse>
                                <ellipse id="Oval-6" fill="#FFFFFF" cx="36.7464115" cy="25.4385965" rx="1.53110048" ry="1.52631579"></ellipse>
                                <ellipse id="Oval-6" fill="#FFFFFF" cx="39.553429" cy="28.2368421" rx="1" ry="1"></ellipse>
                            </g>
                        </g>
                    </g>
                </g>
            </g>
        </g>
    </g>
</svg>