<?xml version="1.0" encoding="UTF-8" standalone="no"?>
<svg width="109px" height="109px" viewBox="0 0 109 109" version="1.1" xmlns="http://www.w3.org/2000/svg" xmlns:xlink="http://www.w3.org/1999/xlink">
    <!-- Generator: Sketch 3.8.3 (29802) - http://www.bohemiancoding.com/sketch -->
    <title>Fill 709</title>
    <desc>Created with Sketch.</desc>
    <defs></defs>
    <g id="Rate-Products" stroke="none" stroke-width="1" fill="none" fill-rule="evenodd" opacity="0.5">
        <g id="mobi-lf-rate_product-empty" transform="translate(-106.000000, -200.000000)" fill="#DEDEDF">
            <g id="Fill-709" transform="translate(106.000000, 200.000000)">
                <path d="M83.5666667,18.324535 L54.5,18.324535 L54.5,10.8998183 C54.5,6.825035 57.6918833,3.63315167 61.7666667,3.63315167 L76.3,3.63315167 C80.3747833,3.63315167 83.5666667,6.825035 83.5666667,10.8998183 L83.5666667,18.324535 Z M32.7,105.366485 L3.63333333,105.366485 L3.63333333,21.9578683 L14.5333333,21.9578683 L14.5333333,90.0810517 L7.79895,96.815435 C7.08863333,97.5257517 7.08863333,98.673885 7.79895,99.3842017 C8.50926667,100.094518 9.6574,100.094518 10.3677167,99.3842017 L16.35,93.4019183 L22.3322833,99.3842017 C22.6865333,99.7384517 23.1516,99.916485 23.6166667,99.916485 C24.0817333,99.916485 24.5468,99.7384517 24.90105,99.3842017 C25.6113667,98.673885 25.6113667,97.5257517 24.90105,96.815435 L18.1666667,90.0810517 L18.1666667,21.9578683 L32.7,21.9578683 L32.7,105.366485 Z M87.2,18.324535 L87.2,10.8998183 C87.2,4.78855167 82.4112667,-0.000181666667 76.3,-0.000181666667 L61.7666667,-0.000181666667 C55.6554,-0.000181666667 50.8666667,4.78855167 50.8666667,10.8998183 L50.8666667,18.324535 L36.3333333,18.324535 L36.3333333,10.8998183 C36.3333333,6.825035 39.5252167,3.63315167 43.6,3.63315167 L47.2333333,3.63315167 C48.2361333,3.63315167 49.05,2.82110167 49.05,1.816485 C49.05,0.811868333 48.2361333,-0.000181666667 47.2333333,-0.000181666667 L43.6,-0.000181666667 C37.4887333,-0.000181666667 32.7,4.78855167 32.7,10.8998183 L32.7,18.324535 L17.0803,18.324535 C16.8550333,18.226435 16.6116,18.166485 16.35,18.166485 C16.0884,18.166485 15.8449667,18.226435 15.6197,18.324535 L0,18.324535 L0,108.999818 L33.8844667,108.999818 L36.3333333,108.999818 L109,108.999818 L109,18.324535 L87.2,18.324535 Z M80.8988222,62.067786 C80.8988222,62.067786 80.3327968,65.1317713 78.3992542,66.970766 C78.3992542,66.970766 69.3247356,75.0086358 69.0515341,77 C69.0515341,77 66.0417885,72.2026227 61.4184934,68.9032944 C61.4184934,68.9032944 57.0095332,65.5089236 57.0095332,61.1716722 C57.0095332,61.1716722 56.6065231,56.3154591 61.0411432,54.5715068 C61.0411432,54.5715068 65.9285835,52.4021268 69.0515341,56.8344207 C69.0515341,56.8344207 70.5699914,53.6044883 75.2868694,54.0404764 C75.28536,54.0404764 81.8889892,54.8068499 80.8988222,62.067786 L80.8988222,62.067786 Z"></path>
            </g>
        </g>
    </g>
</svg>