<?xml version="1.0" encoding="UTF-8"?>
<svg width="53px" height="53px" viewBox="0 0 53 53" version="1.1" xmlns="http://www.w3.org/2000/svg" xmlns:xlink="http://www.w3.org/1999/xlink">
    <!-- Generator: sketchtool 53.2 (72643) - https://sketchapp.com -->
    <title>30149695-AD5D-4096-809D-5418174333DE</title>
    <desc>Created with sketchtool.</desc>
    <g id="Flows-v2" stroke="none" stroke-width="1" fill="none" fill-rule="evenodd">
        <g id="Membership---landing-full" transform="translate(-609.000000, -232.000000)">
            <g id="Group-5" transform="translate(178.000000, 108.000000)">
                <g id="Bitmap">
                    <g id="Group-3" transform="translate(73.000000, 119.000000)">
                        <g id="Illustrations/Thumbs-Up" transform="translate(358.000000, 5.000000)">
                            <g id="Thumbs-Up">
                                <rect id="Rectangle-135" fill="#E0F5DC" x="0" y="0" width="53" height="53" rx="26.5"></rect>
                                <g id="Group-2" transform="translate(11.081818, 11.081818)">
                                    <g id="Group" transform="translate(7.914744, 9.636364)" fill="#FCC492">
                                        <path d="M0.0712365591,8.59663675 C0.0712365591,3.8967894 3.89461774,0.0868103448 8.58961587,0.0868103448 L17.1079952,0.0868103448 L17.1079952,20.935 L8.58961587,20.935 C3.88504488,20.935 0.0712365591,17.1232484 0.0712365591,12.4251736 L0.0712365591,8.59663675 Z" id="Rectangle-144"></path>
                                        <rect id="Rectangle-139" x="10.7192107" y="0.0822413793" width="10.6479741" height="5.34568966" rx="2.67284483"></rect>
                                        <rect id="Rectangle-139" x="11.2516094" y="5.16293103" width="11.7127716" height="5.34568966" rx="2.67284483"></rect>
                                        <rect id="Rectangle-139" x="11.2516094" y="10.5086207" width="10.6479741" height="5.34568966" rx="2.67284483"></rect>
                                        <rect id="Rectangle-139" x="11.2516094" y="15.5893103" width="8.51837931" height="5.34568966" rx="2.67284483"></rect>
                                    </g>
                                    <rect id="Rectangle-10" fill="#FCC492" x="3.19439224" y="11.8614498" width="10.1155754" height="16.5716379"></rect>
                                    <rect id="Rectangle-10" fill="#000000" opacity="0.0799999982" x="1.54181818" y="11.8523119" width="5.85638578" height="16.5704497"></rect>
                                    <rect id="Rectangle-10" fill="#5AAD50" x="0" y="10.7923119" width="5.85638578" height="18.7099138"></rect>
                                    <g id="Group-7" transform="translate(9.010000, 0.096364)">
                                        <path d="M0,15.9698869 C0,15.9698869 1.05691579,14.7281031 1.13947209,13.5761265 C1.25729568,11.9320363 2.42255092,9.72233329 2.79454545,7.37181818 C3.36108946,3.7920069 3.17172657,0.193626517 3.17172657,0.193626517 C3.17172657,0.193626517 6.84857996,-0.932623336 8.31697189,2.24737652 C9.78536382,5.42737637 7.60039663,12.7898868 7.60039663,12.7898868 L8.31697189,16.6236268 L1.13947214,15.9698868 L0,15.9698869 Z" id="Path-9" fill="#FCC492"></path>
                                        <path d="M3.26431818,0.385454545 C3.26431818,0.385454545 5.08619318,0.041086682 5.47265152,0.7184245 C5.85910985,1.39576232 5.70452652,3.03266215 5.70452652,3.03266215 L5.70452643,4.04099121 L3.26431818,3.65355517 L3.26431818,0.385454545 Z" id="Path-9" fill="#F0BB8A"></path>
                                    </g>
                                </g>
                            </g>
                        </g>
                    </g>
                </g>
            </g>
        </g>
    </g>
</svg>